<svg id="icon" height="512" viewBox="0 0 128 128" width="512" xmlns="http://www.w3.org/2000/svg"><circle cx="38.729" cy="48.689" fill="#ffc943" r="26.127"/><g opacity=".5"><circle cx="32.637" cy="42.267" fill="#ffe75a" r="11.737"/></g><path d="m64.861 48.692a26.131 26.131 0 0 1 -47.888 14.46 26.131 26.131 0 0 0 38.255-34.723 26.064 26.064 0 0 1 9.633 20.263z" fill="#f7b521"/><g fill="#2f3a5a"><path d="m38.729 75.816a27.127 27.127 0 1 1 27.127-27.127 27.158 27.158 0 0 1 -27.127 27.127zm0-52.254a25.127 25.127 0 1 0 25.127 25.127 25.155 25.155 0 0 0 -25.127-25.127z"/><path d="m38.729 18.283a1 1 0 0 1 -1-1v-6.323a1 1 0 0 1 2 0v6.323a1 1 0 0 1 -1 1z"/><path d="m38.729 87.417a1 1 0 0 1 -1-1v-6.323a1 1 0 0 1 2 0v6.323a1 1 0 0 1 -1 1z"/><path d="m76.458 49.689h-6.324a1 1 0 0 1 0-2h6.324a1 1 0 0 1 0 2z"/><path d="m7.323 49.689h-6.323a1 1 0 0 1 0-2h6.323a1 1 0 0 1 0 2z"/></g><path d="m60.936 26.482 4.471-4.472" fill="#ffc943"/><path d="m60.936 27.481a1 1 0 0 1 -.707-1.707l4.471-4.474a1 1 0 1 1 1.414 1.414l-4.471 4.471a.993.993 0 0 1 -.707.296z" fill="#2f3a5a"/><path d="m12.051 75.367 4.471-4.471" fill="#ffc943"/><path d="m12.051 76.367a1 1 0 0 1 -.707-1.707l4.471-4.471a1 1 0 1 1 1.414 1.411l-4.471 4.471a.993.993 0 0 1 -.707.296z" fill="#2f3a5a"/><path d="m60.936 70.896 4.471 4.471" fill="#ffc943"/><path d="m65.407 76.367a1 1 0 0 1 -.707-.293l-4.471-4.474a1 1 0 1 1 1.414-1.414l4.471 4.471a1 1 0 0 1 -.707 1.707z" fill="#2f3a5a"/><path d="m12.051 22.01 4.471 4.472" fill="#ffc943"/><path d="m16.522 27.481a.993.993 0 0 1 -.707-.293l-4.471-4.471a1 1 0 1 1 1.414-1.417l4.471 4.471a1 1 0 0 1 -.707 1.707z" fill="#2f3a5a"/><path d="m26.711 19.674-2.42-5.842" fill="#ffc943"/><path d="m26.711 20.674a1 1 0 0 1 -.924-.617l-2.42-5.843a1 1 0 1 1 1.847-.765l2.42 5.842a1 1 0 0 1 -.541 1.307 1.012 1.012 0 0 1 -.382.076z" fill="#2f3a5a"/><path d="m53.167 83.546-2.42-5.842" fill="#ffc943"/><path d="m53.167 84.546a1 1 0 0 1 -.924-.617l-2.42-5.843a1 1 0 0 1 1.848-.765l2.42 5.842a1 1 0 0 1 -.541 1.307 1.017 1.017 0 0 1 -.383.076z" fill="#2f3a5a"/><path d="m67.744 36.67 5.842-2.419" fill="#ffc943"/><path d="m67.744 37.671a1 1 0 0 1 -.383-1.924l5.842-2.42a1 1 0 1 1 .766 1.847l-5.843 2.42a.991.991 0 0 1 -.382.077z" fill="#2f3a5a"/><path d="m3.872 63.127 5.842-2.42" fill="#ffc943"/><path d="m3.873 64.127a1 1 0 0 1 -.384-1.927l5.842-2.42a1 1 0 1 1 .766 1.848l-5.842 2.42a.993.993 0 0 1 -.382.079z" fill="#2f3a5a"/><path d="m50.747 19.674 2.42-5.842" fill="#ffc943"/><path d="m50.747 20.674a1.017 1.017 0 0 1 -.383-.076 1 1 0 0 1 -.541-1.307l2.42-5.842a1 1 0 0 1 1.848.765l-2.42 5.843a1 1 0 0 1 -.924.617z" fill="#2f3a5a"/><path d="m24.291 83.546 2.42-5.842" fill="#ffc943"/><path d="m24.29 84.546a1.012 1.012 0 0 1 -.382-.076 1 1 0 0 1 -.541-1.307l2.42-5.842a1 1 0 1 1 1.847.765l-2.42 5.843a1 1 0 0 1 -.924.617z" fill="#2f3a5a"/><path d="m67.744 60.707 5.842 2.42" fill="#ffc943"/><path d="m73.585 64.127a1 1 0 0 1 -.382-.076l-5.842-2.42a1 1 0 0 1 .765-1.848l5.843 2.42a1 1 0 0 1 -.384 1.924z" fill="#2f3a5a"/><path d="m3.872 34.251 5.842 2.419" fill="#ffc943"/><path d="m9.713 37.671a1 1 0 0 1 -.382-.077l-5.842-2.42a1 1 0 1 1 .766-1.847l5.842 2.42a1 1 0 0 1 -.384 1.924z" fill="#2f3a5a"/><path d="m110.384 72.094a22.909 22.909 0 1 0 -39.71-22.837 24.51 24.51 0 0 0 -43.762 11.158 28.364 28.364 0 1 0 24.246 46.41 28.349 28.349 0 0 0 38.279 4.92 22.914 22.914 0 1 0 20.947-39.651z" fill="#e1e6e9"/><path d="m127 94.111a22.905 22.905 0 0 1 -37.56 17.631 28.34 28.34 0 0 1 -38.28-4.911 28.368 28.368 0 0 1 -49.625-23.631 28.361 28.361 0 0 0 49.625 12.709 28.341 28.341 0 0 0 38.28 4.912 22.9 22.9 0 0 0 36.893-12.177 22.7 22.7 0 0 1 .667 5.467z" fill="#bac2d3"/><path d="m104.079 118.036a23.955 23.955 0 0 1 -14.679-5.042 29.35 29.35 0 0 1 -38.236-4.643 29.364 29.364 0 1 1 -25.111-48.851 25.7 25.7 0 0 1 25.106-20.939 25.333 25.333 0 0 1 19.388 8.947 23.908 23.908 0 0 1 41.317 24 23.912 23.912 0 0 1 -7.785 46.524zm-14.641-7.29a1 1 0 0 1 .639.231 21.914 21.914 0 1 0 20.032-37.922 1 1 0 0 1 -.582-1.477 21.908 21.908 0 1 0 -37.977-21.838 1 1 0 0 1 -1.671.123 23.384 23.384 0 0 0 -18.72-9.3 23.68 23.68 0 0 0 -23.258 20 1 1 0 0 1 -.9.847 27.363 27.363 0 1 0 23.393 44.773 1 1 0 0 1 .768-.36 1 1 0 0 1 .768.36 27.35 27.35 0 0 0 36.928 4.748 1 1 0 0 1 .58-.185z" fill="#2f3a5a"/></svg>