<svg id="icon" height="512" viewBox="0 0 128 128" width="512" xmlns="http://www.w3.org/2000/svg"><path d="m113.618 23.226a361.628 361.628 0 0 0 -86.912 0 15.138 15.138 0 0 0 -13.382 15v38.587a15.09 15.09 0 0 0 15.09 15.087h83.5a15.09 15.09 0 0 0 15.086-15.087v-38.588a15.138 15.138 0 0 0 -13.382-14.999z" fill="#e1e6e9"/><path d="m13.324 73.528v3.285a15.09 15.09 0 0 0 15.09 15.087h83.5a15.09 15.09 0 0 0 15.086-15.087v-3.285z" fill="#bac2d3"/><path d="m111.91 92.9h-83.5a16.108 16.108 0 0 1 -16.09-16.09v-38.585a16.16 16.16 0 0 1 14.266-15.992 364.449 364.449 0 0 1 87.152 0 16.16 16.16 0 0 1 14.262 15.992v38.588a16.108 16.108 0 0 1 -16.09 16.087zm-41.748-71.282a362.047 362.047 0 0 0 -43.337 2.6 14.158 14.158 0 0 0 -12.5 14.006v38.589a14.106 14.106 0 0 0 14.089 14.087h83.5a14.106 14.106 0 0 0 14.086-14.087v-38.588a14.159 14.159 0 0 0 -12.5-14.006 362.047 362.047 0 0 0 -43.338-2.601z" fill="#2f3a5a"/><rect fill="#6bb3d9" height="23.681" rx="7.705" width="50.013" x="63.747" y="36.269"/><path d="m55.026 43.974v8.271a7.707 7.707 0 0 1 -7.705 7.705h-12.952a6.854 6.854 0 0 1 -1.335-.128 7.706 7.706 0 0 1 -6.37-7.577v-8.271a7.707 7.707 0 0 1 7.7-7.7h12.957a6.471 6.471 0 0 1 1.123.1 6.721 6.721 0 0 1 1.795.481 7.7 7.7 0 0 1 4.787 7.128z" fill="#6bb3d9"/><path d="m93.076 92.9h-92.076a1 1 0 0 1 0-2h92.076a1 1 0 0 1 0 2z" fill="#2f3a5a"/><circle cx="70.162" cy="94.045" fill="#84879c" r="13.35"/><path d="m70.162 108.4a14.351 14.351 0 1 1 14.35-14.351 14.367 14.367 0 0 1 -14.35 14.351zm0-26.7a12.351 12.351 0 1 0 12.35 12.35 12.364 12.364 0 0 0 -12.35-12.356z" fill="#2f3a5a"/><circle cx="70.162" cy="94.045" fill="#dbe2eb" r="4.73"/><path d="m70.162 99.775a5.731 5.731 0 1 1 5.73-5.731 5.737 5.737 0 0 1 -5.73 5.731zm0-9.461a3.731 3.731 0 1 0 3.73 3.73 3.735 3.735 0 0 0 -3.73-3.73z" fill="#2f3a5a"/><g fill="#fff" opacity=".5"><path d="m94.385 36.269-15.549 23.681h-6.797l15.539-23.681z"/><path d="m99.91 36.269-15.56 23.681h-3.398l15.559-23.681z"/></g><g fill="#fff" opacity=".5"><path d="m48.444 36.365-15.41 23.457a7.584 7.584 0 0 1 -4.841-2.982l13.507-20.571h5.621a6.471 6.471 0 0 1 1.123.096z"/><path d="m52.633 38.4-14.16 21.55h-3.409l15.175-23.1a7.619 7.619 0 0 1 2.394 1.55z"/></g><g fill="#2f3a5a"><path d="m47.325 60.945h-12.958a8.713 8.713 0 0 1 -8.7-8.7v-8.271a8.713 8.713 0 0 1 8.7-8.7h12.958a8.713 8.713 0 0 1 8.7 8.7v8.268a8.713 8.713 0 0 1 -8.7 8.703zm-12.958-23.674a6.709 6.709 0 0 0 -6.7 6.7v8.268a6.71 6.71 0 0 0 6.7 6.7h12.958a6.711 6.711 0 0 0 6.7-6.7v-8.265a6.71 6.71 0 0 0 -6.7-6.7z"/><path d="m106.058 60.945h-34.605a8.713 8.713 0 0 1 -8.7-8.7v-8.271a8.713 8.713 0 0 1 8.7-8.7h34.605a8.713 8.713 0 0 1 8.7 8.7v8.268a8.713 8.713 0 0 1 -8.7 8.703zm-34.605-23.674a6.71 6.71 0 0 0 -6.7 6.7v8.268a6.711 6.711 0 0 0 6.7 6.7h34.605a6.711 6.711 0 0 0 6.7-6.7v-8.265a6.71 6.71 0 0 0 -6.7-6.7z"/></g></svg>