<svg id="icon" height="512" viewBox="0 0 128 128" width="512" xmlns="http://www.w3.org/2000/svg"><ellipse cx="63.998" cy="81.75" fill="#e39ca5" rx="62.998" ry="12.13"/><path d="m127 81.748c0 6.7-28.2 12.135-63.006 12.135-31.6 0-57.778-4.48-62.3-10.328 11.366 3.165 30.343 5.239 51.845 5.239 34.8 0 63.006-5.431 63.006-12.124a2.944 2.944 0 0 0 -.695-1.818c7.034 1.967 11.15 4.341 11.15 6.896z" fill="#db919a"/><path d="m64 94.88c-31.025 0-64-4.6-64-13.13s32.974-13.13 64-13.13 64 4.6 64 13.13-32.977 13.13-64 13.13zm0-24.26c-36.537 0-62 5.865-62 11.13s25.462 11.13 62 11.13 62-5.866 62-11.13-25.465-11.13-62-11.13z" fill="#2f3a5a"/><path d="m102.222 77.613c-.811-24.183-12.566-43.5-38.224-43.5-23.947 0-37.412 19.313-38.223 43.5q33.554 8.274 76.447 0z" fill="#e39ca5"/><path d="m102.217 77.61a209.744 209.744 0 0 1 -44.959 4.085 220.283 220.283 0 0 0 36.106-4.085c-.759-22.698-11.164-41.11-33.657-43.279a42.916 42.916 0 0 1 4.287-.214c25.66 0 37.421 19.309 38.223 43.493z" fill="#db919a"/><path d="m61.674 82.73a150.756 150.756 0 0 1 -36.138-4.147 1 1 0 0 1 -.761-1c.906-27.013 16.302-44.466 39.225-44.466 23.626 0 38.289 16.622 39.222 44.462a1 1 0 0 1 -.81 1.016 215.579 215.579 0 0 1 -40.738 4.135zm-34.868-5.9c21.72 5.21 46.737 5.195 74.383-.042-1.159-26.112-15.016-41.671-37.189-41.671-21.52 0-36.052 16.344-37.194 41.717z" fill="#2f3a5a"/><path d="m102.217 77.613q-42.885 8.275-76.446 0a62.7 62.7 0 0 1 1.1-9.868q32.749 7.779 74.329-.075a69.07 69.07 0 0 1 1.017 9.943z" fill="#dbe2eb"/><path d="m61.671 82.732a150.713 150.713 0 0 1 -36.139-4.148 1 1 0 0 1 -.761-1.005 63.97 63.97 0 0 1 1.12-10.026 1 1 0 0 1 1.213-.781c21.6 5.132 46.472 5.1 73.912-.084a1 1 0 0 1 1.17.808 70.305 70.305 0 0 1 1.03 10.086 1 1 0 0 1 -.81 1.013 215.478 215.478 0 0 1 -40.735 4.137zm-34.871-5.897c21.723 5.211 46.736 5.2 74.383-.043a68.509 68.509 0 0 0 -.8-7.952c-26.89 4.972-51.348 5.012-72.721.117a62.175 62.175 0 0 0 -.862 7.878z" fill="#2f3a5a"/><path d="m89.5 75.532a3.439 3.439 0 0 0 -3.439-3.439h-.249l.176-.176a3.439 3.439 0 0 0 -4.863-4.864l-.176.176v-.248a3.439 3.439 0 0 0 -6.878 0v.248l-.176-.176a3.439 3.439 0 0 0 -4.863 4.864l.176.176h-.249a3.439 3.439 0 1 0 0 6.877h.241l-.176.176a3.439 3.439 0 0 0 4.866 4.864l.176-.176v.249a3.439 3.439 0 0 0 6.878 0v-.249l.176.176a3.439 3.439 0 0 0 4.863-4.864l-.176-.176h.249a3.439 3.439 0 0 0 3.444-3.438z" fill="#ffc943"/><path d="m77.505 88.521a4.447 4.447 0 0 1 -4.172-2.921 4.442 4.442 0 0 1 -5.9-5.9 4.44 4.44 0 0 1 0-8.342 4.442 4.442 0 0 1 5.9-5.9 4.44 4.44 0 0 1 8.341 0 4.441 4.441 0 0 1 5.9 5.9 4.44 4.44 0 0 1 0 8.342 4.441 4.441 0 0 1 -5.9 5.9 4.446 4.446 0 0 1 -4.169 2.921zm-3.439-5.687a1 1 0 0 1 1 1v.249a2.439 2.439 0 0 0 4.878 0v-.249a1 1 0 0 1 1.707-.707l.176.176a2.439 2.439 0 0 0 3.449-3.449l-.176-.176a1 1 0 0 1 .707-1.707h.249a2.439 2.439 0 1 0 0-4.878h-.249a1 1 0 0 1 -.707-1.707l.176-.176a2.443 2.443 0 0 0 0-3.45 2.5 2.5 0 0 0 -3.449 0l-.176.176a1 1 0 0 1 -1.707-.707v-.249a2.439 2.439 0 0 0 -4.878 0v.249a1 1 0 0 1 -1.707.707l-.176-.176a2.5 2.5 0 0 0 -3.449 0 2.443 2.443 0 0 0 0 3.45l.176.176a1 1 0 0 1 -.707 1.707h-.249a2.439 2.439 0 1 0 0 4.878h.246a1 1 0 0 1 .707 1.707l-.176.176a2.439 2.439 0 0 0 3.452 3.446l.176-.176a1 1 0 0 1 .707-.29z" fill="#2f3a5a"/><path d="m77.505 71.177a4.355 4.355 0 1 0 4.354 4.355 4.355 4.355 0 0 0 -4.354-4.355z" fill="#84879c"/><path d="m77.505 80.886a5.355 5.355 0 1 1 5.354-5.354 5.361 5.361 0 0 1 -5.354 5.354zm0-8.709a3.355 3.355 0 1 0 3.354 3.355 3.359 3.359 0 0 0 -3.354-3.355z" fill="#2f3a5a"/></svg>