<svg id="icon" height="512" viewBox="0 0 128 128" width="512" xmlns="http://www.w3.org/2000/svg"><path d="m118.513 62.117 4.024-2.259-21.265-28.817a4.769 4.769 0 0 0 -5.838-2.271l-8.785 2.946a3.8 3.8 0 0 0 5.051 2.941l3.595-1.482c1.329-.512 2.008-.035 3.064 1.022z" fill="#84879c"/><path d="m118.514 63.117a1 1 0 0 1 -.812-.414l-20.11-27.855c-.986-.98-1.241-1.008-1.941-.74l-3.573 1.474a4.679 4.679 0 0 1 -4.21-.418 4.478 4.478 0 0 1 -2.216-3.37 1 1 0 0 1 .679-1.026l8.784-2.946a5.791 5.791 0 0 1 7.013 2.7l21.213 28.742a1 1 0 0 1 -.316 1.465l-4.025 2.26a.989.989 0 0 1 -.486.128zm-22.242-31.147a3.97 3.97 0 0 1 2.791 1.521.915.915 0 0 1 .1.121l19.635 27.2 2.258-1.268-20.588-27.909a3.81 3.81 0 0 0 -4.75-1.906l-7.855 2.634a2.864 2.864 0 0 0 1.052 1.1 2.64 2.64 0 0 0 2.4.274l3.595-1.482a3.769 3.769 0 0 1 1.362-.285z" fill="#2f3a5a"/><path d="m9.4 61.694-4.022-2.258 21.264-28.818a4.769 4.769 0 0 1 5.838-2.271l8.785 2.946a3.8 3.8 0 0 1 -5.048 2.941l-3.594-1.481c-1.33-.512-2.008-.036-3.064 1.022z" fill="#84879c"/><path d="m9.4 62.694a.989.989 0 0 1 -.488-.128l-4.023-2.258a1 1 0 0 1 -.316-1.466l21.265-28.818a5.741 5.741 0 0 1 6.927-2.635l8.818 2.956a1 1 0 0 1 .68 1.027 4.478 4.478 0 0 1 -2.218 3.37 4.68 4.68 0 0 1 -4.209.417l-3.594-1.482c-.684-.263-.938-.228-1.92.749l-20.11 27.854a1 1 0 0 1 -.812.414zm-2.546-3.576 2.259 1.268 19.635-27.2a.984.984 0 0 1 .1-.121c1.121-1.122 2.208-1.99 4.131-1.249l3.621 1.494a2.648 2.648 0 0 0 2.4-.273 2.884 2.884 0 0 0 1.053-1.1l-7.891-2.637a3.756 3.756 0 0 0 -4.664 1.84z" fill="#2f3a5a"/><path d="m127 73.83a26.078 26.078 0 0 1 -26.08 26.08 20.835 20.835 0 0 1 -10.12-2.95c-.84-.48-1.68-1-2.5-1.57a36.392 36.392 0 0 1 -3.38-2.65 42.235 42.235 0 0 1 -4.15-4.2c-5.97-6.85-10.09-15.65-10.09-23.01 0-14.4 15.83-17.78 30.24-17.78a25.947 25.947 0 0 1 10.21 2.08 25.656 25.656 0 0 1 5.15 2.93 26.285 26.285 0 0 1 5.22 5.06 25.891 25.891 0 0 1 5.5 16.01z" fill="#84879c"/><path d="m57.32 65.53c0 14.41-15.83 34.38-30.24 34.38a25.886 25.886 0 0 1 -12.54-3.21 24.7 24.7 0 0 1 -2.49-1.56 24.957 24.957 0 0 1 -3.3-2.77 25.509 25.509 0 0 1 -3.77-4.69 26.082 26.082 0 0 1 22.1-39.93 74.429 74.429 0 0 1 8.83.49 47.757 47.757 0 0 1 6.51 1.19 31.414 31.414 0 0 1 4.33 1.45 20.449 20.449 0 0 1 2.7 1.31c4.74 2.71 7.87 6.94 7.87 13.34z" fill="#84879c"/><g fill="#e1e6e9" opacity=".25"><path d="m116.28 52.76-31.36 39.98a42.235 42.235 0 0 1 -4.15-4.2l30.36-38.71a25.656 25.656 0 0 1 5.15 2.93z"/><path d="m121.5 57.82-30.7 39.14c-.84-.48-1.68-1-2.5-1.57l31.23-39.82a24.78 24.78 0 0 1 1.97 2.25z"/></g><g fill="#e1e6e9" opacity=".25"><path d="m42.42 49.43-33.67 42.94a25.509 25.509 0 0 1 -3.77-4.69l30.93-39.44a47.757 47.757 0 0 1 6.51 1.19z"/><path d="m49.45 52.19-34.91 44.51a24.7 24.7 0 0 1 -2.49-1.56l34.7-44.26a20.449 20.449 0 0 1 2.7 1.31z"/></g><g fill="#2f3a5a"><path d="m100.916 100.914c-15.079 0-31.231-20.766-31.231-35.38 0-12.291 10.8-18.788 31.231-18.788a27.084 27.084 0 1 1 0 54.168zm0-52.168c-13.335 0-29.231 2.913-29.231 16.788 0 13.788 15.118 33.38 29.231 33.38a25.084 25.084 0 1 0 0-50.168z"/><path d="m27.084 100.914a27.084 27.084 0 0 1 0-54.168c20.432 0 31.231 6.5 31.231 18.788 0 14.614-16.152 35.38-31.231 35.38zm0-52.168a25.084 25.084 0 0 0 0 50.168c14.113 0 29.231-19.592 29.231-33.38 0-13.875-15.896-16.788-29.231-16.788z"/><path d="m30.036 46.798h65.801v2h-65.801z"/><path d="m56.656 61.8a1 1 0 0 1 -.877-1.479 8.8 8.8 0 0 1 7.564-4.241 10.03 10.03 0 0 1 8.833 4.166 1 1 0 1 1 -1.666 1.107 7.979 7.979 0 0 0 -7.08-3.274 6.835 6.835 0 0 0 -5.9 3.2 1 1 0 0 1 -.874.521z"/></g></svg>