<svg id="icon" height="512" viewBox="0 0 128 128" width="512" xmlns="http://www.w3.org/2000/svg"><path d="m63.554 14.64 3.373-7.64 3.721 7.7z" fill="#dbe2eb"/><path d="m70.648 15.7h-.008l-7.095-.059a1 1 0 0 1 -.906-1.4l3.373-7.641a1 1 0 0 1 .9-.6 1.01 1.01 0 0 1 .918.565l3.722 7.7a1 1 0 0 1 -.9 1.435zm-5.565-2.047 3.965.034-2.08-4.3z" fill="#2f3a5a"/><path d="m66.712 122a1 1 0 0 1 -1-1v-106.468a1 1 0 1 1 2 0v106.468a1 1 0 0 1 -1 1z" fill="#2f3a5a"/><path d="m66.712 14.532a45.87 45.87 0 0 0 -44.375 34.273c8.486-3.905 17.2-4.968 26.392 0 11.273-3.711 23.262-3.783 35.966 0 8.4-4.5 17.273-3.674 26.392 0a45.87 45.87 0 0 0 -44.375-34.273z" fill="#f26176"/><path d="m111.09 48.8a42.352 42.352 0 0 0 -10.09-2.79 26.123 26.123 0 0 0 -16.3 2.79c-12.71-3.78-24.7-3.71-35.97 0a25.939 25.939 0 0 0 -16.22-3.09 35.417 35.417 0 0 0 -10.17 3.09 45.865 45.865 0 0 1 43.57-34.26c.27-.01.53-.01.8-.01s.53 0 .8.01a45.867 45.867 0 0 1 43.58 34.26z" fill="#da2a47"/><path d="m101 46.01a26.123 26.123 0 0 0 -16.3 2.79c-12.71-3.78-24.7-3.71-35.97 0a25.939 25.939 0 0 0 -16.22-3.09c5.36-17.96 18.26-30.73 33.4-31.17.27-.01.53-.01.8-.01s.53 0 .8.01c15.23.44 28.18 13.35 33.49 31.47z" fill="#f26176"/><path d="m111.088 49.805a1 1 0 0 1 -.374-.073c-9.845-3.966-18.2-3.981-25.546-.046a1 1 0 0 1 -.758.077c-12.332-3.672-24.23-3.674-35.369-.009a1 1 0 0 1 -.788-.069c-7.981-4.314-16.082-4.3-25.5.028a1 1 0 0 1 -1.386-1.16 46.865 46.865 0 0 1 90.687 0 1 1 0 0 1 -.968 1.252zm-44.824-4.8a65.315 65.315 0 0 1 18.325 2.725c7.327-3.789 15.523-3.981 24.993-.57a44.867 44.867 0 0 0 -85.7-.11c8.977-3.627 17.16-3.4 24.946.673a56.8 56.8 0 0 1 17.436-2.717z" fill="#2f3a5a"/><path d="m84.7 48.48a59.081 59.081 0 0 0 -6.74-1.74 58.2 58.2 0 0 0 -22.51.07 66.577 66.577 0 0 0 -6.72 1.67c2.08-19.72 9.34-34.27 17.98-34.27s15.91 14.55 17.99 34.27z" fill="#c1cdd3"/><path d="m68.184 18.349a2.19 2.19 0 0 0 -2.945.025c-2.189 1.889-10.985 8.782-12.353 29.044a64.021 64.021 0 0 1 27.638-.068c-2.271-21.213-10.324-27.187-12.34-29.001z" fill="#dbe2eb"/><path d="m48.729 49.805a1 1 0 0 1 -.995-1.1c2.219-21.035 9.846-35.168 18.978-35.168s16.76 14.128 18.977 35.163a1 1 0 0 1 -1.3 1.056 58.341 58.341 0 0 0 -35.37.006.992.992 0 0 1 -.29.043zm17.983-34.273c-7.6 0-14.58 13.324-16.821 31.894a60.146 60.146 0 0 1 33.639-.026c-2.244-18.558-9.218-31.868-16.818-31.868z" fill="#2f3a5a"/><path d="m101.617 87.955v10.706h-70.323l-19.994-27.522-.49-.671 5.108-5.108 21.337 22.595z" fill="#4fa4d1"/><path d="m99.772 90.962v7.699h-68.478l-19.994-27.522 2.773-2.772 21.326 22.595z" fill="#6bb3d9"/><path d="m101.467 90.962v7.699h-70.173l-20.469-27.997 2.773-2.772 21.801 23.07z" fill="#6bb3d9"/><path d="m101.621 99.664h-70.331a1 1 0 0 1 -.81-.413l-20.48-28.193a1 1 0 0 1 .1-1.3l5.106-5.106a1.1 1.1 0 0 1 .722-.293 1 1 0 0 1 .713.314l21.039 22.28h63.941a1 1 0 0 1 1 1v10.711a1 1 0 0 1 -1 1zm-69.821-2h68.821v-8.711h-63.372a1 1 0 0 1 -.728-.313l-20.621-21.84-3.774 3.774z" fill="#2f3a5a"/><path d="m126.163 116.66-2.111 1.951-2.591 2.389-19.247-20.9h-69.321l-19.012 20.644-2.623-2.42-2.079-1.92 17.956-19.503-26.135-28.374 4.713-4.329 27.18 29.504h72.125z" fill="#e8c79c"/><path d="m124.052 118.611-1.759 2.389-19.247-20.9h-69.321l-19.012 20.644-2.623-2.42 20.068-21.508h71.048z" fill="#d0aa79"/><path d="m122.293 122a.992.992 0 0 1 -.735-.323l-18.947-20.577h-68.451l-18.712 20.317a1 1 0 0 1 -1.413.059l-4.707-4.335a1 1 0 0 1 -.057-1.413l17.338-18.828-25.509-27.693a1 1 0 0 1 .057-1.413l4.705-4.334a1 1 0 0 1 1.413.058l26.884 29.187h71.7a1 1 0 0 1 .736.323l21.144 22.957a1 1 0 0 1 -.057 1.413l-4.707 4.334a1 1 0 0 1 -.682.268zm-88.571-22.9h69.328a1 1 0 0 1 .735.323l18.567 20.157 3.235-2.979-20.17-21.9h-71.7a1 1 0 0 1 -.736-.323l-26.499-28.77-3.235 2.98 25.453 27.639a1 1 0 0 1 0 1.355l-17.281 18.765 3.236 2.98 18.331-19.9a1 1 0 0 1 .736-.327z" fill="#2f3a5a"/></svg>