<?xml version="1.0" encoding="UTF-8"?>
<svg xmlns="http://www.w3.org/2000/svg" id="icon" viewBox="0 0 128 128" width="512" height="512"><ellipse cx="63.999" cy="64" rx="24.167" ry="63" fill="#ef5361"/><path d="M88.169,64c0,34.79-10.82,63-24.17,63a10.225,10.225,0,0,1-4.99-1.35c10.96-5.99,19.18-31.32,19.18-61.65S69.969,8.34,59.009,2.35A10.225,10.225,0,0,1,64,1C77.349,1,88.169,29.21,88.169,64Z" fill="#da2a47"/><path d="M64,128c-14.113,0-25.168-28.112-25.168-64S49.886,0,64,0,89.166,28.112,89.166,64,78.111,128,64,128ZM64,2C51.225,2,40.831,29.813,40.831,64S51.225,126,64,126,87.166,98.187,87.166,64,76.773,2,64,2Z" fill="#2f3a5a"/><circle cx="63.999" cy="64" r="17.806" fill="#84879c"/><path d="M78.279,53.37a17.6,17.6,0,0,0-6.9-1.39,17.813,17.813,0,0,0-14.3,28.43,17.808,17.808,0,1,1,21.2-27.04Z" fill="#707583"/><path d="M64,82.806A18.806,18.806,0,1,1,82.805,64,18.828,18.828,0,0,1,64,82.806Zm0-35.612A16.806,16.806,0,1,0,80.805,64,16.825,16.825,0,0,0,64,47.194Z" fill="#2f3a5a"/><path d="M99.59,38.522v76.165a1.941,1.941,0,0,0,1.941,1.942h0a1.942,1.942,0,0,0,1.942-1.942V38.522Z" fill="#e8c79c"/><path d="M101.531,117.629a2.944,2.944,0,0,1-2.941-2.941V38.522a1,1,0,0,1,1-1h3.883a1,1,0,0,1,1,1v76.166A2.945,2.945,0,0,1,101.531,117.629Zm-.941-78.107v75.166a.942.942,0,0,0,1.883,0V39.522Z" fill="#2f3a5a"/><path d="M99.59,99.247v15.44a1.942,1.942,0,1,0,3.883,0V99.247Z" fill="#84879c"/><path d="M101.531,117.629a2.944,2.944,0,0,1-2.941-2.941V99.247a1,1,0,0,1,1-1h3.883a1,1,0,0,1,1,1v15.441A2.945,2.945,0,0,1,101.531,117.629Zm-.941-17.382v14.441a.942.942,0,0,0,1.883,0V100.247Z" fill="#2f3a5a"/><path d="M99.743,40.386h3.577l3.93-4.541a4.941,4.941,0,0,0,1.206-3.235V13.917a2.545,2.545,0,0,0-2.546-2.545H97.153a2.545,2.545,0,0,0-2.546,2.545V32.61a4.941,4.941,0,0,0,1.206,3.235Z" fill="#b0b3c1"/><path d="M105.323,14.561v21.1a3.222,3.222,0,0,1-.781,2.09l-2.279,2.635h1.057l3.933-4.545a4.892,4.892,0,0,0,1.2-3.23V13.921a2.546,2.546,0,0,0-2.54-2.55H97.153a2.536,2.536,0,0,0-2.54,2.4h9.92A.786.786,0,0,1,105.323,14.561Z" fill="#9297ab"/><path d="M103.32,41.386H99.743a1,1,0,0,1-.756-.346L95.058,36.5a5.939,5.939,0,0,1-1.451-3.89V13.917a3.549,3.549,0,0,1,3.545-3.545h8.758a3.55,3.55,0,0,1,3.546,3.545V32.61a5.947,5.947,0,0,1-1.45,3.89l-3.93,4.54A1,1,0,0,1,103.32,41.386Zm-3.12-2h2.663l3.631-4.195a3.948,3.948,0,0,0,.962-2.581V13.917a1.547,1.547,0,0,0-1.546-1.545H97.152a1.547,1.547,0,0,0-1.545,1.545V32.61a3.94,3.94,0,0,0,.962,2.58Z" fill="#2f3a5a"/><path d="M24.527,38.522v76.165a1.941,1.941,0,0,0,1.941,1.942h0a1.941,1.941,0,0,0,1.941-1.942V38.522Z" fill="#e8c79c"/><path d="M26.468,117.629a2.945,2.945,0,0,1-2.942-2.941V38.522a1,1,0,0,1,1-1h3.883a1,1,0,0,1,1,1v76.166A2.944,2.944,0,0,1,26.468,117.629Zm-.942-78.107v75.166a.942.942,0,0,0,1.883,0V39.522Z" fill="#2f3a5a"/><path d="M24.527,99.247v15.44a1.941,1.941,0,1,0,3.882,0V99.247Z" fill="#84879c"/><path d="M26.468,117.629a2.945,2.945,0,0,1-2.942-2.941V99.247a1,1,0,0,1,1-1h3.883a1,1,0,0,1,1,1v15.441A2.944,2.944,0,0,1,26.468,117.629Zm-.942-17.382v14.441a.942.942,0,0,0,1.883,0V100.247Z" fill="#2f3a5a"/><path d="M24.68,40.386h3.577l3.93-4.541a4.941,4.941,0,0,0,1.206-3.235V13.917a2.545,2.545,0,0,0-2.546-2.545H22.09a2.545,2.545,0,0,0-2.546,2.545V32.61a4.941,4.941,0,0,0,1.206,3.235Z" fill="#b0b3c1"/><path d="M30.259,14.561v21.1a3.221,3.221,0,0,1-.78,2.09L27.2,40.386h1.058l3.933-4.545a4.9,4.9,0,0,0,1.2-3.23V13.921a2.546,2.546,0,0,0-2.54-2.55H22.09a2.536,2.536,0,0,0-2.54,2.4h9.919A.785.785,0,0,1,30.259,14.561Z" fill="#9297ab"/><path d="M28.257,41.386H24.68a1,1,0,0,1-.756-.346l-3.93-4.54a5.947,5.947,0,0,1-1.45-3.89V13.917a3.55,3.55,0,0,1,3.546-3.545h8.758a3.549,3.549,0,0,1,3.545,3.545V32.61a5.947,5.947,0,0,1-1.45,3.89l-3.93,4.54A1,1,0,0,1,28.257,41.386Zm-3.12-2H27.8l3.632-4.195a3.949,3.949,0,0,0,.961-2.581V13.917a1.547,1.547,0,0,0-1.545-1.545H22.09a1.547,1.547,0,0,0-1.546,1.545V32.61a3.948,3.948,0,0,0,.962,2.581Z" fill="#2f3a5a"/></svg>
