<svg id="icon" height="512" viewBox="0 0 128 128" width="512" xmlns="http://www.w3.org/2000/svg"><path d="m90.446 55.316h-53a12.592 12.592 0 0 1 -1.834-1.547c-2.113-2.122-4.741-6.188-.07-10.562 0 0-7.716-9.818 6.139-16.7 0 0-1.6-20.618 28.611-25.031 0 0-.456 16.2 9.769 19.636s11.357 13.259 9.314 17.188c0 0 9.857 9.975 1.071 17.016z" fill="#dbe2eb"/><path d="m90.446 55.316h-.07c.694-5.663-4.651-11.077-4.651-11.077 2.043-3.928.9-13.756-9.312-17.187s-9.769-19.637-9.769-19.637c-12.337 1.805-19.369 6.308-23.375 11 2.618-6.288 9.411-14.37 27.024-16.939 0 0-.456 16.2 9.769 19.636s11.356 13.259 9.313 17.188c0 0 9.857 9.975 1.071 17.016z" fill="#c1cdd3"/><path d="m90.446 56.316h-53a1 1 0 0 1 -.548-.163 13.636 13.636 0 0 1 -2-1.68 9.026 9.026 0 0 1 -2.961-6.268 7.669 7.669 0 0 1 2.31-5.12 11.411 11.411 0 0 1 -1.614-8.326c.79-3.5 3.493-6.481 8.038-8.862.067-3.716 1.84-21.374 29.478-25.411a.986.986 0 0 1 .809.242 1 1 0 0 1 .335.775c0 .154-.31 15.5 9.088 18.661a15.243 15.243 0 0 1 9.79 8.8 12.925 12.925 0 0 1 .385 9.14c1.3 1.479 4.8 5.93 4.519 10.8a9.788 9.788 0 0 1 -4 7.193 1 1 0 0 1 -.629.219zm-52.681-2h52.322a7.747 7.747 0 0 0 2.992-5.527c.288-4.967-4.369-9.741-4.416-9.789a1 1 0 0 1 -.176-1.164c.843-1.619 1.149-4.852-.171-8.123a13.3 13.3 0 0 0 -8.572-7.654c-9.244-3.109-10.333-15.473-10.444-19.418-27.7 4.542-26.678 23-26.621 23.79a1 1 0 0 1 -.552.971c-4.311 2.141-6.845 4.758-7.535 7.778-.9 3.956 1.712 7.377 1.739 7.411a1 1 0 0 1 -.1 1.346 6.174 6.174 0 0 0 -2.287 4.3 7.119 7.119 0 0 0 2.381 4.823 12.494 12.494 0 0 0 1.44 1.256z" fill="#2f3a5a"/><path d="m90.446 55.316c-17.275 3.646-32.8 4.011-45.987 0l-8.846-1.547c-2.113-2.122-4.741-6.188-.07-10.562 0 0-7.716-9.818 6.139-16.7 0 0 13.1 14.46 47.693 11.792 0 .001 9.857 9.976 1.071 17.017z" fill="#d17d87"/><path d="m89.375 38.3c-34.592 2.666-47.693-11.794-47.693-11.794a18.035 18.035 0 0 0 -6.129 4.582c2.427 2.287 14.667 12.331 41.631 11.618a10 10 0 0 1 10.237 8.6 8.363 8.363 0 0 1 -.437 4.011h3.462c8.786-7.042-1.071-17.017-1.071-17.017z" fill="#e39ca5"/><path d="m62.7 59.212c-7.724 0-13.862-.976-18.527-2.93l-8.733-1.528a1 1 0 0 1 -.536-.279 9.028 9.028 0 0 1 -2.963-6.27 7.669 7.669 0 0 1 2.31-5.12 11.411 11.411 0 0 1 -1.614-8.326c.822-3.644 3.716-6.721 8.6-9.148a1 1 0 0 1 1.186.224c.127.14 13.26 14.054 46.875 11.466a1 1 0 0 1 .788.294c.218.22 5.328 5.464 4.989 11.309a9.788 9.788 0 0 1 -4 7.193 1 1 0 0 1 -.451.2 163.751 163.751 0 0 1 -27.924 2.915zm-26.6-6.372 8.527 1.492a.947.947 0 0 1 .219.064c8.9 3.775 23.677 3.77 45.165-.019a7.782 7.782 0 0 0 3.064-5.588c.244-4.216-3.073-8.292-4.111-9.458-30.892 2.26-44.646-8.912-47.479-11.6-3.923 2.079-6.242 4.584-6.9 7.451-.9 3.956 1.712 7.377 1.739 7.411a1 1 0 0 1 -.1 1.346 6.174 6.174 0 0 0 -2.287 4.3 6.9 6.9 0 0 0 2.163 4.601z" fill="#2f3a5a"/><path d="m63.772 59.189c-7.769 0-14.311-.967-19.575-2.9l-8.757-1.535a1 1 0 0 1 -.536-.279 9.028 9.028 0 0 1 -2.963-6.27 7.669 7.669 0 0 1 2.31-5.12 11.411 11.411 0 0 1 -1.614-8.326c.822-3.644 3.716-6.721 8.6-9.148a1 1 0 0 1 1.186.224c.127.14 13.26 14.054 46.875 11.466a1 1 0 0 1 .788.294c.218.22 5.328 5.464 4.989 11.309a9.788 9.788 0 0 1 -4 7.193 1 1 0 0 1 -.439.2 146.051 146.051 0 0 1 -26.864 2.892zm-27.672-6.349 8.527 1.492a.972.972 0 0 1 .176.047c10.126 3.754 25.333 3.756 45.2 0a7.784 7.784 0 0 0 3.069-5.592c.244-4.216-3.073-8.292-4.111-9.458-2.8.2-5.469.3-8 .3-25.314 0-36.909-9.455-39.484-11.9-3.923 2.079-6.242 4.584-6.9 7.451-.9 3.956 1.712 7.377 1.739 7.411a1 1 0 0 1 -.1 1.346 6.174 6.174 0 0 0 -2.287 4.3 6.9 6.9 0 0 0 2.171 4.603z" fill="#2f3a5a"/><path d="m90.446 55.316-.5 1.438-1.141 3.333-2.42 7.081-1.385 4.046-1.04 3.035-2.43 7.071v.01l-1.488 4.343v.01l-.01.01-.922 2.718v.009l-2.43 7.072-1.6 4.661-.833 2.429-2.42 7.081-1.7 4.939-.734 2.152-2.43 7.071-.664 1.954a2.5 2.5 0 0 1 -4.731 0l-.664-1.954-2.43-7.071-.734-2.152-1.7-4.939-2.42-7.081-.833-2.429-1.587-4.653-2.42-7.09-.932-2.728-1.5-4.353-2.42-7.091-1.041-3.025-1.387-4.045-2.429-7.091-1.131-3.313-.5-1.448c1.756.407 3.531.764 5.306 1.081q2.544.462 5.117.774c1.081.149 2.162.268 3.253.377 2.351.228 4.7.377 7.091.466h.01c.625.02 1.26.04 1.884.049 2.519.06 5.048.03 7.6-.069.694-.03 1.389-.059 2.083-.1q3.377-.178 6.793-.536c1.22-.119 2.44-.268 3.67-.416q2.364-.3 4.74-.685c1.819-.276 3.634-.594 5.459-.941z" fill="#e8c79c"/><path d="m35.543 43.207c-6.813 6.377 1.9 12.109 1.9 12.109 14.515 2.4 27.375 4.66 46.263 1.144-30.73-3.927-48.163-13.253-48.163-13.253z" fill="#dbe2eb"/><path d="m64.76 59.264c-9.62 0-18.007-1.391-26.7-2.832l-.78-.129a1 1 0 0 1 -.386-.151c-.187-.123-4.572-3.052-4.934-7.283-.193-2.262.781-4.412 2.9-6.392a1 1 0 0 1 1.155-.152c.174.092 17.657 9.288 47.823 13.143a1 1 0 0 1 .057 1.975 103.44 103.44 0 0 1 -19.135 1.821zm-26.925-4.9.556.092c12.594 2.091 23.68 3.931 38.609 2.044-23.425-3.79-38.058-10.5-41.263-12.075a5.546 5.546 0 0 0 -1.781 4.267c.244 2.866 3.153 5.148 3.879 5.675z" fill="#2f3a5a"/><g fill="#d0aa79"><path d="m39.074 61.077a1 1 0 0 1 -.707-1.707l3.679-3.68a1 1 0 0 1 1.414 1.41l-3.679 3.68a1 1 0 0 1 -.707.297z"/><path d="m41.5 68.167a1 1 0 0 1 -.7-1.707l9.62-9.619a1 1 0 0 1 1.414 1.414l-9.62 9.62a1 1 0 0 1 -.714.292z"/><path d="m43.933 75.239a1 1 0 0 1 -.707-1.707l16.174-16.176a1 1 0 0 1 1.414 1.415l-16.174 16.175a1 1 0 0 1 -.707.293z"/><path d="m46.353 82.33a1 1 0 0 1 -.707-1.707l23.435-23.435a1 1 0 1 1 1.419 1.412l-23.44 23.437a1 1 0 0 1 -.707.293z"/><path d="m48.783 89.411a1 1 0 0 1 -.707-1.707l31.467-31.468a1 1 0 0 1 1.415 1.414l-31.468 31.468a1 1 0 0 1 -.707.293z"/><path d="m51.2 96.5a1 1 0 0 1 -.707-1.707l38.75-38.746a1 1 0 0 1 1.414 1.414l-38.747 38.747a1 1 0 0 1 -.71.292z"/><path d="m53.632 103.583a1 1 0 0 1 -.707-1.708l31.367-31.367a1 1 0 0 1 1.418 1.411l-31.371 31.371a1 1 0 0 1 -.707.293z"/><path d="m56.052 110.664a1 1 0 0 1 -.707-1.707l23.955-23.943a1 1 0 0 1 1.745.659v.01a1 1 0 0 1 -.292.707l-23.994 23.981a1 1 0 0 1 -.707.293z"/><path d="m58.482 117.754a1 1 0 0 1 -.707-1.707l16.6-16.6a1 1 0 1 1 1.415 1.414l-16.6 16.6a.993.993 0 0 1 -.708.293z"/><path d="m60.912 124.825a1 1 0 0 1 -.706-1.708l9.219-9.22a1 1 0 0 1 1.419 1.41l-9.226 9.227a1 1 0 0 1 -.706.291z"/><path d="m88.809 61.086a1 1 0 0 1 -.71-.3l-3.815-3.826a1 1 0 0 1 1.416-1.409l3.822 3.831a1 1 0 0 1 -.711 1.7z"/><path d="m86.389 68.167a1 1 0 0 1 -.707-.292l-9.808-9.809a1 1 0 1 1 1.414-1.414l9.812 9.808a1 1 0 0 1 -.707 1.707z"/><path d="m83.959 75.249a1 1 0 0 1 -.707-.293l-16.252-16.256a1 1 0 0 1 1.414-1.414l16.253 16.256a1 1 0 0 1 -.708 1.707z"/><path d="m81.53 82.325a1 1 0 0 1 -.777-.367l-23.2-23.2a1 1 0 0 1 .662-1.742 1.024 1.024 0 0 1 .721.3l23.3 23.3a1 1 0 0 1 -.706 1.713z"/><path d="m79.11 89.416a1 1 0 0 1 -.775-.365l-31.171-31.173a1 1 0 0 1 1.414-1.414l31.235 31.236a1 1 0 0 1 -.7 1.716z"/><path d="m76.68 96.492a1 1 0 0 1 -.707-.293l-38.737-38.728a1 1 0 1 1 1.414-1.414l38.737 38.728a1 1 0 0 1 -.707 1.707z"/><path d="m74.25 103.583a1 1 0 0 1 -.711-.3l-31.354-31.362a1 1 0 1 1 1.415-1.414l31.362 31.373a1 1 0 0 1 -.712 1.7z"/><path d="m71.831 110.664a1 1 0 0 1 -.706-.292l-23.983-23.984a1 1 0 1 1 1.418-1.41l23.977 23.978a1 1 0 0 1 -.706 1.708z"/><path d="m69.4 117.754a.993.993 0 0 1 -.707-.293l-16.6-16.6a1 1 0 1 1 1.41-1.418l16.6 16.6a1 1 0 0 1 -.707 1.707z"/><path d="m66.971 124.825a.993.993 0 0 1 -.707-.293l-9.225-9.225a1 1 0 0 1 1.419-1.41l9.22 9.221a1 1 0 0 1 -.707 1.707z"/></g><path d="m63.946 128.475a3.509 3.509 0 0 1 -3.316-2.375l-24.13-70.46a1 1 0 0 1 1.172-1.3c1.652.383 3.42.743 5.256 1.071 1.671.3 3.373.56 5.062.765 1.085.15 2.154.267 3.232.375 2.251.218 4.55.369 7.028.461.624.02 1.253.04 1.873.049 2.42.059 4.884.035 7.542-.068.686-.03 1.376-.059 2.064-.1 2.219-.117 4.488-.3 6.748-.531 1.155-.113 2.305-.252 3.463-.392l.19-.023c1.53-.192 3.113-.421 4.7-.679 1.717-.262 3.49-.568 5.428-.937a1 1 0 0 1 1.132 1.309l-8.89 25.942c-.006.024-.013.048-.021.071l-1.479 4.305a1.051 1.051 0 0 1 -.05.136l-.874 2.576c-.007.026-.014.051-.022.076l-12.801 37.354a3.5 3.5 0 0 1 -3.307 2.375zm-24.976-71.797 23.553 68.78a1.5 1.5 0 0 0 2.838 0l12.782-37.3a.6.6 0 0 1 .02-.069l.922-2.717q.014-.039.03-.078l1.448-4.226c.006-.025.013-.049.021-.073l8.357-24.383c-1.321.239-2.576.448-3.8.635-1.6.26-3.208.492-4.767.688l-.194.023c-1.173.142-2.338.283-3.5.4-2.287.239-4.59.421-6.838.54-.694.039-1.393.069-2.092.1-2.7.1-5.21.128-7.663.07-.623-.009-1.262-.03-1.893-.05-2.533-.094-4.872-.247-7.166-.47-1.106-.111-2.2-.231-3.292-.381-1.712-.208-3.453-.472-5.159-.781-1.237-.225-2.444-.461-3.607-.708z" fill="#2f3a5a"/></svg>