<svg id="icon" height="512" viewBox="0 0 128 128" width="512" xmlns="http://www.w3.org/2000/svg"><path d="m1 45.647a63.291 63.291 0 0 0 126 0z" fill="#ef5361"/><path d="m64 103.85a64.3 64.3 0 0 1 -63.991-58.108 1 1 0 0 1 1-1.095h125.991a1 1 0 0 1 1 1.095 64.3 64.3 0 0 1 -64 58.108zm-61.886-57.203a62.293 62.293 0 0 0 123.777 0z" fill="#2f3a5a"/><path d="m126.994 45.65a63.291 63.291 0 0 1 -125.994 0h8c7.48 27.736 29.268 47.814 55 47.814s47.521-20.078 55-47.814z" fill="#8ae0a1"/><path d="m126.994 45.65a63.3 63.3 0 0 1 -118.894 23.6 63.3 63.3 0 0 0 115.68-23.6z" fill="#6fc682"/><path d="m64 103.845a64.307 64.307 0 0 1 -64-58.1 1 1 0 0 1 1-1.1h8a1 1 0 0 1 .965.74c7.597 28.161 29.312 47.079 54.035 47.079s46.442-18.918 54.035-47.075a1 1 0 0 1 .965-.74h7.991a1 1 0 0 1 1 1.1 64.284 64.284 0 0 1 -63.991 58.096zm-61.89-57.196a62.293 62.293 0 0 0 123.774 0h-6.118c-8.011 28.635-30.337 47.815-55.766 47.815s-47.748-19.18-55.759-47.815z" fill="#2f3a5a"/><g fill="#da2a47"><path d="m96.761 52.145c-.924 0-1.672 2.56-1.672 3.484a1.672 1.672 0 0 0 3.344 0c0-.924-.748-3.484-1.672-3.484z"/><path d="m83.658 52.145c-.924 0-1.673 2.56-1.673 3.484a1.673 1.673 0 0 0 3.345 0c0-.924-.749-3.484-1.672-3.484z"/><path d="m70.554 52.145c-.924 0-1.672 2.56-1.672 3.484a1.673 1.673 0 0 0 3.345 0c0-.924-.749-3.484-1.673-3.484z"/><path d="m57.451 52.145c-.924 0-1.673 2.56-1.673 3.484a1.673 1.673 0 0 0 3.345 0c0-.924-.749-3.484-1.672-3.484z"/><path d="m44.347 52.145c-.923 0-1.672 2.56-1.672 3.484a1.673 1.673 0 0 0 3.345 0c0-.924-.749-3.484-1.673-3.484z"/><path d="m31.244 52.145c-.924 0-1.673 2.56-1.673 3.484a1.673 1.673 0 0 0 3.345 0c0-.924-.748-3.484-1.672-3.484z"/><path d="m91.882 62.174c-.924 0-1.673 2.561-1.673 3.484a1.673 1.673 0 1 0 3.345 0c0-.923-.749-3.484-1.672-3.484z"/><path d="m78.778 62.174c-.923 0-1.672 2.561-1.672 3.484a1.673 1.673 0 1 0 3.345 0c0-.923-.751-3.484-1.673-3.484z"/><path d="m65.675 62.174c-.924 0-1.673 2.561-1.673 3.484a1.673 1.673 0 1 0 3.345 0c0-.923-.747-3.484-1.672-3.484z"/><path d="m52.571 62.174c-.923 0-1.672 2.561-1.672 3.484a1.673 1.673 0 1 0 3.345 0c0-.923-.744-3.484-1.673-3.484z"/><path d="m39.468 62.174c-.924 0-1.672 2.561-1.672 3.484a1.672 1.672 0 1 0 3.344 0c0-.923-.748-3.484-1.672-3.484z"/><path d="m87 73.566c-.923 0-1.672 2.561-1.672 3.484a1.673 1.673 0 1 0 3.345 0c.002-.923-.747-3.484-1.673-3.484z"/><path d="m73.9 73.566c-.924 0-1.672 2.561-1.672 3.484a1.672 1.672 0 1 0 3.344 0c-.001-.923-.749-3.484-1.672-3.484z"/><path d="m60.8 73.566c-.924 0-1.673 2.561-1.673 3.484a1.673 1.673 0 1 0 3.345 0c-.004-.923-.753-3.484-1.672-3.484z"/><path d="m47.692 73.566c-.924 0-1.672 2.561-1.672 3.484a1.673 1.673 0 1 0 3.345 0c0-.923-.749-3.484-1.673-3.484z"/></g></svg>