<svg id="icon" height="512" viewBox="0 0 128 128" width="512" xmlns="http://www.w3.org/2000/svg"><path d="m99.046 87.694-4.262 6.85c-2.065 3.318-5.7 8.38-9.605 8.38h-.245a11.311 11.311 0 0 1 -11.283-10.5l-4.779-69.724h-9.517l-4.779 69.721a11.311 11.311 0 0 1 -11.283 10.5h-.245c-3.909 0-7.54-5.062-9.605-8.38l-4.262-6.85h-5.958s5.145 17.06 10.29 21.122c4.324 3.414 24.323 15.45 30.6 17.369 6.278-1.919 26.277-13.955 30.6-17.369 5.146-4.059 10.287-21.119 10.287-21.119z" fill="#ffc943"/><path d="m99.046 87.694-4.262 6.85c-2.065 3.318-5.7 8.38-9.605 8.38h-.245a11.311 11.311 0 0 1 -11.283-10.5l-4.779-69.724h-4.791v103.474l.032.011c6.278-1.919 26.277-13.955 30.6-17.369 5.146-4.062 10.287-21.122 10.287-21.122z" fill="#f7b521"/><path d="m64.113 127.185a1.037 1.037 0 0 1 -.292-.043c-6.315-1.931-26.331-13.912-30.927-17.542-5.331-4.208-10.415-20.909-10.628-21.618a1 1 0 0 1 .957-1.289h5.958a1 1 0 0 1 .849.472l4.262 6.85c4.067 6.536 7.006 7.908 8.755 7.908h.246a10.349 10.349 0 0 0 10.286-9.573l4.778-69.716a1 1 0 0 1 1-.931h9.518a1 1 0 0 1 1 .931l4.778 69.719a10.348 10.348 0 0 0 10.286 9.571h.245c1.75 0 4.689-1.372 8.756-7.908l4.262-6.85a1 1 0 0 1 .849-.472h5.949a1 1 0 0 1 .957 1.289c-.213.709-5.3 17.41-10.628 21.618-4.6 3.629-24.613 15.61-30.927 17.541a1.039 1.039 0 0 1 -.289.043zm-39.524-38.491c1.3 4 5.5 16.145 9.544 19.338 4.327 3.415 23.654 14.992 29.98 17.1 6.327-2.111 25.654-13.687 29.981-17.1 4.046-3.195 8.243-15.333 9.544-19.338h-4.038l-3.969 6.378c-3.706 5.957-7.126 8.852-10.454 8.852h-.245a12.356 12.356 0 0 1 -12.279-11.432l-4.715-68.792h-7.65l-4.714 68.789a12.357 12.357 0 0 1 -12.281 11.435h-.246c-3.327 0-6.747-2.9-10.453-8.852l-3.969-6.378z" fill="#2f3a5a"/><path d="m105.229 75.188-16.069 11.146 23.718 6.853z" fill="#f7b521"/><path d="m105.229 75.188-16.069 11.146 11.559 3.34z" fill="#ffc943"/><path d="m112.878 94.187a1.007 1.007 0 0 1 -.277-.039l-23.719-6.848a1 1 0 0 1 -.292-1.783l16.069-11.145a1 1 0 0 1 1.49.43l7.649 18a1 1 0 0 1 -.92 1.391zm-21.42-8.23 19.677 5.686-6.346-14.933z" fill="#2f3a5a"/><path d="m22.771 75.188 16.069 11.146-23.718 6.853z" fill="#ffc943"/><path d="m22.771 75.188 16.069 11.146-11.859 3.426z" fill="#f7b521"/><path d="m15.122 94.187a1 1 0 0 1 -.922-1.387l7.649-18a1 1 0 0 1 1.49-.43l16.071 11.142a1 1 0 0 1 -.292 1.783l-23.718 6.853a1.007 1.007 0 0 1 -.278.039zm8.089-17.477-6.346 14.933 19.677-5.686z" fill="#2f3a5a"/><path d="m46.165 35.391h36.418v7.346h-36.418z" fill="#ffc943"/><path d="m82.583 43.738h-36.418a1 1 0 0 1 -1-1v-7.347a1 1 0 0 1 1-1h36.418a1 1 0 0 1 1 1v7.347a1 1 0 0 1 -1 1zm-35.418-2h34.418v-5.347h-34.418z" fill="#2f3a5a"/><path d="m64.116 1.815a11.92 11.92 0 1 0 11.92 11.92 11.918 11.918 0 0 0 -11.92-11.92zm0 17.88a5.96 5.96 0 1 1 5.96-5.96 5.958 5.958 0 0 1 -5.96 5.965z" fill="#ffc943"/><path d="m64.116 26.655a12.92 12.92 0 1 1 12.921-12.92 12.935 12.935 0 0 1 -12.921 12.92zm0-23.84a10.92 10.92 0 1 0 10.921 10.92 10.932 10.932 0 0 0 -10.921-10.92zm0 17.88a6.96 6.96 0 1 1 6.96-6.96 6.973 6.973 0 0 1 -6.96 6.965zm0-11.92a4.96 4.96 0 1 0 4.96 4.96 4.971 4.971 0 0 0 -4.96-4.96z" fill="#2f3a5a"/></svg>