<svg id="icon" height="512" viewBox="0 0 128 128" width="512" xmlns="http://www.w3.org/2000/svg"><path d="m108.618 8.489c-27.131-21.227-45.937 6.844-37.492 32.278 2.016 6.073 3.446 10.252 4.454 13.1a54.538 54.538 0 0 1 3.22 20.086 35.131 35.131 0 0 1 -2.175 10.957c-5.268 13.83-8.576 45.131 18.732 41.851 25.334-3.044 17.717-31.271 18.492-48.789s21.899-48.255-5.231-69.483z" fill="#8ae0a1"/><path d="m95.363 126.755c-6.319.767-11-.325-14.393-2.626a25.887 25.887 0 0 0 8.815.286c25.326-3.043 17.708-31.268 18.488-48.781s21.894-48.261-5.227-69.492a45.034 45.034 0 0 0 -6.136-4.069 36.62 36.62 0 0 1 11.714 6.422c27.121 21.218 5.994 51.953 5.226 69.479s6.839 45.739-18.487 48.781z" fill="#6fc682"/><path d="m91.525 128c-6.449 0-11.4-2.158-14.743-6.441-7.49-9.587-4.757-27.384-1.092-37.006a33.93 33.93 0 0 0 2.11-10.635 53.4 53.4 0 0 0 -3.162-19.718c-1.112-3.134-2.613-7.547-4.461-13.114-4.793-14.436-.94-30.583 8.965-37.56 4.858-3.426 15.241-7.444 30.091 4.174 20.454 16 14.224 37.185 9.219 54.206-1.751 5.951-3.4 11.573-3.6 16.109-.153 3.442.022 7.289.208 11.361.727 15.962 1.632 35.827-19.579 38.375a33.176 33.176 0 0 1 -3.956.249zm-1.252-126.021a17.025 17.025 0 0 0 -9.98 3.178c-9.211 6.489-12.744 21.663-8.218 35.3 1.845 5.555 3.341 9.954 4.447 13.076a55.331 55.331 0 0 1 3.278 20.455 36 36 0 0 1 -2.24 11.278c-3.371 8.847-6.133 26.191.8 35.063 3.539 4.529 9.217 6.359 16.88 5.439 19.368-2.327 18.581-19.6 17.821-36.3-.189-4.119-.366-8.01-.209-11.542.212-4.779 1.9-10.513 3.683-16.585 4.834-16.44 10.852-36.9-8.532-52.066-6.194-4.843-12.237-7.296-17.73-7.296z" fill="#2f3a5a"/><path d="m94.748 29.99-.163-5.157a2.538 2.538 0 0 0 -2.768-2.355 2.5 2.5 0 0 0 -2.427 2.5l.169 5.33c-4.948 3.542-22.374 17.883-17.915 41.34a68.792 68.792 0 0 0 7.007 20.671l4.474-6.135c-2.847-5.084-4.9-7.689-6.362-15.388-3.885-20.442 11.137-33.117 15.685-36.43 4.977 2.733 21.633 13.465 20.63 34.2-.614 12.731-2.305 14.218-4.577 18.164l3.433 8.2c2.528-4.393 5.681-12.494 6.34-26.142 1.151-23.811-18.137-35.897-23.526-38.798z" fill="#dbe2eb"/><path d="m111.935 95.931h-.063a1 1 0 0 1 -.86-.612l-3.433-8.2a1 1 0 0 1 .056-.885c.235-.41.466-.794.688-1.167 1.867-3.118 3.217-5.372 3.756-16.546.939-19.4-14.047-29.814-19.555-32.966-5.02 3.8-18.41 15.947-14.778 35.054a34.394 34.394 0 0 0 4.99 12.882c.4.694.823 1.42 1.261 2.2a1 1 0 0 1 -.064 1.078l-4.474 6.136a1 1 0 0 1 -1.681-.1 69.784 69.784 0 0 1 -7.116-20.974c-4.423-23.266 12.007-37.7 17.88-42.024l-.151-4.8a3.486 3.486 0 0 1 3.365-3.529 3.725 3.725 0 0 1 2.72.944 3.345 3.345 0 0 1 1.109 2.378l.144 4.585c6.454 3.591 24.683 15.885 23.543 39.45-.668 13.846-3.888 22.1-6.47 26.592a1 1 0 0 1 -.867.504zm-2.319-9.125 2.425 5.792c2.25-4.59 4.667-12.132 5.233-23.857 1.115-23.049-17.323-34.814-23-37.871a1 1 0 0 1 -.525-.849l-.163-5.156a1.362 1.362 0 0 0 -.458-.963 1.7 1.7 0 0 0 -1.249-.426 1.5 1.5 0 0 0 -1.49 1.47l.169 5.329a1 1 0 0 1 -.417.845c-5.2 3.723-21.829 17.637-17.514 40.34a70.226 70.226 0 0 0 6.153 18.985l3.158-4.331c-.322-.566-.632-1.1-.932-1.621a36.439 36.439 0 0 1 -5.225-13.511c-3.981-20.954 11.3-33.943 16.078-37.424a1 1 0 0 1 1.071-.069c5.22 2.866 22.175 13.871 21.147 35.128-.563 11.676-2.02 14.11-4.038 17.478-.139.231-.279.467-.423.711z" fill="#2f3a5a"/><path d="m19.382 8.489c27.131-21.227 45.937 6.844 37.492 32.278-2.016 6.073-3.446 10.252-4.454 13.1a54.538 54.538 0 0 0 -3.22 20.086 35.131 35.131 0 0 0 2.175 10.957c5.268 13.83 8.576 45.131-18.732 41.851-25.334-3.044-17.717-31.271-18.492-48.789s-21.899-48.255 5.231-69.483z" fill="#8ae0a1"/><path d="m32.637 126.755c6.319.767 11-.325 14.393-2.626a25.887 25.887 0 0 1 -8.815.286c-25.326-3.043-17.708-31.268-18.488-48.781s-21.894-48.261 5.227-69.492a45.034 45.034 0 0 1 6.136-4.069 36.62 36.62 0 0 0 -11.714 6.422c-27.121 21.218-5.994 51.953-5.226 69.479s-6.839 45.739 18.487 48.781z" fill="#6fc682"/><path d="m36.475 128a33.176 33.176 0 0 1 -3.952-.248c-21.211-2.548-20.306-22.413-19.579-38.375.186-4.072.361-7.919.208-11.361-.2-4.536-1.853-10.158-3.6-16.109-5-17.021-11.235-38.2 9.219-54.206 14.846-11.62 25.223-7.601 30.087-4.179 9.905 6.977 13.758 23.124 8.965 37.56-1.848 5.567-3.349 9.98-4.461 13.114a53.4 53.4 0 0 0 -3.162 19.722 33.93 33.93 0 0 0 2.11 10.636c3.665 9.622 6.4 27.419-1.092 37.006-3.346 4.283-8.295 6.44-14.743 6.44zm1.252-126.021c-5.493 0-11.535 2.452-17.728 7.3-19.384 15.164-13.366 35.621-8.532 52.064 1.785 6.072 3.471 11.806 3.683 16.585.157 3.532-.02 7.423-.209 11.542-.76 16.7-1.547 33.971 17.821 36.3 7.663.917 13.342-.91 16.88-5.439 6.931-8.872 4.169-26.216.8-35.063a36 36 0 0 1 -2.235-11.278 55.331 55.331 0 0 1 3.273-20.46c1.106-3.122 2.6-7.521 4.447-13.076 4.526-13.632.993-28.806-8.218-35.295a17.025 17.025 0 0 0 -9.982-3.18z" fill="#2f3a5a"/><path d="m33.252 29.99.163-5.157a2.538 2.538 0 0 1 2.768-2.355 2.5 2.5 0 0 1 2.427 2.5l-.169 5.33c4.948 3.542 22.374 17.883 17.915 41.34a68.792 68.792 0 0 1 -7.007 20.671l-4.474-6.135c2.847-5.084 4.9-7.689 6.362-15.388 3.885-20.442-11.137-33.117-15.685-36.43-4.977 2.733-21.633 13.465-20.63 34.2.614 12.731 2.3 14.218 4.577 18.164l-3.433 8.2c-2.528-4.393-5.681-12.494-6.34-26.142-1.151-23.811 18.137-35.897 23.526-38.798z" fill="#dbe2eb"/><path d="m16.065 95.931a1 1 0 0 1 -.867-.5c-2.582-4.489-5.8-12.746-6.47-26.592-1.14-23.565 17.089-35.859 23.543-39.45l.145-4.586a3.34 3.34 0 0 1 1.108-2.377 3.7 3.7 0 0 1 2.72-.944 3.487 3.487 0 0 1 3.366 3.528l-.152 4.8c5.873 4.324 22.3 18.758 17.88 42.024a69.784 69.784 0 0 1 -7.116 20.974 1 1 0 0 1 -1.681.1l-4.474-6.136a1 1 0 0 1 -.067-1.078c.438-.783.858-1.509 1.261-2.2a34.394 34.394 0 0 0 4.99-12.882c3.635-19.112-9.751-31.258-14.775-35.057-5.508 3.152-20.494 13.566-19.555 32.966.539 11.174 1.889 13.428 3.756 16.546.222.373.453.757.688 1.167a1 1 0 0 1 .056.885l-3.433 8.2a1 1 0 0 1 -.86.612zm19.948-72.458a1.7 1.7 0 0 0 -1.141.429 1.361 1.361 0 0 0 -.458.962l-.163 5.157a1 1 0 0 1 -.525.849c-5.677 3.057-24.115 14.822-23 37.871.566 11.725 2.983 19.267 5.233 23.857l2.425-5.792c-.144-.244-.284-.48-.423-.711-2.018-3.368-3.475-5.8-4.038-17.478-1.023-21.257 15.927-32.262 21.147-35.128a1 1 0 0 1 1.071.069c4.778 3.481 20.061 16.47 16.078 37.424a36.439 36.439 0 0 1 -5.225 13.511c-.3.519-.61 1.055-.931 1.621l3.157 4.331a70.226 70.226 0 0 0 6.153-18.985c4.315-22.7-12.314-36.617-17.514-40.34a1 1 0 0 1 -.417-.845l.169-5.33a1.5 1.5 0 0 0 -1.49-1.469q-.054-.003-.108-.003z" fill="#2f3a5a"/></svg>