<svg id="icon" height="512" viewBox="0 0 128 128" width="512" xmlns="http://www.w3.org/2000/svg"><path d="m125.163 38.809v26.791l-11.208 9.043h-30.364l-4.613-7.384h-11.49l-4.613 7.384h-30.363l-11.209-9.043v-26.791l11.209-9.043h81.443z" fill="#6bb3d9"/><g fill="#fff" opacity=".25"><path d="m90.735 29.766-32.135 44.877h-17.214l32.136-44.877z"/><path d="m102.001 29.766-26.862 37.493h-6.737l26.862-37.493z"/></g><path d="m113.955 75.643h-30.364a1 1 0 0 1 -.848-.47l-4.319-6.914h-10.381l-4.32 6.914a1 1 0 0 1 -.848.47h-30.363a1 1 0 0 1 -.628-.222l-11.209-9.043a1 1 0 0 1 -.375-.778v-26.791a1 1 0 0 1 .372-.779l11.209-9.043a1 1 0 0 1 .628-.221h81.443a1 1 0 0 1 .628.221l11.208 9.043a1 1 0 0 1 .372.779v26.791a1 1 0 0 1 -.372.778l-11.208 9.043a1 1 0 0 1 -.625.222zm-29.809-2h29.454l10.561-8.521v-25.835l-10.561-8.521h-80.735l-10.565 8.521v25.835l10.562 8.521h29.458l4.321-6.914a1 1 0 0 1 .847-.47h11.491a1 1 0 0 1 .847.47z" fill="#2f3a5a"/><path d="m40.111 127a37.311 37.311 0 0 1 -37.269-37.268v-88.732h8.438v88.732a28.831 28.831 0 0 0 57.661 0v-.926h8.438v.926a37.31 37.31 0 0 1 -37.268 37.268z" fill="#e1e6e9"/><path d="m77.374 88.8v.928a37.269 37.269 0 1 1 -74.537 0v-88.728h4.247v84.917c0 20.167 15.1 36.565 33.668 36.565 17.678 0 32.206-14.865 33.556-33.682z" fill="#d1ccec"/><path d="m40.11 128a38.311 38.311 0 0 1 -38.268-38.268v-88.732a1 1 0 0 1 1-1h8.438a1 1 0 0 1 1 1v88.732a27.831 27.831 0 0 0 55.661 0v-.926a1 1 0 0 1 1-1h8.439a1 1 0 0 1 1 1v.926a38.312 38.312 0 0 1 -38.27 38.268zm-36.268-126v87.732a36.269 36.269 0 0 0 72.538.074h-6.439a29.831 29.831 0 0 1 -59.661-.074v-87.732z" fill="#2f3a5a"/><path d="m86.007 91.32-8.731-13.042a5.379 5.379 0 0 0 -8.94 0l-8.73 13.042a5.379 5.379 0 0 0 4.47 8.372h17.461a5.38 5.38 0 0 0 4.47-8.372z" fill="#e1e6e9"/><path d="m81.537 99.685h-17.467a5.329 5.329 0 0 1 -4.87-3.094h18.61a3.761 3.761 0 0 0 3.136-5.85l-9.76-14.584a5.353 5.353 0 0 1 6.09 2.123l8.733 13.037a5.377 5.377 0 0 1 -4.472 8.368z" fill="#c8cbd2"/><path d="m81.537 100.691h-17.461a6.379 6.379 0 0 1 -5.3-9.927l8.731-13.042a6.379 6.379 0 0 1 10.6 0l8.731 13.042a6.379 6.379 0 0 1 -5.3 9.927zm-8.731-23.8a4.317 4.317 0 0 0 -3.639 1.943l-8.73 13.042a4.379 4.379 0 0 0 3.639 6.815h17.461a4.38 4.38 0 0 0 3.639-6.815l-8.731-13.042a4.317 4.317 0 0 0 -3.639-1.943z" fill="#2f3a5a"/></svg>