<svg id="icon" height="512" viewBox="0 0 128 128" width="512" xmlns="http://www.w3.org/2000/svg"><path d="m71.553 126.548c-7.211-25.688-11-53.36-3.32-78.919l-7.421-2.895c-7.955 26.476-12.452 55.073-5.491 81.814z" fill="#d0aa79"/><path d="m71.553 127.548h-16.232a1 1 0 0 1 -.967-.748c-6.012-23.091-4.212-50.029 5.5-82.353a1 1 0 0 1 1.322-.644l7.424 2.897a1 1 0 0 1 .594 1.22c-6.5 21.618-5.409 47.25 3.325 78.361a1 1 0 0 1 -.963 1.27zm-15.455-2h14.138c-8.4-30.5-9.453-55.815-3.221-77.321l-5.555-2.166c-9.23 31.152-10.985 57.173-5.36 79.487z" fill="#2f3a5a"/><path d="m63.105 51.451s11.149-41.037 63.095-25.851l-6.642 2.135.6 1.79-6.084.934.474 2.61h-5.456l1.424 1.9-7.1.267 2.317 2.11-8.733 1.174 2.135 1.186-9.548.6 2.935 1.658-9.963 1.423 1.423 1.661-7.828 1.186 1.424 1.423-7.828.949 2.135 1.186z" fill="#8ae0a1"/><path d="m120.16 29.521-6.086.934.481 2.611h-5.455l1.423 1.894-7.107.271 2.314 2.1-8.73 1.191 2.13 1.188-9.543.593 2.934 1.659-9.962 1.423 1.423 1.659-7.831 1.188 1.423 1.423-7.823.951 2.131 1.188-8.775 1.658a30.994 30.994 0 0 1 1.389-3.736c.13-.28.261-.576.4-.882.113-.244.236-.489.358-.751l6.426-.777-1.423-1.423 7.83-1.183-1.423-1.659 9.961-1.423-2.933-1.659 9.543-.6-2.135-1.194 8.731-1.178-2.314-2.113 7.1-.262-1.423-1.9h5.457l-.472-2.611 6.086-.934-.6-1.79 5.108-1.641c2.374.5 4.854 1.109 7.429 1.859l-6.644 2.139z" fill="#6fc682"/><path d="m65.986 47.436-1.492.28c.13-.28.261-.576.4-.882z" fill="#8ae0a1"/><g fill="#2f3a5a"><path d="m63.1 52.451a1 1 0 0 1 -.964-1.262 43.366 43.366 0 0 1 19.738-24.389c11.833-6.627 26.841-7.354 44.609-2.162a1 1 0 0 1 .026 1.912l-5.679 1.826.277.83a1 1 0 0 1 -.8 1.3l-5.067.779.29 1.6a1 1 0 0 1 -.983 1.178h-3.457l.223.3a1 1 0 0 1 -.762 1.6l-4.659.175.509.463a1 1 0 0 1 -.54 1.73l-5.916.8a1 1 0 0 1 -.755 1.575l-6.183.388a1 1 0 0 1 -.351 1.861l-8.156 1.164.238.277a1 1 0 0 1 -.61 1.639l-5.871.89.024.024a1 1 0 0 1 -.587 1.7l-4.971.6a1 1 0 0 1 -.657 1.522l-8.776 1.663a1.055 1.055 0 0 1 -.19.017zm41.622-29.232a44.07 44.07 0 0 0 -21.847 5.308c-11.757 6.573-16.767 17.573-18.275 21.624l4.441-.84a1 1 0 0 1 .588-1.7l5.789-.7a1 1 0 0 1 .582-1.667l6.045-.916-.25-.291a1 1 0 0 1 .618-1.641l7.055-1.007-.378-.214a1 1 0 0 1 .429-1.868l6.551-.407a1 1 0 0 1 .793-1.368l6.611-.894-.733-.667a1 1 0 0 1 .637-1.738l5.194-.2-.277-.371a1 1 0 0 1 .8-1.6h4.258l-.26-1.43a1 1 0 0 1 .832-1.167l4.91-.755-.222-.664a1 1 0 0 1 .643-1.269l3.442-1.107a72.783 72.783 0 0 0 -17.972-2.451z"/><path d="m114.076 31.455a.993.993 0 0 1 -.364-.07l-3.151-1.233a1 1 0 1 1 .728-1.862l3.151 1.233a1 1 0 0 1 -.364 1.932z"/><path d="m119.72 28.642a.979.979 0 0 1 -.193-.019l-3.158-.616a1 1 0 1 1 .383-1.963l3.158.616a1 1 0 0 1 -.19 1.982z"/><path d="m109.1 34.064a1.012 1.012 0 0 1 -.309-.049l-3.255-1.056a1 1 0 0 1 .617-1.9l3.255 1.055a1 1 0 0 1 -.308 1.952z"/><path d="m103.614 36.329a1 1 0 0 1 -.308-.049l-2.6-.843a1 1 0 1 1 .617-1.9l2.6.842a1 1 0 0 1 -.309 1.952z"/><path d="m97.6 39.326a1 1 0 0 1 -.309-.049l-2.67-.867a1 1 0 1 1 .617-1.9l2.67.867a1 1 0 0 1 -.308 1.951z"/><path d="m90.146 41.487a1 1 0 0 1 -.309-.049l-2.774-.9a1 1 0 1 1 .617-1.9l2.774.9a1 1 0 0 1 -.308 1.951z"/><path d="m83.492 44.486a1.006 1.006 0 0 1 -.308-.049l-3.255-1.056a1 1 0 1 1 .617-1.9l3.254 1.054a1 1 0 0 1 -.309 1.951z"/><path d="m76.925 47.359a1.007 1.007 0 0 1 -.309-.049l-3.255-1.057a1 1 0 0 1 .618-1.9l3.254 1.056a1 1 0 0 1 -.308 1.952z"/></g><path d="m63.105 51.451s-11.149-41.037-63.099-25.851l6.642 2.13-.6 1.79 6.084.934-.475 2.61h5.456l-1.423 1.9 7.1.267-2.317 2.11 8.735 1.182-2.135 1.186 9.548.6-2.935 1.658 9.962 1.423-1.418 1.657 7.828 1.186-1.423 1.423 7.828.949-2.135 1.186z" fill="#8ae0a1"/><path d="m6.05 29.521 6.085.934-.48 2.611h5.457l-1.424 1.894 7.107.271-2.313 2.1 8.73 1.187-2.13 1.188 9.542.593-2.933 1.659 9.962 1.423-1.423 1.663 7.831 1.188-1.423 1.423 7.822.951-2.13 1.188 8.77 1.658a30.853 30.853 0 0 0 -1.388-3.736c-.131-.28-.262-.576-.4-.882-.114-.244-.236-.489-.358-.751l-6.426-.777 1.423-1.423-7.828-1.183 1.423-1.659-9.962-1.423 2.934-1.659-9.543-.6 2.13-1.188-8.73-1.178 2.313-2.113-7.1-.262 1.424-1.9h-5.455l.471-2.611-6.085-.934.6-1.79-5.105-1.65c-2.375.5-4.854 1.109-7.43 1.859l6.644 2.139z" fill="#6fc682"/><path d="m60.223 47.436 1.493.28c-.131-.28-.262-.576-.4-.882z" fill="#8ae0a1"/><path d="m63.1 52.451a1.052 1.052 0 0 1 -.185-.017l-8.776-1.661a1 1 0 0 1 -.657-1.522l-4.971-.6a1 1 0 0 1 -.587-1.7l.024-.024-5.871-.89a1 1 0 0 1 -.61-1.639l.238-.277-8.16-1.166a1 1 0 0 1 -.351-1.861l-6.178-.394a1 1 0 0 1 -.755-1.575l-5.917-.8a1 1 0 0 1 -.539-1.73l.508-.463-4.659-.175a1 1 0 0 1 -.762-1.6l.223-.3h-3.456a1 1 0 0 1 -.983-1.178l.29-1.6-5.066-.771a1 1 0 0 1 -.8-1.308l.277-.829-5.677-1.824a1 1 0 0 1 -.694-.965 1 1 0 0 1 .72-.947c17.774-5.193 32.779-4.465 44.609 2.165a43.357 43.357 0 0 1 19.734 24.389 1 1 0 0 1 -.965 1.262zm-5.933-3.14 4.44.84c-1.507-4.051-6.516-15.051-18.276-21.624-10.628-5.941-24.013-6.9-39.819-2.856l3.442 1.107a1 1 0 0 1 .646 1.269l-.222.664 4.91.755a1 1 0 0 1 .832 1.167l-.26 1.43h4.258a1 1 0 0 1 .8 1.6l-.277.37 5.194.2a1 1 0 0 1 .636 1.738l-.733.667 6.612.894a1 1 0 0 1 .79 1.368l6.548.411a1 1 0 0 1 .43 1.868l-.378.214 7.06 1.007a1 1 0 0 1 .618 1.641l-.25.291 6.045.916a1 1 0 0 1 .586 1.666l5.789.7a1 1 0 0 1 .588 1.7z" fill="#2f3a5a"/><path d="m12.134 31.455a1 1 0 0 1 -.364-1.932l3.151-1.233a1 1 0 1 1 .728 1.862l-3.149 1.233a.993.993 0 0 1 -.366.07z" fill="#2f3a5a"/><path d="m6.49 28.642a1 1 0 0 1 -.19-1.982l3.158-.616a1 1 0 0 1 .383 1.963l-3.158.616a.979.979 0 0 1 -.193.019z" fill="#2f3a5a"/><path d="m17.115 34.064a1 1 0 0 1 -.308-1.952l3.254-1.055a1 1 0 0 1 .617 1.9l-3.254 1.056a1.012 1.012 0 0 1 -.309.051z" fill="#2f3a5a"/><path d="m22.6 36.329a1 1 0 0 1 -.309-1.952l2.6-.842a1 1 0 1 1 .617 1.9l-2.6.843a1 1 0 0 1 -.308.051z" fill="#2f3a5a"/><path d="m28.605 39.326a1 1 0 0 1 -.308-1.951l2.671-.867a1 1 0 1 1 .617 1.9l-2.671.867a1 1 0 0 1 -.309.051z" fill="#2f3a5a"/><path d="m36.064 41.487a1 1 0 0 1 -.308-1.951l2.774-.9a1 1 0 1 1 .617 1.9l-2.774.9a1.007 1.007 0 0 1 -.309.051z" fill="#2f3a5a"/><path d="m42.718 44.486a1 1 0 0 1 -.309-1.951l3.254-1.056a1 1 0 1 1 .617 1.9l-3.254 1.056a1.006 1.006 0 0 1 -.308.051z" fill="#2f3a5a"/><path d="m49.285 47.359a1 1 0 0 1 -.308-1.952l3.254-1.056a1 1 0 0 1 .618 1.9l-3.255 1.059a1.007 1.007 0 0 1 -.309.049z" fill="#2f3a5a"/><path d="m64.028 51.45s7.791-41.805-45.594-50.706l5.054 4.809-1.316 1.352 5.073 3.485-1.561 2.144 4.916 2.371-2.109 1.095 6.281 3.327-3 .894 7.354 4.86-2.439.14 8.339 4.689-3.364.218 8.355 5.611-2 .877 6.535 4.47-1.9.663 6.631 4.251-2.439.141z" fill="#8ae0a1"/><path d="m22.171 6.906 5.075 3.486-1.567 2.142 4.914 2.371-2.105 1.088 6.283 3.332-3 .89 7.347 4.863-2.434.144 8.338 4.678-3.362.219 8.353 5.611-2 .876 6.537 4.472-1.9.663 6.63 4.259-2.435.143 7.182 5.307a31.034 31.034 0 0 0 .373-3.968c0-.309.015-.633.022-.969 0-.27 0-.543 0-.832l-5.45-3.492 1.9-.663-6.537-4.473 2-.875-8.353-5.611 3.363-.219-8.327-4.688 2.434-.144-7.352-4.856 3-.9-6.279-3.32 2.109-1.1-4.914-2.371 1.559-2.147-5.075-3.478 1.32-1.35-3.883-3.694c-2.355-.584-4.854-1.111-7.5-1.554l5.054 4.814z" fill="#6fc682"/><path d="m63.177 46.582 1.223.9c0-.309.015-.633.022-.969z" fill="#8ae0a1"/><path d="m64.027 52.45a1 1 0 0 1 -.594-.2l-7.183-5.305a1 1 0 0 1 .07-1.656l-4.216-2.7a1 1 0 0 1 .21-1.786l.033-.011-4.9-3.353a1 1 0 0 1 .163-1.741l.335-.147-6.841-4.6a1 1 0 0 1 .493-1.828l-5.4-3.037a1 1 0 0 1 0-1.746l-4.98-3.29a1 1 0 0 1 .266-1.793l.66-.2-4.12-2.182a1 1 0 0 1 .008-1.772l.331-.17-3.113-1.5a1 1 0 0 1 -.374-1.49l.957-1.313-4.227-2.9a1 1 0 0 1 -.15-1.522l.611-.627-4.322-4.113a1 1 0 0 1 .856-1.711c18.258 3.043 31.46 10.222 39.236 21.333a43.368 43.368 0 0 1 7.175 30.543 1 1 0 0 1 -.617.748 1.016 1.016 0 0 1 -.367.069zm-4.414-5.506 3.635 2.686c.4-4.308.666-16.386-7.068-27.419-6.99-9.969-18.627-16.647-34.623-19.876l2.621 2.493a1 1 0 0 1 .027 1.422l-.489.5 4.1 2.814a1 1 0 0 1 .242 1.413l-.858 1.177 3.832 1.846a1 1 0 0 1 .026 1.789l-.412.212 4.594 2.433a1 1 0 0 1 -.182 1.843l-.95.282 5.566 3.678a1 1 0 0 1 .119 1.576l5.721 3.216a1 1 0 0 1 -.426 1.87l-.432.028 5.915 3.973a1 1 0 0 1 -.156 1.746l-.352.154 5.046 3.451a1 1 0 0 1 -.2 1.756l4.91 3.148a1 1 0 0 1 -.209 1.785z" fill="#2f3a5a"/><path d="m30.62 11.649c-.025 0-.052 0-.077 0l-3.374-.259a1 1 0 1 1 .152-1.994l3.374.259a1 1 0 0 1 -.075 2z" fill="#2f3a5a"/><path d="m26.5 7.222a.976.976 0 0 1 -.255-.033l-3.112-.817a1 1 0 0 1 .508-1.934l3.112.817a1 1 0 0 1 -.253 1.967z" fill="#2f3a5a"/><path d="m33.988 16.368a1.035 1.035 0 0 1 -.136-.009l-3.39-.463a1 1 0 1 1 .271-1.982l3.39.463a1 1 0 0 1 -.135 1.991z" fill="#2f3a5a"/><path d="m37.255 20.7a1.062 1.062 0 0 1 -.137-.009l-2.705-.37a1 1 0 0 1 .272-1.982l2.7.37a1 1 0 0 1 -.135 1.991z" fill="#2f3a5a"/><path d="m41.442 26.017a1.047 1.047 0 0 1 -.136-.009l-2.782-.38a1 1 0 0 1 .272-1.982l2.781.38a1 1 0 0 1 -.135 1.991z" fill="#2f3a5a"/><path d="m47.329 31.22a.912.912 0 0 1 -.137-.01l-2.892-.395a1 1 0 1 1 .271-1.981l2.89.395a1 1 0 0 1 -.135 1.991z" fill="#2f3a5a"/><path d="m52.518 36.88a1.062 1.062 0 0 1 -.137-.009l-3.39-.463a1 1 0 0 1 .272-1.982l3.389.464a1 1 0 0 1 -.134 1.99z" fill="#2f3a5a"/><path d="m57.186 42.321a1.062 1.062 0 0 1 -.137-.009l-3.391-.463a1 1 0 0 1 .272-1.982l3.39.464a1 1 0 0 1 -.134 1.99z" fill="#2f3a5a"/><path d="m63.5 51.45s-7.789-41.805 45.6-50.706l-5.054 4.809 1.316 1.352-5.073 3.485 1.561 2.144-4.914 2.371 2.103 1.095-6.281 3.327 3 .894-7.354 4.86 2.439.14-8.339 4.689 3.364.218-8.355 5.611 2 .877-6.535 4.47 1.9.663-6.631 4.251 2.439.141z" fill="#8ae0a1"/><path d="m105.359 6.906-5.075 3.486 1.567 2.142-4.914 2.371 2.105 1.088-6.283 3.332 3 .89-7.348 4.863 2.435.144-8.338 4.678 3.362.219-8.353 5.611 2 .876-6.537 4.472 1.9.663-6.63 4.259 2.435.143-7.185 5.308a31.034 31.034 0 0 1 -.373-3.968c0-.309-.015-.633-.022-.969 0-.27 0-.543 0-.832l5.45-3.492-1.9-.663 6.537-4.473-2-.875 8.353-5.611-3.363-.219 8.333-4.689-2.435-.144 7.351-4.856-3-.9 6.279-3.32-2.109-1.1 4.914-2.371-1.559-2.147 5.075-3.485-1.32-1.35 3.886-3.7c2.355-.584 4.854-1.111 7.5-1.554l-5.054 4.814z" fill="#6fc682"/><path d="m64.353 46.582-1.223.9c0-.309-.015-.633-.022-.969z" fill="#8ae0a1"/><path d="m63.5 52.45a1 1 0 0 1 -.983-.817 43.359 43.359 0 0 1 7.175-30.544c7.778-11.11 20.98-18.289 39.24-21.332a1 1 0 0 1 .853 1.711l-4.321 4.112.611.627a1 1 0 0 1 -.15 1.522l-4.227 2.9.957 1.313a1 1 0 0 1 -.374 1.49l-3.113 1.5.331.17a1 1 0 0 1 .008 1.772l-4.119 2.182.658.2a1 1 0 0 1 .267 1.793l-4.982 3.292a1 1 0 0 1 0 1.746l-5.4 3.037a1 1 0 0 1 .493 1.828l-6.843 4.6.335.147a1 1 0 0 1 .163 1.741l-4.9 3.353.032.011a1 1 0 0 1 .21 1.786l-4.216 2.7a1 1 0 0 1 .07 1.656l-7.175 5.308a1 1 0 0 1 -.6.196zm42.473-50.115c-16 3.229-27.634 9.907-34.622 19.876-7.736 11.032-7.47 23.111-7.07 27.419l3.635-2.686a1 1 0 0 1 -.209-1.785l4.91-3.149a1 1 0 0 1 -.2-1.755l5.05-3.455-.352-.154a1 1 0 0 1 -.156-1.746l5.915-3.973-.432-.028a1 1 0 0 1 -.425-1.87l5.719-3.216a1.014 1.014 0 0 1 -.3-.481 1 1 0 0 1 .414-1.095l5.566-3.678-.948-.282a1 1 0 0 1 -.183-1.843l4.594-2.433-.411-.212a1 1 0 0 1 .032-1.789l3.835-1.85-.856-1.175a1 1 0 0 1 .242-1.413l4.095-2.814-.489-.5a1 1 0 0 1 .028-1.422z" fill="#2f3a5a"/><path d="m96.91 11.649a1 1 0 0 1 -.075-2l3.374-.259a1 1 0 1 1 .152 1.994l-3.374.259c-.025.005-.051.006-.077.006z" fill="#2f3a5a"/><path d="m101.031 7.223a1 1 0 0 1 -.253-1.968l3.114-.817a1 1 0 0 1 .507 1.934l-3.113.817a.977.977 0 0 1 -.255.034z" fill="#2f3a5a"/><path d="m93.542 16.368a1 1 0 0 1 -.135-1.991l3.39-.463a1 1 0 1 1 .271 1.982l-3.389.463a1.062 1.062 0 0 1 -.137.009z" fill="#2f3a5a"/><path d="m90.275 20.7a1 1 0 0 1 -.134-1.991l2.7-.37a1 1 0 1 1 .271 1.982l-2.7.37a1.062 1.062 0 0 1 -.137.009z" fill="#2f3a5a"/><path d="m86.088 26.017a1 1 0 0 1 -.135-1.991l2.781-.38a1 1 0 0 1 .272 1.982l-2.781.38a1.062 1.062 0 0 1 -.137.009z" fill="#2f3a5a"/><path d="m80.2 31.22a1 1 0 0 1 -.135-1.991l2.891-.395a1 1 0 1 1 .272 1.981l-2.891.395a.912.912 0 0 1 -.137.01z" fill="#2f3a5a"/><path d="m75.012 36.88a1 1 0 0 1 -.135-1.99l3.391-.464a1 1 0 1 1 .271 1.982l-3.391.463a1.035 1.035 0 0 1 -.136.009z" fill="#2f3a5a"/><path d="m70.345 42.321a1 1 0 0 1 -.135-1.99l3.39-.464a1 1 0 1 1 .271 1.982l-3.39.463a1.035 1.035 0 0 1 -.136.009z" fill="#2f3a5a"/><path d="m63.675 50.022s37.606-19.853 61.957 28.478l-6.093-3.4-.9 1.659-4.834-3.81-1.584 2.128-3.721-3.984-.416 2.336-5.042-5.01.039 3.133-6.825-5.579.59 2.37-6.953-6.571.791 3.277-7.839-6.312-.245 2.174-6.208-4.911-.069 2.012-6.035-5.075.589 2.37z" fill="#8ae0a1"/><path d="m118.638 76.765-4.838-3.811-1.581 2.132-3.719-3.986-.414 2.333-5.047-5.011.04 3.127-6.825-5.572.586 2.368-6.946-6.571.789 3.277-7.838-6.311-.245 2.17-6.209-4.91-.069 2.012-6.034-5.069.586 2.367-7.2-5.282a30.975 30.975 0 0 1 3.679-1.535c.293-.095.6-.2.918-.308.256-.084.519-.161.793-.251l4.953 4.166.069-2.011 6.214 4.911.242-2.172 7.838 6.311-.789-3.276 6.951 6.564-.585-2.367 6.819 5.578-.036-3.138 5.035 5.01.42-2.339 3.723 3.988 1.587-2.125 4.835 3.811.9-1.662 4.685 2.613c1.257 2.076 2.5 4.305 3.711 6.7l-6.1-3.4z" fill="#6fc682"/><path d="m68.576 49.389-1.223-.9c.293-.095.6-.2.918-.308z" fill="#8ae0a1"/><path d="m125.632 79.5a1 1 0 0 1 -.487-.127l-5.209-2.905-.418.769a1 1 0 0 1 -1.5.308l-4.027-3.173-.971 1.3a1 1 0 0 1 -.746.4 1.018 1.018 0 0 1 -.787-.316l-2.357-2.526-.066.366a1 1 0 0 1 -1.689.534l-3.307-3.285.009.686a1 1 0 0 1 -1.633.787l-4.623-3.779a1 1 0 0 1 -1.665.522l-4.5-4.256a1 1 0 0 1 -1.6 1.013l-6.42-5.169-.04.363a1 1 0 0 1 -1.615.673l-4.656-3.684v.033a1 1 0 0 1 -1.642.731l-3.834-3.224a1 1 0 0 1 -1.561.56l-7.2-5.283a1 1 0 0 1 .125-1.69 43.373 43.373 0 0 1 31.3-2.218c12.918 4.126 23.691 14.6 32.02 31.134a1 1 0 0 1 -.893 1.45zm-6.093-5.4a1 1 0 0 1 .487.127l3.159 1.762c-7.832-14.315-17.665-23.446-29.259-27.16-12.832-4.11-24.287-.271-28.282 1.392l3.645 2.679a1 1 0 0 1 1.643-.73l4.468 3.752a1 1 0 0 1 1.617-.708l4.8 3.794.042-.382a1 1 0 0 1 1.621-.668l5.55 4.47-.1-.422a1 1 0 0 1 1.658-.961l4.77 4.507a1 1 0 0 1 1.54-.354l5.165 4.223-.013-.989a1 1 0 0 1 1.7-.723l3.688 3.665.081-.456a1 1 0 0 1 1.715-.507l2.905 3.112.861-1.166a1 1 0 0 1 1.421-.188l3.9 3.075.334-.616a1 1 0 0 1 .879-.523z" fill="#2f3a5a"/><path d="m113.805 73.955a1 1 0 0 1 -.93-.631l-1.249-3.145a1 1 0 0 1 1.859-.739l1.249 3.145a1 1 0 0 1 -.929 1.37z" fill="#2f3a5a"/><path d="m119.712 76.16a1 1 0 0 1 -.85-.47l-1.7-2.73a1 1 0 0 1 1.7-1.059l1.7 2.729a1 1 0 0 1 -.32 1.378.99.99 0 0 1 -.53.152z" fill="#2f3a5a"/><path d="m108.5 72.093a1 1 0 0 1 -.907-.576l-1.449-3.1a1 1 0 1 1 1.812-.848l1.449 3.1a1 1 0 0 1 -.905 1.424z" fill="#2f3a5a"/><path d="m103.1 69.633a1 1 0 0 1 -.908-.577l-1.155-2.473a1 1 0 0 1 1.813-.846l1.155 2.472a1 1 0 0 1 -.484 1.33.988.988 0 0 1 -.421.094z" fill="#2f3a5a"/><path d="m96.812 67.284a1 1 0 0 1 -.908-.576l-1.188-2.543a1 1 0 1 1 1.812-.847l1.189 2.543a1 1 0 0 1 -.905 1.423z" fill="#2f3a5a"/><path d="m90.143 63.307a1 1 0 0 1 -.908-.577l-1.235-2.642a1 1 0 0 1 1.813-.847l1.235 2.643a1 1 0 0 1 -.905 1.423z" fill="#2f3a5a"/><path d="m83.41 60.49a1 1 0 0 1 -.907-.576l-1.449-3.1a1 1 0 0 1 1.812-.847l1.449 3.1a1 1 0 0 1 -.482 1.33 1.015 1.015 0 0 1 -.423.093z" fill="#2f3a5a"/><path d="m76.828 57.649a1 1 0 0 1 -.907-.577l-1.448-3.1a1 1 0 0 1 1.812-.847l1.448 3.1a1 1 0 0 1 -.905 1.423z" fill="#2f3a5a"/><path d="m63.8 50.022s-37.608-19.853-61.959 28.478l6.093-3.4.9 1.659 4.835-3.81 1.583 2.128 3.723-3.989.416 2.336 5.042-5.01-.039 3.133 6.825-5.579-.59 2.37 6.953-6.571-.791 3.277 7.839-6.312.243 2.174 6.208-4.906.069 2.012 6.036-5.075-.59 2.37z" fill="#8ae0a1"/><path d="m8.835 76.765 4.836-3.811 1.58 2.132 3.724-3.986.413 2.333 5.048-5.011-.036 3.125 6.825-5.572-.585 2.368 6.945-6.571-.789 3.277 7.838-6.311.242 2.172 6.206-4.91.069 2.012 6.034-5.069-.585 2.362 7.2-5.282a31 31 0 0 0 -3.678-1.535c-.294-.095-.6-.2-.919-.308-.256-.084-.518-.161-.793-.251l-4.954 4.171-.069-2.011-6.212 4.911-.242-2.172-7.833 6.31.789-3.276-6.952 6.564.586-2.367-6.823 5.578.035-3.133-5.035 5.01-.42-2.339-3.724 3.988-1.586-2.125-4.836 3.811-.9-1.662-4.683 2.613c-1.257 2.076-2.5 4.305-3.71 6.7l6.1-3.4z" fill="#6fc682"/><path d="m58.9 49.389 1.223-.9c-.294-.095-.6-.2-.919-.308z" fill="#8ae0a1"/><path d="m1.841 79.5a1 1 0 0 1 -.893-1.45c8.329-16.533 19.1-27.008 32.021-31.134a43.363 43.363 0 0 1 31.3 2.218 1 1 0 0 1 .125 1.69l-7.2 5.283a1 1 0 0 1 -1.561-.559l-3.833 3.223a1 1 0 0 1 -1.643-.731v-.034l-4.664 3.694a1 1 0 0 1 -1.614-.673l-.04-.364-6.421 5.17a1 1 0 0 1 -1.6-1.014l-4.5 4.255a1 1 0 0 1 -1.665-.522l-4.623 3.779a1 1 0 0 1 -1.63-.791l.008-.688-3.308 3.286a1 1 0 0 1 -1.69-.534l-.065-.367-2.36 2.527a1.03 1.03 0 0 1 -.786.316 1 1 0 0 1 -.746-.4l-.97-1.3-4.03 3.169a1 1 0 0 1 -1.5-.309l-.417-.768-5.21 2.905a1 1 0 0 1 -.485.123zm43.618-32.5a38.934 38.934 0 0 0 -11.911 1.835c-11.6 3.714-21.427 12.845-29.261 27.16l3.16-1.762a1.009 1.009 0 0 1 .766-.087 1 1 0 0 1 .6.484l.334.615 3.9-3.075a1 1 0 0 1 1.421.188l.868 1.166 2.906-3.112a1 1 0 0 1 1.715.507l.081.455 3.687-3.664a1 1 0 0 1 1.7.722l-.012.99 5.173-4.222a1 1 0 0 1 1.54.354l4.77-4.507a1 1 0 0 1 1.658.962l-.1.421 5.546-4.472a1 1 0 0 1 1.621.668l.042.382 4.8-3.794a1 1 0 0 1 1.617.709l4.464-3.754a1 1 0 0 1 1.643.73l3.644-2.673a43.771 43.771 0 0 0 -16.372-3.226z" fill="#2f3a5a"/><path d="m13.669 73.955a1 1 0 0 1 -.93-1.37l1.249-3.145a1 1 0 0 1 1.86.739l-1.248 3.145a1 1 0 0 1 -.931.631z" fill="#2f3a5a"/><path d="m7.762 76.16a1 1 0 0 1 -.848-1.53l1.7-2.729a1 1 0 0 1 1.7 1.059l-1.7 2.73a1 1 0 0 1 -.852.47z" fill="#2f3a5a"/><path d="m18.975 72.093a1 1 0 0 1 -.906-1.423l1.449-3.1a1 1 0 1 1 1.812.846l-1.448 3.1a1 1 0 0 1 -.907.577z" fill="#2f3a5a"/><path d="m24.369 69.633a1 1 0 0 1 -.905-1.424l1.156-2.473a1 1 0 0 1 1.813.848l-1.157 2.473a1 1 0 0 1 -.907.576z" fill="#2f3a5a"/><path d="m30.661 67.284a1 1 0 0 1 -.905-1.424l1.189-2.543a1 1 0 0 1 1.813.848l-1.19 2.543a1 1 0 0 1 -.907.576z" fill="#2f3a5a"/><path d="m37.331 63.307a1 1 0 0 1 -.905-1.423l1.235-2.643a1 1 0 0 1 1.813.847l-1.236 2.642a1 1 0 0 1 -.907.577z" fill="#2f3a5a"/><path d="m44.063 60.49a1 1 0 0 1 -.905-1.424l1.448-3.1a1 1 0 0 1 1.813.847l-1.448 3.1a1 1 0 0 1 -.908.577z" fill="#2f3a5a"/><path d="m50.645 57.649a1 1 0 0 1 -.906-1.423l1.449-3.1a1 1 0 0 1 1.812.847l-1.449 3.1a1 1 0 0 1 -.906.576z" fill="#2f3a5a"/></svg>