<svg id="icon" height="512" viewBox="0 0 128 128" width="512" xmlns="http://www.w3.org/2000/svg"><path d="m2.4 74.862c3.561-4.206 24.12-26.552 61.376-30.162a18.2 18.2 0 0 1 1.385-14.642 17.842 17.842 0 0 1 4.461-5.191c-16.815-17.138-35.841-15.015-37.422-14.805a63.167 63.167 0 0 0 -15.145 12.538c-.14.16-.278.32-.416.481-.56.646-1.1 1.313-1.629 1.982-.332.421-.673.836-.995 1.266-.039.052-.076.108-.115.16a62.8 62.8 0 0 0 -12.434 37.604 63.49 63.49 0 0 0 .934 10.769z" fill="#ffc943"/><path d="m126.64 64a62.274 62.274 0 0 0 -4.385-22.978c-10.155-2.622-16.661-2.147-20.395-1.235a17.564 17.564 0 0 1 -6.618 14.838c4.916 6.864 19.479 29.167 17.144 49.111a62.347 62.347 0 0 0 14.254-39.736z" fill="#ef5361"/><path d="m44.142 123.4c2.209-2.387 26.817-29.7 30.658-66.457-.559-.255-1.114-.526-1.659-.835a20.306 20.306 0 0 1 -9.115-10.714c-38.913 3.706-59.511 27.986-61.461 30.393a62.724 62.724 0 0 0 1.7 6.942c.019.06.035.121.054.181.233.745.49 1.479.748 2.211.247.686.5 1.369.769 2.043.13.331.256.664.391.992a62.939 62.939 0 0 0 37.915 35.244z" fill="#ef5361"/><path d="m64 1.359a62.239 62.239 0 0 0 -30.321 7.853c5.25-.3 21.753.121 36.515 15.208a18.664 18.664 0 0 1 6.548-3.037 19.845 19.845 0 0 1 8.607-.181 81.438 81.438 0 0 0 2.4-15.153 62.28 62.28 0 0 0 -23.749-4.69z" fill="#da2a47"/><path d="m111.537 104.724c2.971-19.9-11.845-42.641-16.843-49.631a19.2 19.2 0 0 1 -11.439 3.7 20.383 20.383 0 0 1 -7.768-1.55c-3.836 35.871-27.276 62.751-30.6 66.4a62.522 62.522 0 0 0 66.651-18.924z" fill="#4fa4d1"/><path d="m111.537 104.724c2.971-19.9-11.845-42.641-16.843-49.631a19.2 19.2 0 0 1 -11.439 3.7 20.383 20.383 0 0 1 -7.768-1.55c-3.836 35.871-27.276 62.751-30.6 66.4a62.522 62.522 0 0 0 66.651-18.924z" fill="#4fa4d1"/><path d="m14.16 49.14a55.234 55.234 0 0 0 1.69 13.56 78.862 78.862 0 0 0 -13.45 12.16 63.627 63.627 0 0 1 -.93-10.77 62.78 62.78 0 0 1 12.43-37.6c.04-.06.08-.11.12-.16.32-.43.66-.85.99-1.27.53-.67 1.07-1.34 1.63-1.98l.42-.48a62.736 62.736 0 0 1 10.39-9.41 55.425 55.425 0 0 0 -13.29 35.95z" fill="#f7b521"/><path d="m112.39 103.74a41.444 41.444 0 0 0 -.19-10.55 58.4 58.4 0 0 0 12.48-13.64 62.44 62.44 0 0 1 -12.29 24.19z" fill="#da2a47"/><path d="m58.1 104.34a125.2 125.2 0 0 1 -13.96 19.06 62.955 62.955 0 0 1 -37.91-35.24c-.14-.33-.26-.66-.39-1-.27-.67-.52-1.35-.77-2.04-.26-.73-.52-1.47-.75-2.21-.02-.06-.03-.12-.05-.18a61.637 61.637 0 0 1 -1.7-6.94 74.758 74.758 0 0 1 13.47-12.34c5.34 19.82 21.48 35.48 42.06 40.89z" fill="#da2a47"/><path d="m111.54 104.72a62.525 62.525 0 0 1 -66.65 18.93 126.926 126.926 0 0 0 13.93-19.13 62.531 62.531 0 0 0 15.17 1.86 61.247 61.247 0 0 0 37.56-12.69 39.946 39.946 0 0 1 -.01 11.03z" fill="#477ea8"/><path d="m88.455 6.333a83.351 83.351 0 0 1 -2.4 15 20.876 20.876 0 0 1 5.553 2.17 20.072 20.072 0 0 1 10.211 15.55c3.772-.9 10.216-1.344 20.111 1.144a63 63 0 0 0 -33.475-33.864z" fill="#6fc682"/><path d="m85.507 21.953a19.323 19.323 0 0 0 -4.013-.429 19.064 19.064 0 0 0 -4.579.557 17.413 17.413 0 0 0 -11.129 8.329c-4.896 8.643-1.438 19.89 7.714 25.073s20.572 2.365 25.469-6.278 1.437-19.89-7.709-25.073a20.112 20.112 0 0 0 -5.636-2.153.339.339 0 0 1 -.089-.011c-.016-.002-.019-.012-.028-.015z" fill="#dbe2eb"/><path d="m84.284 124.018c-.573.194-1.155.367-1.735.545.582-.173 1.16-.356 1.735-.545z" fill="#ef5361"/><path d="m99.842 11.788-.041-.027z" fill="#ef5361"/><g fill="#2f3a5a"><path d="m64 128a64 64 0 1 1 64-64 64.072 64.072 0 0 1 -64 64zm0-126a62 62 0 1 0 62 62 62.07 62.07 0 0 0 -62-62z"/><path d="m70.152 25.885a1 1 0 0 1 -.718-.305c-17.267-17.835-37.047-14.901-37.243-14.87a1 1 0 0 1 -.32-1.974c.208-.035 20.979-3.163 39 15.453a1 1 0 0 1 -.719 1.7z"/><path d="m85.617 22.62a.963.963 0 0 1 -.247-.032 1 1 0 0 1 -.722-1.215 78.9 78.9 0 0 0 2.472-15.603.988.988 0 0 1 1.026-.97 1 1 0 0 1 .973 1.025 79.414 79.414 0 0 1 -2.534 16.046 1 1 0 0 1 -.968.749z"/><path d="m2.108 76.78a1 1 0 0 1 -.793-1.607c.208-.273 21.317-27.308 62.818-31.158a1 1 0 1 1 .185 1.991c-40.639 3.771-61.211 30.116-61.418 30.382a1 1 0 0 1 -.792.392z"/><path d="m44.23 124.827a1 1 0 0 1 -.721-1.692c.267-.279 26.8-28.314 30.683-66.5a1 1 0 0 1 1.99.2c-3.959 38.892-30.958 67.4-31.231 67.685a1 1 0 0 1 -.721.307z"/><path d="m111.871 105.954a1 1 0 0 1 -.99-1.153c3.092-19.991-12.174-43.049-16.926-49.64a1 1 0 1 1 1.622-1.17c4.865 6.747 20.489 30.372 17.281 51.115a1 1 0 0 1 -.987.848z"/><path d="m122.544 41.723a.916.916 0 0 1 -.253-.033c-10.373-2.71-16.889-2.16-20.529-1.221a1 1 0 0 1 -.5-1.937c3.87-1 10.747-1.6 21.534 1.224a1 1 0 0 1 -.252 1.967z"/><path d="m83.254 59.451a21.15 21.15 0 0 1 -10.429-2.785c-9.8-5.552-13.487-17.63-8.221-26.926a18.76 18.76 0 0 1 11.985-8.979 20.861 20.861 0 0 1 15.336 2.189c9.8 5.551 13.487 17.63 8.221 26.925a18.76 18.76 0 0 1 -11.985 8.979 20.471 20.471 0 0 1 -4.907.597zm-1.76-37.286a18.454 18.454 0 0 0 -4.426.538 16.779 16.779 0 0 0 -10.724 8.023c-4.722 8.336-1.373 19.191 7.467 24.2a18.886 18.886 0 0 0 13.871 1.988 16.782 16.782 0 0 0 10.724-8.024c4.722-8.336 1.373-19.192-7.467-24.2a19.152 19.152 0 0 0 -9.445-2.525z"/></g></svg>