<svg id="icon" height="512" viewBox="0 0 128 128" width="512" xmlns="http://www.w3.org/2000/svg"><path d="m64.848 100.139a14.124 14.124 0 0 1 9.232-11.275 16.192 16.192 0 0 0 5.806-3.717c7.936-7.935 6.079-22.658-4.148-32.885s-24.95-12.084-32.885-4.148a16.192 16.192 0 0 0 -3.717 5.806 14.124 14.124 0 0 1 -11.275 9.232 32.715 32.715 0 0 0 -18.846 9.33c-12.842 12.842-9.234 30.054 3.608 42.9s30.053 16.45 42.9 3.608a32.715 32.715 0 0 0 9.325-18.851z" fill="#e1b378"/><path d="m37.18 128a26.972 26.972 0 0 1 -3.229-.195c-7.559-.908-15.384-5.07-22.035-11.721s-10.816-14.476-11.716-22.035c-1-8.271 1.807-15.973 8.108-22.274a33.55 33.55 0 0 1 19.42-9.614 13.179 13.179 0 0 0 10.472-8.593 17.17 17.17 0 0 1 3.946-6.161c4.061-4.062 9.892-5.846 16.415-5.022a31.235 31.235 0 0 1 17.884 9.17 31.235 31.235 0 0 1 9.17 17.884c.823 6.524-.96 12.354-5.022 16.415a17.16 17.16 0 0 1 -6.161 3.946 13.179 13.179 0 0 0 -8.593 10.472 33.55 33.55 0 0 1 -9.614 19.42c-5.473 5.473-12.003 8.308-19.045 8.308zm18.35-83.807a16.58 16.58 0 0 0 -11.97 4.628 15.193 15.193 0 0 0 -3.488 5.45 15.174 15.174 0 0 1 -12.078 9.872 31.577 31.577 0 0 0 -18.272 9.046c-5.851 5.851-8.459 12.982-7.541 20.622.854 7.115 4.819 14.523 11.149 20.859s13.744 10.3 20.859 11.149c7.644.92 14.771-1.69 20.622-7.541a31.577 31.577 0 0 0 9.046-18.272 15.174 15.174 0 0 1 9.872-12.078 15.188 15.188 0 0 0 5.45-3.488c7.533-7.532 5.672-21.65-4.148-31.471-5.755-5.754-12.985-8.776-19.501-8.776z" fill="#2f3a5a"/><circle cx="48.79" cy="79.21" fill="#a87b51" r="10.949"/><path d="m56.536 86.954a10.955 10.955 0 0 1 -17.709-12.3 10.954 10.954 0 0 0 20.745 2.678 10.935 10.935 0 0 1 -3.036 9.622z" fill="#bd8d5a"/><path d="m48.79 91.159a11.949 11.949 0 1 1 8.449-3.5 11.87 11.87 0 0 1 -8.449 3.5zm0-21.893a9.944 9.944 0 1 0 7.035 2.909 9.919 9.919 0 0 0 -7.035-2.909z" fill="#2f3a5a"/><path d="m13.607 95.447h32.192v5.699h-32.192z" fill="#e1b378" transform="matrix(.707 .707 -.707 .707 78.206 7.787)"/><path d="m39.07 112.693a1 1 0 0 1 -.707-.293l-22.763-22.763a1 1 0 0 1 0-1.414l4.03-4.03a1.029 1.029 0 0 1 1.414 0l22.763 22.763a1 1 0 0 1 0 1.414l-4.03 4.03a1 1 0 0 1 -.707.293zm-21.349-23.763 21.349 21.349 2.616-2.616-21.349-21.349z" fill="#2f3a5a"/><path d="m79.967 11.603h10.438v62.423h-10.438z" fill="#84879c" transform="matrix(.707 .707 -.707 .707 55.225 -47.695)"/><path d="m66.807 69.575a1 1 0 0 1 -.707-.293l-7.382-7.382a1 1 0 0 1 0-1.414l44.14-44.139a1 1 0 0 1 1.414 0l7.381 7.381a1 1 0 0 1 0 1.414l-44.139 44.14a1 1 0 0 1 -.707.293zm-5.968-8.382 5.968 5.968 42.725-42.726-5.967-5.967z" fill="#2f3a5a"/><rect fill="#84879c" height="17.912" rx="3.189" transform="matrix(.707 -.707 .707 .707 22.218 84.184)" width="26.191" x="99.632" y="6.316"/><path d="m109.8 30.542a4.177 4.177 0 0 1 -2.962-1.225l-8.156-8.156a4.194 4.194 0 0 1 0-5.924l14.01-14.01a4.189 4.189 0 0 1 5.924 0l8.156 8.156a4.189 4.189 0 0 1 0 5.924l-14.01 14.01a4.18 4.18 0 0 1 -2.962 1.225zm5.855-28.542a2.179 2.179 0 0 0 -1.548.641l-14.007 14.01a2.193 2.193 0 0 0 0 3.1l8.156 8.156a2.194 2.194 0 0 0 3.1 0l14.01-14.01a2.19 2.19 0 0 0 0-3.1l-8.166-8.156a2.175 2.175 0 0 0 -1.545-.641z" fill="#2f3a5a"/><path d="m124.07 16.596 2.76 2.76" fill="#84879c"/><path d="m126.83 20.356a.993.993 0 0 1 -.707-.293l-2.76-2.76a1 1 0 1 1 1.414-1.414l2.76 2.76a1 1 0 0 1 -.707 1.707z" fill="#2f3a5a"/><path d="m119.061 21.605 2.76 2.76" fill="#84879c"/><path d="m121.821 25.365a1 1 0 0 1 -.707-.293l-2.76-2.76a1 1 0 0 1 1.414-1.415l2.76 2.761a1 1 0 0 1 -.707 1.707z" fill="#2f3a5a"/><path d="m114.052 26.613 2.761 2.761" fill="#84879c"/><path d="m116.813 30.374a1 1 0 0 1 -.708-.293l-2.76-2.761a1 1 0 1 1 1.414-1.414l2.761 2.761a1 1 0 0 1 -.707 1.707z" fill="#2f3a5a"/><path d="m108.644 1.17 2.76 2.76" fill="#84879c"/><path d="m111.4 4.93a1 1 0 0 1 -.707-.293l-2.76-2.76a1 1 0 0 1 1.418-1.414l2.76 2.76a1 1 0 0 1 -.711 1.707z" fill="#2f3a5a"/><path d="m103.635 6.179 2.76 2.76" fill="#84879c"/><path d="m106.4 9.939a1 1 0 0 1 -.708-.293l-2.76-2.76a1 1 0 1 1 1.414-1.414l2.761 2.76a1 1 0 0 1 -.707 1.707z" fill="#2f3a5a"/><path d="m98.626 11.187 2.761 2.761" fill="#84879c"/><path d="m101.387 14.948a.993.993 0 0 1 -.707-.293l-2.761-2.755a1 1 0 0 1 1.414-1.415l2.761 2.761a1 1 0 0 1 -.707 1.707z" fill="#2f3a5a"/><path d="m114.2 6.134 1.068 1.068" fill="#84879c"/><path d="m115.269 8.2a1 1 0 0 1 -.707-.293l-1.069-1.068a1 1 0 1 1 1.414-1.414l1.069 1.075a1 1 0 0 1 -.707 1.707z" fill="#2f3a5a"/><path d="m120.798 12.732 1.068 1.068" fill="#84879c"/><path d="m121.866 14.8a1 1 0 0 1 -.707-.293l-1.068-1.069a1 1 0 0 1 1.414-1.414l1.068 1.069a1 1 0 0 1 -.707 1.707z" fill="#2f3a5a"/><path d="m108.895 11.439 1.068 1.068" fill="#84879c"/><path d="m109.963 13.507a1 1 0 0 1 -.707-.293l-1.068-1.068a1 1 0 0 1 1.415-1.414l1.067 1.068a1 1 0 0 1 -.707 1.707z" fill="#2f3a5a"/><path d="m115.493 18.037 1.068 1.068" fill="#84879c"/><path d="m116.561 20.1a1 1 0 0 1 -.707-.292l-1.068-1.068a1 1 0 1 1 1.414-1.41l1.068 1.067a1 1 0 0 1 -.707 1.707z" fill="#2f3a5a"/><path d="m103.59 16.744 1.068 1.068" fill="#84879c"/><path d="m104.658 18.812a1 1 0 0 1 -.707-.293l-1.068-1.068a1 1 0 0 1 1.414-1.414l1.068 1.068a1 1 0 0 1 -.707 1.707z" fill="#2f3a5a"/><path d="m110.188 23.342 1.068 1.068" fill="#84879c"/><path d="m111.256 25.41a1 1 0 0 1 -.707-.293l-1.068-1.068a1 1 0 1 1 1.414-1.414l1.068 1.068a1 1 0 0 1 -.707 1.707z" fill="#2f3a5a"/></svg>