<svg id="icon" height="512" viewBox="0 0 128 128" width="512" xmlns="http://www.w3.org/2000/svg"><circle cx="64" cy="64" fill="#ffc943" r="37.458"/><path d="m101.462 64.005a37.458 37.458 0 0 1 -62.1 28.2 37.46 37.46 0 0 0 39.655-62.526 37.463 37.463 0 0 1 22.445 34.326z" fill="#f7b521"/><path d="m64 102.458a38.458 38.458 0 1 1 38.458-38.458 38.5 38.5 0 0 1 -38.458 38.458zm0-74.916a36.458 36.458 0 1 0 36.458 36.458 36.5 36.5 0 0 0 -36.458-36.458z" fill="#2f3a5a"/><path d="m64.001 1.002-4.958 20.433h9.916z" fill="#ffc943"/><path d="m68.959 21.432h-9.918l.476-1.943h5.95l-2.975-12.265 1.508-6.224z" fill="#f7b521"/><path d="m68.959 22.435h-9.916a1 1 0 0 1 -.972-1.236l4.958-20.432a1 1 0 0 1 1.944 0l4.958 20.433a1 1 0 0 1 -.972 1.236zm-8.645-2h7.374l-3.688-15.192z" fill="#2f3a5a"/><path d="m63.999 126.998 4.958-20.433h-9.916z" fill="#ffc943"/><path d="m59.041 106.568h9.918l-.476 1.943h-5.95l2.975 12.265-1.508 6.224z" fill="#f7b521"/><path d="m64 128a1 1 0 0 1 -.972-.765l-4.959-20.435a1 1 0 0 1 .972-1.236h9.916a1 1 0 0 1 .972 1.236l-4.958 20.432a1 1 0 0 1 -.971.768zm-3.686-20.433 3.686 15.19 3.687-15.192z" fill="#2f3a5a"/><path d="m126.998 64.001-20.433-4.958v9.916z" fill="#ffc943"/><path d="m106.568 68.959v-9.918l1.943.476v5.95l12.265-2.975 6.224 1.508z" fill="#f7b521"/><path d="m106.565 69.958a1 1 0 0 1 -1-1v-9.915a1 1 0 0 1 1.236-.972l20.432 4.958a1 1 0 0 1 0 1.944l-20.433 4.957a.983.983 0 0 1 -.235.028zm1-9.644v7.373l15.192-3.687z" fill="#2f3a5a"/><path d="m1.002 63.999 20.433 4.958v-9.916z" fill="#ffc943"/><path d="m21.432 59.041v9.918l-1.943-.476v-5.95l-12.265 2.975-6.224-1.508z" fill="#f7b521"/><path d="m21.435 69.957a.983.983 0 0 1 -.236-.028l-20.432-4.958a1 1 0 0 1 0-1.944l20.433-4.957a1 1 0 0 1 1.236.972v9.915a1 1 0 0 1 -1 1zm-16.192-5.957 15.192 3.687v-7.374z" fill="#2f3a5a"/><path d="m108.547 19.454-17.954 10.943 7.011 7.011z" fill="#ffc943"/><path d="m97.607 37.406-7.013-7.013 1.71-1.037 4.208 4.207 6.569-10.776 5.467-3.335z" fill="#f7b521"/><path d="m97.6 38.408a1 1 0 0 1 -.707-.293l-7.007-7.015a1 1 0 0 1 .186-1.561l17.954-10.939a1 1 0 0 1 1.374 1.374l-10.942 17.955a1 1 0 0 1 -.734.472.966.966 0 0 1 -.124.007zm-5.4-7.819 5.212 5.211 8.136-13.349z" fill="#2f3a5a"/><path d="m19.453 108.546 17.954-10.943-7.011-7.011z" fill="#ffc943"/><path d="m30.393 90.594 7.013 7.013-1.71 1.037-4.208-4.207-6.569 10.776-5.467 3.335z" fill="#f7b521"/><path d="m19.453 109.545a1 1 0 0 1 -.853-1.52l10.942-17.954a1 1 0 0 1 1.561-.186l7.011 7.015a1 1 0 0 1 -.186 1.561l-17.954 10.939a.99.99 0 0 1 -.521.145zm11.135-17.345-8.136 13.349 13.348-8.138z" fill="#2f3a5a"/><path d="m108.546 108.547-10.943-17.954-7.011 7.011z" fill="#ffc943"/><path d="m90.594 97.607 7.013-7.013 1.037 1.71-4.207 4.208 10.776 6.569 3.335 5.467z" fill="#f7b521"/><path d="m108.546 109.547a1 1 0 0 1 -.521-.146l-17.954-10.943a1 1 0 0 1 -.186-1.561l7.015-7.011a1 1 0 0 1 1.561.186l10.939 17.954a1 1 0 0 1 -.853 1.521zm-16.346-12.134 13.349 8.135-8.138-13.348z" fill="#2f3a5a"/><path d="m19.454 19.453 10.943 17.954 7.011-7.011z" fill="#ffc943"/><path d="m37.406 30.393-7.013 7.013-1.037-1.71 4.207-4.208-10.776-6.569-3.335-5.467z" fill="#f7b521"/><path d="m30.4 38.407a.961.961 0 0 1 -.119-.007 1 1 0 0 1 -.734-.472l-10.947-17.954a1 1 0 0 1 1.375-1.374l17.954 10.942a1 1 0 0 1 .186 1.561l-7.015 7.011a1 1 0 0 1 -.7.293zm-7.947-15.955 8.136 13.348 5.211-5.213z" fill="#2f3a5a"/></svg>