<svg id="icon" height="512" viewBox="0 0 128 128" width="512" xmlns="http://www.w3.org/2000/svg"><path d="m101.149 18.554v85.768h-74.305v-85.768h17.144a20.015 20.015 0 1 0 40.03 0z" fill="#dbe2eb"/><path d="m101.148 105.322h-74.3a1 1 0 0 1 -1-1v-85.767a1 1 0 0 1 1-1h17.139a1 1 0 0 1 1 1 19.016 19.016 0 0 0 38.032 0 1 1 0 0 1 1-1h17.129a1 1 0 0 1 1 1v85.767a1 1 0 0 1 -1 1zm-73.3-2h72.3v-83.767h-15.148a20.786 20.786 0 0 1 -1.769 7.492 21.012 21.012 0 0 1 -38.447 0 20.8 20.8 0 0 1 -1.768-7.491h-15.172z" fill="#2f3a5a"/><path d="m101.154 18.557 25.846 32.42-12.923 20.491-12.923-10.691z" fill="#6bb3d9"/><path d="m114.077 72.468a1 1 0 0 1 -.638-.229l-12.923-10.691a1 1 0 0 1 -.363-.771v-42.219a1 1 0 0 1 1.783-.624l25.846 32.42a1 1 0 0 1 .064 1.156l-12.923 20.49a1 1 0 0 1 -.688.455 1.041 1.041 0 0 1 -.158.013zm-11.924-12.161 11.685 9.666 11.937-18.928-23.622-29.629z" fill="#2f3a5a"/><path d="m26.846 18.557-25.846 32.42 12.923 20.491 12.923-10.691z" fill="#6bb3d9"/><path d="m13.923 72.468a1.041 1.041 0 0 1 -.158-.012 1 1 0 0 1 -.688-.456l-12.923-20.49a1 1 0 0 1 .064-1.156l25.846-32.42a1 1 0 0 1 1.783.624v42.219a1 1 0 0 1 -.363.771l-12.923 10.691a1 1 0 0 1 -.638.229zm-11.698-21.423 11.937 18.928 11.685-9.666v-38.891z" fill="#2f3a5a"/><path d="m43.988 18.554a19.92 19.92 0 0 0 1.706 8.088h-18.85v-8.088z" fill="#4fa4d1"/><path d="m45.694 27.642h-18.85a1 1 0 0 1 -1-1v-8.087a1 1 0 0 1 1-1h17.143a1 1 0 0 1 1 1 18.841 18.841 0 0 0 1.621 7.682 1 1 0 0 1 -.914 1.405zm-17.85-2h16.372a20.762 20.762 0 0 1 -1.2-6.087h-15.172z" fill="#2f3a5a"/><path d="m101.149 18.554v8.088h-18.837a19.92 19.92 0 0 0 1.706-8.088z" fill="#4fa4d1"/><path d="m101.148 27.642h-18.836a1 1 0 0 1 -.915-1.405 18.826 18.826 0 0 0 1.622-7.682 1 1 0 0 1 1-1h17.129a1 1 0 0 1 1 1v8.087a1 1 0 0 1 -1 1zm-17.358-2h16.358v-6.087h-15.148a20.794 20.794 0 0 1 -1.21 6.087z" fill="#2f3a5a"/><path d="m26.846 39.26h74.307v8.078h-74.307z" fill="#4fa4d1"/><path d="m101.153 48.338h-74.306a1 1 0 0 1 -1-1v-8.078a1 1 0 0 1 1-1h74.306a1 1 0 0 1 1 1v8.078a1 1 0 0 1 -1 1zm-73.306-2h72.306v-6.078h-72.306z" fill="#2f3a5a"/><path d="m26.846 59.962h74.307v8.078h-74.307z" fill="#4fa4d1"/><path d="m101.153 69.041h-74.306a1 1 0 0 1 -1-1v-8.079a1 1 0 0 1 1-1h74.306a1 1 0 0 1 1 1v8.079a1 1 0 0 1 -1 1zm-73.306-2h72.306v-6.079h-72.306z" fill="#2f3a5a"/><path d="m26.846 80.665h74.307v8.078h-74.307z" fill="#4fa4d1"/><path d="m101.153 89.743h-74.306a1 1 0 0 1 -1-1v-8.078a1 1 0 0 1 1-1h74.306a1 1 0 0 1 1 1v8.078a1 1 0 0 1 -1 1zm-73.306-2h72.306v-6.078h-72.306z" fill="#2f3a5a"/><path d="m26.846 101.367h74.307v8.078h-74.307z" fill="#4fa4d1"/><path d="m101.153 110.445h-74.306a1 1 0 0 1 -1-1v-8.078a1 1 0 0 1 1-1h74.306a1 1 0 0 1 1 1v8.078a1 1 0 0 1 -1 1zm-73.306-2h72.306v-6.078h-72.306z" fill="#2f3a5a"/></svg>