<svg id="icon" height="512" viewBox="0 0 128 128" width="512" xmlns="http://www.w3.org/2000/svg"><path d="m119.221 46.02a57.758 57.758 0 1 1 -110.643 23.22 57.406 57.406 0 0 1 4.87-23.22" fill="#bd8d5a"/><g opacity=".25"><path d="m124.092 69.243a57.771 57.771 0 0 1 -85.52 50.657 57.77 57.77 0 0 0 68.9-73.875h11.75a57.4 57.4 0 0 1 4.87 23.218z" fill="#aa7c52"/></g><path d="m66.335 128a58.824 58.824 0 0 1 -58.757-58.76 58.208 58.208 0 0 1 4.955-23.623 1 1 0 1 1 1.83.806 56.228 56.228 0 0 0 -4.785 22.817 56.757 56.757 0 0 0 113.514 0 56.232 56.232 0 0 0 -4.786-22.817 1 1 0 1 1 1.83-.806 58.212 58.212 0 0 1 4.956 23.623 58.824 58.824 0 0 1 -58.757 58.76z" fill="#2f3a5a"/><ellipse cx="66.336" cy="46.019" fill="#f0f5f9" rx="52.885" ry="10.263"/><ellipse cx="66.336" cy="46.019" fill="#c1cdd3" rx="46.285" ry="5.591"/><path d="m66.336 52.61c-24.276 0-40.311-3.052-46.665-5.666l-2.248-.925 2.248-.925c6.354-2.614 22.389-5.666 46.665-5.666s40.31 3.052 46.664 5.666l2.248.925-2.248.925c-6.354 2.614-22.388 5.666-46.664 5.666zm-43.226-6.591c6.756 2.022 21.146 4.591 43.226 4.591s36.47-2.569 43.226-4.591c-6.756-2.019-21.146-4.591-43.226-4.591s-36.47 2.572-43.226 4.591z" fill="#2f3a5a"/><path d="m66.336 57.283c-26.122 0-53.885-3.948-53.885-11.264s27.763-11.263 53.885-11.263 53.885 3.947 53.885 11.263-27.763 11.264-53.885 11.264zm0-20.527c-32.146 0-51.885 5.4-51.885 9.263s19.739 9.264 51.885 9.264 51.885-5.4 51.885-9.264-19.739-9.263-51.885-9.263z" fill="#2f3a5a"/><path d="m32.521 49.028a1 1 0 0 1 -.884-.529l-20.685-38.77a1 1 0 1 1 1.764-.941l20.684 38.77a1 1 0 0 1 -.881 1.47z" fill="#2f3a5a"/><path d="m8.894 1.8s18.438 19.619 31.166 17.012c0 0-10.365 1.87-10.174 9.089 0 0-8.771-1.247-12.619 6.732 0 0-6.754-2.671-13.359 3.119 0 0 9.099-13.991 4.986-35.952z" fill="#ffc943"/><path d="m29.886 27.9c-7.609-5.473-21.461-25.851-21.461-25.851 6.842 17.34 8.721 28.435 8.842 32.584.175-.128 4.068-7.499 12.619-6.733z" fill="#ffc943"/><path d="m17.268 35.633a1 1 0 0 1 -1-.97c-.146-4.989-2.532-16.427-8.768-32.246a1 1 0 0 1 1.757-.93c.137.2 13.839 20.294 21.218 25.6a1 1 0 0 1 -.675 1.813c-4.626-.416-8.726 1.744-11.549 6.078a1.519 1.519 0 0 1 -.388.464.991.991 0 0 1 -.595.191zm-5.214-26.723c3.584 10.188 5.4 18.1 5.993 23a13.852 13.852 0 0 1 9.086-4.98c-4.828-4.397-10.977-12.394-15.079-18.02z" fill="#2f3a5a"/><path d="m3.908 38.752a1 1 0 0 1 -.839-1.544c.089-.137 8.826-13.953 4.842-35.225a1 1 0 0 1 1.712-.869c.18.192 18.015 19 30.058 16.753l.2-.039a1 1 0 0 1 .379 1.964l-.13.025c-1.049.219-9.4 2.151-9.246 8.058a1 1 0 0 1 -.334.772 1.009 1.009 0 0 1 -.806.244c-.328-.045-8.1-1.028-11.577 6.177a1 1 0 0 1 -1.268.5c-.252-.1-6.295-2.352-12.333 2.941a1 1 0 0 1 -.658.243zm6.472-34.052c1.972 14.241-1.414 24.754-3.738 29.958a14.266 14.266 0 0 1 10.124-1.231c3.392-6.076 9.638-6.637 12.16-6.588.365-3.518 2.961-5.746 5.535-7.107-9.405-1.785-19.655-10.768-24.081-15.032z" fill="#2f3a5a"/><path d="m76.001 50.222 29.495-46.295-4.613-2.927-31.353 49.222" fill="#f0f5f9"/><path d="m69.529 51.222a1 1 0 0 1 -.842-1.537l31.353-49.222a1 1 0 0 1 1.379-.307l4.613 2.927a1 1 0 0 1 .308 1.381l-29.5 46.3a1 1 0 1 1 -1.686-1.074l28.957-45.45-2.921-1.861-30.816 48.38a1 1 0 0 1 -.845.463z" fill="#2f3a5a"/><g fill="#ad7e53"><path d="m88.249 81.756c-.619.045-.816.291-.672.5.272.389 1.208.694 1.176 1.056-.02.19-.268.476.459.445a1.9 1.9 0 0 0 1.064-.621 4.832 4.832 0 0 0 1.207-1.2c.308-.534.256-1.124.97-1.636-.547-.159-.489-.558.109-.743-.381.06-.6-.159-.458-.32s.47-.31.551-.482c.062-.133-.031-.256-.118-.37a8.336 8.336 0 0 1 -1.66-3.368 2.949 2.949 0 0 0 -1.8.725 4.418 4.418 0 0 0 1.065-.242 1.392 1.392 0 0 0 -.193 1.535l.343-.167c-.3.462-.6.9-.928 1.324a3.174 3.174 0 0 0 .956-.267c-.375.365-.752.711-1.146 1.04a3.2 3.2 0 0 0 1.061-.174q-.456.318-.926.612l.551-.138q-.828.476-1.682.88a3.4 3.4 0 0 0 1.191-.156c-.251.171-.508.335-.767.492l.431.025c-.1.125-.205.248-.313.369l.833-.089q-.879.465-1.778.843z"/><path d="m85.658 66.365c-.619.045-.815.291-.671.5.271.39 1.208.694 1.176 1.056-.02.19-.269.476.459.445a1.9 1.9 0 0 0 1.063-.621 4.829 4.829 0 0 0 1.207-1.2c.308-.535.257-1.125.971-1.637-.548-.159-.49-.558.109-.743-.382.06-.6-.159-.459-.32s.471-.31.552-.482c.061-.133-.031-.256-.119-.37a8.336 8.336 0 0 1 -1.66-3.368 2.944 2.944 0 0 0 -1.8.725 4.428 4.428 0 0 0 1.065-.242 1.39 1.39 0 0 0 -.194 1.535l.343-.167q-.443.693-.928 1.324a3.174 3.174 0 0 0 .956-.267c-.375.365-.752.711-1.145 1.04a3.212 3.212 0 0 0 1.061-.174q-.456.318-.926.612l.551-.138q-.829.476-1.682.88a3.41 3.41 0 0 0 1.191-.156c-.252.171-.509.335-.768.492l.432.025c-.1.125-.2.248-.313.369l.832-.089q-.879.465-1.778.843z"/><path d="m106.213 69.579c-.619.046-.816.292-.672.5.272.39 1.208.694 1.176 1.057-.02.189-.268.475.459.445a1.9 1.9 0 0 0 1.063-.621 4.853 4.853 0 0 0 1.208-1.2c.308-.535.256-1.125.97-1.637-.547-.159-.49-.557.109-.742-.381.059-.6-.16-.458-.321s.47-.31.551-.482c.062-.133-.031-.255-.118-.37a8.336 8.336 0 0 1 -1.66-3.368 2.953 2.953 0 0 0 -1.8.725 4.462 4.462 0 0 0 1.065-.241 1.391 1.391 0 0 0 -.193 1.535l.343-.167c-.3.462-.6.9-.928 1.323a3.174 3.174 0 0 0 .956-.267c-.375.366-.752.712-1.146 1.04a3.178 3.178 0 0 0 1.061-.174q-.456.319-.926.612l.551-.138q-.828.475-1.682.881a3.426 3.426 0 0 0 1.191-.157c-.251.171-.508.335-.767.492l.431.025c-.1.125-.2.248-.313.369l.833-.089q-.879.465-1.778.843z"/><path d="m81.726 99.062a.8.8 0 0 0 -1.156.421c-.239.727.159 1.694-.361 2.17-.269.251-.886.449-.243.861.438.286 1.373-.1 1.76-.224a7.641 7.641 0 0 0 2.531-1.2c.891-.7 1.455-1.729 2.552-2.2a.806.806 0 0 1 .779-1.189.457.457 0 0 1 -.1-.8c.263-.191.658-.249.871-.485a1.114 1.114 0 0 0 .211-.676 18.575 18.575 0 0 1 1.575-6.432 1.658 1.658 0 0 0 -1.9-.452 2.241 2.241 0 0 0 .952.55 3.838 3.838 0 0 0 -1.549 2.374l.408-.03-1.892 1.665a1.759 1.759 0 0 0 1 .162c-.612.387-1.228.765-1.845 1.122a1.645 1.645 0 0 0 1.024.338q-.657.282-1.315.537l.582.076c-.746.238-1.49.449-2.232.617a1.788 1.788 0 0 0 1.148.388c-.375.16-.753.308-1.127.446l.338.278c-.215.162-.427.321-.644.471l.8.294a16.542 16.542 0 0 1 -2.415.467z"/><path d="m103.475 95.16a.8.8 0 0 0 -1.157.421c-.238.727.16 1.694-.361 2.17-.269.252-.886.449-.242.862.438.286 1.373-.1 1.759-.225a7.626 7.626 0 0 0 2.532-1.2c.89-.7 1.454-1.729 2.551-2.2a.805.805 0 0 1 .779-1.188.457.457 0 0 1 -.1-.8c.263-.19.658-.248.872-.484a1.132 1.132 0 0 0 .211-.677 18.569 18.569 0 0 1 1.574-6.431 1.655 1.655 0 0 0 -1.9-.452 2.247 2.247 0 0 0 .952.55 3.832 3.832 0 0 0 -1.548 2.374l.408-.03-1.893 1.665a1.752 1.752 0 0 0 1 .161c-.613.387-1.228.765-1.845 1.123a1.657 1.657 0 0 0 1.024.338c-.439.187-.877.367-1.315.536l.581.077c-.745.237-1.49.448-2.231.616a1.787 1.787 0 0 0 1.147.389c-.375.16-.752.308-1.126.445l.337.278c-.214.162-.427.321-.644.471l.8.3a16.537 16.537 0 0 1 -2.415.466z"/><path d="m19.244 71.133a.708.708 0 0 0 0 1.165c.647.408 1.632.112 2 .57.2.241.371.786.783.154.278-.427.073-1.171.073-1.492a14.561 14.561 0 0 0 -.087-2.076c-.132-.74-.573-1.376-.189-2.243-.587.069-.737-.434-.259-.842-.33.2-.641.031-.57-.2s.318-.491.336-.7c.015-.163-.114-.272-.238-.379a6.322 6.322 0 0 1 -2.149-3.95 2.11 2.11 0 0 0 -1.84.616 2.969 2.969 0 0 0 1.087-.125 2.077 2.077 0 0 0 -.047 2.088l.316-.227c-.214.623-.409 1.268-.577 1.928a2.348 2.348 0 0 0 .87-.491c-.253.54-.5 1.1-.717 1.674a2.189 2.189 0 0 0 .964-.48c-.208.359-.409.724-.6 1.095l.459-.348q-.561.891-1.059 1.841a2.231 2.231 0 0 0 1.01-.662c-.131.336-.251.675-.365 1.018l.411-.144v.678l.666-.514q-.435 1.039-.791 2.142z"/><path d="m44.965 114.907a1.015 1.015 0 0 0 .9 1.194c1.015.158 1.842-.546 2.6-.26.412.142 1.037.587.97-.2-.046-.531-.864-1.146-1.114-1.467-.591-.687-1.1-1.455-1.693-2.048-.694-.716-1.622-1.232-1.829-2.316-.564.279-1.064-.237-.849-.845a.394.394 0 0 1 -.723-.049c-.083-.286 0-.654-.12-.9a.854.854 0 0 0 -.486-.366 9.023 9.023 0 0 1 -4.37-4.236 1.634 1.634 0 0 0 -1.521 1.222 2.184 2.184 0 0 0 1.016-.419 3.382 3.382 0 0 0 1.065 2.618l.187-.361a23.043 23.043 0 0 0 .564 2.488 1.8 1.8 0 0 0 .579-.827c.08.709.179 1.446.333 2.173a1.621 1.621 0 0 0 .675-.842c.018.479.053.962.11 1.442l.237-.538a23.135 23.135 0 0 0 .167 2.414 1.674 1.674 0 0 0 .588-1.065c.095.42.21.834.338 1.248l.326-.3c.159.249.32.5.495.738l.325-.784c.1.421.212.849.334 1.281s.269.848.419 1.28z"/><path d="m50.058 83.694c-.477.393-.43.85-.121 1.029.57.336 1.532.03 1.824.422.159.207.254.687.715.1.31-.394.21-1.048.247-1.33a11.424 11.424 0 0 0 .158-1.817c-.043-.637-.4-1.166.06-1.924-.57.086-.668-.336-.166-.7-.339.189-.623.055-.534-.146s.355-.43.391-.608c.029-.138-.087-.224-.2-.309a4.637 4.637 0 0 1 -1.854-3.211 2.494 2.494 0 0 0 -1.856.552 3.551 3.551 0 0 0 1.086-.128 1.54 1.54 0 0 0 -.165 1.745l.327-.2c-.252.529-.487 1.078-.7 1.644a2.817 2.817 0 0 0 .889-.445c-.288.465-.572.949-.832 1.446a2.628 2.628 0 0 0 .98-.444q-.349.469-.676.958l.476-.316q-.622.783-1.191 1.625a2.639 2.639 0 0 0 1.038-.612q-.236.443-.449.9l.411-.142c-.024.195-.047.393-.062.589l.691-.474q-.522.919-.977 1.9z"/><path d="m41.621 67.339c-.477.392-.43.85-.121 1.028.57.336 1.532.03 1.824.422.159.207.254.687.714.1.311-.395.211-1.048.248-1.331a11.406 11.406 0 0 0 .157-1.817c-.042-.637-.395-1.165.06-1.924-.569.087-.667-.336-.166-.7-.338.19-.622.055-.533-.146s.355-.429.391-.608c.029-.138-.087-.224-.2-.308a4.643 4.643 0 0 1 -1.855-3.214 2.489 2.489 0 0 0 -1.856.552 3.584 3.584 0 0 0 1.086-.129 1.54 1.54 0 0 0 -.165 1.745l.327-.2c-.252.529-.488 1.078-.7 1.644a2.817 2.817 0 0 0 .889-.445c-.289.465-.572.95-.832 1.447a2.629 2.629 0 0 0 .98-.445c-.233.313-.46.633-.676.958l.475-.316q-.621.784-1.19 1.626a2.651 2.651 0 0 0 1.038-.612q-.235.441-.449.9l.41-.142c-.023.2-.046.393-.062.589l.692-.474q-.522.919-.977 1.9z"/><path d="m27.3 95.1c-.478.393-.43.85-.122 1.029.57.336 1.532.03 1.824.422.16.207.254.686.715.1.311-.394.211-1.048.247-1.33a11.426 11.426 0 0 0 .158-1.818c-.043-.637-.4-1.165.06-1.923-.57.086-.668-.336-.166-.7-.339.189-.623.055-.534-.147s.355-.429.391-.607c.029-.139-.087-.224-.2-.309a4.632 4.632 0 0 1 -1.856-3.217 2.492 2.492 0 0 0 -1.857.552 3.551 3.551 0 0 0 1.086-.128 1.539 1.539 0 0 0 -.165 1.744l.327-.2c-.251.528-.487 1.077-.7 1.644a2.834 2.834 0 0 0 .89-.445c-.289.464-.573.949-.833 1.446a2.643 2.643 0 0 0 .98-.444q-.35.468-.676.958l.476-.316q-.623.783-1.191 1.625a2.651 2.651 0 0 0 1.038-.612c-.157.3-.3.593-.448.9l.41-.142c-.024.195-.047.392-.062.589l.691-.475q-.522.919-.977 1.9z"/><path d="m33.856 80.195c-.478.393-.43.85-.122 1.029.57.336 1.532.03 1.824.422.16.207.254.687.715.1.311-.395.211-1.048.247-1.331a11.414 11.414 0 0 0 .158-1.817c-.043-.637-.4-1.165.06-1.924-.57.087-.668-.336-.166-.7-.339.19-.623.055-.534-.146s.355-.43.391-.608c.029-.138-.087-.224-.2-.308a4.636 4.636 0 0 1 -1.853-3.212 2.492 2.492 0 0 0 -1.857.551 3.551 3.551 0 0 0 1.086-.128 1.54 1.54 0 0 0 -.165 1.745l.327-.2c-.251.529-.487 1.078-.7 1.644a2.817 2.817 0 0 0 .889-.445c-.288.465-.572.949-.832 1.447a2.629 2.629 0 0 0 .98-.445q-.35.469-.676.958l.476-.316q-.622.784-1.191 1.626a2.651 2.651 0 0 0 1.038-.612c-.157.294-.3.592-.448.9l.41-.142c-.024.2-.047.393-.062.589l.691-.474q-.522.919-.977 1.9z"/><path d="m63.035 86.425a.78.78 0 0 0 .07 1.241c.684.455 1.692.2 2.1.713.217.272.411.865.822.225.278-.433.03-1.257.009-1.606a14.15 14.15 0 0 0 -.247-2.291c-.209-.834-.734-1.558-.445-2.532-.6.063-.821-.5-.383-.965-.314.231-.659.032-.619-.234s.258-.562.244-.8c-.01-.189-.161-.313-.305-.434a9.132 9.132 0 0 1 -2.895-4.406 1.9 1.9 0 0 0 -1.721.908 2.657 2.657 0 0 0 1.064-.264 2.669 2.669 0 0 0 .326 2.347l.282-.279q-.168 1.076-.284 2.181a2.1 2.1 0 0 0 .811-.59c-.176.616-.347 1.246-.5 1.88a1.949 1.949 0 0 0 .919-.56c-.163.4-.322.812-.471 1.223l.426-.393q-.462.995-.876 2.025a2.012 2.012 0 0 0 .964-.731c-.1.368-.186.737-.271 1.109l.407-.157.067.735.639-.551q-.351 1.128-.645 2.294z"/><path d="m48.851 102.86a.78.78 0 0 0 .07 1.241c.684.455 1.692.2 2.094.712.218.273.412.866.823.225.277-.433.03-1.257.009-1.606a14.138 14.138 0 0 0 -.247-2.29c-.209-.834-.734-1.559-.446-2.532-.6.063-.82-.5-.382-.965-.314.23-.659.031-.619-.234s.258-.563.244-.806a.656.656 0 0 0 -.3-.433 9.15 9.15 0 0 1 -2.9-4.406 1.9 1.9 0 0 0 -1.72.908 2.663 2.663 0 0 0 1.064-.265 2.669 2.669 0 0 0 .326 2.347l.281-.278c-.111.716-.207 1.444-.283 2.18a2.1 2.1 0 0 0 .811-.589c-.176.616-.347 1.245-.5 1.88a1.95 1.95 0 0 0 .919-.561c-.164.405-.322.813-.471 1.224l.425-.394q-.461 1-.876 2.025a2.008 2.008 0 0 0 .965-.73c-.1.368-.187.737-.271 1.108l.407-.156.067.734.639-.551q-.351 1.128-.645 2.3z"/><path d="m75.044 85.088c-.6.157-.75.492-.57.726.338.429 1.314.622 1.346 1.06.013.231-.183.622.529.442.479-.122.773-.709.94-.935a5.7 5.7 0 0 0 .979-1.61c.209-.67.052-1.346.665-2.038-.571-.1-.587-.573-.027-.866-.367.121-.626-.1-.514-.306s.41-.417.459-.624c.036-.159-.078-.287-.187-.407a11.174 11.174 0 0 1 -2.307-3.673 2.514 2.514 0 0 0 -1.675.977 3.712 3.712 0 0 0 1.031-.364 1.815 1.815 0 0 0 .11 1.793l.312-.228c-.206.564-.427 1.112-.667 1.643a2.7 2.7 0 0 0 .9-.419c-.3.468-.612.918-.939 1.355a2.689 2.689 0 0 0 1.022-.333q-.391.427-.8.836l.521-.233q-.732.664-1.5 1.27a2.859 2.859 0 0 0 1.15-.349c-.216.236-.44.468-.666.694l.432-.032-.24.488.807-.231q-.783.682-1.6 1.29z"/><path d="m65.658 68.784c-.6.157-.751.492-.571.725.339.43 1.314.622 1.346 1.061.013.23-.182.622.529.442.48-.122.774-.709.94-.935a5.693 5.693 0 0 0 .979-1.611c.209-.669.052-1.345.665-2.037-.57-.1-.587-.573-.027-.867-.367.122-.625-.1-.514-.3s.41-.417.459-.624c.037-.16-.078-.288-.186-.408a11.147 11.147 0 0 1 -2.308-3.672 2.514 2.514 0 0 0 -1.675.977 3.744 3.744 0 0 0 1.031-.364 1.812 1.812 0 0 0 .111 1.793l.311-.228q-.307.846-.667 1.643a2.7 2.7 0 0 0 .9-.419c-.3.468-.612.918-.939 1.355a2.683 2.683 0 0 0 1.023-.334q-.393.429-.8.837l.521-.234q-.732.666-1.5 1.271a2.875 2.875 0 0 0 1.15-.349c-.216.236-.44.468-.666.694l.432-.032-.24.488.807-.231q-.783.682-1.6 1.29z"/><path d="m64.922 99.593c-.18.593.139.966.519.958.7-.008 1.369-.779 1.868-.593.267.1.643.46.7-.285.036-.5-.455-1.017-.6-1.283a12.306 12.306 0 0 0 -.984-1.667c-.433-.537-1.072-.818-1.146-1.728-.447.375-.8.051-.586-.538-.178.345-.51.374-.557.148s.04-.568-.04-.747c-.061-.139-.216-.155-.366-.172a5.439 5.439 0 0 1 -3.591-1.924 2.307 2.307 0 0 0 -1.239 1.491 3.279 3.279 0 0 0 .845-.695 1.776 1.776 0 0 0 .93 1.659l.158-.353c.11.609.244 1.224.408 1.842a2.6 2.6 0 0 0 .492-.867c.038.568.091 1.148.171 1.726a2.419 2.419 0 0 0 .575-.91c-.009.4-.009.8 0 1.2l.219-.53q-.057 1.02-.038 2.06a2.436 2.436 0 0 0 .528-1.084c.044.342.1.682.158 1.023l.271-.34c.1.184.2.369.307.549l.313-.779q.109 1.083.31 2.179z"/><path d="m68.644 105.05c-.506-.368-.855-.272-.932.012-.133.53.279 1.437-.08 1.733-.191.149-.637.222-.083.7.373.324 1.068.2 1.364.184a5.307 5.307 0 0 0 2-.322c.71-.322 1.183-.948 2.153-1.03-.284-.514.077-.9.692-.718-.343-.177-.339-.55-.1-.635s.611-.04.806-.18a.624.624 0 0 0 .185-.483 26.2 26.2 0 0 1 .833-4.882 2.322 2.322 0 0 0 -1.933-.19 3.415 3.415 0 0 0 1.042.334 2.3 2.3 0 0 0 -1.084 1.648l.39.017a14.249 14.249 0 0 1 -1.634.909 2.481 2.481 0 0 0 .955.29 14.652 14.652 0 0 1 -1.655.42 2.467 2.467 0 0 0 .967.471q-.593.061-1.184.073l.537.2a16.221 16.221 0 0 1 -1.985-.151 2.685 2.685 0 0 0 1.045.595c-.326.017-.656.018-.981.008l.313.3c-.179.06-.356.117-.539.164l.711.449a14.887 14.887 0 0 1 -2.05-.345z"/><path d="m61.263 118.549c-.506-.368-.855-.272-.932.012-.133.529.279 1.437-.08 1.733-.191.149-.637.222-.083.7.373.325 1.068.2 1.364.185a5.307 5.307 0 0 0 2-.322c.71-.323 1.183-.948 2.153-1.03-.284-.514.077-.9.692-.719-.343-.177-.339-.549-.1-.635s.611-.04.806-.179a.624.624 0 0 0 .185-.483 26.223 26.223 0 0 1 .833-4.883 2.325 2.325 0 0 0 -1.933-.189 3.442 3.442 0 0 0 1.042.334 2.3 2.3 0 0 0 -1.084 1.648l.39.016a14.1 14.1 0 0 1 -1.634.909 2.467 2.467 0 0 0 .955.291 14.652 14.652 0 0 1 -1.655.42 2.48 2.48 0 0 0 .967.471q-.593.061-1.184.073l.537.2a16.421 16.421 0 0 1 -1.985-.151 2.7 2.7 0 0 0 1.045.6c-.326.017-.656.018-.981.008l.313.3c-.179.06-.356.118-.539.165l.711.449a15.039 15.039 0 0 1 -2.05-.345z"/><path d="m82.7 113.66c-.506-.368-.856-.272-.932.012-.133.529.279 1.436-.08 1.732-.191.149-.638.223-.084.7.373.325 1.069.2 1.365.185a5.286 5.286 0 0 0 2-.323c.711-.322 1.183-.947 2.154-1.029-.285-.515.077-.9.692-.719-.343-.177-.339-.549-.105-.635s.611-.04.807-.179a.629.629 0 0 0 .185-.484 26.048 26.048 0 0 1 .833-4.882 2.323 2.323 0 0 0 -1.934-.189 3.479 3.479 0 0 0 1.042.334 2.292 2.292 0 0 0 -1.083 1.647l.39.017a14.266 14.266 0 0 1 -1.634.909 2.467 2.467 0 0 0 .954.291 14.367 14.367 0 0 1 -1.654.419 2.453 2.453 0 0 0 .967.471c-.4.041-.79.066-1.185.073l.537.2a15.994 15.994 0 0 1 -1.984-.151 2.681 2.681 0 0 0 1.045.6c-.327.016-.656.017-.981.008l.312.3c-.178.06-.355.117-.538.164l.71.449a14.748 14.748 0 0 1 -2.049-.345z"/></g></svg>