<svg id="icon" height="512" viewBox="0 0 128 128" width="512" xmlns="http://www.w3.org/2000/svg"><rect fill="#dbe2eb" height="112.378" rx="8.036" width="126" x="1" y="12.312"/><path d="m118.964 125.691h-109.928a9.047 9.047 0 0 1 -9.036-9.036v-96.306a9.046 9.046 0 0 1 9.036-9.036h109.928a9.046 9.046 0 0 1 9.036 9.036v96.306a9.047 9.047 0 0 1 -9.036 9.036zm-109.928-112.378a7.044 7.044 0 0 0 -7.036 7.036v96.306a7.044 7.044 0 0 0 7.036 7.036h109.928a7.044 7.044 0 0 0 7.036-7.036v-96.306a7.044 7.044 0 0 0 -7.036-7.036z" fill="#2f3a5a"/><path d="m127 35.894v-15.546a8.036 8.036 0 0 0 -8.036-8.036h-109.928a8.036 8.036 0 0 0 -8.036 8.036v15.546z" fill="#ef5361"/><path d="m128 36.894h-128v-16.545a9.046 9.046 0 0 1 9.036-9.036h109.928a9.046 9.046 0 0 1 9.036 9.036zm-126-2h124v-14.545a7.044 7.044 0 0 0 -7.036-7.036h-109.928a7.044 7.044 0 0 0 -7.036 7.036z" fill="#2f3a5a"/><path d="m15.933 47.761h12.325v12.325h-12.325z" fill="#84879c"/><path d="m28.258 61.085h-12.325a1 1 0 0 1 -1-1v-12.324a1 1 0 0 1 1-1h12.325a1 1 0 0 1 1 1v12.324a1 1 0 0 1 -1 1zm-11.325-2h10.325v-10.324h-10.325z" fill="#2f3a5a"/><path d="m43.869 47.761h12.325v12.325h-12.325z" fill="#84879c"/><path d="m56.194 61.085h-12.325a1 1 0 0 1 -1-1v-12.324a1 1 0 0 1 1-1h12.325a1 1 0 0 1 1 1v12.324a1 1 0 0 1 -1 1zm-11.325-2h10.325v-10.324h-10.325z" fill="#2f3a5a"/><path d="m71.806 47.761h12.325v12.325h-12.325z" fill="#84879c"/><path d="m84.131 61.085h-12.325a1 1 0 0 1 -1-1v-12.324a1 1 0 0 1 1-1h12.325a1 1 0 0 1 1 1v12.324a1 1 0 0 1 -1 1zm-11.325-2h10.325v-10.324h-10.325z" fill="#2f3a5a"/><path d="m99.742 47.761h12.325v12.325h-12.325z" fill="#84879c"/><path d="m112.067 61.085h-12.325a1 1 0 0 1 -1-1v-12.324a1 1 0 0 1 1-1h12.325a1 1 0 0 1 1 1v12.324a1 1 0 0 1 -1 1zm-11.325-2h10.325v-10.324h-10.325z" fill="#2f3a5a"/><path d="m15.933 70.567h12.325v12.325h-12.325z" fill="#84879c"/><path d="m28.258 83.892h-12.325a1 1 0 0 1 -1-1v-12.325a1 1 0 0 1 1-1h12.325a1 1 0 0 1 1 1v12.325a1 1 0 0 1 -1 1zm-11.325-2h10.325v-10.325h-10.325z" fill="#2f3a5a"/><path d="m43.869 70.567h12.325v12.325h-12.325z" fill="#84879c"/><path d="m56.194 83.892h-12.325a1 1 0 0 1 -1-1v-12.325a1 1 0 0 1 1-1h12.325a1 1 0 0 1 1 1v12.325a1 1 0 0 1 -1 1zm-11.325-2h10.325v-10.325h-10.325z" fill="#2f3a5a"/><path d="m71.806 70.567h12.325v12.325h-12.325z" fill="#84879c"/><path d="m84.131 83.892h-12.325a1 1 0 0 1 -1-1v-12.325a1 1 0 0 1 1-1h12.325a1 1 0 0 1 1 1v12.325a1 1 0 0 1 -1 1zm-11.325-2h10.325v-10.325h-10.325z" fill="#2f3a5a"/><path d="m99.742 70.567h12.325v12.325h-12.325z" fill="#84879c"/><path d="m112.067 83.892h-12.325a1 1 0 0 1 -1-1v-12.325a1 1 0 0 1 1-1h12.325a1 1 0 0 1 1 1v12.325a1 1 0 0 1 -1 1zm-11.325-2h10.325v-10.325h-10.325z" fill="#2f3a5a"/><path d="m15.933 93.374h12.325v12.325h-12.325z" fill="#84879c"/><path d="m28.258 106.7h-12.325a1 1 0 0 1 -1-1v-12.326a1 1 0 0 1 1-1h12.325a1 1 0 0 1 1 1v12.326a1 1 0 0 1 -1 1zm-11.325-2h10.325v-10.326h-10.325z" fill="#2f3a5a"/><path d="m43.869 93.374h12.325v12.325h-12.325z" fill="#84879c"/><path d="m56.194 106.7h-12.325a1 1 0 0 1 -1-1v-12.326a1 1 0 0 1 1-1h12.325a1 1 0 0 1 1 1v12.326a1 1 0 0 1 -1 1zm-11.325-2h10.325v-10.326h-10.325z" fill="#2f3a5a"/><path d="m71.806 93.374h12.325v12.325h-12.325z" fill="#84879c"/><path d="m84.131 106.7h-12.325a1 1 0 0 1 -1-1v-12.326a1 1 0 0 1 1-1h12.325a1 1 0 0 1 1 1v12.326a1 1 0 0 1 -1 1zm-11.325-2h10.325v-10.326h-10.325z" fill="#2f3a5a"/><path d="m99.742 93.374h12.325v12.325h-12.325z" fill="#84879c"/><path d="m112.067 106.7h-12.325a1 1 0 0 1 -1-1v-12.326a1 1 0 0 1 1-1h12.325a1 1 0 0 1 1 1v12.326a1 1 0 0 1 -1 1zm-11.325-2h10.325v-10.326h-10.325z" fill="#2f3a5a"/><path d="m31.957 3.309a2.7 2.7 0 0 0 -2.7 2.7v12.891a2.7 2.7 0 0 0 5.4 0v-12.892a2.7 2.7 0 0 0 -2.7-2.699z" fill="#84879c"/><path d="m31.957 22.6a3.7 3.7 0 0 1 -3.7-3.7v-12.892a3.7 3.7 0 1 1 7.4 0v12.892a3.7 3.7 0 0 1 -3.7 3.7zm0-18.294a1.7 1.7 0 0 0 -1.7 1.7v12.894a1.7 1.7 0 1 0 3.4 0v-12.892a1.7 1.7 0 0 0 -1.7-1.699z" fill="#2f3a5a"/><path d="m64 3.309a2.7 2.7 0 0 0 -2.7 2.7v12.891a2.7 2.7 0 0 0 5.4 0v-12.892a2.7 2.7 0 0 0 -2.7-2.699z" fill="#84879c"/><path d="m64 22.6a3.7 3.7 0 0 1 -3.7-3.7v-12.892a3.7 3.7 0 0 1 7.4 0v12.892a3.7 3.7 0 0 1 -3.7 3.7zm0-18.291a1.7 1.7 0 0 0 -1.7 1.7v12.891a1.7 1.7 0 1 0 3.4 0v-12.892a1.7 1.7 0 0 0 -1.7-1.699z" fill="#2f3a5a"/><path d="m96.043 3.309a2.7 2.7 0 0 0 -2.7 2.7v12.891a2.7 2.7 0 1 0 5.4 0v-12.892a2.7 2.7 0 0 0 -2.7-2.699z" fill="#84879c"/><path d="m96.043 22.6a3.7 3.7 0 0 1 -3.7-3.7v-12.892a3.7 3.7 0 1 1 7.4 0v12.892a3.7 3.7 0 0 1 -3.7 3.7zm0-18.294a1.7 1.7 0 0 0 -1.7 1.7v12.894a1.7 1.7 0 1 0 3.4 0v-12.892a1.7 1.7 0 0 0 -1.7-1.699z" fill="#2f3a5a"/></svg>