<svg id="icon" height="512" viewBox="0 0 128 128" width="512" xmlns="http://www.w3.org/2000/svg"><path d="m88.042 42.824h-.242a25 25 0 1 0 -47.606 0h-.239a5.586 5.586 0 1 0 0 11.171h7.6a24.974 24.974 0 0 0 32.884 0h7.6a5.586 5.586 0 1 0 0-11.171z" fill="#ffb7a9"/><path d="m93.628 48.408a5.584 5.584 0 0 1 -5.587 5.592h-7.6a24.889 24.889 0 0 1 -16.441 6.17 24.32 24.32 0 0 1 -5.308-.573 24.829 24.829 0 0 0 11.141-5.597h7.6a5.587 5.587 0 0 0 0-11.174h-.246a24.992 24.992 0 0 0 -18.495-32.084 24.32 24.32 0 0 1 5.308-.573 25 25 0 0 1 23.8 32.652h.238a5.589 5.589 0 0 1 5.59 5.587z" fill="#ee9d88"/><path d="m64 61.174a25.985 25.985 0 0 1 -16.811-6.174h-7.232a6.587 6.587 0 0 1 -1.071-13.086 25.948 25.948 0 0 1 -.886-6.747 25.648 25.648 0 0 1 2.152-10.35 26 26 0 0 1 48.708 2.743 26.082 26.082 0 0 1 .254 14.353 6.587 6.587 0 0 1 -1.071 13.087h-7.232a25.985 25.985 0 0 1 -16.811 6.174zm-24.043-17.348a4.587 4.587 0 0 0 0 9.173h7.978l.283.247a23.972 23.972 0 0 0 31.564 0l.283-.246h7.978a4.587 4.587 0 0 0 0-9.173h-1.615l.422-1.307a24 24 0 1 0 -45.7 0l.422 1.307z" fill="#2f3a5a"/><path d="m39.41 53.9 23.416 72.242a1.234 1.234 0 0 0 2.348 0l23.416-72.242z" fill="#d1a371"/><path d="m64 128a2.2 2.2 0 0 1 -2.125-1.546l-23.416-72.242a1 1 0 0 1 .951-1.312h49.18a1 1 0 0 1 .951 1.308l-23.416 72.246a2.2 2.2 0 0 1 -2.125 1.546zm-23.214-73.1 22.991 70.934a.214.214 0 0 0 .223.166.214.214 0 0 0 .223-.163l22.991-70.937z" fill="#2f3a5a"/><g fill="#bd8d5a"><path d="m47.615 57.937a1.232 1.232 0 1 0 1.232 1.232 1.233 1.233 0 0 0 -1.232-1.232z"/><path d="m54.619 57.937a1.232 1.232 0 1 0 1.233 1.232 1.233 1.233 0 0 0 -1.233-1.232z"/><path d="m61.624 57.937a1.232 1.232 0 1 0 1.232 1.232 1.232 1.232 0 0 0 -1.232-1.232z"/><path d="m68.628 57.937a1.232 1.232 0 1 0 1.232 1.232 1.233 1.233 0 0 0 -1.232-1.232z"/><path d="m75.633 57.937a1.232 1.232 0 1 0 1.232 1.232 1.232 1.232 0 0 0 -1.232-1.232z"/><path d="m82.637 57.937a1.232 1.232 0 1 0 1.232 1.232 1.233 1.233 0 0 0 -1.232-1.232z"/><path d="m51.117 62.77a1.232 1.232 0 1 0 1.232 1.23 1.232 1.232 0 0 0 -1.232-1.23z"/><path d="m58.122 62.77a1.232 1.232 0 1 0 1.232 1.23 1.231 1.231 0 0 0 -1.232-1.23z"/><path d="m65.126 62.77a1.232 1.232 0 1 0 1.232 1.23 1.232 1.232 0 0 0 -1.232-1.23z"/><path d="m72.131 62.77a1.232 1.232 0 1 0 1.232 1.23 1.231 1.231 0 0 0 -1.232-1.23z"/><path d="m79.135 62.77a1.232 1.232 0 1 0 1.232 1.23 1.232 1.232 0 0 0 -1.232-1.23z"/><path d="m47.615 68.089a1.232 1.232 0 1 0 1.232 1.232 1.232 1.232 0 0 0 -1.232-1.232z"/><path d="m54.619 68.089a1.232 1.232 0 1 0 1.233 1.232 1.232 1.232 0 0 0 -1.233-1.232z"/><path d="m61.624 68.089a1.232 1.232 0 1 0 1.232 1.232 1.231 1.231 0 0 0 -1.232-1.232z"/><path d="m68.628 68.089a1.232 1.232 0 1 0 1.232 1.232 1.232 1.232 0 0 0 -1.232-1.232z"/><path d="m75.633 68.089a1.232 1.232 0 1 0 1.232 1.232 1.231 1.231 0 0 0 -1.232-1.232z"/><path d="m81.237 67.917a1.232 1.232 0 1 0 1.232 1.232 1.233 1.233 0 0 0 -1.232-1.232z"/><path d="m51.117 72.921a1.232 1.232 0 1 0 1.232 1.232 1.233 1.233 0 0 0 -1.232-1.232z"/><path d="m58.122 72.921a1.232 1.232 0 1 0 1.232 1.232 1.232 1.232 0 0 0 -1.232-1.232z"/><path d="m65.126 72.921a1.232 1.232 0 1 0 1.232 1.232 1.233 1.233 0 0 0 -1.232-1.232z"/><path d="m72.131 72.921a1.232 1.232 0 1 0 1.232 1.232 1.232 1.232 0 0 0 -1.232-1.232z"/><path d="m79.135 72.921a1.232 1.232 0 1 0 1.232 1.232 1.233 1.233 0 0 0 -1.232-1.232z"/><path d="m54.619 78.24a1.232 1.232 0 1 0 1.233 1.232 1.233 1.233 0 0 0 -1.233-1.232z"/><path d="m61.624 78.24a1.232 1.232 0 1 0 1.232 1.232 1.232 1.232 0 0 0 -1.232-1.232z"/><path d="m68.628 78.24a1.232 1.232 0 1 0 1.232 1.232 1.233 1.233 0 0 0 -1.232-1.232z"/><path d="m75.633 78.24a1.232 1.232 0 1 0 1.232 1.232 1.232 1.232 0 0 0 -1.232-1.232z"/><path d="m52.155 83.073a1.232 1.232 0 1 0 1.232 1.232 1.232 1.232 0 0 0 -1.232-1.232z"/><path d="m58.122 83.073a1.232 1.232 0 1 0 1.232 1.232 1.231 1.231 0 0 0 -1.232-1.232z"/><path d="m65.126 83.073a1.232 1.232 0 1 0 1.232 1.232 1.232 1.232 0 0 0 -1.232-1.232z"/><path d="m72.131 83.073a1.232 1.232 0 1 0 1.232 1.232 1.231 1.231 0 0 0 -1.232-1.232z"/><path d="m54.619 88.392a1.232 1.232 0 1 0 1.233 1.232 1.232 1.232 0 0 0 -1.233-1.232z"/><path d="m61.624 88.392a1.232 1.232 0 1 0 1.232 1.232 1.231 1.231 0 0 0 -1.232-1.232z"/><path d="m68.628 88.392a1.232 1.232 0 1 0 1.232 1.232 1.232 1.232 0 0 0 -1.232-1.232z"/><path d="m74.4 88.034a1.232 1.232 0 1 0 1.232 1.232 1.231 1.231 0 0 0 -1.232-1.232z"/><path d="m58.122 93.224a1.232 1.232 0 1 0 1.232 1.232 1.232 1.232 0 0 0 -1.232-1.232z"/><path d="m65.126 93.224a1.232 1.232 0 1 0 1.232 1.232 1.233 1.233 0 0 0 -1.232-1.232z"/><path d="m72.131 93.224a1.232 1.232 0 1 0 1.232 1.232 1.232 1.232 0 0 0 -1.232-1.232z"/><path d="m61.624 98.543a1.232 1.232 0 1 0 1.232 1.232 1.232 1.232 0 0 0 -1.232-1.232z"/><path d="m68.628 98.543a1.232 1.232 0 1 0 1.232 1.232 1.233 1.233 0 0 0 -1.232-1.232z"/><path d="m58.122 103.376a1.232 1.232 0 1 0 1.232 1.232 1.231 1.231 0 0 0 -1.232-1.232z"/><path d="m65.126 103.376a1.232 1.232 0 1 0 1.232 1.232 1.232 1.232 0 0 0 -1.232-1.232z"/><path d="m61.624 108.7a1.232 1.232 0 1 0 1.232 1.232 1.231 1.231 0 0 0 -1.232-1.232z"/><path d="m66.358 108.7a1.232 1.232 0 1 0 1.232 1.232 1.232 1.232 0 0 0 -1.232-1.232z"/><path d="m65.126 113.527a1.232 1.232 0 1 0 1.232 1.232 1.233 1.233 0 0 0 -1.232-1.232z"/><path d="m63.621 118.846a1.232 1.232 0 1 0 1.233 1.232 1.233 1.233 0 0 0 -1.233-1.232z"/></g><path d="m87.9 27.851a10.718 10.718 0 0 1 -1.456-.927c-.964-.7-2.244-1.363-3.292-.779-1.27.723-1.066 2.634-1.8 3.9a3.69 3.69 0 0 1 -4.451 1.279 8.41 8.41 0 0 1 -3.69-3.31 18.187 18.187 0 0 0 -2.266-3.014 4.054 4.054 0 0 0 -3.431-1.242c-1.604.292-2.614 1.842-3.514 3.212s-2.1 2.838-3.746 2.829c-2.522-.01-3.6-3.283-5.758-4.59a4.216 4.216 0 0 0 -4.794.408c-1.585 1.372-2.225 3.978-4.274 4.413a3.23 3.23 0 0 1 -2.4-.547 4.594 4.594 0 0 1 -1.956-4.265 25 25 0 0 1 46.828 2.633z" fill="#ffc943"/><path d="m78.362 32.581a5.209 5.209 0 0 1 -1.8-.315 9.5 9.5 0 0 1 -4.166-3.68c-.162-.235-.32-.473-.477-.711a12.127 12.127 0 0 0 -1.661-2.154 3.074 3.074 0 0 0 -2.551-.987c-1.188.221-2.039 1.518-2.861 2.774-.927 1.419-2.4 3.29-4.574 3.29h-.022c-1.99-.007-3.224-1.492-4.312-2.8a8.692 8.692 0 0 0 -1.958-1.932 3.217 3.217 0 0 0 -3.622.309 8.448 8.448 0 0 0 -1.358 1.725c-.8 1.2-1.7 2.559-3.364 2.913a4.17 4.17 0 0 1 -3.159-.689 5.617 5.617 0 0 1 -2.4-5.214l.076-.285a26 26 0 0 1 48.707 2.735l.674 2.207-2.071-1.018a11.422 11.422 0 0 1 -1.579-1c-.59-.432-1.629-1.072-2.241-.731-.375.213-.534.76-.75 1.633a7.154 7.154 0 0 1 -.669 1.9 4.319 4.319 0 0 1 -3.862 2.03zm-10.284-9.881a5.25 5.25 0 0 1 3.555 1.572 13.757 13.757 0 0 1 1.951 2.5c.151.228.3.456.457.68a7.686 7.686 0 0 0 3.22 2.943 2.714 2.714 0 0 0 3.226-.836 5.524 5.524 0 0 0 .464-1.385 4.124 4.124 0 0 1 1.71-2.9 3.347 3.347 0 0 1 3.281.157 24 24 0 0 0 -43.891.038 3.623 3.623 0 0 0 1.527 3.179 2.235 2.235 0 0 0 1.641.4c.867-.184 1.445-1.055 2.114-2.063a10.021 10.021 0 0 1 1.715-2.128 5.22 5.22 0 0 1 5.963-.509 10.25 10.25 0 0 1 2.464 2.366c.925 1.115 1.725 2.076 2.783 2.08.876.013 1.844-.748 2.9-2.374.962-1.468 2.15-3.28 4.169-3.654a3.873 3.873 0 0 1 .751-.066z" fill="#2f3a5a"/><path d="m64.473 1a7.634 7.634 0 1 0 7.634 7.634 7.634 7.634 0 0 0 -7.634-7.634z" fill="#dbe2eb"/><path d="m72.111 8.636a7.636 7.636 0 0 1 -14.911 2.325 7.509 7.509 0 0 0 3.957 1.115 7.638 7.638 0 0 0 7.643-7.636 7.529 7.529 0 0 0 -.362-2.324 7.61 7.61 0 0 1 3.673 6.52z" fill="#bac2d3"/><path d="m64.473 17.268a8.634 8.634 0 1 1 8.634-8.634 8.644 8.644 0 0 1 -8.634 8.634zm0-15.268a6.634 6.634 0 1 0 6.634 6.634 6.642 6.642 0 0 0 -6.634-6.634z" fill="#2f3a5a"/></svg>