<svg id="icon" height="512" viewBox="0 0 128 128" width="512" xmlns="http://www.w3.org/2000/svg"><path d="m24.086 48.678 10.235 73.568a5.512 5.512 0 0 0 5.46 4.754h48.438a5.512 5.512 0 0 0 5.46-4.754l10.235-73.568z" fill="#4fa4d1"/><g opacity=".5"><path d="m103.915 48.682-10.234 73.564a5.519 5.519 0 0 1 -5.461 4.754h-48.437a5.512 5.512 0 0 1 -5.334-4.119h47.592a5.51 5.51 0 0 0 5.461-4.753l9.664-69.445z" fill="#477ea8"/></g><path d="m88.219 128h-48.438a6.539 6.539 0 0 1 -6.45-5.616l-10.231-73.569a1 1 0 0 1 .99-1.137h79.83a1 1 0 0 1 .99 1.137l-10.241 73.569a6.539 6.539 0 0 1 -6.45 5.616zm-62.985-78.322 10.077 72.431a4.533 4.533 0 0 0 4.47 3.891h48.438a4.533 4.533 0 0 0 4.47-3.891l10.077-72.431z" fill="#2f3a5a"/><rect fill="#4fa4d1" height="8.76" rx="1.992" width="92.182" x="17.909" y="44.937"/><path d="m108.1 54.7h-88.2a3 3 0 0 1 -2.992-2.991v-4.781a3 3 0 0 1 2.992-2.991h88.2a3 3 0 0 1 2.992 2.991v4.777a3 3 0 0 1 -2.992 2.995zm-88.2-8.763a.992.992 0 0 0 -.992.991v4.777a.993.993 0 0 0 .992.991h88.2a.993.993 0 0 0 .992-.991v-4.777a.992.992 0 0 0 -.992-.991z" fill="#2f3a5a"/><path d="m49.279 69.865a2.4 2.4 0 0 0 -2.4 2.4v38.225a2.4 2.4 0 1 0 4.793 0v-38.228a2.4 2.4 0 0 0 -2.393-2.397z" fill="#477ea8"/><path d="m49.279 113.884a3.4 3.4 0 0 1 -3.4-3.4v-38.222a3.4 3.4 0 1 1 6.794 0v38.225a3.4 3.4 0 0 1 -3.394 3.397zm0-43.019a1.4 1.4 0 0 0 -1.4 1.4v38.225a1.4 1.4 0 0 0 2.794 0v-38.228a1.4 1.4 0 0 0 -1.394-1.397z" fill="#2f3a5a"/><path d="m64 69.865a2.4 2.4 0 0 0 -2.4 2.4v38.225a2.4 2.4 0 0 0 4.794 0v-38.228a2.4 2.4 0 0 0 -2.394-2.397z" fill="#477ea8"/><path d="m64 113.884a3.4 3.4 0 0 1 -3.4-3.4v-38.222a3.4 3.4 0 0 1 6.794 0v38.225a3.4 3.4 0 0 1 -3.394 3.397zm0-43.019a1.4 1.4 0 0 0 -1.4 1.4v38.225a1.4 1.4 0 0 0 2.794 0v-38.228a1.4 1.4 0 0 0 -1.394-1.397z" fill="#2f3a5a"/><path d="m78.721 69.865a2.4 2.4 0 0 0 -2.4 2.4v38.225a2.4 2.4 0 1 0 4.793 0v-38.228a2.4 2.4 0 0 0 -2.393-2.397z" fill="#477ea8"/><g fill="#2f3a5a"><path d="m78.721 113.884a3.4 3.4 0 0 1 -3.4-3.4v-38.222a3.4 3.4 0 1 1 6.794 0v38.225a3.4 3.4 0 0 1 -3.394 3.397zm0-43.019a1.4 1.4 0 0 0 -1.4 1.4v38.225a1.4 1.4 0 1 0 2.794 0v-38.228a1.4 1.4 0 0 0 -1.394-1.397z"/><path d="m107.563 45.563a1 1 0 0 1 -1-1 42.563 42.563 0 0 0 -85.126 0 1 1 0 0 1 -2 0 44.563 44.563 0 1 1 89.126 0 1 1 0 0 1 -1 1z"/></g></svg>