<svg id="icon" height="512" viewBox="0 0 128 128" width="512" xmlns="http://www.w3.org/2000/svg"><rect fill="#e1b378" height="82.705" rx="9.919" width="126" x="1" y="29.509"/><path d="m127 39.434v62.859a9.917 9.917 0 0 1 -9.915 9.915h-106.165a9.927 9.927 0 0 1 -9.128-6.028 10.122 10.122 0 0 0 1.944.185h106.164a9.92 9.92 0 0 0 9.927-9.915v-62.872a9.976 9.976 0 0 0 -.787-3.887 9.929 9.929 0 0 1 7.96 9.743z" fill="#bd8d5a"/><path d="m117.081 113.214h-106.162a10.932 10.932 0 0 1 -10.919-10.914v-62.872a10.932 10.932 0 0 1 10.919-10.92h106.162a10.932 10.932 0 0 1 10.919 10.92v62.872a10.932 10.932 0 0 1 -10.919 10.914zm-106.162-82.706a8.93 8.93 0 0 0 -8.919 8.92v62.872a8.929 8.929 0 0 0 8.919 8.919h106.162a8.929 8.929 0 0 0 8.919-8.919v-62.872a8.93 8.93 0 0 0 -8.919-8.92z" fill="#2f3a5a"/><path d="m117.081 107.714h-.268a.5.5 0 1 1 0-1h.268a4.417 4.417 0 0 0 2.346-.676.5.5 0 0 1 .533.846 5.413 5.413 0 0 1 -2.879.83zm-3.292 0h-3.024a.5.5 0 1 1 0-1h3.024a.5.5 0 0 1 0 1zm-6.048 0h-3.024a.5.5 0 1 1 0-1h3.024a.5.5 0 0 1 0 1zm-6.048 0h-3.024a.5.5 0 1 1 0-1h3.024a.5.5 0 0 1 0 1zm-6.047 0h-3.025a.5.5 0 1 1 0-1h3.025a.5.5 0 1 1 0 1zm-6.048 0h-3.024a.5.5 0 0 1 0-1h3.026a.5.5 0 1 1 0 1zm-6.048 0h-3.024a.5.5 0 0 1 0-1h3.024a.5.5 0 1 1 0 1zm-6.048 0h-3.023a.5.5 0 1 1 0-1h3.021a.5.5 0 1 1 0 1zm-6.048 0h-3.023a.5.5 0 1 1 0-1h3.023a.5.5 0 1 1 0 1zm-6.048 0h-3.023a.5.5 0 0 1 0-1h3.023a.5.5 0 0 1 0 1zm-6.047 0h-3.024a.5.5 0 0 1 0-1h3.024a.5.5 0 1 1 0 1zm-6.047 0h-3.025a.5.5 0 0 1 0-1h3.025a.5.5 0 1 1 0 1zm-6.048 0h-3.025a.5.5 0 0 1 0-1h3.025a.5.5 0 1 1 0 1zm-6.048 0h-3.025a.5.5 0 0 1 0-1h3.025a.5.5 0 1 1 0 1zm-6.048 0h-3.024a.5.5 0 0 1 0-1h3.024a.5.5 0 1 1 0 1zm-6.048 0h-3.02a.5.5 0 0 1 0-1h3.02a.5.5 0 1 1 0 1zm-6.048 0h-3.023a.5.5 0 0 1 0-1h3.023a.5.5 0 1 1 0 1zm-6.048 0h-3.024a.5.5 0 0 1 0-1h3.023a.5.5 0 0 1 0 1zm-6.047 0h-.058a5.379 5.379 0 0 1 -3.124-.993.5.5 0 0 1 .578-.817 4.382 4.382 0 0 0 2.546.81.525.525 0 0 1 .528.5.475.475 0 0 1 -.47.5zm110.643-3.022a.5.5 0 0 1 -.461-.692 4.409 4.409 0 0 0 .341-1.7v-1.08a.5.5 0 0 1 1 0v1.08a5.383 5.383 0 0 1 -.419 2.09.5.5 0 0 1 -.461.302zm-115.337-.25a.5.5 0 0 1 -.47-.332 5.375 5.375 0 0 1 -.313-1.81v-1.344a.5.5 0 0 1 1 0v1.344a4.409 4.409 0 0 0 .254 1.479.5.5 0 0 1 -.3.639.491.491 0 0 1 -.171.024zm115.717-5.742a.5.5 0 0 1 -.5-.5v-3.028a.5.5 0 0 1 1 0v3.028a.5.5 0 0 1 -.5.5zm-116-.273a.5.5 0 0 1 -.5-.5v-3.027a.5.5 0 0 1 1 0v3.024a.5.5 0 0 1 -.5.503zm116-5.779a.5.5 0 0 1 -.5-.5v-3.024a.5.5 0 0 1 1 0v3.024a.5.5 0 0 1 -.5.5zm-116-.269a.5.5 0 0 1 -.5-.5v-3.024a.5.5 0 0 1 1 0v3.024a.5.5 0 0 1 -.5.5zm116-5.779a.5.5 0 0 1 -.5-.5v-3.023a.5.5 0 0 1 1 0v3.023a.5.5 0 0 1 -.5.5zm-116-.268a.5.5 0 0 1 -.5-.5v-3.024a.5.5 0 0 1 1 0v3.024a.5.5 0 0 1 -.5.5zm116-5.779a.5.5 0 0 1 -.5-.5v-3.024a.5.5 0 0 1 1 0v3.024a.5.5 0 0 1 -.5.5zm-116-.269a.5.5 0 0 1 -.5-.5v-3.024a.5.5 0 0 1 1 0v3.024a.5.5 0 0 1 -.5.5zm116-5.779a.5.5 0 0 1 -.5-.5v-3.024a.5.5 0 0 1 1 0v3.024a.5.5 0 0 1 -.5.5zm-116-.269a.5.5 0 0 1 -.5-.5v-3.024a.5.5 0 0 1 1 0v3.024a.5.5 0 0 1 -.5.5zm116-5.779a.5.5 0 0 1 -.5-.5v-3.024a.5.5 0 1 1 1 0v3.024a.5.5 0 0 1 -.5.5zm-116-.269a.5.5 0 0 1 -.5-.5v-3.023a.5.5 0 0 1 1 0v3.023a.5.5 0 0 1 -.5.5zm116-5.779a.5.5 0 0 1 -.5-.5v-3.024a.5.5 0 1 1 1 0v3.024a.5.5 0 0 1 -.5.5zm-116-.268a.5.5 0 0 1 -.5-.5v-3.024a.5.5 0 1 1 1 0v3.024a.5.5 0 0 1 -.5.5zm116-5.78a.5.5 0 0 1 -.5-.5v-3.023a.5.5 0 1 1 1 0v3.023a.5.5 0 0 1 -.5.5zm-116-.268a.5.5 0 0 1 -.5-.5v-3.024a.5.5 0 0 1 1 0v3.024a.5.5 0 0 1 -.5.5zm116-5.779a.5.5 0 0 1 -.5-.5v-3.024a.5.5 0 1 1 1 0v3.024a.5.5 0 0 1 -.5.5zm-116-.269a.5.5 0 0 1 -.5-.5v-3.024a.5.5 0 0 1 1 0v3.024a.5.5 0 0 1 -.5.5zm116-5.779a.5.5 0 0 1 -.5-.5v-3.024a.5.5 0 1 1 1 0v3.024a.5.5 0 0 1 -.5.5zm-116-.266a.5.5 0 0 1 -.5-.5v-3.026a.5.5 0 0 1 1 0v3.026a.5.5 0 0 1 -.5.5zm115.706-5.744a.5.5 0 0 1 -.47-.33 4.421 4.421 0 0 0 -1.63-2.12.5.5 0 1 1 .573-.819 5.4 5.4 0 0 1 2 2.6.5.5 0 0 1 -.3.64.514.514 0 0 1 -.173.026zm-115.314-.256a.492.492 0 0 1 -.2-.04.5.5 0 0 1 -.263-.656 5.41 5.41 0 0 1 2.135-2.486.5.5 0 1 1 .528.849 4.464 4.464 0 0 0 -1.74 2.033.5.5 0 0 1 -.46.3zm110.661-2.995h-3.025a.5.5 0 0 1 0-1h3.025a.5.5 0 0 1 0 1zm-6.048 0h-3.025a.5.5 0 0 1 0-1h3.025a.5.5 0 0 1 0 1zm-6.048 0h-3.024a.5.5 0 0 1 0-1h3.024a.5.5 0 0 1 0 1zm-6.048 0h-3.024a.5.5 0 0 1 0-1h3.024a.5.5 0 0 1 0 1zm-6.048 0h-3.023a.5.5 0 0 1 0-1h3.023a.5.5 0 0 1 0 1zm-6.048 0h-3.023a.5.5 0 0 1 0-1h3.023a.5.5 0 0 1 0 1zm-6.047 0h-3.024a.5.5 0 0 1 0-1h3.024a.5.5 0 0 1 0 1zm-6.048 0h-3.024a.5.5 0 0 1 0-1h3.024a.5.5 0 0 1 0 1zm-6.048 0h-3.024a.5.5 0 0 1 0-1h3.024a.5.5 0 0 1 0 1zm-6.047 0h-3.023a.5.5 0 0 1 0-1h3.024a.5.5 0 0 1 0 1zm-6.048 0h-3.024a.5.5 0 0 1 0-1h3.024a.5.5 0 0 1 0 1zm-6.048 0h-3.027a.5.5 0 0 1 0-1h3.024a.5.5 0 0 1 0 1zm-6.048 0h-3.024a.5.5 0 0 1 0-1h3.024a.5.5 0 0 1 0 1zm-6.047 0h-3.025a.5.5 0 0 1 0-1h3.025a.5.5 0 0 1 0 1zm-6.048 0h-3.024a.5.5 0 0 1 0-1h3.024a.5.5 0 0 1 0 1zm-6.048 0h-3.023a.5.5 0 1 1 0-1h3.023a.5.5 0 0 1 0 1zm-6.048 0h-3.023a.5.5 0 0 1 0-1h3.023a.5.5 0 1 1 0 1zm-6.048 0h-3.023a.5.5 0 1 1 0-1h3.023a.5.5 0 1 1 0 1z" fill="#2f3a5a"/><path d="m25.313 29.6h9.04v82.523h-9.04z" fill="#bd8d5a"/><path d="m35.354 113.123h-11.041v-84.523h11.041zm-9.041-2h7.041v-80.523h-7.041z" fill="#2f3a5a"/><path d="m93.646 29.6h9.04v82.523h-9.04z" fill="#bd8d5a"/><path d="m103.687 113.123h-11.041v-84.523h11.041zm-9.041-2h7.041v-80.523h-7.041z" fill="#2f3a5a"/><path d="m85.44 29.509h-4.921v-7.874a.928.928 0 0 0 -.927-.928h-30.113a.929.929 0 0 0 -.928.928v7.691h-4.92v-7.691a5.855 5.855 0 0 1 5.848-5.849h30.113a5.856 5.856 0 0 1 5.848 5.849z" fill="#9297ab"/><path d="m85.439 30.509h-4.92a1 1 0 0 1 -1-1v-7.8h-29.967v7.619a1 1 0 0 1 -1 1h-4.921a1 1 0 0 1 -1-1v-7.693a6.856 6.856 0 0 1 6.848-6.849h30.113a6.856 6.856 0 0 1 6.847 6.849v7.874a1 1 0 0 1 -1 1zm-3.92-2h2.92v-6.874a4.853 4.853 0 0 0 -4.847-4.849h-30.113a4.854 4.854 0 0 0 -4.848 4.849v6.691h2.921v-6.691a1.929 1.929 0 0 1 1.927-1.928h30.113a1.93 1.93 0 0 1 1.927 1.928z" fill="#2f3a5a"/><path d="m77.918 24.947h10.743v4.562h-10.743z" fill="#9297ab"/><path d="m88.661 30.509h-10.742a1 1 0 0 1 -1-1v-4.562a1 1 0 0 1 1-1h10.742a1 1 0 0 1 1 1v4.562a1 1 0 0 1 -1 1zm-9.742-2h8.742v-2.562h-8.742z" fill="#2f3a5a"/><path d="m40.471 24.947h10.743v4.562h-10.743z" fill="#9297ab"/><path d="m51.215 30.509h-10.743a1 1 0 0 1 -1-1v-4.562a1 1 0 0 1 1-1h10.743a1 1 0 0 1 1 1v4.562a1 1 0 0 1 -1 1zm-9.743-2h8.743v-2.562h-8.743z" fill="#2f3a5a"/></svg>