<svg id="icon" height="512" viewBox="0 0 128 128" width="512" xmlns="http://www.w3.org/2000/svg"><path d="m67.576 2.78a2.014 2.014 0 0 0 -3.012-.391c-7.359 6.426-5.856 16.659-5.783 17.124l4.268.365c-.056-.37-1.523-9.473 4.126-14.454a2.029 2.029 0 0 0 .401-2.644z" fill="#e1b378"/><path d="m63.047 20.877c-.027 0-.055 0-.082 0l-4.265-.368a1 1 0 0 1 -.9-.841c-.072-.455-1.671-11.236 6.111-18.032a3.045 3.045 0 0 1 2.405-.724 2.986 2.986 0 0 1 2.095 1.318 3.016 3.016 0 0 1 -.575 3.944c-5.042 4.447-3.941 12.621-3.8 13.538a1.009 1.009 0 0 1 -.989 1.165zm-3.367-2.291 2.241.191c-.233-2.912-.212-9.866 4.593-14.1a1.033 1.033 0 0 0 .227-1.343.984.984 0 0 0 -.695-.437 1.037 1.037 0 0 0 -.825.25c-5.914 5.161-5.761 12.961-5.541 15.439z" fill="#2f3a5a"/><path d="m70.045 19.883s-33.664-6.332-43.395 19.647 1.929 31.709-2.25 53.131 2.327 36.908 22.256 33.984 45.6-24.207 51.173-55.561-12.641-48.004-27.784-51.201z" fill="#ffc943"/><path d="m97.83 71.087c-5.577 31.35-31.251 52.64-51.174 55.558-12.471 1.826-19.687-3.552-22.308-13.079a24.527 24.527 0 0 0 11.278.634c19.923-2.919 45.6-24.209 51.174-55.559 2.472-13.911.261-24.928-4.285-33.151 10.806 7.71 19.376 22.743 15.315 45.597z" fill="#f7b521"/><path d="m41.992 128c-5.814 0-10.465-1.794-13.866-5.36-5.675-5.948-7.348-16.665-4.711-30.174 1.742-8.926.6-15.19-.5-21.249-1.513-8.323-3.078-16.93 2.8-32.054 9.86-25.35 44.137-20.322 44.485-20.263l.053.009c14.672 3.091 34.387 19.591 28.558 52.35-5.574 31.33-30.823 53.267-52.012 56.375a33.11 33.11 0 0 1 -4.807.366zm20.859-107.553c-10.224 0-28.674 2.481-35.27 19.445-5.675 14.6-4.228 22.551-2.7 30.971 1.135 6.241 2.308 12.7.494 21.99-2.51 12.855-1.02 22.945 4.194 28.411 3.82 4 9.514 5.481 16.936 4.392 20.046-2.941 44.989-24.709 50.334-54.748 5.576-31.336-13.067-47.088-26.975-50.041a52.935 52.935 0 0 0 -7.013-.42z" fill="#2f3a5a"/><path d="m105.141 59.453a45.284 45.284 0 0 1 -39-50.38 45.285 45.285 0 0 1 39 50.38z" fill="#65b54e"/><path d="m105.141 60.453a.947.947 0 0 1 -.13-.009 46.338 46.338 0 0 1 -39.86-51.493 1 1 0 0 1 .38-.668 1.014 1.014 0 0 1 .742-.2 46.337 46.337 0 0 1 39.86 51.493 1 1 0 0 1 -.992.878zm-38.119-50.244a44.348 44.348 0 0 0 37.24 48.108 44.345 44.345 0 0 0 -37.24-48.108z" fill="#2f3a5a"/><path d="m91.334 42.516-27.59-36.268" fill="#65b54e"/><path d="m91.335 43.516a1 1 0 0 1 -.8-.394l-27.587-36.268a1 1 0 1 1 1.592-1.211l27.59 36.268a1 1 0 0 1 -.191 1.4.989.989 0 0 1 -.604.205z" fill="#2f3a5a"/><path d="m73.6 27.207a1 1 0 0 1 -1-1v-7a1 1 0 0 1 2 0v7a1 1 0 0 1 -1 1z" fill="#2f3a5a"/><path d="m77.884 24.835 6.337 1.372" fill="#65b54e"/><g fill="#2f3a5a"><path d="m84.222 27.207a1.027 1.027 0 0 1 -.213-.022l-6.337-1.372a1 1 0 1 1 .424-1.955l6.337 1.371a1 1 0 0 1 -.211 1.978z"/><path d="m84.221 39.288a1 1 0 0 1 -1-1v-5.122a1 1 0 0 1 2 0v5.122a1 1 0 0 1 -1 1z"/></g></svg>