<svg id="icon" height="512" viewBox="0 0 128 128" width="512" xmlns="http://www.w3.org/2000/svg"><path d="m64 11.664s-10.5 31.745-63 61.541h126c-52.5-29.796-63-61.541-63-61.541z" fill="#c1cdd3"/><path d="m64 12.99s-7.282 31.062-43.687 60.215h87.374c-36.405-29.153-43.687-60.215-43.687-60.215z" fill="#dbe2eb"/><path d="m127 74.206h-126a1 1 0 0 1 -.494-1.87c51.568-29.268 62.441-60.673 62.545-60.986a1 1 0 0 1 .949-.686 1 1 0 0 1 .949.685c.105.314 11.055 31.763 62.545 60.987a1 1 0 0 1 -.494 1.87zm-122.271-2h118.542c-41.648-24.514-55.784-50.231-59.271-57.927-3.487 7.696-17.623 33.413-59.271 57.927z" fill="#2f3a5a"/><path d="m9.657 73.205h108.686v43.131h-108.686z" fill="#c1cdd3"/><path d="m118.343 117.336h-108.686a1 1 0 0 1 -1-1v-43.13a1 1 0 0 1 1-1h108.686a1 1 0 0 1 1 1v43.13a1 1 0 0 1 -1 1zm-107.686-2h106.686v-41.13h-106.686z" fill="#2f3a5a"/><path d="m64.508 80.88-18.236 35.456h35.456z" fill="#84879c"/><g fill="#2f3a5a"><path d="m81.728 117.336h-35.456a1 1 0 0 1 -.889-1.457l18.236-35.456a1 1 0 0 1 .889-.543h.011a1 1 0 0 1 .888.563l17.22 35.457a1 1 0 0 1 -.9 1.437zm-33.817-2h32.22l-15.649-32.219z"/><path d="m124.973 117.336h-121.946a1 1 0 0 1 0-2h121.946a1 1 0 0 1 0 2z"/></g></svg>