<svg id="icon" height="512" viewBox="0 0 128 128" width="512" xmlns="http://www.w3.org/2000/svg"><path d="m98.451 127-5.28-49.378h-27.345-3.594-27.344l-5.28 49.378h26.56l7.861-15.442 7.861 15.442z" fill="#4fa4d1"/><path d="m98.451 128h-26.56a1 1 0 0 1 -.891-.546l-6.971-13.691-6.97 13.691a1 1 0 0 1 -.891.546h-26.56a1 1 0 0 1 -.994-1.106l5.28-49.379a1 1 0 0 1 .994-.893h58.283a1 1 0 0 1 .994.893l5.28 49.379a1 1 0 0 1 -.994 1.106zm-25.951-2h24.838l-5.066-47.378h-56.485l-5.066 47.378h24.834l7.583-14.895a1.04 1.04 0 0 1 1.782 0z" fill="#2f3a5a"/><path d="m93.956 83.929-.785-6.307h-58.283l-.675 6.307z" fill="#e1b378"/><path d="m93.956 84.929h-59.743a1 1 0 0 1 -.994-1.107l.675-6.307a1 1 0 0 1 .994-.893h58.283a1 1 0 0 1 .992.876l.785 6.307a1 1 0 0 1 -.992 1.124zm-58.63-2h57.5l-.536-4.307h-56.5z" fill="#2f3a5a"/><path d="m79.138 83.929s-.2 18.815 16.972 21.181l-2.154-21.181z" fill="#477ea8"/><path d="m96.11 106.11a1.051 1.051 0 0 1 -.137-.009c-17.837-2.458-17.837-21.986-17.835-22.183a1 1 0 0 1 1-.989h14.818a1 1 0 0 1 .995.9l2.149 21.18a1 1 0 0 1 -.994 1.1zm-15.941-21.181c.217 3.707 1.9 16.435 14.813 18.98l-1.929-18.98z" fill="#2f3a5a"/><path d="m49.328 83.929s-.208 18.815-17.379 21.181l2.364-21.181z" fill="#477ea8"/><path d="m31.949 106.11a1 1 0 0 1 -.994-1.11l2.364-21.182a1 1 0 0 1 .994-.889h15.015a1 1 0 0 1 1 1.011c0 .2-.424 19.7-18.243 22.161a1.035 1.035 0 0 1 -.136.009zm3.259-21.181-2.119 18.977c12.911-2.548 14.884-15.241 15.185-18.977z" fill="#2f3a5a"/><path d="m63.178 83.929v20.5a5.247 5.247 0 0 0 5.248-5.248v-15.252z" fill="#477ea8"/><path d="m63.178 105.43a1 1 0 0 1 -1-1v-20.5a1 1 0 0 1 1-1h5.248a1 1 0 0 1 1 1v15.251a6.256 6.256 0 0 1 -6.248 6.249zm1-20.5v18.382a4.255 4.255 0 0 0 3.248-4.13v-14.253z" fill="#2f3a5a"/><path d="m93.171 1v67.343h-58.342v-67.343h13.455a15.716 15.716 0 1 0 31.432 0z" fill="#dbe2eb"/><path d="m93.171 69.343h-58.342a1 1 0 0 1 -1-1v-67.343a1 1 0 0 1 1-1h13.455a1 1 0 0 1 1 1 14.716 14.716 0 1 0 29.432 0 1 1 0 0 1 1-1h13.455a1 1 0 0 1 1 1v67.343a1 1 0 0 1 -1 1zm-57.342-2h56.342v-65.343h-11.484a16.717 16.717 0 0 1 -33.374 0h-11.484z" fill="#2f3a5a"/><path d="m93.171 1 20.293 25.454-10.146 16.089-10.147-8.394z" fill="#6bb3d9"/><path d="m103.317 43.542a1 1 0 0 1 -.637-.229l-10.146-8.394a1 1 0 0 1 -.363-.771v-33.148a1 1 0 0 1 1.782-.624l20.293 25.455a1 1 0 0 1 .064 1.157l-10.147 16.088a1 1 0 0 1 -.688.454.926.926 0 0 1 -.158.012zm-9.146-9.864 8.907 7.369 9.161-14.525-18.068-22.664z" fill="#2f3a5a"/><path d="m34.829 1-20.293 25.454 10.146 16.089 10.147-8.394z" fill="#6bb3d9"/><path d="m24.683 43.542a.926.926 0 0 1 -.158-.012 1 1 0 0 1 -.688-.454l-10.147-16.088a1 1 0 0 1 .064-1.157l20.293-25.455a1 1 0 0 1 1.782.624v33.148a1 1 0 0 1 -.363.771l-10.146 8.394a1 1 0 0 1 -.637.229zm-8.922-17.02 9.161 14.525 8.907-7.369v-29.82z" fill="#2f3a5a"/><path d="m34.829 25.827h58.342v8.844h-58.342z" fill="#e39ca5"/><path d="m93.171 35.671h-58.342a1 1 0 0 1 -1-1v-8.844a1 1 0 0 1 1-1h58.342a1 1 0 0 1 1 1v8.844a1 1 0 0 1 -1 1zm-57.342-2h56.342v-6.844h-56.342z" fill="#2f3a5a"/><path d="m34.829 34.671h58.342v8.844h-58.342z" fill="#ffc943"/><path d="m93.171 44.516h-58.342a1 1 0 0 1 -1-1v-8.845a1 1 0 0 1 1-1h58.342a1 1 0 0 1 1 1v8.845a1 1 0 0 1 -1 1zm-57.342-2h56.342v-6.845h-56.342z" fill="#2f3a5a"/></svg>