<svg id="icon" height="512" viewBox="0 0 128 128" width="512" xmlns="http://www.w3.org/2000/svg"><path d="m54.03 40.016h4v46.89h-4z" fill="#a9ddc7" transform="matrix(.906 -.423 .423 .906 -21.594 29.681)"/><path d="m64.141 86.548a1 1 0 0 1 -.906-.576l-19.847-42.483a1 1 0 0 1 .483-1.329l3.629-1.693a1 1 0 0 1 1.329.482l19.842 42.483a1 1 0 0 1 -.483 1.329l-3.624 1.693a.988.988 0 0 1 -.423.094zm-18.518-43 19 40.67 1.812-.847-19-40.67z" fill="#2f3a5a"/><path d="m42.964 31.745 3.473 8.066-3.071 2.569-4.621-9.589z" fill="#b9ddfc"/><path d="m43.366 43.38a.947.947 0 0 1 -.211-.023 1 1 0 0 1 -.69-.543l-4.621-9.589a1 1 0 0 1 .66-1.405l4.22-1.045a1 1 0 0 1 1.159.575l3.472 8.065a1 1 0 0 1 -.276 1.163l-3.071 2.569a1 1 0 0 1 -.642.233zm-3.186-9.914 3.529 7.323 1.515-1.268-2.843-6.6z" fill="#2f3a5a"/><g fill="#c1cdd3"><path d="m103.151 107.541a1 1 0 0 1 -1-1v-40.009a1 1 0 0 1 2 0v40.009a1 1 0 0 1 -1 1z"/><path d="m123.156 87.537h-40.009a1 1 0 0 1 0-2h40.009a1 1 0 0 1 0 2z"/><path d="m89.006 101.682a1 1 0 0 1 -.707-1.707l28.291-28.291a1 1 0 0 1 1.41 1.416l-28.287 28.289a1 1 0 0 1 -.707.293z"/><path d="m117.3 101.682a1 1 0 0 1 -.707-.293l-28.293-28.289a1 1 0 1 1 1.414-1.414l28.286 28.289a1 1 0 0 1 -.707 1.707z"/><path d="m23.663 107.541a1 1 0 0 1 -1-1v-40.009a1 1 0 0 1 2 0v40.009a1 1 0 0 1 -1 1z"/><path d="m43.667 87.537h-40.009a1 1 0 0 1 0-2h40.009a1 1 0 0 1 0 2z"/><path d="m9.517 101.682a1 1 0 0 1 -.707-1.707l28.29-28.291a1 1 0 1 1 1.415 1.416l-28.291 28.289a1 1 0 0 1 -.707.293z"/><path d="m37.808 101.682a1 1 0 0 1 -.707-.293l-28.291-28.289a1 1 0 1 1 1.414-1.414l28.291 28.289a1 1 0 0 1 -.707 1.707z"/></g><path d="m103.151 62.682a23.849 23.849 0 1 0 23.849 23.849 23.863 23.863 0 0 0 -23.849-23.849zm0 43.859a20 20 0 1 1 20-20.01 20.008 20.008 0 0 1 -19.999 20.01z" fill="#9297ab" stroke="#2f3a5a" stroke-miterlimit="10" stroke-width="2"/><path d="m24.86 62.682a23.849 23.849 0 1 0 23.848 23.849 23.863 23.863 0 0 0 -23.848-23.849zm0 43.859a20 20 0 1 1 20-20.01 20.008 20.008 0 0 1 -20 20.01z" fill="#9297ab" stroke="#2f3a5a" stroke-miterlimit="10" stroke-width="2"/><path d="m44.081 39.786-20.422 46.741 42.621.01 25.035-46.258zm20.066 42.807-34.547-.01 16.97-38.832 38.38.4z" fill="#b9ddfc"/><path d="m66.28 87.537-42.621-.01a1 1 0 0 1 -.916-1.4l20.422-46.74a.919.919 0 0 1 .926-.6l47.234.493a1 1 0 0 1 .869 1.476l-25.034 46.257a1 1 0 0 1 -.88.524zm-41.093-2.01 40.5.01 23.959-44.275-44.914-.469zm38.96-1.934-34.547-.01a1 1 0 0 1 -.916-1.4l16.969-38.833a1 1 0 0 1 .917-.6h.011l38.379.4a1 1 0 0 1 .869 1.476l-20.8 38.439a1 1 0 0 1 -.882.528zm-33.017-2.01 32.421.01 19.73-36.457-36.06-.379z" fill="#2f3a5a"/><path d="m104.171 82.509-15.547-58.328a2.016 2.016 0 1 0 -3.894 1.047c2.86 10.525 15.877 58.376 16.58 59.981 1.125 2.57 4.272 1.328 2.861-2.7z" fill="#b9ddfc"/><path d="m102.985 87.546a2.894 2.894 0 0 1 -2.591-1.936c-.694-1.585-11.861-42.572-16.629-60.12a3.016 3.016 0 1 1 5.825-1.566l15.537 58.291c.979 2.833.047 4.64-1.316 5.177a2.265 2.265 0 0 1 -.826.154zm-16.307-63.862a1.017 1.017 0 0 0 -.984 1.281c7.263 26.724 15.951 58.433 16.534 59.847.258.589.623.812.851.718.387-.152.7-1.112.148-2.691-.008-.024-.016-.048-.022-.073l-15.547-58.328a1.013 1.013 0 0 0 -.98-.754z" fill="#2f3a5a"/><path d="m88.715 19.928a3.117 3.117 0 1 0 -6.019 1.62l3.262 12.117 6.019-1.62z" fill="#84879c"/><path d="m85.958 34.666a1 1 0 0 1 -.966-.741l-3.262-12.117a4.117 4.117 0 1 1 7.951-2.14l3.262 12.118a1 1 0 0 1 -.706 1.225l-6.019 1.62a.98.98 0 0 1 -.26.035zm-.249-16.046a2.134 2.134 0 0 0 -.553.074 2.116 2.116 0 0 0 -1.494 2.594l3 11.152 4.087-1.1-3-11.152a2.119 2.119 0 0 0 -2.041-1.568z" fill="#2f3a5a"/><circle cx="63.394" cy="84.568" fill="#d9e2e9" r="9.211" transform="matrix(.973 -.23 .23 .973 -17.734 16.827)"/><circle cx="63.394" cy="84.568" fill="#b0b3c1" r="4.098" transform="matrix(.973 -.23 .23 .973 -17.734 16.827)"/><path d="m63.394 94.779a10.211 10.211 0 1 1 10.211-10.211 10.222 10.222 0 0 1 -10.211 10.211zm0-18.422a8.211 8.211 0 1 0 8.211 8.211 8.22 8.22 0 0 0 -8.211-8.211z" fill="#2f3a5a"/><circle cx="24.854" cy="85.593" fill="#d9e2e9" r="8.187" transform="matrix(.973 -.23 .23 .973 -19 8)"/><circle cx="24.854" cy="85.593" fill="#9297ab" r="3.577" transform="matrix(.973 -.23 .23 .973 -19 8)"/><path d="m24.854 94.779a9.187 9.187 0 1 1 9.187-9.186 9.2 9.2 0 0 1 -9.187 9.186zm0-16.373a7.187 7.187 0 1 0 7.187 7.187 7.2 7.2 0 0 0 -7.187-7.187z" fill="#2f3a5a"/><path d="m63.394 100.926a1 1 0 0 1 -1-1v-14.89a1 1 0 0 1 2 0v14.89a1 1 0 0 1 -1 1z" fill="#2f3a5a"/><path d="m67.5 100.926h-8a1 1 0 1 1 0-2h8a1 1 0 0 1 0 2z" fill="#2f3a5a"/><path d="m49.253 27.279a25.686 25.686 0 0 0 -9.491-2.248 11.7 11.7 0 0 0 -4.89.866 5.058 5.058 0 0 0 -3.041 4.425 4.684 4.684 0 0 0 3.041 4.149 14.089 14.089 0 0 0 4.273.836c2.031.184 5.031-.319 8.943-1.958a15.2 15.2 0 0 1 4-1.249c1.159-.144 2.5-.184 3.222-.924a1.793 1.793 0 0 0 -1.264-2.884 35.357 35.357 0 0 1 -4.793-1.013z" fill="#f26176"/><path d="m55.31 31.18c-.72.74-2.06.78-3.22.92a15.147 15.147 0 0 0 -4 1.25c-3.91 1.64-6.91 2.14-8.94 1.96a14.334 14.334 0 0 1 -4.28-.84 4.69 4.69 0 0 1 -3.04-4.15 5.115 5.115 0 0 1 2.24-4 4.827 4.827 0 0 0 -.23 1.33 4.656 4.656 0 0 0 3.04 4.14 13.731 13.731 0 0 0 4.27.84c2.03.18 5.03-.32 8.94-1.96a15.6 15.6 0 0 1 4.01-1.25c.45-.05.93-.09 1.38-.17a1.682 1.682 0 0 1 -.17 1.93z" fill="#da2a47"/><path d="m39.982 36.343q-.48 0-.927-.04a14.951 14.951 0 0 1 -4.579-.914 5.69 5.69 0 0 1 -3.645-5.089 6.1 6.1 0 0 1 3.669-5.331 12.6 12.6 0 0 1 5.331-.935 24.582 24.582 0 0 1 8.6 1.866c.366.142.75.288 1.164.441a35.341 35.341 0 0 0 4.529.954 2.794 2.794 0 0 1 2.392 1.84 2.581 2.581 0 0 1 -.494 2.738 5.239 5.239 0 0 1 -3.341 1.165l-.475.054a14.419 14.419 0 0 0 -3.737 1.179 22.994 22.994 0 0 1 -8.487 2.072zm-.77-10.33a11.165 11.165 0 0 0 -3.969.813 4.068 4.068 0 0 0 -2.412 3.516 3.691 3.691 0 0 0 2.437 3.211 13.307 13.307 0 0 0 3.967.758c2.105.191 5.112-.478 8.466-1.884a16.184 16.184 0 0 1 4.265-1.32l.5-.057a4.076 4.076 0 0 0 2.124-.571.635.635 0 0 0 .055-.644.806.806 0 0 0 -.686-.547 35.359 35.359 0 0 1 -5.055-1.071c-.423-.155-.814-.3-1.188-.449a22.627 22.627 0 0 0 -8.027-1.739c-.152-.011-.312-.016-.477-.016z" fill="#2f3a5a"/><path d="m107.913 27.184-.972-4.318a6.731 6.731 0 0 0 -2.437-3.94 6.388 6.388 0 0 0 -5.36-1.129l-12.953 3.07.922 3.892 12.954-3.07a2.421 2.421 0 0 1 2.92 1.823l1.024 4.55a2 2 0 1 0 3.9-.878z" fill="#84879c"/><path d="m105.961 30.624a3.006 3.006 0 0 1 -2.926-2.342l-1.024-4.551a1.421 1.421 0 0 0 -1.713-1.069l-12.954 3.07a1 1 0 0 1 -1.2-.742l-.926-3.89a1 1 0 0 1 .742-1.2l12.954-3.07a7.422 7.422 0 0 1 6.191 1.3 7.731 7.731 0 0 1 2.812 4.519l.972 4.318a3 3 0 0 1 -2.928 3.66zm-5.328-10a3.423 3.423 0 0 1 3.329 2.67l1.024 4.551a1 1 0 0 0 1.952-.439l-.973-4.319a5.73 5.73 0 0 0 -2.062-3.359 5.352 5.352 0 0 0 -4.527-.956l-11.976 2.837.461 1.947 11.981-2.841a3.481 3.481 0 0 1 .791-.093z" fill="#2f3a5a"/></svg>