<svg id="icon" height="512" viewBox="0 0 128 128" width="512" xmlns="http://www.w3.org/2000/svg"><circle cx="64" cy="64" fill="#fac77c" r="63" transform="matrix(.383 -.924 .924 .383 -19.62 98.636)"/><path d="m127 64a63 63 0 0 1 -108.34 43.74 63 63 0 0 0 86.96-91.03 62.828 62.828 0 0 1 21.38 47.29z" fill="#e5ae5c"/><path d="m64 128a64 64 0 1 1 64-64 64.072 64.072 0 0 1 -64 64zm0-126a62 62 0 1 0 62 62 62.07 62.07 0 0 0 -62-62z" fill="#2f3a5a"/><circle cx="64" cy="64" fill="#dbe2eb" r="52.534" transform="matrix(.383 -.924 .924 .383 -19.62 98.636)"/><path d="m116.537 64.005a52.534 52.534 0 0 1 -92.756 33.783 52.528 52.528 0 0 0 74.015-74 52.4 52.4 0 0 1 18.741 40.217z" fill="#c1cdd3"/><path d="m64 117.534a53.534 53.534 0 1 1 53.534-53.534 53.594 53.594 0 0 1 -53.534 53.534zm0-105.068a51.534 51.534 0 1 0 51.534 51.534 51.592 51.592 0 0 0 -51.534-51.534z" fill="#2f3a5a"/><path d="m52.981 52.982-21.251 43.288 43.288-21.251 21.252-43.289z" fill="#6bb3d9"/><path d="m31.73 97.27a1 1 0 0 1 -.9-1.441l21.254-43.288a1 1 0 0 1 .457-.457l43.288-21.251a1 1 0 0 1 1.338 1.338l-21.251 43.288a1 1 0 0 1 -.457.457l-43.288 21.251a1 1 0 0 1 -.441.103zm22-43.541-19.811 40.353 40.352-19.811 19.81-40.353z" fill="#2f3a5a"/><path d="m52.981 52.982 22.037 22.037 21.252-43.289z" fill="#ef5361"/><path d="m75.019 76.019a1 1 0 0 1 -.707-.293l-22.038-22.038a1 1 0 0 1 .267-1.6l43.288-21.255a1 1 0 0 1 1.338 1.337l-21.251 43.289a1 1 0 0 1 -.733.546 1.018 1.018 0 0 1 -.164.014zm-20.342-22.756 20.06 20.06 19.344-39.4z" fill="#2f3a5a"/><circle cx="64" cy="64" fill="#dbe2eb" r="10.187"/><g fill="#2f3a5a"><path d="m64 75.187a11.187 11.187 0 1 1 11.187-11.187 11.2 11.2 0 0 1 -11.187 11.187zm0-20.374a9.187 9.187 0 1 0 9.187 9.187 9.2 9.2 0 0 0 -9.187-9.187z"/><path d="m64 20.708a1 1 0 0 1 -1-1v-3.629a1 1 0 0 1 2 0v3.629a1 1 0 0 1 -1 1z"/><path d="m64 112.921a1 1 0 0 1 -1-1v-3.629a1 1 0 0 1 2 0v3.629a1 1 0 0 1 -1 1z"/><path d="m111.921 65h-3.629a1 1 0 0 1 0-2h3.629a1 1 0 0 1 0 2z"/><path d="m19.708 65h-3.629a1 1 0 0 1 0-2h3.629a1 1 0 0 1 0 2z"/></g></svg>