<svg id="icon" height="512" viewBox="0 0 128 128" width="512" xmlns="http://www.w3.org/2000/svg"><path d="m58.256 90.3v33.082a3.616 3.616 0 0 0 3.616 3.618h4.256a3.616 3.616 0 0 0 3.616-3.616v-33.084z" fill="#e1b378"/><path d="m66.129 128h-4.257a4.622 4.622 0 0 1 -4.616-4.616v-34.084h13.488v34.082a4.621 4.621 0 0 1 -4.615 4.618zm-6.873-36.7v32.082a2.619 2.619 0 0 0 2.616 2.618h4.257a2.618 2.618 0 0 0 2.615-2.616v-32.084z" fill="#2f3a5a"/><path d="m87.869 90.856-6.575-84.489a5.806 5.806 0 0 0 -5.789-5.367h-23.005a5.806 5.806 0 0 0 -5.79 5.367l-6.58 84.489a5.807 5.807 0 0 0 5.79 6.244h36.159a5.807 5.807 0 0 0 5.79-6.244z" fill="#ffc943"/><path d="m82.081 97.107h-6.806a5.809 5.809 0 0 0 5.789-6.254l-6.579-84.482a5.8 5.8 0 0 0 -5.785-5.371h6.8a5.8 5.8 0 0 1 5.789 5.367l6.581 84.486a5.81 5.81 0 0 1 -5.789 6.254z" fill="#f7b521"/><path d="m85.138 54.866h-42.277l-2.731 35.99a5.807 5.807 0 0 0 5.79 6.244h36.159a5.807 5.807 0 0 0 5.79-6.246z" fill="#8ae0a1"/><path d="m82.079 98.1h-36.159a6.807 6.807 0 0 1 -6.787-7.322l2.8-36.914h44.132l2.8 36.914a6.807 6.807 0 0 1 -6.786 7.322zm-38.292-42.234-2.66 35.066a4.807 4.807 0 0 0 4.793 5.168h36.159a4.807 4.807 0 0 0 4.793-5.17l-2.66-35.066z" fill="#2f3a5a"/><path d="m86.012 66.381-2.437-32.128h-39.15l-2.438 32.128z" fill="#ef5361"/><path d="m87.091 67.381h-46.183l2.592-34.128h41zm-44.025-2h41.867l-2.286-30.128h-37.3z" fill="#2f3a5a"/><path d="m82.079 98.1h-36.159a6.807 6.807 0 0 1 -6.787-7.322l6.575-84.488a6.837 6.837 0 0 1 6.792-6.29h23.01a6.836 6.836 0 0 1 6.786 6.292l6.57 84.488a6.807 6.807 0 0 1 -6.787 7.32zm-29.579-96.1a4.828 4.828 0 0 0 -4.8 4.443l-6.573 84.491a4.807 4.807 0 0 0 4.793 5.166h36.159a4.807 4.807 0 0 0 4.793-5.168l-6.572-84.487a4.828 4.828 0 0 0 -4.795-4.445z" fill="#2f3a5a"/><path d="m85.138 54.866h-42.277l-2.731 35.99a5.807 5.807 0 0 0 5.79 6.244h36.159a5.807 5.807 0 0 0 5.79-6.246z" fill="#8ae0a1"/><path d="m85.138 54.866h-42.277l-2.731 35.99a5.807 5.807 0 0 0 5.79 6.244h36.159a5.807 5.807 0 0 0 5.79-6.246z" fill="#8ae0a1"/><path d="m82.081 97.107h-7.909a5.809 5.809 0 0 0 5.788-6.254l-2.726-35.987h7.909l2.727 35.987a5.81 5.81 0 0 1 -5.789 6.254z" fill="#6fc682"/><path d="m82.079 98.1h-36.159a6.807 6.807 0 0 1 -6.787-7.322l2.8-36.914h44.132l2.8 36.914a6.807 6.807 0 0 1 -6.786 7.322zm-38.292-42.234-2.66 35.066a4.807 4.807 0 0 0 4.793 5.168h36.159a4.807 4.807 0 0 0 4.793-5.17l-2.66-35.066z" fill="#2f3a5a"/><path d="m86.012 66.381-2.437-32.128h-39.15l-2.438 32.128z" fill="#ef5361"/><path d="m86.008 66.378h-6.957l-2.445-32.124h6.968z" fill="#da2a47"/><path d="m87.091 67.381h-46.183l2.592-34.128h41zm-44.025-2h41.867l-2.286-30.128h-37.3z" fill="#2f3a5a"/></svg>