<svg id="icon" height="512" viewBox="0 0 128 128" width="512" xmlns="http://www.w3.org/2000/svg"><path d="m64.436 128a1 1 0 0 1 -1-1v-82.276a1 1 0 0 1 2 0v82.276a1 1 0 0 1 -1 1z" fill="#2f3a5a"/><path d="m64.436 44.724 44.897 39.414-29.943-1.022-27.411-24.313z" fill="#ffc943"/><path d="m109.336 84.143-29.952-1.029-27.405-24.306 3.514-3.977 25.472 22.599 21.557.727z" fill="#f7b521"/><path d="m109.333 85.138h-.033l-29.944-1.023a1 1 0 0 1 -.629-.251l-27.412-24.313a1 1 0 0 1 -.085-1.41l12.457-14.079a1 1 0 0 1 1.409-.089l44.9 39.413a1 1 0 0 1 -.659 1.752zm-29.549-3.01 26.785.915-42.044-36.91-11.135 12.585z" fill="#2f3a5a"/><path d="m66.221 42.076-47.557-41.072h30.655l30.071 25.971z" fill="#ffc943"/><path d="m79.384 26.974-3.074 3.526-28.471-24.594h-23.49l-5.684-4.906h30.654z" fill="#f7b521"/><path d="m66.22 43.076a1 1 0 0 1 -.653-.243l-47.557-41.072a1 1 0 0 1 .654-1.761h30.655a1 1 0 0 1 .654.243l30.071 25.975a1 1 0 0 1 .1 1.414l-13.17 15.1a1 1 0 0 1 -.754.344zm-44.868-41.076 44.769 38.669 11.855-13.594-29.029-25.075z" fill="#2f3a5a"/><path d="m64.436 44.724 37.211-43.377-.7 30.529-21.954 25.42z" fill="#ffc943"/><path d="m101.644 1.351-.703 30.529-21.946 25.41-4.254-3.676 21.608-25.021.502-21.645z" fill="#f7b521"/><path d="m78.993 58.3a1 1 0 0 1 -.654-.243l-14.557-12.576a1 1 0 0 1 -.1-1.408l37.207-43.373a1 1 0 0 1 1.758.674l-.7 30.529a1 1 0 0 1 -.242.631l-21.955 25.416a1 1 0 0 1 -.757.35zm-13.149-13.681 13.046 11.266 21.065-24.385.628-27.372z" fill="#2f3a5a"/><path d="m66.302 42.272-37.513 43.436v-30.657l22.412-25.95z" fill="#ffc943"/><path d="m55.656 32.985-20.566 23.791v21.645l-6.299 7.29v-30.655l22.41-25.961z" fill="#f7b521"/><path d="m28.789 86.708a1 1 0 0 1 -1-1v-30.657a1 1 0 0 1 .243-.654l22.412-25.95a1 1 0 0 1 1.414-.1l15.1 13.171a1 1 0 0 1 .1 1.407l-37.512 43.437a1 1 0 0 1 -.757.346zm1-31.285v27.6l35.111-40.651-13.6-11.857z" fill="#2f3a5a"/><circle cx="64.436" cy="43.111" fill="#dbe2eb" r="9.043"/><path d="m64.436 53.154a10.044 10.044 0 1 1 10.043-10.044 10.055 10.055 0 0 1 -10.043 10.044zm0-18.087a8.044 8.044 0 1 0 8.043 8.043 8.052 8.052 0 0 0 -8.043-8.043z" fill="#2f3a5a"/></svg>