<svg id="icon" height="512" viewBox="0 0 128 128" width="512" xmlns="http://www.w3.org/2000/svg"><path d="m8.445 128a4.588 4.588 0 0 1 -2.937-1.019 1 1 0 1 1 1.262-1.551 2.817 2.817 0 0 0 2.42.488 5.491 5.491 0 0 0 3.557-2.781 16.12 16.12 0 0 0 1.219-6.341c.046-.753.092-1.5.167-2.246a28.028 28.028 0 0 1 15.419-22.006 1 1 0 1 1 .867 1.8 25.988 25.988 0 0 0 -14.3 20.4c-.072.715-.116 1.441-.161 2.167a17.84 17.84 0 0 1 -1.428 7.119 7.489 7.489 0 0 1 -4.926 3.837 5.517 5.517 0 0 1 -1.159.133z" fill="#2f3a5a"/><path d="m117.691 74.012-88.225 19.384 19.372-88.237 44.651-2.535 28.373-1.623-1.661 28.943z" fill="#6bb3d9"/><path d="m117.687 74.011-88.22 19.382 2.924-13.3 45.973-43.882c-3.777-4.955-22.408-18.711-30.885-24.855l1.36-6.193 44.654-2.539 28.367-1.624-1.655 28.946z" fill="#4fa4d1"/><path d="m29.467 94.4a1 1 0 0 1 -.977-1.214l19.371-88.241a1 1 0 0 1 .92-.784l73.024-4.161a1.013 1.013 0 0 1 .763.291.994.994 0 0 1 .291.765l-4.171 73.01a1 1 0 0 1 -.783.92l-88.223 19.387a.989.989 0 0 1 -.215.027zm20.185-88.285-18.874 85.969 85.957-18.884 4.065-71.136z" fill="#2f3a5a"/><path d="m121.862 1-33.508 33.509a175.152 175.152 0 0 0 -39.516-29.35z" fill="#6bb3d9"/><path d="m88.354 35.509a1 1 0 0 1 -.7-.292 175.107 175.107 0 0 0 -39.298-29.181 1 1 0 0 1 .425-1.875l73.024-4.161a1 1 0 0 1 .763 1.705l-33.506 33.511a1 1 0 0 1 -.708.293zm-36.041-29.546a176.436 176.436 0 0 1 36.038 27.137l30.949-30.951z" fill="#2f3a5a"/><path d="m120.2 29.944c-11.778 9.04-25.09 11.322-31.695 4.717-6.668-6.669-4.285-20.183 4.983-32.037l28.374-1.624z" fill="#fac77c"/><path d="m98.845 39.489c-4.427 0-8.275-1.35-11.046-4.121-6.887-6.888-4.825-20.918 4.9-33.36a1 1 0 0 1 .732-.383l28.374-1.625a1.013 1.013 0 0 1 .763.291.994.994 0 0 1 .291.765l-1.659 28.944a1 1 0 0 1 -.389.737c-7.502 5.757-15.375 8.752-21.966 8.752zm-4.845-35.889c-8.863 11.541-10.887 24.258-4.788 30.358 6 6 18.579 4.088 30.016-4.527l1.572-27.367z" fill="#2f3a5a"/><path d="m29.466 93.4 58.888-58.891a167.668 167.668 0 0 1 29.337 39.5z" fill="#6bb3d9"/><path d="m117.687 74.011-5.8 1.269a165.63 165.63 0 0 0 -25.207-32.28l-48.471 48.474-8.742 1.919 58.888-58.888a168.105 168.105 0 0 1 29.332 39.506z" fill="#4fa4d1"/><g fill="#2f3a5a"><path d="m29.467 94.4a1 1 0 0 1 -.707-1.707l58.887-58.893a1 1 0 0 1 1.413 0 169.412 169.412 0 0 1 29.51 39.738 1 1 0 0 1 -.665 1.451l-88.223 19.384a1 1 0 0 1 -.215.027zm58.887-58.476-55.762 55.762 83.584-18.365a167.349 167.349 0 0 0 -27.822-37.397z"/><path d="m29.467 94.4a1 1 0 0 1 -.707-1.707l92.394-92.399a1 1 0 0 1 1.414 1.414l-92.394 92.392a1 1 0 0 1 -.707.3z"/><path d="m117.691 75.012a1 1 0 0 1 -.88-.525 167.451 167.451 0 0 0 -29.163-39.27 175.048 175.048 0 0 0 -39.292-29.181 1 1 0 0 1 .963-1.753 177.088 177.088 0 0 1 39.741 29.517 169.44 169.44 0 0 1 29.51 39.738 1 1 0 0 1 -.879 1.474z"/><path d="m14.106 99.067a1 1 0 0 1 -.606-1.8c8.449-6.421 16.008-5.691 16.325-5.657a1 1 0 0 1 -.213 1.989c-.119-.013-7.146-.634-14.9 5.26a1 1 0 0 1 -.606.208z"/><path d="m24.4 109.36a1 1 0 0 1 -.794-1.605 24.926 24.926 0 0 0 5.22-12.845 83.943 83.943 0 0 0 -9.382 9.38 1 1 0 0 1 -1.537-1.281 86.5 86.5 0 0 1 11.33-11.045 1 1 0 0 1 1.615.677c.034.317.764 7.874-5.658 16.324a1 1 0 0 1 -.794.395z"/></g></svg>