<svg id="icon" height="512" viewBox="0 0 128 128" width="512" xmlns="http://www.w3.org/2000/svg"><path d="m123.735 76.093a50.652 50.652 0 0 1 -8.925 28.8c-.426.618-.865 1.236-1.318 1.84a50.737 50.737 0 0 1 -5.411 6.083c-.562.549-1.153 1.085-1.743 1.62a50.924 50.924 0 1 1 17.4-38.338z" fill="#ec8f4a"/><g fill="#e1724b" opacity=".5"><path d="m104.017 57.085a1.2 1.2 0 1 0 1.2 1.2 1.195 1.195 0 0 0 -1.2-1.2z"/><path d="m101.626 63.593a1.2 1.2 0 1 0 1.2 1.195 1.195 1.195 0 0 0 -1.2-1.195z"/><path d="m106.407 62.4a1.2 1.2 0 1 0 1.2 1.2 1.2 1.2 0 0 0 -1.2-1.2z"/><path d="m99.235 60.007a1.2 1.2 0 1 0 1.2 1.2 1.195 1.195 0 0 0 -1.2-1.2z"/><path d="m99.235 53.366a1.2 1.2 0 1 0 1.2 1.2 1.195 1.195 0 0 0 -1.2-1.2z"/><path d="m95.65 67.194a1.2 1.2 0 1 0 1.195 1.195 1.2 1.2 0 0 0 -1.195-1.195z"/><path d="m93.259 73.7a1.2 1.2 0 1 0 1.195 1.2 1.2 1.2 0 0 0 -1.195-1.2z"/><path d="m98.04 72.506a1.2 1.2 0 1 0 1.2 1.195 1.195 1.195 0 0 0 -1.2-1.195z"/><path d="m90.868 70.115a1.2 1.2 0 1 0 1.2 1.2 1.2 1.2 0 0 0 -1.2-1.2z"/><path d="m90.868 63.475a1.2 1.2 0 1 0 1.2 1.2 1.195 1.195 0 0 0 -1.2-1.2z"/><path d="m107.6 71.112a1.195 1.195 0 1 0 1.2 1.2 1.2 1.2 0 0 0 -1.2-1.2z"/><path d="m105.212 77.619a1.2 1.2 0 1 0 1.195 1.2 1.2 1.2 0 0 0 -1.195-1.2z"/><path d="m109.993 76.424a1.2 1.2 0 1 0 1.2 1.195 1.195 1.195 0 0 0 -1.2-1.195z"/><path d="m102.821 74.033a1.2 1.2 0 1 0 1.2 1.2 1.2 1.2 0 0 0 -1.2-1.2z"/><path d="m102.821 67.393a1.2 1.2 0 1 0 1.2 1.195 1.195 1.195 0 0 0 -1.2-1.195z"/><path d="m102.821 82.533a1.2 1.2 0 1 0 1.2 1.2 1.2 1.2 0 0 0 -1.2-1.2z"/><path d="m100.431 89.041a1.2 1.2 0 1 0 1.2 1.2 1.195 1.195 0 0 0 -1.2-1.2z"/><path d="m105.212 87.846a1.195 1.195 0 1 0 1.195 1.195 1.195 1.195 0 0 0 -1.195-1.195z"/><path d="m98.04 85.455a1.2 1.2 0 1 0 1.2 1.2 1.2 1.2 0 0 0 -1.2-1.2z"/><path d="m98.04 78.815a1.2 1.2 0 1 0 1.2 1.2 1.195 1.195 0 0 0 -1.2-1.2z"/><path d="m99.235 93.955a1.2 1.2 0 1 0 1.2 1.2 1.195 1.195 0 0 0 -1.2-1.2z"/><path d="m101.626 99.268a1.2 1.2 0 1 0 1.2 1.195 1.195 1.195 0 0 0 -1.2-1.195z"/><path d="m94.454 90.236a1.2 1.2 0 1 0 1.2 1.2 1.2 1.2 0 0 0 -1.2-1.2z"/><path d="m114.774 85.256a1.2 1.2 0 1 0 1.2 1.195 1.195 1.195 0 0 0 -1.2-1.195z"/><path d="m112.384 91.764a1.2 1.2 0 1 0 1.195 1.2 1.195 1.195 0 0 0 -1.195-1.2z"/><path d="m117.165 90.568a1.2 1.2 0 1 0 1.195 1.2 1.2 1.2 0 0 0 -1.195-1.2z"/><path d="m109.993 88.178a1.2 1.2 0 1 0 1.2 1.2 1.195 1.195 0 0 0 -1.2-1.2z"/><path d="m109.993 81.537a1.2 1.2 0 1 0 1.2 1.2 1.2 1.2 0 0 0 -1.2-1.2z"/><path d="m114.774 63.393a1.2 1.2 0 1 0 1.2 1.2 1.2 1.2 0 0 0 -1.2-1.2z"/><path d="m112.384 69.9a1.2 1.2 0 1 0 1.195 1.2 1.195 1.195 0 0 0 -1.195-1.2z"/><path d="m117.165 68.706a1.2 1.2 0 1 0 1.195 1.194 1.195 1.195 0 0 0 -1.195-1.194z"/><path d="m109.993 66.315a1.2 1.2 0 1 0 1.2 1.2 1.195 1.195 0 0 0 -1.2-1.2z"/><path d="m109.993 59.675a1.2 1.2 0 1 0 1.2 1.2 1.195 1.195 0 0 0 -1.2-1.2z"/><path d="m119.555 77.354a1.2 1.2 0 1 0 1.2 1.2 1.195 1.195 0 0 0 -1.2-1.2z"/><path d="m114.774 80.276a1.2 1.2 0 1 0 1.2 1.2 1.195 1.195 0 0 0 -1.2-1.2z"/><path d="m114.774 73.635a1.2 1.2 0 1 0 1.2 1.195 1.195 1.195 0 0 0 -1.2-1.195z"/><path d="m90.868 79.944a1.2 1.2 0 1 0 1.2 1.195 1.195 1.195 0 0 0 -1.2-1.195z"/><path d="m88.478 86.451a1.2 1.2 0 1 0 1.2 1.2 1.2 1.2 0 0 0 -1.2-1.2z"/><path d="m93.259 85.256a1.2 1.2 0 1 0 1.195 1.195 1.195 1.195 0 0 0 -1.195-1.195z"/><path d="m86.087 82.865a1.2 1.2 0 1 0 1.2 1.2 1.2 1.2 0 0 0 -1.2-1.2z"/><path d="m86.087 76.225a1.2 1.2 0 1 0 1.2 1.2 1.195 1.195 0 0 0 -1.2-1.2z"/><path d="m69.353 75.852a1.2 1.2 0 1 0 1.2 1.195 1.195 1.195 0 0 0 -1.2-1.195z"/><path d="m66.963 82.36a1.2 1.2 0 1 0 1.2 1.2 1.2 1.2 0 0 0 -1.2-1.2z"/><path d="m71.744 81.165a1.2 1.2 0 1 0 1.195 1.195 1.195 1.195 0 0 0 -1.195-1.195z"/><path d="m64.572 78.774a1.2 1.2 0 1 0 1.195 1.195 1.195 1.195 0 0 0 -1.195-1.195z"/><path d="m64.572 72.133a1.2 1.2 0 1 0 1.195 1.2 1.2 1.2 0 0 0 -1.195-1.2z"/><path d="m60.986 85.961a1.2 1.2 0 1 0 1.2 1.2 1.195 1.195 0 0 0 -1.2-1.2z"/><path d="m58.6 92.469a1.2 1.2 0 1 0 1.2 1.2 1.195 1.195 0 0 0 -1.2-1.2z"/><path d="m63.377 91.273a1.2 1.2 0 1 0 1.2 1.2 1.2 1.2 0 0 0 -1.2-1.2z"/><path d="m56.205 88.883a1.2 1.2 0 1 0 1.2 1.2 1.195 1.195 0 0 0 -1.2-1.2z"/><path d="m56.205 82.242a1.2 1.2 0 1 0 1.2 1.195 1.195 1.195 0 0 0 -1.2-1.195z"/><path d="m72.939 89.879a1.2 1.2 0 1 0 1.2 1.195 1.195 1.195 0 0 0 -1.2-1.195z"/><path d="m70.548 96.387a1.2 1.2 0 1 0 1.2 1.195 1.195 1.195 0 0 0 -1.2-1.195z"/><path d="m75.33 95.191a1.2 1.2 0 1 0 1.2 1.2 1.2 1.2 0 0 0 -1.2-1.2z"/><path d="m68.158 92.8a1.2 1.2 0 1 0 1.195 1.2 1.195 1.195 0 0 0 -1.195-1.2z"/><path d="m68.158 86.16a1.2 1.2 0 1 0 1.195 1.2 1.195 1.195 0 0 0 -1.195-1.2z"/><path d="m68.158 101.3a1.2 1.2 0 1 0 1.195 1.195 1.195 1.195 0 0 0 -1.195-1.195z"/><path d="m65.767 107.808a1.2 1.2 0 1 0 1.2 1.2 1.2 1.2 0 0 0 -1.2-1.2z"/><path d="m70.548 106.613a1.2 1.2 0 1 0 1.2 1.2 1.195 1.195 0 0 0 -1.2-1.2z"/><path d="m63.377 104.222a1.2 1.2 0 1 0 1.2 1.2 1.2 1.2 0 0 0 -1.2-1.2z"/><path d="m63.377 97.582a1.195 1.195 0 1 0 1.2 1.2 1.2 1.2 0 0 0 -1.2-1.2z"/><path d="m64.572 112.722a1.2 1.2 0 1 0 1.195 1.2 1.2 1.2 0 0 0 -1.195-1.2z"/><path d="m62.181 119.23a1.2 1.2 0 1 0 1.2 1.195 1.195 1.195 0 0 0 -1.2-1.195z"/><path d="m66.963 118.035a1.195 1.195 0 1 0 1.2 1.2 1.2 1.2 0 0 0 -1.2-1.2z"/><path d="m59.791 115.644a1.2 1.2 0 1 0 1.2 1.2 1.2 1.2 0 0 0 -1.2-1.2z"/><path d="m59.791 109a1.2 1.2 0 1 0 1.2 1.195 1.195 1.195 0 0 0 -1.2-1.195z"/><path d="m80.111 104.023a1.2 1.2 0 1 0 1.195 1.2 1.2 1.2 0 0 0 -1.195-1.2z"/><path d="m77.72 110.531a1.2 1.2 0 1 0 1.2 1.195 1.195 1.195 0 0 0 -1.2-1.195z"/><path d="m75.33 106.945a1.2 1.2 0 1 0 1.2 1.2 1.2 1.2 0 0 0 -1.2-1.2z"/><path d="m75.33 100.305a1.195 1.195 0 1 0 1.2 1.195 1.2 1.2 0 0 0 -1.2-1.195z"/><path d="m80.111 82.161a1.195 1.195 0 1 0 1.195 1.195 1.195 1.195 0 0 0 -1.195-1.195z"/><path d="m77.72 88.668a1.2 1.2 0 1 0 1.2 1.2 1.2 1.2 0 0 0 -1.2-1.2z"/><path d="m82.5 87.473a1.2 1.2 0 1 0 1.2 1.2 1.195 1.195 0 0 0 -1.2-1.2z"/><path d="m75.33 85.082a1.2 1.2 0 1 0 1.2 1.2 1.2 1.2 0 0 0 -1.2-1.2z"/><path d="m75.33 78.442a1.2 1.2 0 1 0 1.2 1.2 1.2 1.2 0 0 0 -1.2-1.2z"/><path d="m84.892 96.121a1.2 1.2 0 1 0 1.2 1.2 1.195 1.195 0 0 0 -1.2-1.2z"/><path d="m80.111 92.4a1.2 1.2 0 1 0 1.195 1.2 1.2 1.2 0 0 0 -1.195-1.2z"/><path d="m56.205 98.711a1.2 1.2 0 1 0 1.2 1.2 1.195 1.195 0 0 0 -1.2-1.2z"/><path d="m53.814 105.219a1.2 1.2 0 1 0 1.2 1.2 1.195 1.195 0 0 0 -1.2-1.2z"/><path d="m58.6 104.023a1.2 1.2 0 1 0 1.2 1.2 1.2 1.2 0 0 0 -1.2-1.2z"/><path d="m51.424 101.633a1.2 1.2 0 1 0 1.2 1.2 1.195 1.195 0 0 0 -1.2-1.2z"/><path d="m51.424 94.992a1.2 1.2 0 1 0 1.2 1.195 1.195 1.195 0 0 0 -1.2-1.195z"/><path d="m114.323 98.961a1.195 1.195 0 1 0 -.337 1.657 1.2 1.2 0 0 0 .337-1.657z"/><path d="m107.577 100.559a1.2 1.2 0 1 0 -.337 1.656 1.195 1.195 0 0 0 .337-1.656z"/><path d="m111.212 103.886a1.2 1.2 0 1 0 -.337 1.657 1.2 1.2 0 0 0 .337-1.657z"/><path d="m109.248 96.586a1.2 1.2 0 1 0 -.337 1.657 1.2 1.2 0 0 0 .337-1.657z"/><path d="m114.786 92.922a1.2 1.2 0 1 0 -.337 1.656 1.194 1.194 0 0 0 .337-1.656z"/><path d="m101.276 97.562a1.2 1.2 0 1 0 -.337 1.657 1.2 1.2 0 0 0 .337-1.657z"/><path d="m94.529 99.16a1.195 1.195 0 1 0 -.337 1.657 1.194 1.194 0 0 0 .337-1.657z"/><path d="m98.165 102.488a1.2 1.2 0 1 0 -.337 1.656 1.2 1.2 0 0 0 .337-1.656z"/><path d="m96.2 95.187a1.2 1.2 0 1 0 -.338 1.657 1.2 1.2 0 0 0 .338-1.657z"/><path d="m104.605 109.692a1.2 1.2 0 1 0 -.337 1.657 1.2 1.2 0 0 0 .337-1.657z"/><path d="m97.858 111.29a1.195 1.195 0 1 0 -.337 1.657 1.2 1.2 0 0 0 .337-1.657z"/><path d="m101.494 114.618a1.2 1.2 0 1 0 -.337 1.656 1.195 1.195 0 0 0 .337-1.656z"/><path d="m99.53 107.318a1.2 1.2 0 1 0 -.338 1.656 1.195 1.195 0 0 0 .338-1.656z"/><path d="m105.067 103.653a1.195 1.195 0 1 0 -.337 1.657 1.195 1.195 0 0 0 .337-1.657z"/><path d="m92.441 112.008a1.2 1.2 0 1 0 -.337 1.657 1.2 1.2 0 0 0 .337-1.657z"/><path d="m85.7 113.606a1.2 1.2 0 1 0 -.337 1.657 1.2 1.2 0 0 0 .337-1.657z"/><path d="m89.33 116.934a1.2 1.2 0 1 0 -.337 1.656 1.194 1.194 0 0 0 .337-1.656z"/><path d="m87.366 109.634a1.2 1.2 0 1 0 -.337 1.656 1.194 1.194 0 0 0 .337-1.656z"/><path d="m92.9 105.969a1.2 1.2 0 1 0 -.337 1.656 1.2 1.2 0 0 0 .337-1.656z"/><path d="m80.937 115.321a1.195 1.195 0 1 0 -.337 1.657 1.2 1.2 0 0 0 .337-1.657z"/><path d="m74.191 116.919a1.2 1.2 0 1 0 -.337 1.656 1.2 1.2 0 0 0 .337-1.656z"/><path d="m77.826 120.246a1.2 1.2 0 1 0 -.337 1.657 1.2 1.2 0 0 0 .337-1.657z"/><path d="m75.862 112.946a1.2 1.2 0 1 0 -.337 1.657 1.2 1.2 0 0 0 .337-1.657z"/><path d="m81.4 109.282a1.2 1.2 0 1 0 -.337 1.656 1.195 1.195 0 0 0 .337-1.656z"/><path d="m91.692 121.1a1.2 1.2 0 1 0 -.337 1.657 1.2 1.2 0 0 0 .337-1.657z"/><path d="m97.23 117.439a1.2 1.2 0 1 0 -.338 1.657 1.2 1.2 0 0 0 .338-1.657z"/><path d="m108.081 112.811c-.562.549-1.153 1.085-1.743 1.62a.586.586 0 0 1 -.083-.1 1.2 1.2 0 0 1 1.826-1.524z"/><path d="m109.924 109.039a1.2 1.2 0 1 0 -.337 1.657 1.2 1.2 0 0 0 .337-1.657z"/><path d="m114.81 104.888c-.426.618-.865 1.236-1.318 1.84l-.028-.028a1.206 1.206 0 0 1 .344-1.661 1.187 1.187 0 0 1 1.002-.151z"/><path d="m88.005 100.611a1.2 1.2 0 1 0 -.338 1.657 1.2 1.2 0 0 0 .338-1.657z"/><path d="m84.894 105.536a1.2 1.2 0 1 0 -.338 1.657 1.2 1.2 0 0 0 .338-1.657z"/><path d="m82.929 98.236a1.2 1.2 0 1 0 -.337 1.657 1.2 1.2 0 0 0 .337-1.657z"/><path d="m88.467 94.572a1.195 1.195 0 1 0 -.337 1.656 1.194 1.194 0 0 0 .337-1.656z"/></g><path d="m72.833 128a51.908 51.908 0 1 1 51.908-51.908 51.967 51.967 0 0 1 -51.908 51.908zm0-101.816a49.908 49.908 0 1 0 49.908 49.908 49.964 49.964 0 0 0 -49.908-49.908z" fill="#2f3a5a"/><path d="m85.339 4.008-5.873-3.008c-10.415 10.809-5.966 29.77-5.966 29.77h5.5c-4-21.588 6.339-26.762 6.339-26.762z" fill="#e1b378"/><path d="m79.008 31.77h-5.508a1 1 0 0 1 -.97-.77c-.186-.8-4.455-19.62 6.216-30.693a1 1 0 0 1 1.176-.2l5.878 3.011a1 1 0 0 1 0 1.781c-.126.067-9.6 5.248-5.8 25.688a1 1 0 0 1 -.983 1.183zm-4.686-2h3.494c-2.732-16.388 2.784-23.27 5.592-25.627l-3.724-1.908c-8.159 9.137-6.017 23.998-5.362 27.535z" fill="#2f3a5a"/><path d="m42.688 8.036c-8.948.681-17.932 3.76-24.5 9.88-6.116 5.7-9.753 13.664-11.618 21.816s-2.09 16.578-2.311 24.938c1.893-4.245 6.449-6.729 10.986-7.742s9.248-.858 13.855-1.48c8.652-1.168 16.721-5.049 24.129-9.669 5.886-3.671 11.621-8.015 15.079-14.028 2.431-4.225 8.546-17.808 2.021-20.4-8.129-3.237-19.012-3.972-27.641-3.315z" fill="#65b54e"/><path d="m4.259 65.67a.979.979 0 0 1 -.221-.025 1 1 0 0 1 -.779-1c.219-8.285.441-16.851 2.341-25.136 2.132-9.327 6.252-17.047 11.911-22.324 6.2-5.783 15.116-9.386 25.1-10.146 10.3-.783 20.8.479 28.087 3.379a5.227 5.227 0 0 1 3.095 3.29c2.254 6.471-4.55 18.422-4.618 18.542-3.787 6.583-10.229 11.142-15.418 14.378-9.076 5.66-16.869 8.778-24.525 9.811-1.872.253-3.776.381-5.617.5a54.391 54.391 0 0 0 -8.153.961c-5 1.117-8.756 3.732-10.291 7.173a1 1 0 0 1 -.912.597zm38.506-56.637c-9.536.726-18.02 4.14-23.891 9.614-5.365 5-9.281 12.372-11.325 21.309-1.588 6.944-1.978 14.156-2.194 21.236a18.149 18.149 0 0 1 9.672-5.24 55.813 55.813 0 0 1 8.455-1c1.808-.121 3.678-.247 5.484-.491 7.364-.994 14.906-4.021 23.733-9.526 4.991-3.113 11.178-7.481 14.742-13.678 2.492-4.332 5.907-12.747 4.464-16.887a3.264 3.264 0 0 0 -1.945-2.09c-7.022-2.793-17.189-4-27.195-3.243z" fill="#2f3a5a"/><path d="m72.677 13.621a178.215 178.215 0 0 0 -20.242 7.327c-11.887 5.121-25.935 12.784-33.019 22.53" fill="#65b54e"/><path d="m19.415 44.479a1 1 0 0 1 -.808-1.588c7.4-10.18 22.266-18.051 33.432-22.862a181.186 181.186 0 0 1 20.369-7.371 1 1 0 1 1 .537 1.926 179.068 179.068 0 0 0 -20.115 7.282c-10.935 4.712-25.47 12.387-32.6 22.2a1 1 0 0 1 -.815.413z" fill="#2f3a5a"/><path d="m62.475 16.976-1.578 7.554" fill="#65b54e"/><path d="m60.9 25.53a1.034 1.034 0 0 1 -.205-.021 1 1 0 0 1 -.774-1.183l1.579-7.555a1 1 0 1 1 1.957.41l-1.578 7.554a1 1 0 0 1 -.979.795z" fill="#2f3a5a"/><path d="m52.435 20.948-12.433-.195" fill="#65b54e"/><path d="m52.435 21.948h-.016l-12.433-.2a1 1 0 0 1 .032-2l12.432.2a1 1 0 0 1 -.015 2z" fill="#2f3a5a"/><path d="m38.752 27.69-3.394 9.288" fill="#65b54e"/><path d="m35.358 37.978a1 1 0 0 1 -.939-1.344l3.394-9.288a1 1 0 1 1 1.879.687l-3.392 9.288a1 1 0 0 1 -.942.657z" fill="#2f3a5a"/><path d="m29.46 33.705-6.794 1.106" fill="#65b54e"/><g fill="#2f3a5a"><path d="m22.665 35.811a1 1 0 0 1 -.16-1.987l6.795-1.106a1 1 0 1 1 .322 1.973l-6.795 1.109a.9.9 0 0 1 -.162.011z"/><path d="m83.433 33.829a1.006 1.006 0 0 1 -.434-.1c-6.6-3.185-11.061-1.343-11.248-1.262a1 1 0 0 1 -.8-1.832c.219-.1 5.43-2.32 12.921 1.292a1 1 0 0 1 -.435 1.9z"/></g></svg>