<svg id="icon" height="512" viewBox="0 0 128 128" width="512" xmlns="http://www.w3.org/2000/svg"><path d="m93.841 43.987a2.077 2.077 0 0 0 -2.058-1.687h-3.3a2.077 2.077 0 0 0 -2.058 1.688 23.938 23.938 0 0 0 -.351 4.153c0 5.646 1.818 10.224 4.06 10.224s4.059-4.578 4.059-10.224a23.941 23.941 0 0 0 -.352-4.154z" fill="#9297ab"/><path d="m90.132 59.364c-3.286 0-5.06-5.783-5.06-11.224a24.882 24.882 0 0 1 .366-4.327 3.069 3.069 0 0 1 3.043-2.513h3.3a3.068 3.068 0 0 1 3.043 2.514 24.882 24.882 0 0 1 .366 4.327c.001 5.44-1.772 11.223-5.058 11.223zm-1.651-16.064a1.072 1.072 0 0 0 -1.074.864 23.026 23.026 0 0 0 -.335 3.978c0 5.631 1.813 9.224 3.06 9.224s3.059-3.593 3.059-9.224a22.838 22.838 0 0 0 -.335-3.978 1.072 1.072 0 0 0 -1.074-.864z" fill="#2f3a5a"/><path d="m109.51 52.019a2.078 2.078 0 0 0 -2.059-1.688h-3.3a2.077 2.077 0 0 0 -2.058 1.688 23.947 23.947 0 0 0 -.351 4.153c0 5.647 1.818 10.224 4.059 10.224s4.06-4.577 4.06-10.224a23.95 23.95 0 0 0 -.351-4.153z" fill="#9297ab"/><path d="m105.8 67.4c-3.286 0-5.06-5.783-5.06-11.224a24.81 24.81 0 0 1 .366-4.328 3.068 3.068 0 0 1 3.042-2.513h3.3a3.068 3.068 0 0 1 3.043 2.513 24.882 24.882 0 0 1 .366 4.327c.003 5.438-1.77 11.225-5.057 11.225zm-1.652-16.065a1.085 1.085 0 0 0 -1.073.863 22.86 22.86 0 0 0 -.335 3.978c0 5.631 1.813 9.224 3.06 9.224s3.059-3.593 3.059-9.224a22.855 22.855 0 0 0 -.335-3.978 1.084 1.084 0 0 0 -1.074-.863z" fill="#2f3a5a"/><path d="m74.202 39.242 52.158 30.459.64 10.437-53.328-10.092z" fill="#9bc6f1"/><path d="m127 81.138a1.064 1.064 0 0 1 -.186-.017l-53.328-10.093a1 1 0 0 1 -.814-1l.53-30.8a1 1 0 0 1 1.5-.847l52.158 30.459a1 1 0 0 1 .494.8l.646 10.437a1 1 0 0 1 -1 1.061zm-52.313-11.918 51.236 9.7-.523-8.62-50.227-29.334z" fill="#2f3a5a"/><path d="m34.16 43.987a2.077 2.077 0 0 1 2.058-1.687h3.3a2.078 2.078 0 0 1 2.059 1.688 23.941 23.941 0 0 1 .35 4.153c0 5.646-1.817 10.224-4.059 10.224s-4.06-4.578-4.06-10.224a23.938 23.938 0 0 1 .352-4.154z" fill="#9297ab"/><path d="m37.869 59.364c-3.287 0-5.06-5.783-5.06-11.224a24.77 24.77 0 0 1 .367-4.328 3.067 3.067 0 0 1 3.042-2.512h3.3a3.068 3.068 0 0 1 3.042 2.514 24.753 24.753 0 0 1 .367 4.328c.002 5.439-1.772 11.222-5.058 11.222zm-1.651-16.064a1.084 1.084 0 0 0 -1.073.864 22.8 22.8 0 0 0 -.336 3.978c0 5.631 1.812 9.224 3.06 9.224s3.06-3.593 3.06-9.224a22.9 22.9 0 0 0 -.336-3.978 1.085 1.085 0 0 0 -1.073-.864z" fill="#2f3a5a"/><path d="m18.491 52.019a2.077 2.077 0 0 1 2.058-1.688h3.3a2.077 2.077 0 0 1 2.058 1.688 23.947 23.947 0 0 1 .351 4.153c0 5.647-1.818 10.224-4.06 10.224s-4.06-4.577-4.06-10.224a23.947 23.947 0 0 1 .353-4.153z" fill="#9297ab"/><path d="m22.2 67.4c-3.286 0-5.059-5.783-5.059-11.224a24.81 24.81 0 0 1 .366-4.328 3.068 3.068 0 0 1 3.042-2.513h3.3a3.071 3.071 0 0 1 3.043 2.512 24.922 24.922 0 0 1 .366 4.329c.002 5.437-1.772 11.224-5.058 11.224zm-1.651-16.069a1.084 1.084 0 0 0 -1.073.863 22.763 22.763 0 0 0 -.335 3.978c0 5.631 1.812 9.224 3.059 9.224s3.06-3.593 3.06-9.224a23.063 23.063 0 0 0 -.335-3.979 1.087 1.087 0 0 0 -1.074-.862z" fill="#2f3a5a"/><path d="m53.798 39.242-52.157 30.459-.641 10.437 53.329-10.092z" fill="#9bc6f1"/><path d="m1 81.138a1 1 0 0 1 -1-1.061l.643-10.437a1 1 0 0 1 .494-.8l52.157-30.462a1 1 0 0 1 1.5.847l.53 30.8a1 1 0 0 1 -.814 1l-53.324 10.096a1.064 1.064 0 0 1 -.186.017zm1.606-10.838-.529 8.622 51.236-9.7-.486-28.254z" fill="#2f3a5a"/><path d="m68.147 105.688 21.197 12.379.26 4.241-21.673-4.101z" fill="#9bc6f1"/><path d="m89.6 123.309a.966.966 0 0 1 -.185-.018l-21.674-4.1a1 1 0 0 1 -.814-1l.215-12.519a1 1 0 0 1 1.5-.846l21.2 12.379a1 1 0 0 1 .494.8l.261 4.242a1 1 0 0 1 -1 1.062zm-20.659-5.928 19.582 3.706-.149-2.426-19.257-11.249z" fill="#2f3a5a"/><path d="m59.854 105.688-21.198 12.379-.26 4.241 21.674-4.101z" fill="#9bc6f1"/><path d="m38.4 123.309a1 1 0 0 1 -1-1.061l.26-4.242a1 1 0 0 1 .494-.8l21.2-12.379a1 1 0 0 1 1.5.846l.215 12.519a1 1 0 0 1 -.814 1l-21.673 4.1a.969.969 0 0 1 -.182.017zm1.226-4.648-.148 2.426 19.581-3.706-.172-9.969z" fill="#2f3a5a"/><path d="m64 3.984c-6.706 0-12.143 9.641-12.143 43.169s5.437 78.247 12.143 78.247 12.143-44.719 12.143-78.247-5.437-43.169-12.143-43.169z" fill="#e1e6e9"/><path d="m76.141 47.151c0 31.3-4.736 72.357-10.825 77.677-1.17-1.023-2.3-3.381-3.353-6.743 4.98-11.9 8.594-46.682 8.594-74.022 0-22.693-2.494-34.454-6.177-39.677a5.513 5.513 0 0 1 .945-.263c6.08 1.257 10.816 11.741 10.816 43.028z" fill="#c1cdd3"/><path d="m64 126.4c-1.4 0-5.657 0-9.576-27.408a389.567 389.567 0 0 1 -3.567-51.838c0-29.721 4.3-44.169 13.143-44.169s13.143 14.447 13.143 44.168a389.567 389.567 0 0 1 -3.567 51.838c-3.919 27.409-8.176 27.409-9.576 27.409zm0-121.416c-7.394 0-11.143 14.188-11.143 42.169a393.517 393.517 0 0 0 3.543 51.555c2.9 20.28 6.139 25.691 7.6 25.691s4.7-5.411 7.6-25.691a393.517 393.517 0 0 0 3.547-51.555c-.004-27.981-3.753-42.169-11.147-42.169z" fill="#2f3a5a"/><path d="m69.778 24.123a14.946 14.946 0 0 1 -.278 2.9c-.758-3.838-2.989-6.617-5.618-6.617s-4.867 2.779-5.626 6.617a15.025 15.025 0 0 1 -.278-2.9c0-5.258 2.644-9.517 5.9-9.517s5.9 4.259 5.9 9.517z" fill="#9bc6f1"/><path d="m69.5 28.022a1 1 0 0 1 -.981-.806c-.675-3.422-2.582-5.811-4.637-5.811s-3.969 2.389-4.645 5.811a1 1 0 0 1 -.981.806 1 1 0 0 1 -.982-.806 16.076 16.076 0 0 1 -.3-3.093c0-5.9 3.032-10.517 6.9-10.517s6.9 4.62 6.9 10.517a15.972 15.972 0 0 1 -.3 3.093 1 1 0 0 1 -.974.806zm-5.618-12.416c-2.3 0-4.287 2.914-4.784 6.686a5.4 5.4 0 0 1 9.561 0c-.497-3.773-2.483-6.686-4.777-6.686z" fill="#2f3a5a"/></svg>