<svg id="icon" height="512" viewBox="0 0 128 128" width="512" xmlns="http://www.w3.org/2000/svg"><path d="m82.67 119.532h7.468v7.468h-7.468z" fill="#84879c"/><path d="m90.138 128h-7.468a1 1 0 0 1 -1-1v-7.468a1 1 0 0 1 1-1h7.468a1 1 0 0 1 1 1v7.468a1 1 0 0 1 -1 1zm-6.468-2h5.468v-5.468h-5.468z" fill="#2f3a5a"/><path d="m37.862 119.532h7.468v7.468h-7.468z" fill="#84879c"/><path d="m45.33 128h-7.468a1 1 0 0 1 -1-1v-7.468a1 1 0 0 1 1-1h7.468a1 1 0 0 1 1 1v7.468a1 1 0 0 1 -1 1zm-6.468-2h5.468v-5.468h-5.468z" fill="#2f3a5a"/><rect fill="#d0aa79" height="93.599" rx="10.814" width="75.327" x="26.337" y="26.51"/><path d="m101.66 37.32v71.97a10.812 10.812 0 0 1 -10.81 10.82h-53.7a10.761 10.761 0 0 1 -8.57-4.24 10.658 10.658 0 0 0 4.27.88h53.7a10.81 10.81 0 0 0 10.81-10.81v-71.97a10.694 10.694 0 0 0 -2.24-6.58 10.8 10.8 0 0 1 6.54 9.93z" fill="#bf9a71"/><path d="m90.849 121.108h-53.7a11.827 11.827 0 0 1 -11.815-11.814v-71.97a11.828 11.828 0 0 1 11.817-11.815h53.7a11.828 11.828 0 0 1 11.815 11.815v71.97a11.827 11.827 0 0 1 -11.817 11.814zm-53.7-93.6a9.826 9.826 0 0 0 -9.815 9.815v71.97a9.825 9.825 0 0 0 9.815 9.814h53.7a9.825 9.825 0 0 0 9.815-9.814v-71.969a9.826 9.826 0 0 0 -9.815-9.815z" fill="#2f3a5a"/><rect fill="#e8c79c" height="34.617" rx="3.211" width="54.782" x="36.609" y="74.378"/><path d="m88.18 109.994h-48.36a4.216 4.216 0 0 1 -4.211-4.211v-28.194a4.217 4.217 0 0 1 4.211-4.212h48.36a4.217 4.217 0 0 1 4.211 4.212v28.194a4.216 4.216 0 0 1 -4.211 4.211zm-48.36-34.617a2.215 2.215 0 0 0 -2.211 2.212v28.194a2.214 2.214 0 0 0 2.211 2.211h48.36a2.214 2.214 0 0 0 2.211-2.211v-28.194a2.215 2.215 0 0 0 -2.211-2.212z" fill="#2f3a5a"/><rect fill="#e8c79c" height="23.749" rx="3.211" width="54.782" x="36.609" y="39.045"/><g fill="#2f3a5a"><path d="m88.18 63.794h-48.36a4.216 4.216 0 0 1 -4.211-4.211v-17.327a4.216 4.216 0 0 1 4.211-4.211h48.36a4.216 4.216 0 0 1 4.211 4.211v17.327a4.216 4.216 0 0 1 -4.211 4.211zm-48.36-23.749a2.214 2.214 0 0 0 -2.211 2.211v17.327a2.213 2.213 0 0 0 2.211 2.211h48.36a2.213 2.213 0 0 0 2.211-2.211v-17.327a2.214 2.214 0 0 0 -2.211-2.211z"/><path d="m49.647 6.103h2v20.406h-2z"/><path d="m76.353 6.103h2v20.406h-2z"/></g><rect fill="#84879c" height="6.834" rx="1.433" width="36.16" x="45.92" y="1"/><path d="m82.08 2.43v3.97a1.43 1.43 0 0 1 -1.43 1.43h-33.3a1.43 1.43 0 0 1 -1.43-1.43v-1.07h31.49a1.43 1.43 0 0 0 1.43-1.43v-2.9h1.81a1.43 1.43 0 0 1 1.43 1.43z" fill="#707583"/><path d="m80.647 8.834h-33.294a2.435 2.435 0 0 1 -2.433-2.434v-3.967a2.435 2.435 0 0 1 2.433-2.433h33.294a2.435 2.435 0 0 1 2.433 2.433v3.967a2.435 2.435 0 0 1 -2.433 2.434zm-33.294-6.834a.433.433 0 0 0 -.433.433v3.967a.432.432 0 0 0 .433.432h33.294a.432.432 0 0 0 .433-.432v-3.967a.433.433 0 0 0 -.433-.433z" fill="#2f3a5a"/><path d="m83.575 84.1h-39.89a1 1 0 0 1 0-2h39.89a1 1 0 0 1 0 2z" fill="#2f3a5a"/><path d="m83.575 47.663h-39.89a1 1 0 0 1 0-2h39.89a1 1 0 0 1 0 2z" fill="#2f3a5a"/><path d="m74.503 19.797h6.306v6.712h-6.306z" fill="#84879c"/><path d="m80.809 27.509h-6.309a1 1 0 0 1 -1-1v-6.709a1 1 0 0 1 1-1h6.306a1 1 0 0 1 1 1v6.712a1 1 0 0 1 -.997.997zm-5.306-2h4.306v-4.709h-4.309z" fill="#2f3a5a"/><path d="m47.495 19.797h6.306v6.712h-6.306z" fill="#84879c"/><path d="m53.8 27.509h-6.3a1 1 0 0 1 -1-1v-6.709a1 1 0 0 1 1-1h6.3a1 1 0 0 1 1 1v6.712a1 1 0 0 1 -1 .997zm-5.3-2h4.3v-4.709h-4.3z" fill="#2f3a5a"/></svg>