<?xml version="1.0" encoding="UTF-8"?>
<svg xmlns="http://www.w3.org/2000/svg" id="icon" viewBox="0 0 128 128" width="512" height="512"><path d="M101.71,27.347A57.556,57.556,0,0,0,4.865,68.375c-.016.349-.016.7-.016,1.046a57.569,57.569,0,0,0,97.277,41.693.016.016,0,0,1,.016-.017,57.573,57.573,0,0,0-.432-83.75Z" fill="#dbe2eb"/><path d="M119.989,69.421A57.385,57.385,0,0,1,102.141,111.1a.019.019,0,0,0-.019.019A57.588,57.588,0,0,1,18.1,106.191a57.6,57.6,0,0,0,76.725-2.415.019.019,0,0,1,.019-.019,57.595,57.595,0,0,0,4.593-78.418c.779.647,1.531,1.322,2.272,2.007A57.374,57.374,0,0,1,119.989,69.421Z" fill="#c1cdd3"/><path d="M62.411,128A58.637,58.637,0,0,1,3.849,69.421c0-.364,0-.729.017-1.094a58.537,58.537,0,0,1,98.527-41.711h0a58.754,58.754,0,0,1,18.6,42.805,58.04,58.04,0,0,1-17.864,42.119v0l-.31.3-.161.153-.113.106A58.361,58.361,0,0,1,62.411,128Zm0-115.157A56.817,56.817,0,0,0,5.865,68.392c-.017.363-.016.7-.016,1.029a56.568,56.568,0,0,0,95.276,41.262v-.569l.608-.01a56.573,56.573,0,0,0-.706-82.026h0A56.357,56.357,0,0,0,62.411,12.843Z" fill="#2f3a5a"/><path d="M62.411,11.843A57.554,57.554,0,0,0,4.865,68.375a11.346,11.346,0,0,0,4.354,1.312c2.808.233,5.949-.548,8.259,1.08,1.728,1.214,2.542,3.54,4.486,4.371,2.294,1,5.185-.6,7.4.615,1.778.98,2.243,3.356,2.077,5.384s-.748,4.087-.266,6.065c.8,3.273,4.188,5.267,5.534,8.358,1.545,3.54.1,7.561-.931,11.283a21.172,21.172,0,0,0-.56,2.734,2.431,2.431,0,0,0,4.368,1.745,14.722,14.722,0,0,1,1.277-1.521,50.8,50.8,0,0,1,6.9-5.417,61.134,61.134,0,0,0,14.889-15.57c.781-1.18,2.143-3.734,2.11-5.13-.1-3.24-2.334-6.022-7.448-6.18-5.2-.161-10.777,2.377-13.738-5.906-.841-2.35-3.706-3.506-6.082-4.27a7.609,7.609,0,0,0-6.2.867,2.328,2.328,0,0,1-2.916-.439,5.3,5.3,0,0,0-2.549-1.425c-1.828-.432-3.789-.216-5.551-.864-1.744-.665-3.24-2.776-2.259-4.371,1.263-2.077,4.386-.831,6.8-.781,3.191.067,5.816-2.393,7.76-4.9,1.961-2.509,3.772-5.367,6.647-6.7,2.326-1.063,5.151-1.046,7.179-2.592a5.538,5.538,0,0,0-5.068-9.671c-1.031.349-2.144.98-3.125.548-1.728-.781-1.213-3.955-2.991-4.569-1.379-.482-2.575,1.1-3.024,2.492-.449,1.379-.947,3.091-2.36,3.44-1.512.349-2.858-1.3-2.875-2.842-.033-1.545.8-2.957,1.43-4.353a35.189,35.189,0,0,1,3.541-6.321c1.6-2.293,4.57-3.988,7.145-2.924,2.344.947,3.305,2.432,5.466,3.744,1.3.815,2.957,1.047,4.054,2.111,1.479,1.412,1.463,3.722,1.762,5.749.315,2.011,1.595,4.354,3.639,4.221,2.958-.216,2.974-4.835,5.251-6.763,2.575-2.21,6.663.016,9.92-1,4.221-1.313,6.1-7.046,8.774-10.137,1.28-1.479,3.157-2.825,4.487-4.436A57.407,57.407,0,0,0,62.411,11.843Z" fill="#6bb3d9"/><path d="M37.656,113.318a3.527,3.527,0,0,1-1.308-.256,3.373,3.373,0,0,1-2.126-3.617,21.926,21.926,0,0,1,.587-2.864c.108-.393.22-.784.333-1.178.927-3.244,1.887-6.6.646-9.443a14.14,14.14,0,0,0-2.456-3.445A12.4,12.4,0,0,1,30.2,87.438a12.4,12.4,0,0,1,.041-4.725c.077-.553.154-1.107.2-1.658.136-1.649-.2-3.678-1.563-4.427a5.752,5.752,0,0,0-3.239-.254,7.983,7.983,0,0,1-4.072-.319A7.766,7.766,0,0,1,18.6,73.394a8.657,8.657,0,0,0-1.7-1.808c-1.358-.958-3.18-.915-5.109-.87a24.828,24.828,0,0,1-2.657-.032A12.338,12.338,0,0,1,4.4,69.258a1,1,0,0,1-.531-.9,58.594,58.594,0,0,1,78.9-53.879,1,1,0,0,1,.423,1.574,24.869,24.869,0,0,1-2.5,2.5,23.723,23.723,0,0,0-2,1.952,26.777,26.777,0,0,0-2.357,3.459c-1.717,2.8-3.663,5.978-6.877,6.978a12,12,0,0,1-4.811.166c-1.93-.193-3.6-.359-4.755.635a8.18,8.18,0,0,0-1.77,2.918c-.809,1.834-1.726,3.913-4.059,4.084-2.647.168-4.3-2.5-4.7-5.064-.057-.381-.1-.763-.146-1.147-.188-1.606-.365-3.123-1.319-4.034a6.148,6.148,0,0,0-2.03-1.1A11.188,11.188,0,0,1,44,26.515a18.856,18.856,0,0,1-2.333-1.726,10.745,10.745,0,0,0-2.976-1.938c-2.1-.871-4.632.677-5.949,2.568a34.39,34.39,0,0,0-3.453,6.166c-.109.241-.225.485-.342.731a7.443,7.443,0,0,0-1,3.185,2.259,2.259,0,0,0,.8,1.65.985.985,0,0,0,.846.238c.8-.2,1.214-1.474,1.578-2.6l.056-.173a5.157,5.157,0,0,1,2.289-2.987,2.542,2.542,0,0,1,2.016-.14c1.374.475,1.806,1.825,2.153,2.911.245.767.476,1.491.92,1.691.4.175,1.045-.075,1.73-.339.223-.086.444-.171.662-.245a6.538,6.538,0,0,1,6,11.412,11.882,11.882,0,0,1-4.553,1.831,16.087,16.087,0,0,0-2.819.877c-2.192,1.014-3.725,3.043-5.348,5.191-.308.408-.615.814-.926,1.212-2.8,3.618-5.57,5.345-8.569,5.286A18.432,18.432,0,0,1,22.66,61.1c-2-.281-3.247-.386-3.8.516a1.238,1.238,0,0,0-.075,1.092,3.259,3.259,0,0,0,1.836,1.824,11.025,11.025,0,0,0,2.882.485,16.969,16.969,0,0,1,2.542.34,6.3,6.3,0,0,1,3.044,1.709,1.327,1.327,0,0,0,1.663.281,8.622,8.622,0,0,1,7.028-.974c2.784.9,5.754,2.176,6.724,4.889,2.111,5.9,5.4,5.664,9.567,5.364a32.549,32.549,0,0,1,3.261-.122c6.049.187,8.314,3.816,8.416,7.15.052,2.171-2.252,5.677-2.275,5.712a61.793,61.793,0,0,1-15.133,15.826c-.537.393-1.082.779-1.629,1.166a35.2,35.2,0,0,0-5.135,4.136,13.71,13.71,0,0,0-1.191,1.417A3.361,3.361,0,0,1,37.656,113.318ZM27.166,74.274a5.431,5.431,0,0,1,2.674.6c1.866,1.028,2.834,3.4,2.593,6.343-.048.587-.13,1.178-.212,1.769a10.768,10.768,0,0,0-.079,3.977,10.77,10.77,0,0,0,2.7,4.238,15.818,15.818,0,0,1,2.78,3.958c1.528,3.5.421,7.375-.557,10.792-.11.388-.221.775-.327,1.157a20.018,20.018,0,0,0-.533,2.6,1.431,1.431,0,0,0,2.569,1.024,15.717,15.717,0,0,1,1.364-1.625,36.762,36.762,0,0,1,5.423-4.383c.537-.38,1.074-.76,1.6-1.147A59.811,59.811,0,0,0,61.81,88.261c.956-1.444,1.965-3.619,1.943-4.553-.1-3.181-2.46-5.08-6.479-5.2a30.507,30.507,0,0,0-3.055.118c-4.206.3-8.972.647-11.594-6.686-.682-1.906-3.269-2.955-5.446-3.655a6.589,6.589,0,0,0-5.366.764,3.307,3.307,0,0,1-4.167-.6A4.307,4.307,0,0,0,25.589,67.3a15.184,15.184,0,0,0-2.245-.294,12.664,12.664,0,0,1-3.42-.605A5.25,5.25,0,0,1,16.9,63.352a3.231,3.231,0,0,1,.263-2.78c1.269-2.087,3.77-1.737,5.781-1.453a16.363,16.363,0,0,0,1.888.2c2.295.08,4.558-1.428,6.949-4.514.307-.393.607-.79.908-1.189,1.7-2.251,3.458-4.577,6.109-5.8a17.755,17.755,0,0,1,3.175-1,10.233,10.233,0,0,0,3.817-1.478A4.538,4.538,0,0,0,41.632,37.4c-.179.061-.374.137-.57.213a4.192,4.192,0,0,1-3.266.3,4.229,4.229,0,0,1-2.01-2.909c-.286-.9-.5-1.493-.905-1.631a.551.551,0,0,0-.467.042,3.223,3.223,0,0,0-1.278,1.811l-.056.174c-.473,1.461-1.121,3.463-3.016,3.93a2.972,2.972,0,0,1-2.547-.611,4.265,4.265,0,0,1-1.568-3.189,9.155,9.155,0,0,1,1.191-4.078c.111-.234.223-.467.328-.7A36.022,36.022,0,0,1,31.1,24.277c1.8-2.6,5.252-4.556,8.347-3.277a12.606,12.606,0,0,1,3.495,2.249,17.413,17.413,0,0,0,2.108,1.565,9.722,9.722,0,0,0,1.556.728,7.7,7.7,0,0,1,2.675,1.519c1.469,1.4,1.708,3.443,1.918,5.242.043.364.085.726.137,1.079.212,1.348,1.119,3.5,2.585,3.369,1.071-.078,1.6-1.151,2.367-2.9a9.715,9.715,0,0,1,2.3-3.632c1.8-1.547,4.065-1.322,6.251-1.1a10.4,10.4,0,0,0,4.018-.087c2.5-.776,4.158-3.489,5.765-6.113a28.421,28.421,0,0,1,2.55-3.723,25.727,25.727,0,0,1,2.164-2.123c.441-.4.89-.808,1.314-1.226A56.6,56.6,0,0,0,5.879,67.763a10.205,10.205,0,0,0,3.426.928,23.449,23.449,0,0,0,2.443.026c2.166-.049,4.41-.1,6.306,1.233a10.254,10.254,0,0,1,2.124,2.212,6.2,6.2,0,0,0,2.179,2.056,6.427,6.427,0,0,0,3.088.165C26,74.33,26.577,74.274,27.166,74.274Z" fill="#2f3a5a"/><path d="M102.142,111.1a57.573,57.573,0,0,0-.432-83.75c-2.727,2.879-4.742,5.261-9.933,5.843a3.058,3.058,0,0,0-2.719,2.354c-.705,3.626,6.993,3.864,6.487,7.373a2.8,2.8,0,0,1-2.575,2.094,4.585,4.585,0,0,1-.845-.01,3.311,3.311,0,0,0-3.615,2.811,6.289,6.289,0,0,0,.006,1.8,4.137,4.137,0,0,0,.245.891,2.459,2.459,0,0,1-1.7,3.371c-3.417.759-6.852,2.1-9.411,5.567-2.51,3.423-2.81,7.106-.586,10.726s5.982,6.331,9.7,4.254c1.3-.731,3.075-1.728,4.055-.6.7.764.382,2.094,1.08,2.875.914,1,2.609.249,3.922.615,1.512.432,2.16,2.376,1.728,3.888a8.779,8.779,0,0,1-2.808,3.722,6.459,6.459,0,0,1,5.284,7.412,23.7,23.7,0,0,0-.931,3.622c-.182,3.855,4.919,6.348,4.853,10.2-.017,1.595-.964,3.024-1.629,4.47A4.015,4.015,0,0,0,102.142,111.1Z" fill="#6bb3d9"/><path d="M102.322,110.632c.665-1.445,1.616-2.872,1.635-4.469.038-2.1-1.464-3.794-2.795-5.525A57.6,57.6,0,0,0,99.6,29.523c.7-.675,1.379-1.407,2.111-2.177a57.577,57.577,0,0,1,.428,83.752A3.391,3.391,0,0,1,102.322,110.632Z" fill="#4fa4d1"/><path d="M102.142,112.1a1,1,0,0,1-.957-1.29,4.922,4.922,0,0,1,.224-.576c.161-.35.328-.682.5-1.016a7.373,7.373,0,0,0,1.049-3.063c.026-1.562-1.066-2.955-2.223-4.43-1.346-1.718-2.738-3.493-2.628-5.81a8.678,8.678,0,0,1,.56-2.446,11.429,11.429,0,0,0,.389-1.328,5.462,5.462,0,0,0-4.431-6.221,1,1,0,0,1-.548-1.729,7.893,7.893,0,0,0,2.524-3.27,2.683,2.683,0,0,0-.1-1.687,1.563,1.563,0,0,0-.942-.955,4.6,4.6,0,0,0-1.322-.051,3.577,3.577,0,0,1-3.062-.85,3.72,3.72,0,0,1-.787-1.938,2.158,2.158,0,0,0-.294-.937c-.465-.538-1.943.3-2.825.794-3.722,2.078-8.057.269-11.048-4.6-2.4-3.909-2.182-8,.631-11.841,2.915-3.954,6.876-5.258,10-5.952a1.372,1.372,0,0,0,.929-.7,1.587,1.587,0,0,0,.055-1.328,5.145,5.145,0,0,1-.3-1.1,7.227,7.227,0,0,1-.01-2.085,4.325,4.325,0,0,1,4.706-3.676,3.586,3.586,0,0,0,.661.008,1.832,1.832,0,0,0,1.672-1.25c.138-.956-.938-1.608-2.726-2.567-1.895-1.016-4.253-2.281-3.755-4.844a4.075,4.075,0,0,1,3.59-3.157c4.579-.513,6.4-2.448,8.932-5.127l.386-.41a1,1,0,0,1,1.409-.043,58.754,58.754,0,0,1,18.6,42.805,58.049,58.049,0,0,1-18.157,42.4A1,1,0,0,1,102.142,112.1ZM96.683,84.442a7.5,7.5,0,0,1,3.055,2.528,7.164,7.164,0,0,1,1.273,5.571,13.023,13.023,0,0,1-.452,1.563A7.04,7.04,0,0,0,100.1,96c-.075,1.582,1.032,2.994,2.2,4.489,1.321,1.684,2.688,3.427,2.649,5.691a5.649,5.649,0,0,1-.041.6,56.589,56.589,0,0,0-3.164-78.018c-2.482,2.624-4.76,4.85-9.86,5.422a2.063,2.063,0,0,0-1.85,1.55c-.2,1.041.9,1.715,2.737,2.7s4.108,2.2,3.759,4.626a3.792,3.792,0,0,1-3.467,2.946A5.591,5.591,0,0,1,92.026,46,2.3,2.3,0,0,0,89.5,47.941a5.267,5.267,0,0,0,0,1.517,3.137,3.137,0,0,0,.187.679,3.588,3.588,0,0,1-.149,3,3.384,3.384,0,0,1-2.261,1.713c-2.958.657-6.319,1.787-8.824,5.184-2.324,3.172-2.506,6.405-.538,9.61,1.809,2.945,5.086,5.733,8.365,3.9,1.41-.8,3.779-2.133,5.3-.38a3.643,3.643,0,0,1,.768,1.909,2.195,2.195,0,0,0,.3.954c.216.236.7.232,1.484.194a6.192,6.192,0,0,1,1.96.124,3.476,3.476,0,0,1,2.251,2.126,4.685,4.685,0,0,1,.17,3A7.418,7.418,0,0,1,96.683,84.442Z" fill="#2f3a5a"/><path d="M97.784,1A25.375,25.375,0,0,0,72.407,26.377c0,14.012,25.377,47.349,25.377,47.349s25.367-33.337,25.367-47.349A25.373,25.373,0,0,0,97.784,1Zm0,41.406a16.064,16.064,0,1,1,16.059-16.059A16.056,16.056,0,0,1,97.784,42.406Z" fill="#da2a47"/><path d="M97.784,74.727a1,1,0,0,1-.8-.4C95.944,72.96,71.407,40.563,71.407,26.377a26.372,26.372,0,1,1,52.744,0c0,14.186-24.527,46.583-25.571,47.955A1,1,0,0,1,97.784,74.727ZM97.784,2A24.405,24.405,0,0,0,73.407,26.377c0,12.136,20.092,39.9,24.377,45.679,4.284-5.782,24.367-33.543,24.367-45.679A24.4,24.4,0,0,0,97.784,2Zm0,41.406a17.064,17.064,0,1,1,17.059-17.058A17.077,17.077,0,0,1,97.784,43.406Zm0-32.127a15.064,15.064,0,1,0,15.059,15.069A15.081,15.081,0,0,0,97.784,11.279Z" fill="#2f3a5a"/></svg>
