<svg id="icon" height="512" viewBox="0 0 128 128" width="512" xmlns="http://www.w3.org/2000/svg"><circle cx="64" cy="43.74" fill="#ffb7a9" r="26.459" transform="matrix(.099 -.995 .995 .099 14.167 103.118)"/><path d="m90.461 43.741a26.459 26.459 0 1 1 -51.735-7.864 26.475 26.475 0 0 0 42.424-12.269 26.365 26.365 0 0 1 9.311 20.133z" fill="#ee9d88"/><path d="m64 71.2a27.459 27.459 0 1 1 27.459-27.46 27.49 27.49 0 0 1 -27.459 27.46zm0-52.918a25.459 25.459 0 1 0 25.459 25.458 25.488 25.488 0 0 0 -25.459-25.459z" fill="#2f3a5a"/><path d="m36.102 45.881 27.898 81.119 27.898-81.119z" fill="#e8c79c"/><g fill="#d0aa79"><path d="m81.4 50.9a1.68 1.68 0 1 0 1.68 1.68 1.68 1.68 0 0 0 -1.68-1.68z"/><path d="m72.336 50.9a1.68 1.68 0 1 0 1.68 1.68 1.68 1.68 0 0 0 -1.68-1.68z"/><path d="m63.271 50.9a1.68 1.68 0 1 0 1.68 1.68 1.68 1.68 0 0 0 -1.68-1.68z"/><path d="m54.206 50.9a1.68 1.68 0 1 0 1.679 1.68 1.68 1.68 0 0 0 -1.679-1.68z"/><path d="m45.14 50.9a1.68 1.68 0 1 0 1.68 1.68 1.68 1.68 0 0 0 -1.68-1.68z"/><path d="m78.042 56.444a1.68 1.68 0 1 0 1.68 1.68 1.68 1.68 0 0 0 -1.68-1.68z"/><path d="m86.041 56.444a1.68 1.68 0 1 0 1.679 1.68 1.68 1.68 0 0 0 -1.679-1.68z"/><path d="m68.977 56.444a1.68 1.68 0 1 0 1.679 1.68 1.68 1.68 0 0 0 -1.679-1.68z"/><path d="m59.911 56.444a1.68 1.68 0 1 0 1.68 1.68 1.68 1.68 0 0 0 -1.68-1.68z"/><path d="m50.846 56.444a1.68 1.68 0 1 0 1.68 1.68 1.68 1.68 0 0 0 -1.68-1.68z"/><path d="m41.781 56.444a1.68 1.68 0 1 0 1.679 1.68 1.68 1.68 0 0 0 -1.679-1.68z"/><path d="m81.4 62.973a1.68 1.68 0 1 0 1.68 1.68 1.68 1.68 0 0 0 -1.68-1.68z"/><path d="m72.336 62.973a1.68 1.68 0 1 0 1.68 1.68 1.68 1.68 0 0 0 -1.68-1.68z"/><path d="m63.271 62.973a1.68 1.68 0 1 0 1.68 1.68 1.68 1.68 0 0 0 -1.68-1.68z"/><path d="m54.206 62.973a1.68 1.68 0 1 0 1.679 1.68 1.68 1.68 0 0 0 -1.679-1.68z"/><path d="m45.14 62.973a1.68 1.68 0 1 0 1.68 1.68 1.68 1.68 0 0 0 -1.68-1.68z"/><path d="m78.042 68.519a1.68 1.68 0 1 0 1.68 1.68 1.68 1.68 0 0 0 -1.68-1.68z"/><path d="m68.977 68.519a1.68 1.68 0 1 0 1.679 1.68 1.68 1.68 0 0 0 -1.679-1.68z"/><path d="m59.911 68.519a1.68 1.68 0 1 0 1.68 1.68 1.68 1.68 0 0 0 -1.68-1.68z"/><path d="m50.846 68.519a1.68 1.68 0 1 0 1.68 1.68 1.68 1.68 0 0 0 -1.68-1.68z"/><path d="m72.336 75.048a1.68 1.68 0 1 0 1.68 1.68 1.68 1.68 0 0 0 -1.68-1.68z"/><path d="m77.468 77.949a1.68 1.68 0 1 0 1.68 1.68 1.68 1.68 0 0 0 -1.68-1.68z"/><path d="m63.271 75.048a1.68 1.68 0 1 0 1.68 1.68 1.68 1.68 0 0 0 -1.68-1.68z"/><path d="m54.206 75.048a1.68 1.68 0 1 0 1.679 1.68 1.68 1.68 0 0 0 -1.679-1.68z"/><path d="m68.977 80.594a1.68 1.68 0 1 0 1.679 1.68 1.68 1.68 0 0 0 -1.679-1.68z"/><path d="m59.911 80.594a1.68 1.68 0 1 0 1.68 1.68 1.68 1.68 0 0 0 -1.68-1.68z"/><path d="m50.846 80.594a1.68 1.68 0 1 0 1.68 1.68 1.68 1.68 0 0 0 -1.68-1.68z"/><path d="m72.336 87.123a1.68 1.68 0 1 0 1.68 1.68 1.68 1.68 0 0 0 -1.68-1.68z"/><path d="m63.271 87.123a1.68 1.68 0 1 0 1.68 1.68 1.68 1.68 0 0 0 -1.68-1.68z"/><path d="m54.206 87.123a1.68 1.68 0 1 0 1.679 1.68 1.68 1.68 0 0 0 -1.679-1.68z"/><path d="m68.977 92.669a1.68 1.68 0 1 0 1.679 1.68 1.68 1.68 0 0 0 -1.679-1.68z"/><path d="m59.911 92.669a1.68 1.68 0 1 0 1.68 1.68 1.68 1.68 0 0 0 -1.68-1.68z"/><path d="m63.271 99.2a1.68 1.68 0 1 0 1.68 1.68 1.68 1.68 0 0 0 -1.68-1.68z"/><path d="m68.977 104.744a1.68 1.68 0 1 0 1.679 1.68 1.68 1.68 0 0 0 -1.679-1.68z"/><path d="m59.911 104.744a1.68 1.68 0 1 0 1.68 1.68 1.68 1.68 0 0 0 -1.68-1.68z"/><path d="m63.271 111.273a1.68 1.68 0 1 0 1.68 1.68 1.68 1.68 0 0 0 -1.68-1.68z"/></g><path d="m64 128a1 1 0 0 1 -.946-.675l-27.9-81.119a1 1 0 0 1 .946-1.325h55.8a1 1 0 0 1 .946 1.325l-27.9 81.119a1 1 0 0 1 -.946.675zm-26.5-81.119 26.5 77.044 26.5-77.044z" fill="#2f3a5a"/><path d="m79.616 22.721a4.635 4.635 0 0 1 -3.616 2.936c-.581.1-1.161.186-1.731.274h-.009a77.471 77.471 0 0 1 -22.652.131 4.71 4.71 0 0 1 -3.034-1.742c-1.917-2.4-4.415-7.054 2.716-9.244 0 0-1.533-8.544 9.519-9.552 0 0 .044-5.784 8.248-4.272 0 0-.361 6.123 3.253 6.7s7.668 6.127 4.415 9.048c0 0 4.162 2.1 2.891 5.721z" fill="#e1e6e9"/><path d="m79.616 22.721a4.635 4.635 0 0 1 -3.616 2.936c-.581.1-1.161.186-1.731.274h-.009s-15.981-1.216-22.97-10.855c0 0-1.533-8.544 9.519-9.552 0 0 .854 10.515 15.916 11.479 0-.003 4.162 2.097 2.891 5.718z" fill="#ee9d88"/><path d="m62.3 27.825a75.834 75.834 0 0 1 -10.841-.769 5.73 5.73 0 0 1 -3.667-2.113c-1.349-1.687-2.8-4.21-2.048-6.642.526-1.707 2.032-3.023 4.479-3.918a9.075 9.075 0 0 1 1.763-5.8c1.651-2.167 4.318-3.5 7.935-3.965a5.607 5.607 0 0 1 1.884-3.152c1.685-1.392 4.188-1.793 7.437-1.197a1 1 0 0 1 .818 1.041c0 .052-.222 5.232 2.409 5.66a8.713 8.713 0 0 1 6.2 5.776 4.779 4.779 0 0 1 -.442 4.026c1.6 1.2 3.332 3.422 2.328 6.286a5.589 5.589 0 0 1 -4.395 3.579 82.866 82.866 0 0 1 -13.86 1.188zm4.249-25.825a5.36 5.36 0 0 0 -3.469 1 3.692 3.692 0 0 0 -1.275 2.529 1 1 0 0 1 -.909.987c-3.44.313-5.9 1.414-7.318 3.271a7.14 7.14 0 0 0 -1.3 5.11 1 1 0 0 1 -.691 1.133c-2.233.685-3.555 1.646-3.928 2.855-.519 1.681.842 3.731 1.7 4.8a3.744 3.744 0 0 0 2.39 1.382 77.7 77.7 0 0 0 24.085-.411 3.64 3.64 0 0 0 2.841-2.27c.962-2.744-2.257-4.426-2.4-4.5a1 1 0 0 1 -.218-1.634 2.671 2.671 0 0 0 .7-2.953 6.74 6.74 0 0 0 -4.608-4.369c-3.517-.571-4.036-4.906-4.091-6.837a12.11 12.11 0 0 0 -1.509-.093z" fill="#2f3a5a"/></svg>