<svg id="icon" height="512" viewBox="0 0 128 128" width="512" xmlns="http://www.w3.org/2000/svg"><path d="m104.4 39.671a5.34 5.34 0 0 0 -8.476-.114l-7.21 7.67a1.931 1.931 0 0 0 .8 2.989l.455.182a5.186 5.186 0 0 0 5.878-1.467l3.3-3.9a2.784 2.784 0 0 1 4.259.3l14.184 15.612 9.41 2.906z" fill="#dbe2eb"/><path d="m127 64.849a1 1 0 0 1 -.3-.044l-9.406-2.905a1 1 0 0 1 -.445-.283l-14.184-15.617a.821.821 0 0 1 -.07-.086 1.784 1.784 0 0 0 -2.729-.192l-3.258 3.852a6.176 6.176 0 0 1 -7.008 1.752l-.454-.18a2.933 2.933 0 0 1 -1.218-4.538l7.267-7.736a6.21 6.21 0 0 1 5.009-2.35 6.3 6.3 0 0 1 4.963 2.505l22.563 24.139a1 1 0 0 1 -.73 1.683zm-8.855-4.781 5.555 1.716-20.034-21.43a.953.953 0 0 1 -.072-.085 4.308 4.308 0 0 0 -3.421-1.747 4.26 4.26 0 0 0 -3.467 1.654l-7.268 7.737a.944.944 0 0 0 .444 1.375l.454.18a4.178 4.178 0 0 0 4.746-1.183l3.3-3.9a3.78 3.78 0 0 1 5.8.312z" fill="#2f3a5a"/><path d="m23.6 39.671a5.34 5.34 0 0 1 8.476-.114l7.21 7.67a1.931 1.931 0 0 1 -.8 2.989l-.455.182a5.186 5.186 0 0 1 -5.878-1.467l-3.3-3.9a2.784 2.784 0 0 0 -4.259.3l-14.183 15.612-9.411 2.906z" fill="#dbe2eb"/><path d="m1 64.849a1 1 0 0 1 -.73-1.683l22.567-24.139a6.34 6.34 0 0 1 10.029-.089l7.153 7.6a2.941 2.941 0 0 1 .585 2.64 2.908 2.908 0 0 1 -1.745 1.963l-.456.182a6.179 6.179 0 0 1 -7.011-1.75l-3.3-3.9a1.754 1.754 0 0 0 -1.366-.493 1.78 1.78 0 0 0 -1.32.733.821.821 0 0 1 -.07.086l-14.185 15.617a1 1 0 0 1 -.445.283l-9.406 2.906a1 1 0 0 1 -.3.044zm26.888-26.327h-.061a4.308 4.308 0 0 0 -3.421 1.747c-.022.029-.046.058-.071.085l-20.035 21.43 5.555-1.716 13.966-15.368a3.783 3.783 0 0 1 5.753-.36l3.344 3.948a4.184 4.184 0 0 0 4.745 1.184l.456-.182a.931.931 0 0 0 .385-1.44l-7.152-7.605a4.372 4.372 0 0 0 -3.464-1.723z" fill="#2f3a5a"/><path d="m32.405 59.36c-11.305-.454-24.105.61-31.405 4.489v11.47s1.882.155 3.542 7.241 2.326 10.962 22.699 11.74 22.476-.775 27.569-7.861 2.325-11.011 9.19-11.9c6.865.886 4.1 4.811 9.19 11.9s7.2 8.636 27.569 7.861 21.038-4.651 22.7-11.737 3.541-7.244 3.541-7.244v-11.47c-7.445-3.959-20.63-4.985-32.1-4.459-10.019.46-52.185.385-62.495-.03z" fill="#dbe2eb"/><path d="m92.7 95.479c-12.946 0-15.682-2.01-20.318-8.459a25.246 25.246 0 0 1 -3.528-7.069c-.966-2.765-1.373-3.929-4.85-4.4-3.477.474-3.884 1.638-4.85 4.4a25.246 25.246 0 0 1 -3.528 7.069c-5.474 7.616-8.3 9.042-28.419 8.277-20.007-.762-21.769-4.517-23.58-12.259l-.058-.25c-1.284-5.479-2.63-6.4-2.794-6.495a1 1 0 0 1 -.775-.974v-11.47a1 1 0 0 1 .53-.883c9.292-4.94 25.414-4.866 31.915-4.605 10.046.4 52.212.5 62.411.03 13.837-.639 26.032 1.074 32.614 4.575a1 1 0 0 1 .53.883v11.47a1 1 0 0 1 -.775.974c-.164.094-1.51 1.016-2.794 6.495l-.058.25c-1.811 7.742-3.57 11.5-23.576 12.259-3.082.117-5.758.182-8.097.182zm-28.7-21.94a1.1 1.1 0 0 1 .128.008c4.819.622 5.571 2.77 6.61 5.744a23.505 23.505 0 0 0 3.262 6.562c4.886 6.8 6.618 8.21 26.719 7.445 19.37-.737 20.15-4.072 21.7-10.715l.059-.251c1.184-5.053 2.55-6.946 3.516-7.636v-10.236c-6.4-3.154-17.927-4.672-31.052-4.071-10.232.469-52.511.375-62.583-.03-12.83-.515-24.1 1.015-30.365 4.1v10.241c.966.69 2.332 2.583 3.516 7.636l.059.251c1.554 6.643 2.334 9.978 21.7 10.715 20.1.765 21.833-.648 26.719-7.445a23.505 23.505 0 0 0 3.264-6.562c1.039-2.974 1.791-5.122 6.61-5.744a1.1 1.1 0 0 1 .138-.012z" fill="#2f3a5a"/><path d="m115.05 86.74c-2.92 2.07-12.01 2.76-20.24 2.8-.63 0-1.26 0-1.88-.01-1.08 0-2.14-.02-3.15-.05-1.83-.06-3.52-.14-4.98-.24a8.019 8.019 0 0 1 -1.11-.16c-7.93-1.59-11-13.8-10.52-18.34.5-4.75 11.17-5.81 11.17-5.81a147.345 147.345 0 0 1 15.22-1.15c2.03-.05 4.16-.06 6.35-.01 1.03.02 2.06.06 3.1.12.61.02 1.22.06 1.83.1 1.02.07 2.05.15 3.08.25 4.36.43 6 1.12 6.5 5.75s-1.12 13.75-5.37 16.75z" fill="#ef5361"/><path d="m43.2 89.24a145.884 145.884 0 0 1 -15.89.15c-.62-.02-1.23-.06-1.84-.1-1.03-.06-2.05-.14-3.02-.24a44.228 44.228 0 0 1 -5.78-.89 11.232 11.232 0 0 1 -3.72-1.42c-4.25-3-5.87-12.13-5.37-16.75s2.14-5.32 6.5-5.75a124.147 124.147 0 0 1 17.8-.33c2.28.11 4.34.26 6.08.41 1.15.1 2.17.2 3 .28.73.09 1.33.16 1.77.21.6.07.93.12.93.12s10.67 1.06 11.17 5.81-2.88 17.87-11.63 18.5z" fill="#ef5361"/><g fill="#fff" opacity=".5"><path d="m105.91 63.77-16.13 25.71c-1.83-.06-3.52-.14-4.98-.24a8.019 8.019 0 0 1 -1.11-.16l15.87-25.3c2.03-.05 4.16-.06 6.35-.01z"/><path d="m110.84 63.99-16.03 25.55c-.63 0-1.26 0-1.88-.01l16.08-25.64c.61.02 1.22.06 1.83.1z"/></g><g fill="#fff" opacity=".5"><path d="m37.96 64.32-15.51 24.73a44.228 44.228 0 0 1 -5.78-.89l15.21-24.25c2.28.11 4.34.26 6.08.41z"/><path d="m42.73 64.81-15.42 24.58c-.62-.02-1.23-.06-1.84-.1l15.49-24.69c.73.09 1.33.16 1.77.21z"/></g><g fill="#2f3a5a"><path d="m94.316 90.543c-3.7 0-7.121-.131-9.591-.308a10.661 10.661 0 0 1 -7.517-4.14c-3.86-4.607-5.4-11.94-5.031-15.462.566-5.376 10.783-6.573 12.048-6.7a144.993 144.993 0 0 1 29.8-.69c4.761.471 6.84 1.5 7.4 6.638.49 4.531-1.027 14.311-5.792 17.675-3.299 2.32-12.996 2.987-21.317 2.987zm8.8-25.8a150.582 150.582 0 0 0 -18.632 1.173h-.04c-2.558.257-9.938 1.712-10.276 4.922-.325 3.089 1.117 9.841 4.575 13.969a8.743 8.743 0 0 0 6.127 3.429c10.018.717 25.881.308 29.6-2.319s5.45-11.267 4.958-15.826c-.428-3.953-1.444-4.451-5.605-4.863-3.607-.352-7.262-.485-10.709-.485z"/><path d="m33.684 90.543c-8.321 0-18.018-.666-21.308-2.988-4.765-3.364-6.282-13.144-5.792-17.675.556-5.141 2.635-6.167 7.4-6.638a145.155 145.155 0 0 1 29.8.69c1.265.128 11.482 1.325 12.048 6.7.371 3.522-1.171 10.855-5.031 15.462a10.661 10.661 0 0 1 -7.517 4.14c-2.479.178-5.905.309-9.6.309zm-8.8-25.8c-3.446 0-7.1.133-10.7.489-4.16.412-5.176.91-5.6 4.863-.492 4.559 1.233 13.2 4.958 15.826s19.584 3.036 29.6 2.319a8.743 8.743 0 0 0 6.127-3.429c3.458-4.128 4.9-10.88 4.575-13.969-.338-3.217-7.717-4.667-10.276-4.922h-.04a150.745 150.745 0 0 0 -18.648-1.177z"/></g></svg>