<svg id="icon" height="512" viewBox="0 0 128 128" width="512" xmlns="http://www.w3.org/2000/svg"><path d="m125.089 47.586h-7.019a1.911 1.911 0 0 0 -1.911 1.911v2.08l-5.127 5.9.256 1.92 7.646-4.581h6.155a1.911 1.911 0 0 0 1.911-1.916v-3.4a1.912 1.912 0 0 0 -1.911-1.914z" fill="#ffc943"/><path d="m111.287 60.394a.988.988 0 0 1 -.434-.1 1 1 0 0 1 -.557-.768l-.256-1.92a1 1 0 0 1 .236-.788l4.883-5.615v-1.703a2.914 2.914 0 0 1 2.911-2.911h7.019a2.914 2.914 0 0 1 2.911 2.911v3.4a2.914 2.914 0 0 1 -2.911 2.911h-5.878l-7.41 4.438a.992.992 0 0 1 -.514.145zm6.783-11.808a.912.912 0 0 0 -.911.911v2.08a1 1 0 0 1 -.245.656l-4.764 5.478 6.271-3.755a1 1 0 0 1 .514-.143h6.154a.912.912 0 0 0 .911-.913v-3.4a.912.912 0 0 0 -.911-.911z" fill="#2f3a5a"/><path d="m2.911 47.586h7.019a1.911 1.911 0 0 1 1.911 1.914v2.08l5.127 5.9-.256 1.92-7.646-4.587h-6.155a1.911 1.911 0 0 1 -1.911-1.913v-3.4a1.912 1.912 0 0 1 1.911-1.914z" fill="#ffc943"/><path d="m16.713 60.394a.992.992 0 0 1 -.514-.143l-7.41-4.438h-5.878a2.914 2.914 0 0 1 -2.911-2.913v-3.4a2.914 2.914 0 0 1 2.911-2.911h7.019a2.914 2.914 0 0 1 2.911 2.911v1.7l4.883 5.615a1 1 0 0 1 .236.788l-.256 1.92a1 1 0 0 1 -.557.768.988.988 0 0 1 -.434.103zm-13.802-11.808a.912.912 0 0 0 -.911.914v3.4a.912.912 0 0 0 .911.911h6.154a1 1 0 0 1 .514.143l6.271 3.755-4.764-5.478a1 1 0 0 1 -.245-.656v-2.075a.912.912 0 0 0 -.911-.911z" fill="#2f3a5a"/><path d="m116.874 84.857h-12.888a3.008 3.008 0 0 0 -2.739 3.219v16.851a3.008 3.008 0 0 0 2.739 3.219h12.888a3.008 3.008 0 0 0 2.739-3.219v-16.851a3.008 3.008 0 0 0 -2.739-3.219z" fill="#84879c"/><path d="m116.874 109.146h-12.889a4.005 4.005 0 0 1 -3.738-4.219v-16.851a4.005 4.005 0 0 1 3.738-4.219h12.889a4.005 4.005 0 0 1 3.739 4.219v16.851a4.005 4.005 0 0 1 -3.739 4.219zm-12.889-23.289a2.025 2.025 0 0 0 -1.738 2.219v16.851a2.026 2.026 0 0 0 1.738 2.219h12.889a2.026 2.026 0 0 0 1.739-2.219v-16.851a2.025 2.025 0 0 0 -1.739-2.219z" fill="#2f3a5a"/><path d="m24.935 84.857h-12.889a3.008 3.008 0 0 0 -2.738 3.219v16.851a3.008 3.008 0 0 0 2.738 3.219h12.889a3.009 3.009 0 0 0 2.739-3.219v-16.851a3.009 3.009 0 0 0 -2.739-3.219z" fill="#84879c"/><path d="m24.935 109.146h-12.888a4.005 4.005 0 0 1 -3.739-4.219v-16.851a4.005 4.005 0 0 1 3.739-4.219h12.888a4.006 4.006 0 0 1 3.739 4.219v16.851a4.006 4.006 0 0 1 -3.739 4.219zm-12.888-23.289a2.025 2.025 0 0 0 -1.739 2.219v16.851a2.026 2.026 0 0 0 1.739 2.219h12.888a2.026 2.026 0 0 0 1.739-2.219v-16.851a2.025 2.025 0 0 0 -1.739-2.219z" fill="#2f3a5a"/><path d="m114.458 55.693a56 56 0 0 0 -15.858-22.799 16.076 16.076 0 0 0 -10.492-3.886h-47.3a16.074 16.074 0 0 0 -10.491 3.886 55.992 55.992 0 0 0 -15.854 22.8l-8.063 10.617a12.5 12.5 0 0 0 -3.35 9.972l1.142 10.3a12.5 12.5 0 0 0 12.423 11.117h95.691a12.5 12.5 0 0 0 12.423-11.122l1.141-10.3a12.5 12.5 0 0 0 -3.348-9.972z" fill="#ffc943"/><path d="m125.867 76.288-1.136 10.289a12.5 12.5 0 0 1 -12.425 11.123h-95.691a12.5 12.5 0 0 1 -12.424-11.123l-1.136-10.289a12.365 12.365 0 0 1 1.662-7.732 12.488 12.488 0 0 0 11.9 8.679h95.691a12.509 12.509 0 0 0 11.9-8.679 12.438 12.438 0 0 1 1.659 7.732z" fill="#f7b521"/><path d="m112.306 98.7h-95.691a13.487 13.487 0 0 1 -13.415-12.011l-1.14-10.3a13.473 13.473 0 0 1 3.578-10.73l7.942-10.458a56.858 56.858 0 0 1 16.084-23.065 17.093 17.093 0 0 1 11.145-4.128h47.3a17.088 17.088 0 0 1 11.144 4.128 56.854 56.854 0 0 1 16.088 23.069l7.941 10.458a13.47 13.47 0 0 1 3.579 10.731l-1.141 10.295a13.484 13.484 0 0 1 -13.414 12.011zm-71.5-68.693a15.087 15.087 0 0 0 -9.84 3.644 54.839 54.839 0 0 0 -15.566 22.391 1.016 1.016 0 0 1 -.141.256l-8.065 10.618a1.069 1.069 0 0 1 -.069.084 11.477 11.477 0 0 0 -3.08 9.175l1.141 10.3a11.486 11.486 0 0 0 11.429 10.225h95.691a11.484 11.484 0 0 0 11.428-10.232l1.142-10.3a11.476 11.476 0 0 0 -3.076-9.168.893.893 0 0 1 -.07-.082l-8.068-10.618a1.016 1.016 0 0 1 -.141-.256 54.842 54.842 0 0 0 -15.57-22.39 15.084 15.084 0 0 0 -9.839-3.644z" fill="#2f3a5a"/><path d="m108.424 56.226h-87.924a49.392 49.392 0 0 1 13.939-19.9 9.76 9.76 0 0 1 6.376-2.367h47.3a9.756 9.756 0 0 1 6.375 2.367 49.382 49.382 0 0 1 13.934 19.9z" fill="#9bc6f1"/><path d="m118.165 69.834a3.5 3.5 0 0 0 -3.615-1.254 21.176 21.176 0 0 0 -11.676 7.643 3.548 3.548 0 0 0 -.635 3.073l.128.5a3.574 3.574 0 0 0 4.347 2.581l10.486-2.677a3.605 3.605 0 0 0 2.688-3.208 9.438 9.438 0 0 0 -1.723-6.658z" fill="#dbe2eb"/><path d="m105.823 83.489a4.579 4.579 0 0 1 -4.425-3.447l-.127-.5a4.568 4.568 0 0 1 .819-3.942 22.261 22.261 0 0 1 12.23-8 4.484 4.484 0 0 1 4.646 1.629 10.449 10.449 0 0 1 1.921 7.342 4.607 4.607 0 0 1 -3.437 4.092l-10.489 2.676a4.659 4.659 0 0 1 -1.138.15zm9.577-14.009a2.691 2.691 0 0 0 -.62.073 20.251 20.251 0 0 0 -11.123 7.29 2.557 2.557 0 0 0 -.45 2.206l.128.5a2.575 2.575 0 0 0 3.132 1.86l10.489-2.674a2.611 2.611 0 0 0 1.939-2.321 8.407 8.407 0 0 0 -1.532-5.979 2.43 2.43 0 0 0 -1.963-.955z" fill="#2f3a5a"/><path d="m10.756 69.834a3.5 3.5 0 0 1 3.614-1.254 21.175 21.175 0 0 1 11.677 7.643 3.544 3.544 0 0 1 .634 3.073l-.127.5a3.575 3.575 0 0 1 -4.348 2.581l-10.49-2.677a3.606 3.606 0 0 1 -2.687-3.208 9.433 9.433 0 0 1 1.727-6.658z" fill="#dbe2eb"/><path d="m23.1 83.489a4.657 4.657 0 0 1 -1.138-.143l-10.492-2.676a4.606 4.606 0 0 1 -3.438-4.093 10.453 10.453 0 0 1 1.922-7.341 4.483 4.483 0 0 1 4.647-1.63 22.264 22.264 0 0 1 12.23 8 4.56 4.56 0 0 1 .818 3.941l-.127.5a4.579 4.579 0 0 1 -4.422 3.442zm-9.58-14.009a2.427 2.427 0 0 0 -1.962.952 8.406 8.406 0 0 0 -1.533 5.98 2.609 2.609 0 0 0 1.939 2.321l10.489 2.674a2.576 2.576 0 0 0 3.132-1.859l.127-.5a2.555 2.555 0 0 0 -.449-2.207 20.251 20.251 0 0 0 -11.123-7.29 2.691 2.691 0 0 0 -.62-.071z" fill="#2f3a5a"/><path d="m42.143 78.049h44.635v5.996h-44.635z" fill="#84879c"/><path d="m86.778 85.045h-44.635a1 1 0 0 1 -1-1v-6a1 1 0 0 1 1-1h44.635a1 1 0 0 1 1 1v6a1 1 0 0 1 -1 1zm-43.635-2h42.635v-4h-42.635z" fill="#2f3a5a"/><path d="m78.55 29.008h-28.18l3.451-9.154h21.279z" fill="#84879c"/><path d="m78.55 30.008h-28.18a1 1 0 0 1 -.935-1.352l3.45-9.154a1 1 0 0 1 .935-.648h21.28a1 1 0 0 1 .935.648l3.45 9.154a1 1 0 0 1 -.935 1.352zm-26.735-2h25.285l-2.7-7.154h-19.9z" fill="#2f3a5a"/><path d="m48.708 89.567h31.505v8.135h-31.505z" fill="#84879c"/><path d="m80.213 98.7h-31.5a1 1 0 0 1 -1-1v-8.134a1 1 0 0 1 1-1h31.5a1 1 0 0 1 1 1v8.134a1 1 0 0 1 -1 1zm-30.5-2h29.5v-6.134h-29.5z" fill="#2f3a5a"/><g fill="#fff" opacity=".5"><path d="m68.122 33.955-12.151 22.271h-6.659l12.151-22.271z"/><path d="m75.012 33.955-12.15 22.271h-2.588l12.151-22.271z"/></g><path d="m108.423 57.23h-87.923a1 1 0 0 1 -.934-1.355 50.519 50.519 0 0 1 14.216-20.315 10.772 10.772 0 0 1 7.026-2.6h47.3a10.785 10.785 0 0 1 7.028 2.6 50.523 50.523 0 0 1 14.217 20.315 1 1 0 0 1 -.934 1.355zm-86.453-2h84.98a48.544 48.544 0 0 0 -13.115-18.154 8.779 8.779 0 0 0 -5.723-2.117h-47.3a8.77 8.77 0 0 0 -5.721 2.117 48.514 48.514 0 0 0 -13.121 18.154z" fill="#2f3a5a"/><g fill="#fff"><path d="m58.159 22.104h2.327v2.327h-2.327z"/><path d="m67.513 22.104h2.327v2.327h-2.327z"/><path d="m62.814 22.104h2.327v2.327h-2.327z"/><path d="m60.509 24.431h2.327v2.327h-2.327z"/><path d="m65.207 24.431h2.327v2.327h-2.327z"/></g><circle cx="113.917" cy="74.586" fill="#b0b3c1" r="2.774"/><circle cx="107.97" cy="77.36" fill="#b0b3c1" r="1.826"/><circle cx="14.469" cy="74.586" fill="#b0b3c1" r="2.774"/><circle cx="20.416" cy="77.36" fill="#b0b3c1" r="1.826"/></svg>