<?xml version="1.0" encoding="UTF-8"?>
<svg xmlns="http://www.w3.org/2000/svg" id="icon" viewBox="0 0 128 128" width="512" height="512"><path d="M64,1a2.887,2.887,0,0,0-2.887,2.887V124.113a2.887,2.887,0,0,0,5.774,0V3.887A2.887,2.887,0,0,0,64,1Z" fill="#e1b378"/><path d="M64,128a3.891,3.891,0,0,1-3.887-3.887V3.887a3.887,3.887,0,0,1,7.774,0V124.113A3.891,3.891,0,0,1,64,128ZM64,2a1.89,1.89,0,0,0-1.887,1.887V124.113a1.887,1.887,0,0,0,3.774,0V3.887A1.89,1.89,0,0,0,64,2Z" fill="#2f3a5a"/><path d="M127,64a2.887,2.887,0,0,0-2.887-2.887H3.887a2.887,2.887,0,0,0,0,5.774H124.113A2.887,2.887,0,0,0,127,64Z" fill="#e1b378"/><path d="M124.113,67.887H3.887a3.887,3.887,0,0,1,0-7.774H124.113a3.887,3.887,0,0,1,0,7.774ZM3.887,62.113a1.887,1.887,0,0,0,0,3.774H124.113a1.887,1.887,0,0,0,0-3.774Z" fill="#2f3a5a"/><path d="M108.548,19.452a2.888,2.888,0,0,0-4.083,0L19.452,104.465a2.887,2.887,0,0,0,4.083,4.083l85.013-85.013A2.888,2.888,0,0,0,108.548,19.452Z" fill="#e1b378"/><path d="M21.494,110.394a3.888,3.888,0,0,1-2.749-6.636l85.013-85.013a3.979,3.979,0,0,1,5.5,0h0a3.892,3.892,0,0,1,0,5.5L24.242,109.255A3.86,3.86,0,0,1,21.494,110.394Zm85.012-90.788a1.875,1.875,0,0,0-1.334.553L20.159,105.172a1.891,1.891,0,0,0,0,2.669,1.933,1.933,0,0,0,2.669,0l85.013-85.013a1.888,1.888,0,0,0-1.335-3.222Z" fill="#2f3a5a"/><path d="M108.548,108.548a2.888,2.888,0,0,0,0-4.083L23.535,19.452a2.887,2.887,0,0,0-4.083,4.083l85.013,85.013A2.888,2.888,0,0,0,108.548,108.548Z" fill="#e1b378"/><path d="M106.506,110.394a3.86,3.86,0,0,1-2.748-1.139L18.745,24.242a3.892,3.892,0,0,1,0-5.5,3.979,3.979,0,0,1,5.5,0l85.013,85.013a3.892,3.892,0,0,1,0,5.5h0A3.864,3.864,0,0,1,106.506,110.394ZM21.494,19.606a1.888,1.888,0,0,0-1.335,3.222l85.013,85.013a1.933,1.933,0,0,0,2.669,0,1.891,1.891,0,0,0,0-2.669L22.828,20.159A1.875,1.875,0,0,0,21.494,19.606Z" fill="#2f3a5a"/><path d="M64,18.61A45.39,45.39,0,1,0,109.39,64,45.386,45.386,0,0,0,64,18.61Zm0,84.239A38.849,38.849,0,1,1,102.849,64,38.854,38.854,0,0,1,64,102.849Z" fill="#e1b378"/><path d="M64,110.39A46.39,46.39,0,1,1,110.39,64,46.443,46.443,0,0,1,64,110.39Zm0-90.78A44.39,44.39,0,1,0,108.39,64,44.44,44.44,0,0,0,64,19.61Zm0,84.239A39.849,39.849,0,1,1,103.85,64,39.895,39.895,0,0,1,64,103.849Zm0-77.7A37.849,37.849,0,1,0,101.85,64,37.893,37.893,0,0,0,64,26.151Z" fill="#2f3a5a"/><circle cx="64" cy="64" r="20.4" fill="#e1b378"/><path d="M64,85.4A21.4,21.4,0,1,1,85.4,64,21.423,21.423,0,0,1,64,85.4Zm0-40.8A19.4,19.4,0,1,0,83.4,64,19.421,19.421,0,0,0,64,44.6Z" fill="#2f3a5a"/><circle cx="64" cy="64" r="5.932" fill="#bd8d5a"/><path d="M64,70.932A6.932,6.932,0,1,1,70.932,64,6.94,6.94,0,0,1,64,70.932Zm0-11.864A4.932,4.932,0,1,0,68.932,64,4.938,4.938,0,0,0,64,59.068Z" fill="#2f3a5a"/><circle cx="64" cy="50.744" r="2.078" fill="#bd8d5a"/><path d="M64,53.822a3.078,3.078,0,1,1,3.078-3.078A3.082,3.082,0,0,1,64,53.822Zm0-4.156a1.078,1.078,0,1,0,1.078,1.078A1.078,1.078,0,0,0,64,49.666Z" fill="#2f3a5a"/><circle cx="64" cy="77.256" r="2.078" fill="#bd8d5a"/><path d="M64,80.334a3.078,3.078,0,1,1,3.078-3.078A3.081,3.081,0,0,1,64,80.334Zm0-4.156a1.078,1.078,0,1,0,1.078,1.078A1.079,1.079,0,0,0,64,76.178Z" fill="#2f3a5a"/><circle cx="77.256" cy="64" r="2.078" fill="#bd8d5a"/><path d="M77.256,67.079A3.079,3.079,0,1,1,80.335,64,3.082,3.082,0,0,1,77.256,67.079Zm0-4.157A1.079,1.079,0,1,0,78.335,64,1.079,1.079,0,0,0,77.256,62.922Z" fill="#2f3a5a"/><circle cx="50.744" cy="64" r="2.078" fill="#bd8d5a"/><path d="M50.743,67.079A3.079,3.079,0,1,1,53.822,64,3.082,3.082,0,0,1,50.743,67.079Zm0-4.157A1.079,1.079,0,1,0,51.822,64,1.079,1.079,0,0,0,50.743,62.922Z" fill="#2f3a5a"/><circle cx="73.374" cy="54.626" r="2.078" fill="#bd8d5a"/><path d="M73.373,57.7a3.078,3.078,0,1,1,2.178-5.254h0A3.077,3.077,0,0,1,73.373,57.7Zm0-4.154a1.078,1.078,0,1,0,.763.315A1.077,1.077,0,0,0,73.374,53.549Z" fill="#2f3a5a"/><circle cx="54.626" cy="73.374" r="2.078" fill="#bd8d5a"/><path d="M54.626,76.45A3.078,3.078,0,1,1,56.8,71.2h0a3.077,3.077,0,0,1-2.177,5.253Zm0-4.154a1.078,1.078,0,1,0,.763.315A1.077,1.077,0,0,0,54.626,72.3Z" fill="#2f3a5a"/><circle cx="73.374" cy="73.374" r="2.078" fill="#bd8d5a"/><path d="M73.374,76.45a3.077,3.077,0,1,1,2.177-.9h0A3.075,3.075,0,0,1,73.374,76.45Zm0-4.154a1.078,1.078,0,1,0,.763.315A1.077,1.077,0,0,0,73.374,72.3Z" fill="#2f3a5a"/><circle cx="54.626" cy="54.626" r="2.078" fill="#bd8d5a"/><path d="M54.626,57.7a3.078,3.078,0,1,1,2.177-.9A3.071,3.071,0,0,1,54.626,57.7Zm0-4.156a1.079,1.079,0,1,0,.763.316A1.078,1.078,0,0,0,54.626,53.548Z" fill="#2f3a5a"/></svg>
