<svg id="icon" height="512" viewBox="0 0 128 128" width="512" xmlns="http://www.w3.org/2000/svg"><path d="m85.041 84.254c10.68-12.081 17.759-31.227 17.759-44.894a38.8 38.8 0 0 0 -77.59 0c0 13.667 7.074 32.813 17.754 44.894z" fill="#ef5361"/><path d="m102.792 39.357c0 13.667-7.067 32.816-17.751 44.9h-42.082c-.456-.525-.912-1.06-1.358-1.605h34.015c10.684-12.082 17.751-31.23 17.751-44.9a38.812 38.812 0 0 0 -27.573-37.147 38.794 38.794 0 0 1 36.998 38.752z" fill="#da2a47"/><path d="m85.041 85.254h-42.082a1 1 0 0 1 -.749-.338c-10.433-11.8-18.005-30.959-18.005-45.556a39.8 39.8 0 0 1 79.59 0c0 14.6-7.572 33.756-18 45.556a1 1 0 0 1 -.754.338zm-41.629-2h41.176c9.988-11.497 17.212-29.875 17.212-43.894a37.8 37.8 0 0 0 -75.59 0c-.005 14.019 7.214 32.397 17.202 43.894z" fill="#2f3a5a"/><path d="m72.991 84.254c4.565-12.081 7.587-31.227 7.587-44.894 0-21.426-7.422-38.795-16.578-38.795s-16.578 17.369-16.578 38.795c0 13.667 3.022 32.813 7.587 44.894z" fill="#e1e6e9"/><path d="m72.991 85.254h-17.982a1 1 0 0 1 -.936-.647c-4.433-11.734-7.651-30.764-7.651-45.247 0-22.315 7.722-39.795 17.578-39.795s17.578 17.48 17.578 39.8c0 14.483-3.218 33.513-7.651 45.247a1 1 0 0 1 -.936.642zm-17.287-2h16.596c4.234-11.581 7.282-29.886 7.282-43.894-.004-20.487-7.138-37.795-15.582-37.795s-15.578 17.308-15.578 37.795c0 14.008 3.048 32.313 7.278 43.894z" fill="#2f3a5a"/><rect fill="#d0aa79" height="22.387" rx="1.637" width="27.32" x="51.168" y="104.173"/><path d="m78.49 105.811v19.109a1.638 1.638 0 0 1 -1.635 1.645h-24.045a1.641 1.641 0 0 1 -1.645-1.645v-2.24h21.16a1.638 1.638 0 0 0 1.636-1.635v-16.869h2.894a1.636 1.636 0 0 1 1.635 1.635z" fill="#bd8d5a"/><path d="m76.851 127.56h-24.045a2.641 2.641 0 0 1 -2.638-2.637v-19.112a2.641 2.641 0 0 1 2.638-2.638h24.045a2.64 2.64 0 0 1 2.637 2.638v19.112a2.64 2.64 0 0 1 -2.637 2.637zm-24.045-22.387a.638.638 0 0 0 -.638.638v19.112a.638.638 0 0 0 .638.637h24.045a.638.638 0 0 0 .637-.637v-19.112a.638.638 0 0 0 -.637-.638z" fill="#2f3a5a"/><path d="m48.484 101.652h32.689v5.735h-32.689z" fill="#d0aa79"/><path d="m81.173 108.388h-32.69a1 1 0 0 1 -1-1v-5.736a1 1 0 0 1 1-1h32.69a1 1 0 0 1 1 1v5.736a1 1 0 0 1 -1 1zm-31.69-2h30.69v-3.736h-30.69z" fill="#2f3a5a"/><path d="m85.041 84.254-5.682 17.398" fill="#d0aa79"/><path d="m79.358 102.653a1 1 0 0 1 -.95-1.311l5.683-17.4a1 1 0 1 1 1.9.621l-5.682 17.4a1 1 0 0 1 -.951.69z" fill="#2f3a5a"/><path d="m72.991 84.254-3.595 17.398" fill="#d0aa79"/><path d="m69.4 102.652a1.012 1.012 0 0 1 -.2-.02 1 1 0 0 1 -.777-1.182l3.6-17.4a1 1 0 1 1 1.959.4l-3.6 17.4a1 1 0 0 1 -.982.802z" fill="#2f3a5a"/><path d="m43.346 84.254 5.682 17.398" fill="#d0aa79"/><path d="m49.027 102.653a1 1 0 0 1 -.95-.69l-5.677-17.399a1 1 0 1 1 1.9-.621l5.682 17.4a1 1 0 0 1 -.951 1.311z" fill="#2f3a5a"/><path d="m55.395 84.254 3.596 17.398" fill="#d0aa79"/><path d="m58.989 102.652a1 1 0 0 1 -.978-.8l-3.6-17.4a1 1 0 1 1 1.959-.4l3.6 17.4a1 1 0 0 1 -.981 1.2z" fill="#2f3a5a"/></svg>