<svg id="icon" height="512" viewBox="0 0 128 128" width="512" xmlns="http://www.w3.org/2000/svg"><ellipse cx="64" cy="89.517" fill="#bf9a71" rx="63" ry="12.933"/><path d="m127 89.52c0 7.14-28.21 12.93-63 12.93-22.71 0-42.61-2.47-53.7-6.17a275.611 275.611 0 0 0 29.15 1.47c34.8 0 63-5.79 63-12.93 0-2.49-3.4-4.8-9.3-6.77 20.12 2.16 33.85 6.48 33.85 11.47z" fill="#d0aa79"/><path d="m64 103.45c-31.026 0-64-4.883-64-13.932s32.974-13.933 64-13.933 64 4.883 64 13.933-32.974 13.932-64 13.932zm0-25.865c-36.538 0-62 6.289-62 11.933s25.462 11.932 62 11.932 62-6.289 62-11.932-25.462-11.933-62-11.933z" fill="#2f3a5a"/><path d="m88.53 30.172a6.2 6.2 0 0 0 -9.614-3.264l-10.522 7.711a6.2 6.2 0 0 1 -7.239.063l-11.316-7.993a6.2 6.2 0 0 0 -9.526 3.327l-16.049 55.025c18.611 10.873 63.349 10.669 80.269 0z" fill="#d0aa79"/><path d="m86.166 36.337a5.956 5.956 0 0 0 -8.738-2.643l-9.4 6.287a6.085 6.085 0 0 1 -6.576.052l-10.117-6.515a5.955 5.955 0 0 0 -8.658 2.692l-17.861 48.942c17.954 10.776 62.9 10.57 79.166 0z" fill="#bf9a71"/><path d="m64.9 94.191c-15.758 0-31.683-2.761-41.14-8.287a1 1 0 0 1 -.456-1.143l16.049-55.025a7.2 7.2 0 0 1 11.063-3.864l11.316 7.994a5.2 5.2 0 0 0 6.071-.053l10.522-7.713a7.2 7.2 0 0 1 11.165 3.79l16 54.869a1 1 0 0 1 -.427 1.126c-8.776 5.538-24.385 8.306-40.163 8.306zm-39.454-9.629c18.245 10.043 60.928 10.056 77.913.024l-15.789-54.134a5.2 5.2 0 0 0 -8.062-2.737l-10.523 7.711a7.189 7.189 0 0 1 -8.407.074l-11.317-7.994a5.2 5.2 0 0 0 -7.988 2.79z" fill="#2f3a5a"/><path d="m104.529 85.041c-16.918 10.67-61.653 10.878-80.263 0l4.214-14.441c18.828 8 54.1 7.909 71.866.093z" fill="#84879c"/><path d="m64.9 94.193c-15.757 0-31.681-2.762-41.136-8.289a1 1 0 0 1 -.456-1.143l4.212-14.438a1 1 0 0 1 1.351-.639c18.3 7.776 53.5 7.825 71.072.1a1 1 0 0 1 1.363.635l4.183 14.344a1 1 0 0 1 -.426 1.126c-8.78 5.535-24.389 8.304-40.163 8.304zm-39.45-9.631c18.242 10.046 60.922 10.059 77.907.024l-3.657-12.529c-18.235 7.464-51.674 7.414-70.573-.106z" fill="#2f3a5a"/></svg>