<?xml version="1.0" encoding="UTF-8"?>
<svg xmlns="http://www.w3.org/2000/svg" id="icon" viewBox="0 0 128 128" width="512" height="512"><path d="M127,104.619H77.875L64,68.049l-13.87,36.57H1l1.611-9.992,1.2-7.526L4.922,80.21l1.172-7.3,4.163-25.866,1.414-8.808v-.011l.208-1.26.383-2.4L13.467,27.1v-.011l.592-3.7H113.93l2.191,13.585,1.194,7.461,1.118,6.924,1.062,6.606,1.249,7.8Z" fill="#ffc943"/><path d="M126.03,98.62H80.29l-14.413-35.2a2.038,2.038,0,0,0-3.772,0L47.71,98.62H1.97l-.97,6H50.12L63.99,68.05l13.89,36.57H127Z" fill="#f7b521"/><path d="M127,105.618H77.875a1,1,0,0,1-.935-.645L64,70.868,51.06,104.973a1,1,0,0,1-.935.645H1a1,1,0,0,1-.987-1.159L10.677,38.122c0-.019,0-.039.007-.057l1.789-11.084c0-.019,0-.036.007-.053l.592-3.7a1,1,0,0,1,.987-.843H113.93a1,1,0,0,1,.987.841l13.07,81.235a1,1,0,0,1-.987,1.159Zm-48.435-2h47.261L113.079,24.383H14.912L14.461,27.2c0,.019,0,.038-.006.055l-1.79,11.091c0,.018,0,.034-.007.05L2.174,103.618H49.435L63.06,67.694a1,1,0,0,1,1.87,0Z" fill="#2f3a5a"/><path d="M108.654,80.1a3.456,3.456,0,0,0-3.055-3.432,3.455,3.455,0,0,0-4.853-4.853,3.455,3.455,0,0,0-6.864,0,3.455,3.455,0,0,0-4.853,4.853,3.455,3.455,0,0,0,0,6.864,3.455,3.455,0,0,0,4.853,4.853,3.455,3.455,0,0,0,6.864,0,3.455,3.455,0,0,0,4.853-4.853A3.456,3.456,0,0,0,108.654,80.1Z" fill="#4fa4d1"/><path d="M97.314,92.437a4.457,4.457,0,0,1-4.043-2.581,4.457,4.457,0,0,1-5.717-5.716,4.459,4.459,0,0,1,0-8.087,4.457,4.457,0,0,1,5.717-5.717,4.457,4.457,0,0,1,8.085,0,4.457,4.457,0,0,1,5.718,5.717,4.459,4.459,0,0,1,0,8.087,4.457,4.457,0,0,1-5.718,5.716A4.453,4.453,0,0,1,97.314,92.437Zm-3.432-5.056a1,1,0,0,1,.993.885,2.455,2.455,0,0,0,4.877,0,1,1,0,0,1,1.615-.669,2.455,2.455,0,0,0,3.448-3.448,1,1,0,0,1,.668-1.614,2.456,2.456,0,0,0,0-4.878,1,1,0,0,1-.668-1.614,2.454,2.454,0,0,0-3.448-3.447,1,1,0,0,1-1.615-.669,2.455,2.455,0,0,0-4.877,0,1,1,0,0,1-1.614.669,2.454,2.454,0,0,0-3.448,3.447,1,1,0,0,1-.669,1.614,2.456,2.456,0,0,0,0,4.878,1,1,0,0,1,.669,1.614A2.455,2.455,0,0,0,93.261,87.6,1,1,0,0,1,93.882,87.381Z" fill="#2f3a5a"/><path d="M97.314,76.582a3.514,3.514,0,1,0,3.514,3.514A3.514,3.514,0,0,0,97.314,76.582Z" fill="#dbe2eb"/><path d="M97.314,84.61a4.514,4.514,0,1,1,4.514-4.514A4.519,4.519,0,0,1,97.314,84.61Zm0-7.028A2.514,2.514,0,1,0,99.828,80.1,2.517,2.517,0,0,0,97.314,77.582Z" fill="#2f3a5a"/><path d="M120.449,104.564a3.186,3.186,0,0,1,.317.055h-17.2a3.2,3.2,0,0,1,.318-.055,3.454,3.454,0,0,1,4.853-4.853,3.452,3.452,0,0,1,6.858,0,3.454,3.454,0,0,1,4.854,4.853Z" fill="#4fa4d1"/><path d="M120.766,105.618h-17.2a1,1,0,0,1-.972-1.236,4.451,4.451,0,0,1,5.53-6.145,4.455,4.455,0,0,1,8.084,0,4.456,4.456,0,0,1,5.513,6.19.946.946,0,0,1,.016.287A.981.981,0,0,1,120.766,105.618Zm-16.315-2h15.434a2.456,2.456,0,0,0-3.67-3.123,1,1,0,0,1-1.613-.67,2.452,2.452,0,0,0-4.871,0,1,1,0,0,1-1.614.671,2.454,2.454,0,0,0-3.666,3.123Z" fill="#2f3a5a"/><path d="M113.163,104.619h-1.994a3.547,3.547,0,0,1,1.994,0Z" fill="#dbe2eb"/><path d="M113.163,105.618h-1.994a1,1,0,0,1-.264-1.965,4.543,4.543,0,0,1,2.522,0,1,1,0,0,1-.264,1.965Z" fill="#2f3a5a"/><path d="M17.3,39.367a3.456,3.456,0,0,1-4.853,4.854,3.489,3.489,0,0,1-2.192,2.826l1.414-8.808v-.011l.208-1.26.383-2.4L13.467,27.1v-.011A3.454,3.454,0,0,1,17.3,32.5a3.458,3.458,0,0,1,0,6.869Z" fill="#4fa4d1"/><path d="M10.257,48.047a1,1,0,0,1-.987-1.158l1.407-8.767c0-.019,0-.039.007-.057l1.794-11.113a1.01,1.01,0,0,1,.663-.811,4.451,4.451,0,0,1,5.634,5.744,4.458,4.458,0,0,1,0,8.088,4.459,4.459,0,0,1-5.719,5.72,4.488,4.488,0,0,1-2.435,2.285A1.015,1.015,0,0,1,10.257,48.047Zm2.192-4.826a1,1,0,0,1,.62.215A2.455,2.455,0,0,0,16.52,39.99a1,1,0,0,1,.662-1.615,2.458,2.458,0,0,0,.006-4.883,1,1,0,0,1-.671-1.614,2.455,2.455,0,0,0-2.167-3.97L12.665,38.347c0,.018,0,.034-.007.05l-.8,5.021a.985.985,0,0,1,.6-.2Z" fill="#2f3a5a"/><path d="M12.536,35.927a3.5,3.5,0,0,1-.865,2.3l.208-1.26.383-2.4A3.481,3.481,0,0,1,12.536,35.927Z" fill="#dbe2eb"/><path d="M11.67,39.228a1,1,0,0,1-.986-1.163l.591-3.654a1,1,0,0,1,1.909-.23,4.5,4.5,0,0,1-.76,4.705A1,1,0,0,1,11.67,39.228Z" fill="#2f3a5a"/><path d="M120.744,65.759a4.07,4.07,0,0,1-.745.077,3.471,3.471,0,0,1-3.44-3.057,3.456,3.456,0,0,1-4.853-4.853,3.458,3.458,0,0,1,0-6.869,3.455,3.455,0,0,1,4.853-4.853,3.416,3.416,0,0,1,.756-1.775l1.118,6.924,1.062,6.606Z" fill="#4fa4d1"/><path d="M120,66.836a4.471,4.471,0,0,1-4.048-2.584,4.464,4.464,0,0,1-5.719-5.719,4.458,4.458,0,0,1,0-8.089,4.458,4.458,0,0,1,5.719-5.714,4.5,4.5,0,0,1,.592-.937,1,1,0,0,1,1.76.477L121.732,65.6a1,1,0,0,1-.808,1.141A5.039,5.039,0,0,1,120,66.836Zm-3.441-5.057a1,1,0,0,1,.993.88,2.476,2.476,0,0,0,2.026,2.141l-2.83-17.614a1,1,0,0,1-.809-.2,2.455,2.455,0,0,0-3.448,3.449,1,1,0,0,1-.671,1.614,2.458,2.458,0,0,0,.006,4.883,1,1,0,0,1,.665,1.612A2.456,2.456,0,0,0,115.939,62,1,1,0,0,1,116.559,61.779Z" fill="#2f3a5a"/><path d="M119.5,57.959a3.5,3.5,0,0,1-1.062-6.606Z" fill="#dbe2eb"/><path d="M119.5,58.959a1,1,0,0,1-.134-.009,4.508,4.508,0,0,1-3.879-4.464,4.458,4.458,0,0,1,2.509-4.031,1,1,0,0,1,1.428.739l1.063,6.606a1,1,0,0,1-.987,1.159Zm-1.752-5.591a2.522,2.522,0,0,0,.464,2.887Z" fill="#2f3a5a"/><path d="M50.881,58.005a3.456,3.456,0,0,0-3.055-3.432,3.455,3.455,0,0,0-4.854-4.853,3.455,3.455,0,0,0-6.863,0,3.455,3.455,0,0,0-4.853,4.853,3.455,3.455,0,0,0,0,6.863,3.455,3.455,0,0,0,4.853,4.854,3.455,3.455,0,0,0,6.863,0,3.456,3.456,0,0,0,4.854-4.854A3.456,3.456,0,0,0,50.881,58.005Z" fill="#4fa4d1"/><path d="M39.541,70.345a4.454,4.454,0,0,1-4.043-2.58,4.458,4.458,0,0,1-5.717-5.718,4.456,4.456,0,0,1,0-8.085A4.457,4.457,0,0,1,35.5,48.245a4.456,4.456,0,0,1,8.085,0A4.457,4.457,0,0,1,49.3,53.962a4.457,4.457,0,0,1,0,8.085,4.457,4.457,0,0,1-5.718,5.717A4.454,4.454,0,0,1,39.541,70.345Zm-3.432-5.056a1,1,0,0,1,.993.885,2.455,2.455,0,0,0,4.877,0,1,1,0,0,1,.61-.809,1.01,1.01,0,0,1,1,.14,2.455,2.455,0,0,0,3.449-3.447,1,1,0,0,1,.668-1.615,2.455,2.455,0,0,0,0-4.877,1,1,0,0,1-.668-1.614A2.455,2.455,0,0,0,43.593,50.5a1,1,0,0,1-1.614-.668,2.455,2.455,0,0,0-4.877,0,1,1,0,0,1-1.614.668,2.455,2.455,0,0,0-3.448,3.449,1,1,0,0,1-.669,1.614,2.455,2.455,0,0,0,0,4.877,1,1,0,0,1,.669,1.615,2.454,2.454,0,0,0,3.448,3.447A1,1,0,0,1,36.109,65.289Z" fill="#2f3a5a"/><path d="M39.541,54.491a3.514,3.514,0,1,0,3.514,3.514A3.514,3.514,0,0,0,39.541,54.491Z" fill="#dbe2eb"/><path d="M39.541,62.519A4.514,4.514,0,1,1,44.055,58,4.519,4.519,0,0,1,39.541,62.519Zm0-7.028A2.514,2.514,0,1,0,42.055,58,2.516,2.516,0,0,0,39.541,55.491Z" fill="#2f3a5a"/><path d="M50.881,90.382a3.457,3.457,0,0,0-3.055-3.432A3.455,3.455,0,0,0,42.972,82.1a3.455,3.455,0,0,0-6.863,0,3.455,3.455,0,0,0-4.853,4.853,3.455,3.455,0,0,0,0,6.864,3.455,3.455,0,0,0,4.853,4.853,3.455,3.455,0,0,0,6.863,0,3.455,3.455,0,0,0,4.854-4.853A3.456,3.456,0,0,0,50.881,90.382Z" fill="#4fa4d1"/><path d="M39.541,102.723a4.456,4.456,0,0,1-4.043-2.581,4.457,4.457,0,0,1-5.717-5.717,4.457,4.457,0,0,1,0-8.086A4.457,4.457,0,0,1,35.5,80.622a4.457,4.457,0,0,1,8.085,0A4.457,4.457,0,0,1,49.3,86.339a4.458,4.458,0,0,1,0,8.086,4.457,4.457,0,0,1-5.718,5.717A4.454,4.454,0,0,1,39.541,102.723Zm-3.432-5.056a1,1,0,0,1,.993.885,2.455,2.455,0,0,0,4.877,0,1,1,0,0,1,1.614-.669,2.455,2.455,0,0,0,3.449-3.448,1,1,0,0,1,.668-1.615,2.455,2.455,0,0,0,0-4.877,1,1,0,0,1-.668-1.614,2.455,2.455,0,0,0-3.449-3.448,1,1,0,0,1-1.614-.669,2.455,2.455,0,0,0-4.877,0,1,1,0,0,1-1.614.669,2.455,2.455,0,0,0-3.448,3.448,1,1,0,0,1-.669,1.614,2.455,2.455,0,0,0,0,4.877,1,1,0,0,1,.669,1.615,2.455,2.455,0,0,0,3.448,3.448A1,1,0,0,1,36.109,97.667Z" fill="#2f3a5a"/><path d="M39.541,86.868a3.514,3.514,0,1,0,3.514,3.514A3.514,3.514,0,0,0,39.541,86.868Z" fill="#dbe2eb"/><path d="M39.541,94.9a4.514,4.514,0,1,1,4.514-4.514A4.519,4.519,0,0,1,39.541,94.9Zm0-7.028a2.514,2.514,0,1,0,2.514,2.514A2.516,2.516,0,0,0,39.541,87.868Z" fill="#2f3a5a"/><path d="M12.372,87.046A3.455,3.455,0,0,1,7.519,91.9a3.453,3.453,0,0,1-3.43,3.057,3.522,3.522,0,0,1-1.478-.329l1.2-7.526L4.922,80.21l1.172-7.3a3.4,3.4,0,0,1,1.425,2.41,3.455,3.455,0,0,1,4.853,4.854,3.458,3.458,0,0,1,0,6.869Z" fill="#4fa4d1"/><path d="M4.089,95.956a4.538,4.538,0,0,1-1.9-.422,1,1,0,0,1-.567-1.065L5.107,72.755A1,1,0,0,1,6.67,72.1a4.394,4.394,0,0,1,1.462,1.752,4.452,4.452,0,0,1,5.714,5.715,4.458,4.458,0,0,1,0,8.088,4.461,4.461,0,0,1-5.716,5.723A4.451,4.451,0,0,1,4.089,95.956ZM3.735,93.93a2.458,2.458,0,0,0,2.79-2.145,1,1,0,0,1,1.614-.67,2.456,2.456,0,0,0,3.451-3.446,1,1,0,0,1,.662-1.616,2.458,2.458,0,0,0,.006-4.883,1,1,0,0,1-.671-1.613,2.455,2.455,0,0,0-3.448-3.45,1,1,0,0,1-1.5-.3Z" fill="#2f3a5a"/><path d="M7.606,83.606a3.514,3.514,0,0,1-3.517,3.517,1.144,1.144,0,0,1-.273-.022L4.922,80.21A3.49,3.49,0,0,1,7.606,83.606Z" fill="#dbe2eb"/><path d="M4.089,88.123a2.009,2.009,0,0,1-.521-.054,1,1,0,0,1-.74-1.127l1.107-6.89a1,1,0,0,1,1.216-.816,4.47,4.47,0,0,1,3.455,4.369A4.522,4.522,0,0,1,4.089,88.123ZM5.7,81.679l-.685,4.267a2.523,2.523,0,0,0,1.592-2.341A2.483,2.483,0,0,0,5.7,81.679Z" fill="#2f3a5a"/><path d="M88.929,47.19a3.454,3.454,0,0,1-4.853,4.853,3.452,3.452,0,0,1-6.858,0,3.454,3.454,0,0,1-4.853-4.853,3.458,3.458,0,0,1,0-6.87,3.443,3.443,0,0,1-.526-3.352H89.466a3.42,3.42,0,0,1-.537,3.352,3.458,3.458,0,0,1,0,6.87Z" fill="#4fa4d1"/><path d="M80.647,56.1a4.451,4.451,0,0,1-4.042-2.583A4.45,4.45,0,0,1,70.891,47.8a4.458,4.458,0,0,1,0-8.09,4.46,4.46,0,0,1,.01-3.1,1,1,0,0,1,.936-.648H89.466a1,1,0,0,1,.936.648,4.437,4.437,0,0,1,0,3.1,4.458,4.458,0,0,1,0,8.085,4.457,4.457,0,0,1-5.72,5.718A4.45,4.45,0,0,1,80.647,56.1Zm-3.429-5.057a1,1,0,0,1,.993.886,2.452,2.452,0,0,0,4.872,0,1,1,0,0,1,1.613-.671,2.455,2.455,0,0,0,3.452-3.445,1,1,0,0,1,.667-1.617,2.458,2.458,0,0,0-.006-4.883,1,1,0,0,1-.658-1.621,2.423,2.423,0,0,0,.525-1.724H72.628a2.453,2.453,0,0,0,.519,1.73,1,1,0,0,1-.662,1.615,2.458,2.458,0,0,0-.006,4.883,1,1,0,0,1,.67,1.614A2.454,2.454,0,0,0,76.6,51.258,1,1,0,0,1,77.218,51.043Z" fill="#2f3a5a"/><path d="M80.65,40.243a3.514,3.514,0,1,0,3.514,3.514A3.514,3.514,0,0,0,80.65,40.243Z" fill="#dbe2eb"/><path d="M80.65,48.271a4.514,4.514,0,1,1,4.514-4.514A4.519,4.519,0,0,1,80.65,48.271Zm0-7.028a2.514,2.514,0,1,0,2.514,2.514A2.517,2.517,0,0,0,80.65,41.243Z" fill="#2f3a5a"/><polygon points="116.12 36.968 113.935 23.38 14.06 23.38 11.875 36.968 116.12 36.968" fill="#4fa4d1"/><path d="M116.12,37.968H11.875a1,1,0,0,1-.987-1.159l2.185-13.587a1,1,0,0,1,.987-.842h99.876a1,1,0,0,1,.987.842l2.184,13.587a1,1,0,0,1-.987,1.159Zm-103.071-2h101.9L113.083,24.38H14.912Z" fill="#2f3a5a"/></svg>
