<svg id="icon" height="512" viewBox="0 0 128 128" width="512" xmlns="http://www.w3.org/2000/svg"><path d="m89.609 61.913h16.749v16.195h-16.749z" fill="#8ccfb5"/><path d="m107.358 79.107h-18.749v-18.194h18.749zm-16.749-2h14.749v-14.194h-14.749z" fill="#2f3a5a"/><path d="m77.037 17.706h15.599v14.051h-15.599z" fill="#8ccfb5"/><path d="m93.637 32.756h-17.6v-16.05h17.6zm-15.6-2h13.6v-12.05h-13.6z" fill="#2f3a5a"/><path d="m89.922 72.735h16.455a5.1 5.1 0 0 1 5.043 4.316l6.369 32.18a5.073 5.073 0 0 1 .061.788v11.881a5.1 5.1 0 0 1 -5.1 5.105h-30.2a5.1 5.1 0 0 1 -5.1-5.105v-11.82a5.126 5.126 0 0 1 .081-.908l7.369-32.24a5.1 5.1 0 0 1 5.022-4.197z" fill="#8ccfb5"/><path d="m77.143 26.913h26.009a5.1 5.1 0 0 1 5.078 4.587l2.535 31.078a5.1 5.1 0 0 1 -5.078 5.627h-28.544a5.1 5.1 0 0 1 -5.1-5.1v-31.088a5.1 5.1 0 0 1 5.1-5.104z" fill="#8ccfb5"/><rect fill="#8ccfb5" height="21.109" rx="3.861" width="25.614" x="71.477" y="1"/><path d="m93.229 23.109h-17.891a4.866 4.866 0 0 1 -4.861-4.861v-13.387a4.866 4.866 0 0 1 4.861-4.861h17.891a4.867 4.867 0 0 1 4.861 4.861v13.387a4.867 4.867 0 0 1 -4.861 4.861zm-17.891-21.109a2.864 2.864 0 0 0 -2.861 2.861v13.387a2.864 2.864 0 0 0 2.861 2.861h17.891a2.864 2.864 0 0 0 2.861-2.861v-13.387a2.864 2.864 0 0 0 -2.861-2.861z" fill="#2f3a5a"/><path d="m21.64 61.913h16.749v16.195h-16.749z" fill="#8ccfb5" transform="matrix(-1 0 0 -1 60.029 140.02)"/><path d="m39.389 79.107h-18.748v-18.194h18.748zm-16.748-2h14.748v-14.194h-14.748z" fill="#2f3a5a"/><path d="m35.362 17.706h15.599v14.051h-15.599z" fill="#8ccfb5" transform="matrix(-1 0 0 -1 86.323 49.462)"/><path d="m51.962 32.756h-17.6v-16.05h17.6zm-15.6-2h13.6v-12.05h-13.6z" fill="#2f3a5a"/><path d="m38.076 72.735h-16.454a5.106 5.106 0 0 0 -5.044 4.316l-6.369 32.18a5.2 5.2 0 0 0 -.061.788v11.881a5.1 5.1 0 0 0 5.105 5.1h30.2a5.1 5.1 0 0 0 5.1-5.105v-11.815a5.128 5.128 0 0 0 -.082-.908l-7.371-32.24a5.1 5.1 0 0 0 -5.024-4.197z" fill="#8ccfb5"/><path d="m117.852 110.015v11.879a5.1 5.1 0 0 1 -5.1 5.1h-30.2a5.107 5.107 0 0 1 -5.071-4.524h29.055a5.111 5.111 0 0 0 5.1-5.114v-11.865a4.852 4.852 0 0 0 -.065-.794l-6.325-31.959h1.136a5.1 5.1 0 0 1 5.039 4.31l6.369 32.184a4.932 4.932 0 0 1 .062.783z" fill="#83bfac"/><path d="m50.556 110.079v11.815a5.1 5.1 0 0 1 -5.1 5.1h-30.2a5.107 5.107 0 0 1 -5.071-4.524h29.05a5.111 5.111 0 0 0 5.1-5.114v-11.812a5.079 5.079 0 0 0 -.086-.9l-7.3-31.906h1.126a5.1 5.1 0 0 1 5.017 4.192l7.376 32.238a5.2 5.2 0 0 1 .088.911z" fill="#83bfac"/><path d="m112.745 128h-30.2a6.112 6.112 0 0 1 -6.106-6.1v-11.82a6.079 6.079 0 0 1 .1-1.087l7.384-32.284a6.086 6.086 0 0 1 6-4.975h16.454a6.074 6.074 0 0 1 6.031 5.163l6.363 32.139a6.232 6.232 0 0 1 .08.983v11.881a6.112 6.112 0 0 1 -6.106 6.1zm-22.822-54.266a4.1 4.1 0 0 0 -4.039 3.375l-7.384 32.291a4.134 4.134 0 0 0 -.057.684v11.816a4.11 4.11 0 0 0 4.106 4.1h30.2a4.11 4.11 0 0 0 4.106-4.1v-11.881a4.062 4.062 0 0 0 -.05-.633l-6.363-32.14a4.094 4.094 0 0 0 -4.061-3.512z" fill="#2f3a5a"/><path d="m45.451 128h-30.2a6.111 6.111 0 0 1 -6.1-6.1v-11.881a6.2 6.2 0 0 1 .073-.94l6.376-32.222a6.064 6.064 0 0 1 6.025-5.123h16.451a6.1 6.1 0 0 1 6.008 5.02l7.365 32.2a6.167 6.167 0 0 1 .107 1.13v11.816a6.111 6.111 0 0 1 -6.105 6.1zm-23.829-54.266a4.086 4.086 0 0 0 -4.056 3.472l-6.376 32.219a4.2 4.2 0 0 0 -.042.594v11.881a4.109 4.109 0 0 0 4.105 4.1h30.2a4.109 4.109 0 0 0 4.1-4.1v-11.82a4.078 4.078 0 0 0 -.066-.73l-7.365-32.2a4.118 4.118 0 0 0 -4.049-3.42z" fill="#2f3a5a"/><path d="m77.464 109.837c0 .081-.021.161-.021.243v11.82a5.1 5.1 0 0 0 5.1 5.105h30.2a5.1 5.1 0 0 0 5.1-5.105v-11.881c0-.061-.012-.121-.014-.182z" fill="#8ccfb5"/><path d="m112.745 128h-30.2a6.112 6.112 0 0 1 -6.106-6.1v-11.82a2.1 2.1 0 0 1 .02-.264 1.111 1.111 0 0 1 1-.979h40.371a1 1 0 0 1 1 .968 1.564 1.564 0 0 1 .016.214v11.881a6.112 6.112 0 0 1 -6.101 6.1zm-34.3-17.163v11.059a4.11 4.11 0 0 0 4.106 4.1h30.2a4.11 4.11 0 0 0 4.106-4.1v-11.059z" fill="#2f3a5a"/><path d="m10.162 109.837c0 .061-.014.121-.014.182v11.881a5.1 5.1 0 0 0 5.105 5.1h30.2a5.1 5.1 0 0 0 5.1-5.105v-11.815c0-.082-.018-.162-.022-.243z" fill="#8ccfb5"/><path d="m45.451 128h-30.2a6.111 6.111 0 0 1 -6.1-6.1v-11.881c0-.036.009-.169.013-.205a1.082 1.082 0 0 1 1-.977h40.37a1 1 0 0 1 1 .952 2.257 2.257 0 0 1 .023.291v11.82a6.111 6.111 0 0 1 -6.106 6.1zm-34.3-17.163v11.063a4.109 4.109 0 0 0 4.105 4.1h30.2a4.109 4.109 0 0 0 4.1-4.1v-11.063z" fill="#2f3a5a"/><path d="m50.855 26.913h-26.009a5.1 5.1 0 0 0 -5.078 4.587l-2.534 31.073a5.1 5.1 0 0 0 5.078 5.627h28.543a5.1 5.1 0 0 0 5.105-5.1v-31.083a5.1 5.1 0 0 0 -5.105-5.104z" fill="#8ccfb5"/><path d="m105.684 68.2h-28.54a5.093 5.093 0 0 1 -5.092-4.8h28.067a5.1 5.1 0 0 0 5.071-5.629l-2.508-30.855h.471a5.1 5.1 0 0 1 5.082 4.578l2.53 31.08a5.1 5.1 0 0 1 -5.081 5.626z" fill="#83bfac"/><path d="m55.959 32.019v31.081a5.1 5.1 0 0 1 -5.1 5.1h-28.542a5.1 5.1 0 0 1 -5.1-4.8h27.968a5.109 5.109 0 0 0 5.1-5.1v-31.084a2.744 2.744 0 0 0 -.011-.3h.579a5.1 5.1 0 0 1 5.106 5.103z" fill="#83bfac"/><path d="m105.687 69.2h-28.543a6.111 6.111 0 0 1 -6.105-6.1v-31.082a6.111 6.111 0 0 1 6.105-6.1h26.008a6.09 6.09 0 0 1 6.074 5.48l2.536 31.1a6.1 6.1 0 0 1 -6.075 6.708zm-28.543-41.287a4.109 4.109 0 0 0 -4.105 4.105v31.082a4.109 4.109 0 0 0 4.105 4.1h28.543a4.1 4.1 0 0 0 4.083-4.524l-2.537-31.1a4.087 4.087 0 0 0 -4.081-3.663z" fill="#2f3a5a"/><path d="m50.855 69.2h-28.543a6.1 6.1 0 0 1 -6.074-6.729l2.533-31.057a6.094 6.094 0 0 1 6.075-5.5h26.009a6.111 6.111 0 0 1 6.105 6.105v31.081a6.111 6.111 0 0 1 -6.105 6.1zm-26.009-41.287a4.092 4.092 0 0 0 -4.082 3.687l-2.534 31.055a4.1 4.1 0 0 0 4.082 4.545h28.543a4.109 4.109 0 0 0 4.105-4.1v-31.082a4.109 4.109 0 0 0 -4.105-4.105z" fill="#2f3a5a"/><rect fill="#8ccfb5" height="21.109" rx="3.861" width="25.614" x="30.908" y="1"/><path d="m52.66 23.109h-17.89a4.867 4.867 0 0 1 -4.862-4.861v-13.387a4.867 4.867 0 0 1 4.862-4.861h17.89a4.866 4.866 0 0 1 4.861 4.861v13.387a4.866 4.866 0 0 1 -4.861 4.861zm-17.89-21.109a2.865 2.865 0 0 0 -2.862 2.861v13.387a2.865 2.865 0 0 0 2.862 2.861h17.89a2.864 2.864 0 0 0 2.861-2.861v-13.387a2.864 2.864 0 0 0 -2.861-2.861z" fill="#2f3a5a"/><g fill="#83bfac"><path d="m113 123.651a1 1 0 0 1 -1-1v-8.951a1 1 0 0 1 2 0v8.954a1 1 0 0 1 -1 .997z"/><path d="m107.881 123.651a1 1 0 0 1 -1-1v-8.951a1 1 0 0 1 2 0v8.954a1 1 0 0 1 -1 .997z"/><path d="m102.764 123.651a1 1 0 0 1 -1-1v-8.951a1 1 0 0 1 2 0v8.954a1 1 0 0 1 -1 .997z"/><path d="m97.646 123.651a1 1 0 0 1 -1-1v-8.951a1 1 0 0 1 2 0v8.954a1 1 0 0 1 -1 .997z"/><path d="m92.529 123.651a1 1 0 0 1 -1-1v-8.951a1 1 0 0 1 2 0v8.954a1 1 0 0 1 -1 .997z"/><path d="m87.412 123.651a1 1 0 0 1 -1-1v-8.951a1 1 0 0 1 2 0v8.954a1 1 0 0 1 -1 .997z"/><path d="m82.3 123.651a1 1 0 0 1 -1-1v-8.951a1 1 0 0 1 2 0v8.954a1 1 0 0 1 -1 .997z"/><path d="m92.911 19.111a1 1 0 0 1 -1-1v-13.111a1 1 0 0 1 2 0v13.111a1 1 0 0 1 -1 1z"/><path d="m88.6 19.111a1 1 0 0 1 -1-1v-13.111a1 1 0 0 1 2 0v13.111a1 1 0 0 1 -1 1z"/><path d="m84.283 19.111a1 1 0 0 1 -1-1v-13.111a1 1 0 0 1 2 0v13.111a1 1 0 0 1 -1 1z"/><path d="m79.97 19.111a1 1 0 0 1 -1-1v-13.111a1 1 0 0 1 2 0v13.111a1 1 0 0 1 -1 1z"/><path d="m75.656 19.111a1 1 0 0 1 -1-1v-13.111a1 1 0 0 1 2 0v13.111a1 1 0 0 1 -1 1z"/><path d="m52.342 19.111a1 1 0 0 1 -1-1v-13.111a1 1 0 1 1 2 0v13.111a1 1 0 0 1 -1 1z"/><path d="m48.028 19.111a1 1 0 0 1 -1-1v-13.111a1 1 0 1 1 2 0v13.111a1 1 0 0 1 -1 1z"/><path d="m43.715 19.111a1 1 0 0 1 -1-1v-13.111a1 1 0 1 1 2 0v13.111a1 1 0 0 1 -1 1z"/><path d="m39.4 19.111a1 1 0 0 1 -1-1v-13.111a1 1 0 1 1 2 0v13.111a1 1 0 0 1 -1 1z"/><path d="m35.088 19.111a1 1 0 0 1 -1-1v-13.111a1 1 0 1 1 2 0v13.111a1 1 0 0 1 -1 1z"/><path d="m45.7 123.651a1 1 0 0 1 -1-1v-8.951a1 1 0 0 1 2 0v8.954a1 1 0 0 1 -1 .997z"/><path d="m40.586 123.651a1 1 0 0 1 -1-1v-8.951a1 1 0 0 1 2 0v8.954a1 1 0 0 1 -1 .997z"/><path d="m35.469 123.651a1 1 0 0 1 -1-1v-8.951a1 1 0 0 1 2 0v8.954a1 1 0 0 1 -1 .997z"/><path d="m30.352 123.651a1 1 0 0 1 -1-1v-8.951a1 1 0 0 1 2 0v8.954a1 1 0 0 1 -1 .997z"/><path d="m25.234 123.651a1 1 0 0 1 -1-1v-8.951a1 1 0 0 1 2 0v8.954a1 1 0 0 1 -1 .997z"/><path d="m20.118 123.651a1 1 0 0 1 -1-1v-8.951a1 1 0 0 1 2 0v8.954a1 1 0 0 1 -1 .997z"/><path d="m15 123.651a1 1 0 0 1 -1-1v-8.951a1 1 0 0 1 2 0v8.954a1 1 0 0 1 -1 .997z"/></g><circle cx="64" cy="47.802" fill="#8ccfb5" r="12.347"/><path d="m76.35 47.8a12.345 12.345 0 0 1 -22.73 6.68 12.187 12.187 0 0 0 6.45 1.82 12.351 12.351 0 0 0 12.35-12.35 12.211 12.211 0 0 0 -1.97-6.68 12.341 12.341 0 0 1 5.9 10.53z" fill="#83bfac"/><path d="m64 60.9a13.348 13.348 0 1 1 13.348-13.343 13.362 13.362 0 0 1 -13.348 13.343zm0-24.695a11.348 11.348 0 1 0 11.348 11.352 11.361 11.361 0 0 0 -11.348-11.348z" fill="#2f3a5a"/></svg>