<svg id="icon" height="512" viewBox="0 0 128 128" width="512" xmlns="http://www.w3.org/2000/svg"><path d="m71.4 79.061c-3.74-4.187-9.151-4.187-12.892 0l-2.028-3.319c4.917-5.506 12.032-5.506 16.949 0q-1.013 1.658-2.029 3.319z" fill="#9297ab"/><path d="m71.4 80.062a1 1 0 0 1 -.746-.334 7.19 7.19 0 0 0 -11.4 0 1 1 0 0 1 -1.6-.145l-2.029-3.319a1 1 0 0 1 .107-1.188 11.757 11.757 0 0 1 18.442 0 1 1 0 0 1 .107 1.188l-2.028 3.319a1 1 0 0 1 -.764.475.877.877 0 0 1 -.089.004zm-13.67-4.19.969 1.584a8.986 8.986 0 0 1 12.511 0l.968-1.584a9.636 9.636 0 0 0 -14.448 0z" fill="#2f3a5a"/><path d="m37.331 59.991h55.672v3.956h-55.672z" fill="#9297ab"/><path d="m93 64.947h-55.669a1 1 0 0 1 -1-1v-3.956a1 1 0 0 1 1-1h55.669a1 1 0 0 1 1 1v3.956a1 1 0 0 1 -1 1zm-54.672-2h53.672v-1.956h-53.669z" fill="#2f3a5a"/><path d="m123.053 81.1-6.062-2.426c4.135-6.171 5.171-24.386-.291-33.9-3.126-5.445-10.2-8.668-16.879-9.44a29.248 29.248 0 0 0 -3.348-.186c-4.989 0-10.069 1.151-15.392 2.357-5.634 1.274-11.445 2.595-17.53 2.595q-.812 0-1.631-.033a71.538 71.538 0 0 1 -11.267-1.619 79.542 79.542 0 0 0 -8.2-1.346c-1.079-.1-2.163-.148-3.244-.148-11.2 0-22.2 5.226-26.988 13.108-5.25 8.638-7.377 19.683 1.579 26.257l-4.7 3.826c-11.027-8.094-9.521-21.691-3.054-32.33 5.9-9.7 19.435-16.137 33.226-16.137q2 0 3.993.182a87.162 87.162 0 0 1 9.094 1.477 64.168 64.168 0 0 0 9.914 1.463q.645.025 1.289.026c5.093 0 10.208-1.16 15.6-2.382 5.594-1.268 11.343-2.571 17.319-2.571a37.871 37.871 0 0 1 4.35.245c8.835 1.021 17.586 5.118 21.8 12.043 6.537 10.739 4.944 32.187.422 38.939z" fill="#e1e6e9"/><path d="m123.053 82.1a1 1 0 0 1 -.371-.072l-6.062-2.428a1 1 0 0 1 -.46-1.486c3.759-5.61 5.161-23.284-.327-32.847-2.645-4.607-8.976-8.118-16.127-8.945a28.4 28.4 0 0 0 -3.233-.179c-4.874 0-9.872 1.132-15.164 2.331-6.2 1.405-12.62 2.857-19.429 2.587a72.264 72.264 0 0 1 -11.422-1.637 78.564 78.564 0 0 0 -8.094-1.324c-1.038-.095-2.1-.144-3.151-.144-11.041 0-21.544 5.074-26.135 12.627-2.363 3.888-9.253 17.178 1.315 24.936a1 1 0 0 1 .039 1.581l-4.7 3.826a1 1 0 0 1 -1.222.03c-12.135-8.911-9.372-23.701-3.319-33.656 6.042-9.94 19.738-16.618 34.081-16.618 1.367 0 2.741.063 4.085.187a88.026 88.026 0 0 1 9.2 1.491 63.579 63.579 0 0 0 9.759 1.44c5.374.2 10.833-1.018 16.627-2.332 5.634-1.277 11.455-2.6 17.54-2.6a39.018 39.018 0 0 1 4.464.252c10.052 1.161 18.478 5.84 22.539 12.516 6.678 10.976 5.121 32.972.4 40.018a1 1 0 0 1 -.833.446zm-4.606-3.919 4.194 1.676c4.013-7.181 5.144-27.3-.867-37.18-3.743-6.153-11.616-10.478-21.059-11.569a37.068 37.068 0 0 0 -4.235-.238c-5.862 0-11.571 1.294-17.092 2.545-5.929 1.344-11.5 2.607-17.154 2.381a64.8 64.8 0 0 1 -10.05-1.472 86.656 86.656 0 0 0 -9.01-1.466c-1.284-.118-2.6-.178-3.9-.178-13.674-.002-26.681 6.29-32.374 15.655-5.507 9.065-8.15 22.382 2.18 30.538l3.12-2.542c-7.095-6.017-7.437-15.925-.833-26.792 4.943-8.127 16.133-13.588 27.846-13.588 1.113 0 2.235.051 3.335.153a80.053 80.053 0 0 1 8.284 1.357 70.888 70.888 0 0 0 11.128 1.6c6.559.264 12.832-1.163 18.9-2.537 5.414-1.227 10.518-2.383 15.616-2.383a30.136 30.136 0 0 1 3.463.193c6.175.713 14.05 3.7 17.631 9.935 5.257 9.168 4.866 26.408.877 33.91z" fill="#2f3a5a"/><path d="m13.5 74.806h-2.558a4.255 4.255 0 0 0 -4.256 4.255 4.255 4.255 0 0 0 4.256 4.256h2.558a4.256 4.256 0 0 0 4.256-4.256 4.256 4.256 0 0 0 -4.256-4.255z" fill="#84879c"/><path d="m13.5 84.317h-2.56a5.256 5.256 0 0 1 0-10.511h2.56a5.256 5.256 0 1 1 0 10.511zm-2.56-8.511a3.256 3.256 0 0 0 0 6.511h2.56a3.256 3.256 0 1 0 0-6.511z" fill="#2f3a5a"/><path d="m119.392 74.806h-2.559a4.256 4.256 0 0 0 -4.256 4.255 4.256 4.256 0 0 0 4.256 4.256h2.559a4.255 4.255 0 0 0 4.256-4.256 4.255 4.255 0 0 0 -4.256-4.255z" fill="#84879c"/><path d="m119.393 84.317h-2.56a5.256 5.256 0 1 1 0-10.511h2.56a5.256 5.256 0 0 1 0 10.511zm-2.56-8.511a3.256 3.256 0 1 0 0 6.511h2.56a3.256 3.256 0 0 0 0-6.511z" fill="#2f3a5a"/><ellipse cx="93.003" cy="79.061" fill="#9297ab" rx="23.53" ry="19.07"/><path d="m93 99.132c-13.526 0-24.53-9-24.53-20.07s11-20.071 24.53-20.071 24.53 9 24.53 20.071-11.001 20.07-24.53 20.07zm0-38.141c-12.423 0-22.53 8.107-22.53 18.071s10.11 18.07 22.53 18.07 22.53-8.107 22.53-18.07-10.104-18.071-22.53-18.071z" fill="#2f3a5a"/><path d="m112.58 79.056c0 8.34-8.78 15.12-19.58 15.12a24.093 24.093 0 0 1 -4.7-.45 22.2 22.2 0 0 1 -6.06-2.05 18.622 18.622 0 0 1 -2.79-1.72 16.389 16.389 0 0 1 -2.31-2.06 12.841 12.841 0 0 1 -3.71-8.84c0-8.33 8.78-15.11 19.57-15.11a25.625 25.625 0 0 1 2.93.17 22.336 22.336 0 0 1 3.41.65 21.328 21.328 0 0 1 3.27 1.12 19.735 19.735 0 0 1 5.13 3.24 13.3 13.3 0 0 1 4.84 9.93z" fill="#8ae0a1"/><ellipse cx="37.331" cy="79.061" fill="#9297ab" rx="23.53" ry="19.07"/><path d="m37.331 99.132c-13.526 0-24.53-9-24.53-20.07s11-20.071 24.53-20.071 24.529 9.009 24.529 20.071-11.004 20.07-24.529 20.07zm0-38.141c-12.423 0-22.53 8.107-22.53 18.071s10.107 18.07 22.53 18.07 22.529-8.107 22.529-18.07-10.106-18.071-22.529-18.071z" fill="#2f3a5a"/><path d="m56.9 79.06c0 8.34-8.78 15.12-19.57 15.12a24.56 24.56 0 0 1 -4.59-.43 22.429 22.429 0 0 1 -6.08-2.03 19.493 19.493 0 0 1 -2.8-1.7 16.418 16.418 0 0 1 -2.32-2.05 12.885 12.885 0 0 1 -3.78-8.91c0-8.33 8.78-15.11 19.57-15.11a25.328 25.328 0 0 1 3.04.18 23.119 23.119 0 0 1 3.41.67 21.012 21.012 0 0 1 3.24 1.14 19.308 19.308 0 0 1 5.12 3.26 13.278 13.278 0 0 1 4.76 9.86z" fill="#8ae0a1"/><g fill="#fff" opacity=".25"><path d="m43.78 64.8-19.92 25.22a16.418 16.418 0 0 1 -2.32-2.05l18.83-23.84a23.119 23.119 0 0 1 3.41.67z"/><path d="m52.14 69.2-19.4 24.55a22.429 22.429 0 0 1 -6.08-2.03l20.36-25.78a19.308 19.308 0 0 1 5.12 3.26z"/></g><g fill="#fff" opacity=".25"><path d="m99.34 64.77-19.89 25.19a16.389 16.389 0 0 1 -2.31-2.06l18.79-23.78a22.336 22.336 0 0 1 3.41.65z"/><path d="m107.74 69.13-19.44 24.6a22.2 22.2 0 0 1 -6.06-2.05l20.37-25.79a19.735 19.735 0 0 1 5.13 3.24z"/></g><g fill="#2f3a5a"><path d="m93 95.175c-11.345 0-20.574-7.229-20.574-16.113s9.232-16.115 20.574-16.115 20.574 7.229 20.574 16.115-9.226 16.113-20.574 16.113zm0-30.228c-10.242 0-18.574 6.332-18.574 14.115s8.335 14.113 18.574 14.113 18.574-6.331 18.574-14.113-8.329-14.115-18.574-14.115z"/><path d="m37.331 95.175c-11.345 0-20.574-7.229-20.574-16.113s9.229-16.115 20.574-16.115 20.569 7.229 20.569 16.115-9.225 16.113-20.569 16.113zm0-30.228c-10.242 0-18.574 6.332-18.574 14.115s8.332 14.113 18.574 14.113 18.569-6.331 18.569-14.113-8.328-14.115-18.569-14.115z"/></g></svg>