<svg id="icon" height="512" viewBox="0 0 128 128" width="512" xmlns="http://www.w3.org/2000/svg"><path d="m50.386 91.651h-17.542v-81.147l17.542-5.858z" fill="#d0aa79"/><path d="m50.391 4.647v87.002h-17.547v-8.041h12.86v-77.394z" fill="#bf9a71"/><path d="m72.598 91.651h-17.542v-87.722l8.771-2.929 8.771 2.929z" fill="#d0aa79"/><path d="m72.596 3.929v87.72h-17.547v-8.466h12.127v-81.07z" fill="#bf9a71"/><path d="m95.156 91.651h-17.542v-87.005l17.542 5.858z" fill="#d0aa79"/><path d="m95.152 10.506v81.143h-17.532v-7.455h12.523v-75.358z" fill="#bf9a71"/><g fill="#2f3a5a"><path d="m50.387 92.651h-17.543a1 1 0 0 1 -1-1v-81.151a1 1 0 0 1 .683-.948l17.543-5.852a1 1 0 0 1 1.317.949v87.002a1 1 0 0 1 -1 1zm-16.543-2h15.543v-84.617l-15.543 5.191z"/><path d="m72.6 92.651h-17.544a1 1 0 0 1 -1-1v-87.722a1 1 0 0 1 .683-.949l8.772-2.929a1.008 1.008 0 0 1 .633 0l8.771 2.929a1 1 0 0 1 .684.949v87.722a1 1 0 0 1 -.999 1zm-16.543-2h15.543v-86l-7.773-2.597-7.771 2.6z"/><path d="m95.156 92.651h-17.543a1 1 0 0 1 -1-1v-87a1 1 0 0 1 1.317-.951l17.543 5.856a1 1 0 0 1 .683.948v81.147a1 1 0 0 1 -1 1zm-16.543-2h15.543v-79.426l-15.543-5.191z"/></g><path d="m24.373 88.69h82.222v9.194h-82.222z" fill="#d0aa79"/><path d="m106.6 98.885h-82.227a1 1 0 0 1 -1-1v-9.2a1 1 0 0 1 1-1h82.227a1 1 0 0 1 1 1v9.2a1 1 0 0 1 -1 1zm-81.222-2h80.222v-7.2h-80.227z" fill="#2f3a5a"/><path d="m100.216 69.591h9.102v57.409h-9.102z" fill="#d0aa79"/><path d="m109.318 128h-9.1a1 1 0 0 1 -1-1v-57.409a1 1 0 0 1 1-1h9.1a1 1 0 0 1 1 1v57.409a1 1 0 0 1 -1 1zm-8.1-2h7.1v-55.409h-7.1z" fill="#2f3a5a"/><path d="m88.769 64.96h31.223v9.263h-31.223z" fill="#d0aa79"/><path d="m119.992 75.223h-31.222a1 1 0 0 1 -1-1v-9.264a1 1 0 0 1 1-1h31.222a1 1 0 0 1 1 1v9.264a1 1 0 0 1 -1 1zm-30.222-2h29.222v-7.264h-29.222z" fill="#2f3a5a"/><path d="m19.456 69.591h9.102v57.409h-9.102z" fill="#d0aa79"/><path d="m28.558 128h-9.1a1 1 0 0 1 -1-1v-57.409a1 1 0 0 1 1-1h9.1a1 1 0 0 1 1 1v57.409a1 1 0 0 1 -1 1zm-8.1-2h7.1v-55.409h-7.1z" fill="#2f3a5a"/><path d="m8.008 64.96h31.223v9.263h-31.223z" fill="#d0aa79"/><path d="m39.23 75.223h-31.222a1 1 0 0 1 -1-1v-9.264a1 1 0 0 1 1-1h31.222a1 1 0 0 1 1 1v9.264a1 1 0 0 1 -1 1zm-30.222-2h29.222v-7.264h-29.222z" fill="#2f3a5a"/></svg>