<svg id="icon" height="512" viewBox="0 0 128 128" width="512" xmlns="http://www.w3.org/2000/svg"><path d="m64 118.337a1 1 0 0 1 -1-1v-116.337a1 1 0 0 1 2 0v116.337a1 1 0 0 1 -1 1z" fill="#2f3a5a"/><path d="m117.609 41.018c-5.534-20.231-27.449-35.347-53.668-35.347s-48.134 15.116-53.668 35.347z" fill="#477ea8"/><path d="m109.811 35.843c-4.723-17.269-23.43-30.172-45.811-30.172s-41.088 12.9-45.811 30.172z" fill="#4fa4d1"/><path d="m117.667 42.018h-107.334a1 1 0 0 1 -.965-1.264c5.811-21.245 28.276-36.083 54.632-36.083s48.821 14.838 54.632 36.083a1 1 0 0 1 -.965 1.264zm-106-2h104.666c-6.053-19.4-27.809-33.347-52.333-33.347s-46.28 13.947-52.333 33.347z" fill="#2f3a5a"/><path d="m87.192 41.018c-2.392-20.231-11.862-35.347-23.192-35.347s-20.8 15.116-23.192 35.347z" fill="#f7b521"/><path d="m84.085 36.282c-2.071-17.52-10.272-30.611-20.085-30.611s-18.014 13.091-20.085 30.611z" fill="#ffc943"/><path d="m87.191 42.018h-46.382a1 1 0 0 1 -.994-1.118c2.522-21.331 12.467-36.229 24.185-36.229s21.663 14.898 24.185 36.229a1 1 0 0 1 -.994 1.118zm-45.249-2h44.116c-2.57-19.392-11.752-33.347-22.058-33.347s-19.488 13.955-22.058 33.347z" fill="#2f3a5a"/><path d="m10.332 41.018v3.206c0 2.438 2.4 4.414 5.356 4.414h19.764c2.958 0 5.356-1.976 5.356-4.414v-3.206z" fill="#477ea8"/><path d="m35.452 49.638h-19.764c-3.5 0-6.355-2.429-6.355-5.414v-3.206a1 1 0 0 1 1-1h30.475a1 1 0 0 1 1 1v3.206c0 2.985-2.851 5.414-6.356 5.414zm-24.119-7.62v2.206c0 1.882 1.954 3.414 4.355 3.414h19.764c2.4 0 4.356-1.532 4.356-3.414v-2.206z" fill="#2f3a5a"/><path d="m87.192 41.018v3.206c0 2.438 2.4 4.414 5.356 4.414h19.764c2.958 0 5.356-1.976 5.356-4.414v-3.206z" fill="#477ea8"/><path d="m112.312 49.638h-19.764c-3.5 0-6.356-2.429-6.356-5.414v-3.206a1 1 0 0 1 1-1h30.475a1 1 0 0 1 1 1v3.206c0 2.985-2.851 5.414-6.355 5.414zm-24.12-7.62v2.206c0 1.882 1.954 3.414 4.356 3.414h19.764c2.4 0 4.355-1.532 4.355-3.414v-2.206z" fill="#2f3a5a"/><path d="m40.808 41.018v3.206c0 2.438 2.4 4.414 5.356 4.414h35.672c2.958 0 5.356-1.976 5.356-4.414v-3.206z" fill="#f7b521"/><path d="m81.835 49.638h-35.67c-3.505 0-6.357-2.429-6.357-5.414v-3.206a1 1 0 0 1 1-1h46.384a1 1 0 0 1 1 1v3.206c0 2.985-2.852 5.414-6.357 5.414zm-40.027-7.62v2.206c0 1.882 1.954 3.414 4.357 3.414h35.67c2.4 0 4.357-1.532 4.357-3.414v-2.206z" fill="#2f3a5a"/><path d="m55.146 109.041h17.525v13.715h-17.525z" fill="#84879c"/><path d="m72.671 123.756h-17.525a1 1 0 0 1 -1-1v-13.715a1 1 0 0 1 1-1h17.525a1 1 0 0 1 1 1v13.715a1 1 0 0 1 -1 1zm-16.525-2h15.525v-11.715h-15.525z" fill="#2f3a5a"/><path d="m48.133 122.756h31.551v4.244h-31.551z" fill="#84879c"/><path d="m79.684 128h-31.551a1 1 0 0 1 -1-1v-4.244a1 1 0 0 1 1-1h31.551a1 1 0 0 1 1 1v4.244a1 1 0 0 1 -1 1zm-30.551-2h29.551v-2.244h-29.551z" fill="#2f3a5a"/></svg>