<svg id="icon" height="512" viewBox="0 0 128 128" width="512" xmlns="http://www.w3.org/2000/svg"><path d="m105.019 25.422c-1.554-3.126-4.678-5.184-7.9-6.53a22.918 22.918 0 0 0 -12.128-1.784 15.4 15.4 0 0 0 -10.386 6.15 11.661 11.661 0 0 0 -.992 11.767c1.513 2.886 4.286 4.848 6.691 7.048l.071.066a11.12 11.12 0 0 1 2.225 13.427c-.23.426-.469.845-.713 1.257-2.108 3.556-4.663 6.886-6.177 10.733s-1.829 8.478.475 11.911a10.468 10.468 0 0 0 10.8 4 13.871 13.871 0 0 0 9.1-7.553c3.9-7.947.915-17.63 3.262-26.165 1.14-4.147 3.493-7.844 5.117-11.826s2.47-8.65.555-12.501z" fill="#fac77c"/><path d="m84.652 84.719a11.226 11.226 0 0 1 -9.3-4.694c-2.22-3.309-2.434-8.107-.575-12.835a45.143 45.143 0 0 1 4.283-7.739c.658-1.024 1.339-2.084 1.964-3.138q.357-.6.694-1.223a10.078 10.078 0 0 0 -2.018-12.216l-.08-.074c-.5-.461-1.034-.919-1.564-1.378a21.231 21.231 0 0 1 -5.327-5.934 12.721 12.721 0 0 1 1.054-12.8 16.3 16.3 0 0 1 11.06-6.57 23.886 23.886 0 0 1 12.662 1.852c4.125 1.723 6.954 4.081 8.41 7.007 2.227 4.48.944 9.716-.525 13.32-.626 1.536-1.363 3.038-2.075 4.491a41.661 41.661 0 0 0 -3 7.223c-.99 3.6-1 7.528-1.007 11.33-.012 5.076-.023 10.325-2.322 15.011a14.818 14.818 0 0 1 -9.786 8.089 11.691 11.691 0 0 1 -2.548.278zm3.148-66.819a17.858 17.858 0 0 0 -2.657.2 14.291 14.291 0 0 0 -9.713 5.729 10.676 10.676 0 0 0 -.93 10.732 19.463 19.463 0 0 0 4.864 5.35c.545.471 1.089.942 1.615 1.423l.082.075a12.073 12.073 0 0 1 2.414 14.633c-.236.437-.481.866-.731 1.29-.645 1.087-1.336 2.161-2 3.2a42.908 42.908 0 0 0 -4.1 7.391c-1.62 4.116-1.48 8.223.374 10.988a9.4 9.4 0 0 0 9.752 3.577 12.8 12.8 0 0 0 8.425-7.017c2.095-4.272 2.105-9.063 2.117-14.135.009-3.934.018-8 1.078-11.856a43.834 43.834 0 0 1 3.137-7.572c.7-1.423 1.418-2.893 2.018-4.366 1.313-3.222 2.481-7.863.586-11.675-1.235-2.483-3.721-4.519-7.39-6.052a23.333 23.333 0 0 0 -8.941-1.915z" fill="#2f3a5a"/><path d="m67.524 3.087c-3.316.748-5.244 4.718-4.308 8.865s4.383 6.9 7.7 6.155 5.244-4.717 4.308-8.865-4.385-6.904-7.7-6.155z" fill="#fac77c"/><path d="m69.827 19.229c-3.407 0-6.649-2.908-7.586-7.057a9.717 9.717 0 0 1 .635-6.364 6.549 6.549 0 0 1 4.428-3.7 6.546 6.546 0 0 1 5.586 1.439 9.719 9.719 0 0 1 3.31 5.475c1.056 4.678-1.215 9.192-5.063 10.061a5.946 5.946 0 0 1 -1.31.146zm-1.2-15.265a3.98 3.98 0 0 0 -.881.1 4.586 4.586 0 0 0 -3.069 2.619 7.711 7.711 0 0 0 -.483 5.049c.813 3.605 3.735 6.026 6.5 5.4s4.366-4.067 3.552-7.669a7.721 7.721 0 0 0 -2.606-4.354 4.846 4.846 0 0 0 -3.015-1.145z" fill="#2f3a5a"/><path d="m81.46 1.038c-1.979.346-3.173 2.977-2.666 5.877s2.522 4.97 4.5 4.624 3.172-2.977 2.665-5.877-2.52-4.97-4.499-4.624z" fill="#fac77c"/><path d="m82.848 12.578c-2.332 0-4.477-2.277-5.039-5.491a7.736 7.736 0 0 1 .475-4.482 4.133 4.133 0 0 1 3-2.552 4.127 4.127 0 0 1 3.691 1.382 7.738 7.738 0 0 1 1.971 4.055 7.745 7.745 0 0 1 -.474 4.482 4.134 4.134 0 0 1 -3 2.552 3.515 3.515 0 0 1 -.624.054zm-.948-10.578a1.526 1.526 0 0 0 -.266.023 2.292 2.292 0 0 0 -1.527 1.409 5.814 5.814 0 0 0 -.326 3.311c.4 2.312 1.931 4.062 3.345 3.811a2.294 2.294 0 0 0 1.524-1.408 5.827 5.827 0 0 0 .327-3.312 5.819 5.819 0 0 0 -1.431-3 2.469 2.469 0 0 0 -1.646-.834z" fill="#2f3a5a"/><path d="m93.737 3.275c-1.51-.429-3.243 1.017-3.871 3.229s.086 4.352 1.595 4.781 3.243-1.017 3.871-3.228-.086-4.357-1.595-4.782z" fill="#fac77c"/><path d="m92.015 12.362a3.012 3.012 0 0 1 -.827-.115 3.485 3.485 0 0 1 -2.275-2.368 6.264 6.264 0 0 1 -.013-3.649c.79-2.785 3.032-4.511 5.106-3.917a3.485 3.485 0 0 1 2.275 2.368 6.264 6.264 0 0 1 .009 3.649c-.682 2.417-2.462 4.032-4.275 4.032zm1.185-8.162c-.825 0-1.916.959-2.375 2.575a4.306 4.306 0 0 0 -.017 2.469 1.578 1.578 0 0 0 .923 1.077c.838.235 2.127-.746 2.637-2.54a4.318 4.318 0 0 0 .017-2.47 1.585 1.585 0 0 0 -.924-1.076.979.979 0 0 0 -.261-.035z" fill="#2f3a5a"/><path d="m101.671 7.664c-1.22-.347-2.621.822-3.129 2.609s.069 3.518 1.29 3.864 2.62-.821 3.128-2.609-.069-3.517-1.289-3.864z" fill="#fac77c"/><path d="m100.277 15.2a2.6 2.6 0 0 1 -.718-.1 3.008 3.008 0 0 1 -1.969-2.037 5.265 5.265 0 0 1 -.01-3.063 5.261 5.261 0 0 1 1.62-2.6 3 3 0 0 1 2.745-.7 3.009 3.009 0 0 1 1.968 2.037 5.265 5.265 0 0 1 .01 3.063c-.58 2.04-2.096 3.4-3.646 3.4zm.955-6.6a1.308 1.308 0 0 0 -.753.333 3.288 3.288 0 0 0 -.975 1.61 3.3 3.3 0 0 0 -.017 1.883c.064.189.25.641.618.746.587.168 1.523-.62 1.893-1.921a3.3 3.3 0 0 0 .017-1.883c-.064-.189-.25-.642-.618-.746a.585.585 0 0 0 -.165-.022z" fill="#2f3a5a"/><path d="m108.17 14.154c-.966-.274-2.076.651-2.478 2.067s.055 2.787 1.021 3.061 2.077-.65 2.479-2.066-.055-2.787-1.022-3.062z" fill="#fac77c"/><path d="m107.066 20.331a2.284 2.284 0 0 1 -.626-.087 2.584 2.584 0 0 1 -1.7-1.747 4.376 4.376 0 0 1 -.011-2.549c.562-1.976 2.191-3.184 3.713-2.756a2.585 2.585 0 0 1 1.7 1.748 4.376 4.376 0 0 1 .011 2.549 3.54 3.54 0 0 1 -3.087 2.842zm.754-5.225c-.334 0-.913.5-1.166 1.389a2.4 2.4 0 0 0 -.016 1.368.665.665 0 0 0 .348.457c.315.092.97-.415 1.244-1.378a2.4 2.4 0 0 0 .016-1.369.668.668 0 0 0 -.349-.457.266.266 0 0 0 -.077-.01z" fill="#2f3a5a"/><path d="m22.981 68.707c1.554-3.126 4.678-5.183 7.9-6.53a22.918 22.918 0 0 1 12.128-1.784 15.4 15.4 0 0 1 10.386 6.15 11.661 11.661 0 0 1 .992 11.767c-1.514 2.89-4.287 4.848-6.687 7.048l-.071.066a11.121 11.121 0 0 0 -2.229 13.428c.23.425.469.844.713 1.256 2.108 3.556 4.663 6.886 6.177 10.733s1.829 8.478-.475 11.911a10.47 10.47 0 0 1 -10.8 4 13.875 13.875 0 0 1 -9.105-7.554c-3.9-7.947-.915-17.63-3.262-26.165-1.14-4.147-3.493-7.844-5.117-11.826s-2.465-8.649-.55-12.5z" fill="#fac77c"/><path d="m43.349 128a11.762 11.762 0 0 1 -2.546-.278 14.815 14.815 0 0 1 -9.786-8.089c-2.3-4.686-2.31-9.935-2.322-15.011-.008-3.8-.017-7.733-1.007-11.329a41.638 41.638 0 0 0 -3-7.224c-.712-1.453-1.449-2.955-2.075-4.49-1.469-3.6-2.752-8.841-.525-13.321 1.455-2.925 4.284-5.283 8.41-7.008a23.934 23.934 0 0 1 12.659-1.85 16.3 16.3 0 0 1 11.059 6.571 12.719 12.719 0 0 1 1.055 12.8 21.221 21.221 0 0 1 -5.327 5.935c-.53.459-1.061.917-1.574 1.387a10.1 10.1 0 0 0 -2.086 12.28q.336.619.694 1.224c.625 1.052 1.306 2.112 1.964 3.136a45.115 45.115 0 0 1 4.283 7.74c1.859 4.727 1.645 9.527-.575 12.837a11.227 11.227 0 0 1 -9.301 4.69zm-3.144-66.812a23.331 23.331 0 0 0 -8.939 1.912c-3.669 1.534-6.155 3.57-7.39 6.052-1.895 3.812-.727 8.453.586 11.676.6 1.472 1.321 2.943 2.018 4.365a43.822 43.822 0 0 1 3.137 7.574c1.06 3.853 1.069 7.921 1.078 11.854.012 5.072.022 9.863 2.118 14.135a12.8 12.8 0 0 0 8.424 7.016 9.4 9.4 0 0 0 9.752-3.577c1.854-2.763 1.994-6.871.374-10.987a42.908 42.908 0 0 0 -4.1-7.391c-.668-1.039-1.359-2.113-2-3.2q-.377-.637-.732-1.29a12.076 12.076 0 0 1 2.421-14.64l.075-.069c.526-.481 1.07-.952 1.615-1.423a19.463 19.463 0 0 0 4.864-5.35 10.676 10.676 0 0 0 -.929-10.735 14.289 14.289 0 0 0 -9.712-5.729 17.819 17.819 0 0 0 -2.66-.193z" fill="#2f3a5a"/><path d="m60.476 46.372c3.316.748 5.244 4.718 4.308 8.865s-4.383 6.9-7.7 6.155-5.244-4.717-4.308-8.865 4.385-6.904 7.7-6.155z" fill="#fac77c"/><path d="m58.173 62.514a5.893 5.893 0 0 1 -1.308-.146c-3.848-.869-6.119-5.383-5.063-10.061a9.719 9.719 0 0 1 3.308-5.475 6.323 6.323 0 0 1 10.014 2.261 9.719 9.719 0 0 1 .635 6.365c-.937 4.148-4.18 7.056-7.586 7.056zm1.2-15.265a4.847 4.847 0 0 0 -3.014 1.151 7.716 7.716 0 0 0 -2.606 4.352c-.814 3.6.78 7.044 3.552 7.67s5.69-1.8 6.5-5.4a7.714 7.714 0 0 0 -.483-5.05 4.589 4.589 0 0 0 -3.069-2.619 3.98 3.98 0 0 0 -.878-.104z" fill="#2f3a5a"/><path d="m46.54 44.323c1.979.346 3.173 2.977 2.666 5.877s-2.522 4.97-4.5 4.624-3.172-2.977-2.665-5.877 2.52-4.97 4.499-4.624z" fill="#fac77c"/><path d="m45.152 55.863a3.6 3.6 0 0 1 -.619-.053 4.138 4.138 0 0 1 -3.005-2.553 8.2 8.2 0 0 1 1.493-8.537 4.136 4.136 0 0 1 3.691-1.382 4.133 4.133 0 0 1 3 2.553 7.732 7.732 0 0 1 .475 4.481c-.558 3.214-2.703 5.491-5.035 5.491zm.95-10.578a2.469 2.469 0 0 0 -1.648.83 6.2 6.2 0 0 0 -1.1 6.316 2.291 2.291 0 0 0 1.526 1.408c1.408.248 2.94-1.5 3.345-3.811a5.813 5.813 0 0 0 -.326-3.311 2.289 2.289 0 0 0 -1.527-1.408 1.529 1.529 0 0 0 -.272-.024z" fill="#2f3a5a"/><path d="m34.263 46.56c1.51-.429 3.243 1.017 3.871 3.229s-.086 4.352-1.595 4.781-3.243-1.016-3.871-3.228.086-4.353 1.595-4.782z" fill="#fac77c"/><path d="m35.985 55.647c-1.813 0-3.593-1.615-4.279-4.032a6.264 6.264 0 0 1 .009-3.649 3.484 3.484 0 0 1 2.275-2.366c2.071-.591 4.315 1.132 5.106 3.916s-.212 5.427-2.283 6.017a3.019 3.019 0 0 1 -.828.114zm-1.185-8.16a.979.979 0 0 0 -.261.035 1.584 1.584 0 0 0 -.924 1.077 4.314 4.314 0 0 0 .017 2.469c.51 1.794 1.808 2.777 2.636 2.54s1.417-1.754.907-3.546c-.462-1.616-1.553-2.575-2.375-2.575z" fill="#2f3a5a"/><path d="m26.329 50.949c1.22-.346 2.621.822 3.129 2.609s-.069 3.518-1.29 3.864-2.62-.821-3.128-2.609.069-3.513 1.289-3.864z" fill="#fac77c"/><path d="m27.734 58.481a3.207 3.207 0 0 1 -2.037-.8 5.537 5.537 0 0 1 -1.609-5.662 2.821 2.821 0 0 1 4.712-1.333 5.536 5.536 0 0 1 1.609 5.661 3.007 3.007 0 0 1 -1.968 2.037 2.606 2.606 0 0 1 -.707.097zm-.966-6.592a.624.624 0 0 0 -.165.022c-.368.1-.554.557-.618.746a3.553 3.553 0 0 0 .993 3.492 1.121 1.121 0 0 0 .917.311c.368-.105.554-.557.618-.746a3.557 3.557 0 0 0 -.992-3.492 1.308 1.308 0 0 0 -.753-.333z" fill="#2f3a5a"/><path d="m19.83 57.439c.966-.274 2.076.651 2.478 2.067s-.055 2.787-1.021 3.062-2.077-.651-2.479-2.067.055-2.787 1.022-3.062z" fill="#fac77c"/><path d="m20.934 63.616a3.54 3.54 0 0 1 -3.088-2.842 4.372 4.372 0 0 1 .011-2.548 2.581 2.581 0 0 1 1.7-1.748c1.518-.428 3.152.778 3.713 2.754a4.375 4.375 0 0 1 -.011 2.549 2.582 2.582 0 0 1 -1.7 1.748 2.284 2.284 0 0 1 -.625.087zm-.834-5.216a.668.668 0 0 0 -.349.457 2.4 2.4 0 0 0 .016 1.37c.273.961.93 1.467 1.244 1.377a.665.665 0 0 0 .348-.457 2.4 2.4 0 0 0 -.016-1.369c-.273-.962-.924-1.465-1.243-1.378z" fill="#2f3a5a"/></svg>