<svg id="icon" height="512" viewBox="0 0 128 128" width="512" xmlns="http://www.w3.org/2000/svg"><path d="m127 13.405h-92.5v72.446a29.185 29.185 0 0 0 -10.579-1.927c-12.108 0-21.923 6.94-21.923 15.5s9.815 15.5 21.923 15.5c11.793 0 21.384-6.588 21.876-14.84l.083-64.242h69.71v50a29.2 29.2 0 0 0 -10.547-1.913c-12.108 0-21.923 6.94-21.923 15.5s9.815 15.5 21.923 15.5c11.792 0 21.383-6.588 21.876-14.84h.052z" fill="#ef5361"/><path d="m115.968 35.837h-70.088l-.08 64.25c-.5 8.253-10.095 14.839-21.883 14.839-8.522 0-15.9-3.441-19.517-8.454a28.005 28.005 0 0 0 13.2 3.128c11.788 0 21.385-6.586 21.869-14.839l.094-64.236h76.405z" fill="#da2a47"/><path d="m127 13.4-.027 86.683h-.054c-.5 8.253-10.081 14.839-21.869 14.839-8.522 0-15.887-3.427-19.517-8.441a28.141 28.141 0 0 0 13.185 3.119c11.8 0 21.385-6.586 21.883-14.839h.054l.026-81.36z" fill="#da2a47"/><path d="m104.049 115.593c-12.64 0-22.924-7.4-22.924-16.5s10.284-16.5 22.924-16.5a30.808 30.808 0 0 1 9.547 1.493v-47.575h-67.716l-.08 63.243c-.53 8.907-10.578 15.839-22.876 15.839-12.64 0-22.923-7.4-22.923-16.5s10.283-16.5 22.923-16.5a30.766 30.766 0 0 1 9.576 1.507v-71.026a1 1 0 0 1 1-1h92.5a1 1 0 0 1 1 1l-.029 86.679a.994.994 0 0 1 -.078.387c-.747 8.692-10.693 15.453-22.844 15.453zm0-31c-11.537 0-20.924 6.5-20.924 14.5s9.387 14.5 20.924 14.5c11.242 0 20.412-6.106 20.878-13.9a.967.967 0 0 1 .05-.258l.028-85.361h-90.505v71.446a1 1 0 0 1 -1.364.931 28.337 28.337 0 0 0 -10.215-1.858c-11.535 0-20.921 6.507-20.921 14.5s9.386 14.5 20.923 14.5c11.242 0 20.412-6.106 20.878-13.9l.081-64.183a1 1 0 0 1 1-1h69.718a1 1 0 0 1 1 1v50a1 1 0 0 1 -1.362.932 28.364 28.364 0 0 0 -10.189-1.849z" fill="#2f3a5a"/></svg>