<svg id="icon" height="512" viewBox="0 0 128 128" width="512" xmlns="http://www.w3.org/2000/svg"><path d="m1 52.215 126-49.886-29 113.998z" fill="#dbe2eb"/><path d="m119.91 5.14-25.82 101.49-47.089-31.127v5.41h-2.588l53.587 35.417 29-114z" fill="#bac2d3"/><path d="m98 117.327a1 1 0 0 1 -.552-.166l-97-64.112a1 1 0 0 1 .184-1.764l126-49.886a1 1 0 0 1 1.337 1.176l-29 114a1 1 0 0 1 -.969.754zm-94.849-64.889 94.227 62.279 28.171-110.738z" fill="#2f3a5a"/><path d="m126.443 2.788-95.348 68.881 9.577 54.002 12.936-38.911z" fill="#dbe2eb"/><path d="m40.672 126.671q-.036 0-.072 0a1 1 0 0 1 -.912-.822l-9.577-54a1 1 0 0 1 .4-.986l95.345-68.886a1 1 0 0 1 1.344 1.465l-72.7 83.824-12.873 38.72a1 1 0 0 1 -.955.685zm-8.483-54.559 8.779 49.5 11.691-35.167a1.019 1.019 0 0 1 .194-.34l67.178-77.453z" fill="#2f3a5a"/><path d="m40.672 125.671 27.955-28.936-15.019-9.975z" fill="#dbe2eb"/><path d="m68.63 96.73-27.96 28.94 2.593-7.388 22.527-23.432z" fill="#bac2d3"/><path d="m40.672 126.671a.988.988 0 0 1 -.518-.145 1 1 0 0 1 -.431-1.171l12.936-38.91a1 1 0 0 1 1.5-.517l15.022 9.972a1 1 0 0 1 .165 1.528l-27.955 28.937a1 1 0 0 1 -.719.306zm13.473-38.354-11.137 33.5 24.065-24.917z" fill="#2f3a5a"/></svg>