<svg id="icon" height="512" viewBox="0 0 128 128" width="512" xmlns="http://www.w3.org/2000/svg"><path d="m86.463 23.76c-.293 11.04-10.09 42.728-21.132 42.435s-19.148-32.452-18.856-43.495a20 20 0 0 1 39.988 1.06z" fill="#9bc6f1"/><path d="m85.269 23.761c-.3 10.79-9.64 41.266-20.367 42.4 8-8.592 14.138-30.1 14.366-38.8a20.022 20.022 0 0 0 -19.468-20.531 19.652 19.652 0 0 0 -7.631 1.3 20 20 0 0 1 33.1 15.629z" fill="#7399c7"/><path d="m64.285 67.2h-.18c-6.711-.177-11.64-10.093-14.593-18.38-3.622-10.164-5.376-20.844-5.236-26.14a21 21 0 1 1 41.988 1.111c-.282 10.569-9.785 43.409-21.979 43.409zm.972-62.968a19 19 0 0 0 -18.981 18.5c-.132 4.986 1.617 15.588 5.12 25.416 3.821 10.723 8.473 16.938 12.762 17.051 9.732.245 19.8-30.033 20.106-41.462a19.024 19.024 0 0 0 -18.492-19.5c-.172-.006-.343-.008-.515-.008z" fill="#2f3a5a"/><path d="m28.387 33.926c10.505 3.413 38.109 21.8 34.7 32.3s-36.552 9.154-47.057 5.74a20 20 0 1 1 12.357-38.04z" fill="#9bc6f1"/><path d="m62.108 63.467c-6.8-9.779-24.322-20.785-32.219-23.337a20 20 0 0 0 -25.189 12.837 19.789 19.789 0 0 0 -.4 10.955 20 20 0 0 1 22.894-30c9.631 3.125 33.65 18.856 34.914 29.545z" fill="#7399c7"/><path d="m36.162 75.328c-8.878 0-17.082-1.168-21.3-2.538a21 21 0 1 1 12.981-39.945c5.04 1.637 14.52 6.857 22.89 13.667 6.824 5.552 14.523 13.51 12.449 19.895s-12.982 8.3-21.766 8.781c-1.761.095-3.516.14-5.254.14zm-14.829-41.52a19.006 19.006 0 0 0 -5.852 37.08c4.745 1.542 15.412 2.872 25.826 2.3 11.367-.622 18.646-3.319 19.972-7.4s-2.979-10.54-11.808-17.725c-8.093-6.584-17.5-11.775-22.245-13.316a19.043 19.043 0 0 0 -5.893-.939z" fill="#2f3a5a"/><path d="m20.039 89.163c6.992-8.551 34.139-27.6 42.691-20.611s-4.73 37.382-11.725 45.933a20 20 0 1 1 -30.966-25.322z" fill="#9bc6f1"/><path d="m27.869 118.422a20.159 20.159 0 0 0 6.027 3.4 20 20 0 0 1 -15.061-32.663c6.9-8.415 33.331-27.026 42.289-20.9-11.51 1.264-30.412 15.086-36.085 22.01a20.012 20.012 0 0 0 2.83 28.153z" fill="#7399c7"/><path d="m34.3 122.816a20.99 20.99 0 0 1 -16.236-34.286c6.73-8.23 34.589-28.53 44.099-20.753s-4.854 39.112-11.583 47.341a20.969 20.969 0 0 1 -16.28 7.698zm-14.687-33.016a19 19 0 0 0 29.418 24.057c7.238-8.857 19.421-38.357 11.869-44.531s-34.05 11.621-41.287 20.474z" fill="#2f3a5a"/><path d="m73.746 116.52c-6.493-8.936-18.019-40.035-9.082-46.528s34.951 14.08 41.444 23.016a20 20 0 0 1 -32.362 23.512z" fill="#9bc6f1"/><path d="m108.429 108.074a19.979 19.979 0 0 1 -35.883 8.453c-6.406-8.82-17.7-39.181-9.438-46.244-.7 11.813 7.3 31.877 12.306 38.764a19.986 19.986 0 0 0 33.015-.973z" fill="#7399c7"/><path d="m88.771 125.77a21.3 21.3 0 0 1 -3.329-.263 20.863 20.863 0 0 1 -13.7-8.4c-6.249-8.6-18.8-40.7-8.861-47.924s36.589 14.636 42.836 23.237a21.008 21.008 0 0 1 -16.946 33.35zm-20.98-56.016a6.231 6.231 0 0 0 -3.738 1.046c-3.472 2.522-3.787 10.28-.866 21.283 2.676 10.083 7.237 19.813 10.168 23.849a19 19 0 1 0 30.745-22.332c-5.875-8.09-26.051-23.846-36.309-23.846z" fill="#2f3a5a"/><path d="m113.17 74.953c-10.5 3.413-43.643 4.765-47.057-5.74s24.191-28.89 34.7-32.3a20 20 0 1 1 12.357 38.04z" fill="#9bc6f1"/><path d="m113.167 74.958c-10.5 3.411-43.641 4.763-47.052-5.749a5.621 5.621 0 0 1 -.291-1.706c9.4 6.153 34.809 4.738 43.767 1.819a20 20 0 0 0 12.837-25.193c-.176-.544-.366-1.074-.581-1.592a20 20 0 0 1 -8.68 32.421z" fill="#7399c7"/><path d="m92.182 78.442c-1.735 0-3.494-.045-5.254-.141-8.784-.481-19.692-2.394-21.766-8.78-3.8-11.684 25.229-30.278 35.339-33.563a21 21 0 0 1 12.978 39.942c-4.215 1.373-12.421 2.542-21.297 2.542zm14.828-41.521a19.048 19.048 0 0 0 -5.892.939c-10.872 3.534-37.069 21.761-34.054 31.04 1.327 4.081 8.606 6.779 19.973 7.4 10.414.574 21.079-.76 25.824-2.3a19.009 19.009 0 0 0 -5.851-37.081z" fill="#2f3a5a"/><circle cx="62.881" cy="68.621" fill="#ffc943" r="18.356" transform="matrix(.707 -.707 .707 .707 -30.105 64.562)"/><path d="m81.239 68.615a18.356 18.356 0 0 1 -34.539 8.655 18.36 18.36 0 0 0 27.766-22.882 18.3 18.3 0 0 1 6.773 14.227z" fill="#f7b521"/><path d="m62.881 87.978a19.357 19.357 0 1 1 19.356-19.357 19.38 19.38 0 0 1 -19.356 19.357zm0-36.713a17.357 17.357 0 1 0 17.356 17.356 17.377 17.377 0 0 0 -17.356-17.356z" fill="#2f3a5a"/><g fill="#eda921"><path d="m62.142 57.575h-1.042a1.389 1.389 0 0 1 0-2.777h1.041a1.389 1.389 0 0 1 0 2.777z"/><path d="m71.894 62.122h-1.041a1.388 1.388 0 1 1 0-2.776h1.041a1.388 1.388 0 0 1 0 2.776z"/><path d="m54.461 62.577h-1.041a1.388 1.388 0 0 1 0-2.776h1.041a1.388 1.388 0 1 1 0 2.776z"/><path d="m64.163 64.093h-1.041a1.389 1.389 0 0 1 0-2.777h1.041a1.389 1.389 0 0 1 0 2.777z"/><path d="m73.612 68.287h-1.041a1.389 1.389 0 0 1 0-2.777h1.041a1.389 1.389 0 0 1 0 2.777z"/><path d="m62.041 70.561h-1.041a1.389 1.389 0 0 1 0-2.777h1.041a1.389 1.389 0 0 1 0 2.777z"/><path d="m51.228 69.2h-1.042a1.388 1.388 0 0 1 0-2.776h1.042a1.388 1.388 0 0 1 0 2.776z"/><path d="m54.967 75.614h-1.041a1.389 1.389 0 1 1 0-2.777h1.041a1.389 1.389 0 0 1 0 2.777z"/><path d="m73.764 74.957h-1.041a1.389 1.389 0 0 1 0-2.777h1.041a1.389 1.389 0 0 1 0 2.777z"/><path d="m65.073 76.725h-1.041a1.388 1.388 0 1 1 0-2.776h1.041a1.388 1.388 0 0 1 0 2.776z"/><path d="m69.62 81.425h-1.041a1.389 1.389 0 0 1 0-2.777h1.041a1.389 1.389 0 1 1 0 2.777z"/><path d="m58.5 81.728h-1.037a1.389 1.389 0 0 1 0-2.777h1.037a1.389 1.389 0 0 1 0 2.777z"/></g></svg>