<svg id="icon" height="512" viewBox="0 0 128 128" width="512" xmlns="http://www.w3.org/2000/svg"><path d="m112.91 13.738h-99.264a4.863 4.863 0 0 0 -4.863 4.862v19.979h5.8v-18.841h97.4v18.376h5.8v-19.514a4.863 4.863 0 0 0 -4.873-4.862z" fill="#dbe2eb"/><path d="m14.579 39.578h-5.8a1 1 0 0 1 -1-1v-19.978a5.869 5.869 0 0 1 5.863-5.863h99.268a5.869 5.869 0 0 1 5.863 5.863v19.513a1 1 0 0 1 -1 1h-5.8a1 1 0 0 1 -1-1v-17.375h-95.4v17.84a1 1 0 0 1 -.994 1zm-4.8-2h3.8v-17.84a1 1 0 0 1 1-1h97.4a1 1 0 0 1 1 1v17.375h3.8v-18.513a3.867 3.867 0 0 0 -3.863-3.863h-99.27a3.867 3.867 0 0 0 -3.863 3.863z" fill="#2f3a5a"/><rect fill="#8ae0a1" height="76.383" rx="8.317" width="126" x="1" y="37.879"/><path d="m127 46.2v59.74a8.314 8.314 0 0 1 -8.32 8.32h-109.36a8.314 8.314 0 0 1 -8.09-6.38 8.261 8.261 0 0 0 3.65.84h109.37a8.318 8.318 0 0 0 8.31-8.32v-59.749a8.222 8.222 0 0 0 -.23-1.93 8.307 8.307 0 0 1 4.67 7.479z" fill="#6fc682"/><path d="m118.684 115.262h-109.368a9.328 9.328 0 0 1 -9.316-9.317v-59.745a9.328 9.328 0 0 1 9.316-9.317h109.368a9.328 9.328 0 0 1 9.316 9.317v59.749a9.328 9.328 0 0 1 -9.316 9.313zm-109.368-76.383a7.325 7.325 0 0 0 -7.316 7.321v59.749a7.325 7.325 0 0 0 7.316 7.317h109.368a7.325 7.325 0 0 0 7.316-7.321v-59.745a7.325 7.325 0 0 0 -7.316-7.317z" fill="#2f3a5a"/><circle cx="102.722" cy="84.071" fill="#dbe2eb" r="16.988"/><path d="m102.722 102.059a17.988 17.988 0 1 1 17.988-17.989 18.01 18.01 0 0 1 -17.988 17.989zm0-33.976a15.988 15.988 0 1 0 15.988 15.987 16.006 16.006 0 0 0 -15.988-15.987z" fill="#2f3a5a"/><circle cx="102.722" cy="84.071" fill="#b0b3c1" r="11.718"/><path d="m102.722 96.789a12.718 12.718 0 1 1 12.717-12.719 12.734 12.734 0 0 1 -12.717 12.719zm0-23.436a10.718 10.718 0 1 0 10.717 10.717 10.73 10.73 0 0 0 -10.717-10.717z" fill="#2f3a5a"/><circle cx="102.722" cy="84.071" fill="#707583" r="4.202"/><circle cx="25.118" cy="84.071" fill="#dbe2eb" r="16.828"/><path d="m25.118 101.9a17.828 17.828 0 1 1 17.827-17.83 17.849 17.849 0 0 1 -17.827 17.83zm0-33.655a15.828 15.828 0 1 0 15.827 15.825 15.846 15.846 0 0 0 -15.827-15.827z" fill="#2f3a5a"/><circle cx="25.118" cy="84.071" fill="#b0b3c1" r="11.607"/><path d="m25.118 96.679a12.608 12.608 0 1 1 12.608-12.609 12.622 12.622 0 0 1 -12.608 12.609zm0-23.216a10.608 10.608 0 1 0 10.608 10.607 10.62 10.62 0 0 0 -10.608-10.607z" fill="#2f3a5a"/><circle cx="25.118" cy="84.071" fill="#707583" r="4.163"/><path d="m22.752 33.023h12.33v4.815h-12.33z" fill="#dbe2eb"/><path d="m35.083 38.838h-12.331a1 1 0 0 1 -1-1v-4.816a1 1 0 0 1 1-1h12.331a1 1 0 0 1 1 1v4.816a1 1 0 0 1 -1 1zm-11.331-2h10.331v-2.816h-10.331z" fill="#2f3a5a"/><path d="m40.294 33.023h12.33v4.815h-12.33z" fill="#dbe2eb"/><path d="m52.624 38.838h-12.33a1 1 0 0 1 -1-1v-4.816a1 1 0 0 1 1-1h12.33a1 1 0 0 1 1 1v4.816a1 1 0 0 1 -1 1zm-11.33-2h10.33v-2.816h-10.33z" fill="#2f3a5a"/><path d="m57.835 33.023h12.33v4.815h-12.33z" fill="#dbe2eb"/><path d="m70.165 38.838h-12.33a1 1 0 0 1 -1-1v-4.816a1 1 0 0 1 1-1h12.33a1 1 0 0 1 1 1v4.816a1 1 0 0 1 -1 1zm-11.33-2h10.33v-2.816h-10.33z" fill="#2f3a5a"/><path d="m75.376 33.023h12.33v4.815h-12.33z" fill="#dbe2eb"/><path d="m87.706 38.838h-12.33a1 1 0 0 1 -1-1v-4.816a1 1 0 0 1 1-1h12.33a1 1 0 0 1 1 1v4.816a1 1 0 0 1 -1 1zm-11.33-2h10.33v-2.816h-10.33z" fill="#2f3a5a"/><path d="m92.917 33.023h12.33v4.815h-12.33z" fill="#dbe2eb"/><path d="m105.248 38.838h-12.331a1 1 0 0 1 -1-1v-4.816a1 1 0 0 1 1-1h12.331a1 1 0 0 1 1 1v4.816a1 1 0 0 1 -1 1zm-11.331-2h10.331v-2.816h-10.331z" fill="#2f3a5a"/><path d="m42.425 49.779h6.164v7.045h-6.164z" fill="#7399c7"/><path d="m48.589 57.824h-6.164a1 1 0 0 1 -1-1v-7.045a1 1 0 0 1 1-1h6.164a1 1 0 0 1 1 1v7.045a1 1 0 0 1 -1 1zm-5.164-2h4.164v-5.045h-4.164z" fill="#2f3a5a"/><path d="m54.753 49.779h6.164v7.045h-6.164z" fill="#7399c7"/><path d="m60.918 57.824h-6.164a1 1 0 0 1 -1-1v-7.045a1 1 0 0 1 1-1h6.164a1 1 0 0 1 1 1v7.045a1 1 0 0 1 -1 1zm-5.164-2h4.164v-5.045h-4.164z" fill="#2f3a5a"/><path d="m67.082 49.779h6.164v7.045h-6.164z" fill="#7399c7"/><path d="m73.246 57.824h-6.164a1 1 0 0 1 -1-1v-7.045a1 1 0 0 1 1-1h6.164a1 1 0 0 1 1 1v7.045a1 1 0 0 1 -1 1zm-5.164-2h4.164v-5.045h-4.164z" fill="#2f3a5a"/><path d="m79.411 49.779h6.164v7.045h-6.164z" fill="#7399c7"/><path d="m85.575 57.824h-6.164a1 1 0 0 1 -1-1v-7.045a1 1 0 0 1 1-1h6.164a1 1 0 0 1 1 1v7.045a1 1 0 0 1 -1 1zm-5.164-2h4.164v-5.045h-4.164z" fill="#2f3a5a"/><path d="m47.849 71.522h32.302v25.097h-32.302z" fill="#e1e6e9"/><path d="m80.151 97.619h-32.3a1 1 0 0 1 -1-1v-25.1a1 1 0 0 1 1-1h32.3a1 1 0 0 1 1 1v25.1a1 1 0 0 1 -1 1zm-31.3-2h30.3v-23.1h-30.3z" fill="#2f3a5a"/><path d="m52.938 80.924h22.124v6.294h-22.124z" fill="#9297ab"/></svg>