<svg id="icon" height="512" viewBox="0 0 128 128" width="512" xmlns="http://www.w3.org/2000/svg"><path d="m90.244 1c-33.916 2.457-31.487 59.273-31.487 59.273h11.822c-1.606-23.458 19.665-59.273 19.665-59.273z" fill="#5fa348"/><path d="m70.58 60.27h-11.82s-.01-.2-.02-.57h7.01c-1.41-20.51 14.68-50.48 18.74-57.68a27.156 27.156 0 0 1 5.75-1.02s-21.27 35.82-19.66 59.27z" fill="#51873d"/><path d="m70.579 61.273h-11.822a1 1 0 0 1 -1-.957 115.866 115.866 0 0 1 3.054-29c4.869-19.447 15.021-30.275 29.361-31.316a.988.988 0 0 1 .928.475 1 1 0 0 1 0 1.036c-.211.355-21.094 35.819-19.527 58.694a1 1 0 0 1 -1 1.068zm-10.846-2h9.79c-.829-20.78 14.7-49.7 18.873-57.07-28.281 4.028-28.765 49.829-28.663 57.07z" fill="#2f3a5a"/><path d="m38.083 5.879c33.917 2.457 31.487 54.394 31.487 54.394h-11.823c1.607-23.458-19.664-54.394-19.664-54.394z" fill="#5fa348"/><path d="m62.772 60.27h-5.022c1.6-23.453-19.664-54.391-19.664-54.391 2.077.149 4.883 2.669 6.479 4.584 3.847 4.459 19.621 29.084 18.207 49.807z" fill="#51873d"/><path d="m69.569 61.273h-11.822a1 1 0 0 1 -1-1.068c1.567-22.846-19.277-53.453-19.488-53.76a1 1 0 0 1 .9-1.563c34.49 2.5 32.438 54.909 32.413 55.438a1 1 0 0 1 -1.003.953zm-10.766-2h9.791c.1-6.847-.5-48.2-28.5-52.175 4.439 6.87 19.528 31.791 18.706 52.175z" fill="#2f3a5a"/><path d="m97.89 25.563c-31.258-.873-31.49 34.71-31.49 34.71h11.825c-1.607-17.543 19.665-34.71 19.665-34.71z" fill="#65b54e"/><path d="m78.225 60.27h-4.807c-1.505-16.446 17.1-32.561 19.424-34.505a35.648 35.648 0 0 1 5.047-.2s-21.269 17.167-19.664 34.705z" fill="#5c9e46"/><path d="m30.11 25.563c31.258-.873 31.49 34.71 31.49 34.71h-11.825c1.607-17.543-19.665-34.71-19.665-34.71z" fill="#65b54e"/><path d="m53.821 60.27h-4.046c1.605-17.538-19.664-34.7-19.664-34.7a38.075 38.075 0 0 1 4.17.108.008.008 0 0 1 .008.008c1.795 1.477 21.062 17.857 19.532 34.584z" fill="#5c9e46"/><path d="m78.225 61.273h-11.825a1 1 0 0 1 -1-1.006c0-.718.238-17.715 10.966-28.081 5.489-5.3 12.713-7.873 21.55-7.623a1 1 0 0 1 .6 1.778c-.208.168-20.836 17.039-19.3 33.842a1 1 0 0 1 -1 1.09zm-10.78-2h9.711c-.594-14.336 12.75-27.905 18.031-32.692-7.044.306-12.895 2.666-17.421 7.035-8.685 8.384-10.095 21.884-10.321 25.657z" fill="#2f3a5a"/><path d="m61.6 61.273h-11.825a1 1 0 0 1 -1-1.09c1.539-16.8-19.089-33.674-19.3-33.842a1 1 0 0 1 .6-1.778c8.824-.248 16.062 2.319 21.55 7.623 10.735 10.366 10.968 27.363 10.975 28.081a1 1 0 0 1 -1 1.006zm-10.754-2h9.711c-.228-3.773-1.638-17.273-10.323-25.657-4.526-4.369-10.378-6.729-17.421-7.035 5.281 4.787 18.625 18.356 18.031 32.692z" fill="#2f3a5a"/><path d="m94.315 93.918c0 .347 0 .695-.008 1.042a46.248 46.248 0 0 1 -2.085 12.856c-.3.968-.637 1.919-1 2.846-.5 1.265-1.042 2.465-1.63 3.648a.122.122 0 0 0 -.025.033c-.157.314-.314.62-.488.918v.017a36.3 36.3 0 0 1 -2.481 3.987c-.257.364-.53.712-.811 1.051a18.22 18.22 0 0 1 -3.028 2.9 18.821 18.821 0 0 1 -11.343 3.784h-14.916a18.649 18.649 0 0 1 -3.723-.372h-.007a18.536 18.536 0 0 1 -5.377-1.969 18.206 18.206 0 0 1 -6.072-5.394 36 36 0 0 1 -1.986-3.1 34.315 34.315 0 0 1 -1.646-3.2c-.405-.835-.761-1.687-1.092-2.564v-.008a43.619 43.619 0 0 1 -1.588-4.972 47.641 47.641 0 0 1 -1.043-5.551c-.165-1.34-.273-2.713-.33-4.095-.025-.612-.034-1.233-.034-1.853a47.652 47.652 0 0 1 .389-6.1c.141-1.108.323-2.192.538-3.268a44.043 44.043 0 0 1 1.853-6.576 36.049 36.049 0 0 1 13.311-17.7h28.532c.769.513 1.514 1.067 2.242 1.663.678.546 1.34 1.142 1.985 1.754a36.358 36.358 0 0 1 7.114 9.778c.563 1.092 1.076 2.225 1.539 3.384a45.093 45.093 0 0 1 3.011 12.7q.199 2.143.199 4.361z" fill="#f7b521"/><g fill="#ffc943"><path d="m64.12 60.273c-1.977 2.176-4.045 4.41-6.163 6.685-2.168-2.3-4.269-4.542-6.254-6.685z"/><path d="m80.467 61.936c-1.713 1.746-3.516 3.59-5.386 5.518-2.25-2.407-4.459-4.806-6.585-7.181h9.729c.769.513 1.514 1.067 2.242 1.663z"/><path d="m48.725 77.752c-2.482-2.467-4.885-4.839-7.173-7.067 2.738-2.84 5.426-5.713 8.028-8.569 2.235 2.355 4.6 4.839 7.049 7.4-2.573 2.732-5.22 5.492-7.904 8.236z"/><path d="m66.521 77.431c-2.616-2.694-5.18-5.367-7.657-7.97 2.549-2.7 5.02-5.36 7.379-7.928 2.479 2.731 5.056 5.516 7.7 8.307-2.387 2.44-4.872 4.986-7.422 7.591z"/><path d="m89.566 73.468q-2.53 2.32-5.253 4.906c-2.746-2.755-5.468-5.559-8.14-8.364 2.2-2.217 4.294-4.343 6.279-6.32a36.358 36.358 0 0 1 7.114 9.778z"/><path d="m47.624 81.129c-2.7 2.721-5.418 5.41-8.132 8.032q-2.53-2.382-4.963-4.608a44.043 44.043 0 0 1 1.853-6.576c1.324-1.3 2.639-2.623 3.938-3.946 2.341 2.233 4.79 4.624 7.304 7.098z"/><path d="m57.7 88.766c-2.628-2.631-5.226-5.227-7.756-7.739 2.681-2.718 5.333-5.454 7.919-8.159 2.5 2.594 5.089 5.256 7.716 7.937-2.589 2.623-5.227 5.295-7.879 7.961z"/><path d="m75.9 88.9c-2.685-2.664-5.366-5.368-8.007-8.062 2.57-2.6 5.084-5.139 7.5-7.575 2.671 2.777 5.393 5.546 8.131 8.26-2.47 2.354-5.024 4.83-7.624 7.377z"/><path d="m94.116 89.55-.016.017c-2.738-2.532-5.5-5.171-8.256-7.876 1.812-1.7 3.565-3.317 5.261-4.839a45.093 45.093 0 0 1 3.011 12.698z"/><path d="m38.078 91.6q-2.234 2.133-4.442 4.169c-.025-.612-.034-1.233-.034-1.853a47.652 47.652 0 0 1 .389-6.1q2.009 1.841 4.087 3.784z"/><path d="m48.357 99.2c-2.666-2.622-5.318-5.193-7.92-7.663 2.7-2.6 5.405-5.271 8.1-7.974 2.549 2.51 5.16 5.1 7.8 7.733-2.669 2.665-5.337 5.316-7.98 7.904z"/><path d="m66.641 99.24c-2.65-2.645-5.314-5.312-7.955-7.954 2.656-2.662 5.3-5.326 7.9-7.945 2.643 2.681 5.32 5.372 8 8.023-2.63 2.579-5.286 5.221-7.945 7.876z"/><path d="m84.925 99.13c-2.635-2.5-5.31-5.089-7.99-7.731 2.617-2.555 5.195-5.039 7.7-7.4 2.736 2.681 5.479 5.3 8.194 7.8-2.585 2.321-5.229 4.782-7.904 7.331z"/><path d="m47.385 102.513c-2.623 2.556-5.2 5.046-7.7 7.4-1.564-1.53-3.119-3.036-4.674-4.5a47.641 47.641 0 0 1 -1.043-5.551c1.787-1.638 3.6-3.342 5.427-5.079 2.629 2.502 5.305 5.091 7.99 7.73z"/><path d="m57.734 110.575c-2.643-2.681-5.32-5.372-8-8.023 2.623-2.579 5.281-5.221 7.938-7.876 2.65 2.645 5.314 5.312 7.955 7.954-2.652 2.662-5.296 5.326-7.893 7.945z"/><path d="m75.784 110.351c-2.549-2.51-5.16-5.1-7.8-7.733 2.662-2.663 5.331-5.314 7.973-7.9 2.666 2.622 5.318 5.193 7.92 7.663-2.692 2.593-5.403 5.267-8.093 7.97z"/><path d="m94.307 94.96a46.248 46.248 0 0 1 -2.085 12.856c-1.952-1.746-3.954-3.59-5.989-5.5 2.7-2.573 5.385-5.063 8.007-7.413.025.016.042.041.067.057z"/><path d="m48.92 120.652c-2.671-2.777-5.393-5.546-8.131-8.26 2.474-2.353 5.029-4.829 7.628-7.377 2.685 2.664 5.366 5.368 8.007 8.062-2.57 2.598-5.084 5.139-7.504 7.575z"/><path d="m66.458 121.048c-2.5-2.594-5.089-5.256-7.716-7.936 2.585-2.624 5.223-5.294 7.879-7.962 2.628 2.631 5.226 5.227 7.756 7.739-2.677 2.718-5.333 5.454-7.919 8.159z"/><path d="m91.221 110.662c-.5 1.265-1.042 2.465-1.63 3.648a.122.122 0 0 0 -.025.033 1.809 1.809 0 0 0 -.488.918v.017a36.3 36.3 0 0 1 -2.481 3.987c-.257.364-.53.712-.811 1.051-3.243-2.623-7.4-5.866-9.092-7.528 2.7-2.722 5.419-5.411 8.132-8.033 2.184 2.06 4.327 4.045 6.395 5.907z"/><path d="m48.137 123.906c-.248.248-.5.5-.744.753a18.206 18.206 0 0 1 -6.072-5.394 36 36 0 0 1 -1.986-3.1c.224-.2.439-.405.662-.621 2.755 2.756 5.477 5.556 8.14 8.362z"/><path d="m65.452 124.452c-.8.852-1.6 1.7-2.391 2.548h-6.561a18.649 18.649 0 0 1 -3.723-.372h-.007c-.786-.852-1.588-1.7-2.391-2.548 2.383-2.441 4.865-4.989 7.421-7.594 2.614 2.696 5.178 5.368 7.652 7.966z"/><path d="m82.758 123.219a18.821 18.821 0 0 1 -11.342 3.781h-1.249c-.81-.852-1.638-1.729-2.482-2.606 2.573-2.722 5.22-5.485 7.909-8.231 2.482 2.465 4.873 4.831 7.164 7.056z"/><path d="m66.4 127h-.083l.042-.041z"/><path d="m64.12 60.273c-1.977 2.176-4.045 4.41-6.163 6.685-2.168-2.3-4.269-4.542-6.254-6.685z"/><path d="m80.467 61.936c-1.713 1.746-3.516 3.59-5.386 5.518-2.25-2.407-4.459-4.806-6.585-7.181h9.729c.769.513 1.514 1.067 2.242 1.663z"/><path d="m47.624 81.129c-2.7 2.721-5.418 5.41-8.132 8.032q-2.53-2.382-4.963-4.608a44.043 44.043 0 0 1 1.853-6.576c1.324-1.3 2.639-2.623 3.938-3.946 2.341 2.233 4.79 4.624 7.304 7.098z"/><path d="m57.7 88.766c-2.628-2.631-5.226-5.227-7.756-7.739 2.681-2.718 5.333-5.454 7.919-8.159 2.5 2.594 5.089 5.256 7.716 7.937-2.589 2.623-5.227 5.295-7.879 7.961z"/><path d="m75.9 88.9c-2.685-2.664-5.366-5.368-8.007-8.062 2.57-2.6 5.084-5.139 7.5-7.575 2.671 2.777 5.393 5.546 8.131 8.26-2.47 2.354-5.024 4.83-7.624 7.377z"/><path d="m94.116 89.55-.016.017c-2.738-2.532-5.5-5.171-8.256-7.876 1.812-1.7 3.565-3.317 5.261-4.839a45.093 45.093 0 0 1 3.011 12.698z"/><path d="m38.078 91.6q-2.234 2.133-4.442 4.169c-.025-.612-.034-1.233-.034-1.853a47.652 47.652 0 0 1 .389-6.1q2.009 1.841 4.087 3.784z"/><path d="m48.357 99.2c-2.666-2.622-5.318-5.193-7.92-7.663 2.7-2.6 5.405-5.271 8.1-7.974 2.549 2.51 5.16 5.1 7.8 7.733-2.669 2.665-5.337 5.316-7.98 7.904z"/><path d="m66.641 99.24c-2.65-2.645-5.314-5.312-7.955-7.954 2.656-2.662 5.3-5.326 7.9-7.945 2.643 2.681 5.32 5.372 8 8.023-2.63 2.579-5.286 5.221-7.945 7.876z"/><path d="m84.925 99.13c-2.635-2.5-5.31-5.089-7.99-7.731 2.617-2.555 5.195-5.039 7.7-7.4 2.736 2.681 5.479 5.3 8.194 7.8-2.585 2.321-5.229 4.782-7.904 7.331z"/><path d="m47.385 102.513c-2.623 2.556-5.2 5.046-7.7 7.4-1.564-1.53-3.119-3.036-4.674-4.5a47.641 47.641 0 0 1 -1.043-5.551c1.787-1.638 3.6-3.342 5.427-5.079 2.629 2.502 5.305 5.091 7.99 7.73z"/><path d="m57.734 110.575c-2.643-2.681-5.32-5.372-8-8.023 2.623-2.579 5.281-5.221 7.938-7.876 2.65 2.645 5.314 5.312 7.955 7.954-2.652 2.662-5.296 5.326-7.893 7.945z"/><path d="m75.784 110.351c-2.549-2.51-5.16-5.1-7.8-7.733 2.662-2.663 5.331-5.314 7.973-7.9 2.666 2.622 5.318 5.193 7.92 7.663-2.692 2.593-5.403 5.267-8.093 7.97z"/><path d="m94.307 94.96a46.248 46.248 0 0 1 -2.085 12.856c-1.952-1.746-3.954-3.59-5.989-5.5 2.7-2.573 5.385-5.063 8.007-7.413.025.016.042.041.067.057z"/><path d="m48.92 120.652c-2.671-2.777-5.393-5.546-8.131-8.26 2.474-2.353 5.029-4.829 7.628-7.377 2.685 2.664 5.366 5.368 8.007 8.062-2.57 2.598-5.084 5.139-7.504 7.575z"/><path d="m66.458 121.048c-2.5-2.594-5.089-5.256-7.716-7.936 2.585-2.624 5.223-5.294 7.879-7.962 2.628 2.631 5.226 5.227 7.756 7.739-2.677 2.718-5.333 5.454-7.919 8.159z"/><path d="m91.221 110.662c-.5 1.265-1.042 2.465-1.63 3.648a.122.122 0 0 0 -.025.033 1.809 1.809 0 0 0 -.488.918v.017a36.3 36.3 0 0 1 -2.481 3.987c-.257.364-.53.712-.811 1.051-3.243-2.623-7.4-5.866-9.092-7.528 2.7-2.722 5.419-5.411 8.132-8.033 2.184 2.06 4.327 4.045 6.395 5.907z"/><path d="m48.137 123.906c-.248.248-.5.5-.744.753a18.206 18.206 0 0 1 -6.072-5.394 36 36 0 0 1 -1.986-3.1c.224-.2.439-.405.662-.621 2.755 2.756 5.477 5.556 8.14 8.362z"/><path d="m65.452 124.452c-.8.852-1.6 1.7-2.391 2.548h-6.561a18.649 18.649 0 0 1 -3.723-.372h-.007c-.786-.852-1.588-1.7-2.391-2.548 2.383-2.441 4.865-4.989 7.421-7.594 2.614 2.696 5.178 5.368 7.652 7.966z"/><path d="m82.758 123.219a18.821 18.821 0 0 1 -11.342 3.781h-1.249c-.81-.852-1.638-1.729-2.482-2.606 2.573-2.722 5.22-5.485 7.909-8.231 2.482 2.465 4.873 4.831 7.164 7.056z"/><path d="m66.4 127h-.083l.042-.041z"/></g><path d="m66.4 127.5h-.082a.5.5 0 0 1 -.354-.854.554.554 0 0 1 .748-.041.543.543 0 0 1 .129.566.493.493 0 0 1 -.441.329z" fill="#2f3a5a"/><path d="m71.416 128h-14.916a19.741 19.741 0 0 1 -3.844-.376l-.08-.015a19.532 19.532 0 0 1 -5.667-2.074 19.114 19.114 0 0 1 -6.4-5.689 37.232 37.232 0 0 1 -2.04-3.188 35.563 35.563 0 0 1 -1.69-3.288c-.378-.779-.747-1.645-1.115-2.62l-.064-.175a45.032 45.032 0 0 1 -1.557-4.91 48.748 48.748 0 0 1 -1.065-5.674c-.164-1.324-.278-2.729-.338-4.178-.027-.626-.034-1.261-.034-1.895a48.765 48.765 0 0 1 .4-6.225c.14-1.095.319-2.187.55-3.337a45.094 45.094 0 0 1 1.894-6.724 37.2 37.2 0 0 1 13.693-18.19l.253-.169h29.131l.252.168c.774.515 1.554 1.094 2.321 1.721.62.5 1.29 1.091 2.04 1.8a37.19 37.19 0 0 1 7.319 10.054c.561 1.087 1.092 2.255 1.575 3.461a46.082 46.082 0 0 1 3.078 12.98c.134 1.447.2 2.947.2 4.459 0 .355 0 .71-.007 1.064a47.225 47.225 0 0 1 -2.131 13.134c-.287.932-.632 1.913-1.025 2.912-.47 1.2-1.014 2.419-1.665 3.727l-.079.141c-.122.244-.251.493-.389.738l-.058.115a37.576 37.576 0 0 1 -2.55 4.1c-.268.381-.556.749-.854 1.107a19.356 19.356 0 0 1 -3.193 3.062 19.919 19.919 0 0 1 -11.945 3.984zm-18.548-2.372.111.02a17.612 17.612 0 0 0 3.521.352h14.916a17.908 17.908 0 0 0 10.739-3.578 17.378 17.378 0 0 0 2.86-2.743c.266-.322.523-.649.765-.991a35.37 35.37 0 0 0 2.3-3.664v-.018l.137-.25c.163-.278.309-.566.457-.86l.078-.142c.6-1.213 1.1-2.345 1.54-3.457.374-.952.7-1.886.976-2.776a45.2 45.2 0 0 0 2.041-12.583c.007-.339.007-.68.007-1.02 0-1.45-.065-2.889-.194-4.275a44.091 44.091 0 0 0 -2.942-12.419c-.461-1.149-.965-2.258-1.5-3.3a35.256 35.256 0 0 0 -6.921-9.518c-.7-.666-1.333-1.222-1.917-1.693-.64-.523-1.283-1.005-1.921-1.442h-27.921a35.316 35.316 0 0 0 -12.68 17.05 43.179 43.179 0 0 0 -1.81 6.428c-.221 1.1-.394 2.148-.527 3.2a46.649 46.649 0 0 0 -.38 5.971c0 .606.007 1.214.032 1.811.058 1.395.167 2.746.324 4.014a47.053 47.053 0 0 0 1.02 5.433 42.8 42.8 0 0 0 1.55 4.85l.068.187c.325.85.65 1.607.992 2.312a33.688 33.688 0 0 0 1.611 3.136 35.045 35.045 0 0 0 1.935 3.024 17.1 17.1 0 0 0 5.74 5.1 17.581 17.581 0 0 0 4.993 1.841z" fill="#2f3a5a"/></svg>